<svg xmlns="http://www.w3.org/2000/svg" xmlns:xlink="http://www.w3.org/1999/xlink" x="0px" y="0px" viewBox="0 0 100 100" style="enable-background:new 0 0 100 100;" xml:space="preserve"><g>	<path d="M49.7,2.9c15.7,14.3,31.5,28.5,47.2,42.8c0.6,1.2,0.7,2.3,0.2,3.6c-0.1,0.3-0.3,0.6-0.4,1c-0.4,0.4-0.8,0.9-1.2,1.3  c-0.1,0.1-0.3,0.1-0.4,0.2c-1.9,1.2-3.4,1.1-5.1-0.4c-2.4-2.2-4.9-4.4-7.3-6.6c-0.2-0.2-0.4-0.4-0.6-0.5c-0.4,0.4-0.7,0.7-1,1.1  c0.6,0.5,1.1,1,1.6,1.5c0.8,0.8,1.2,1.7,1.3,2.8c0.1,1.8-2.5,4.8-4.3,4.7c-0.8,0-1.6-0.2-2.3-0.3c1,1.5,0.9,3.1-0.3,4.7  c-1.5,1.8-3.2,3-5.7,1.7c0.8,1.4,1.1,2.6,0.4,3.9c-0.3,0.6-0.8,1.1-1.2,1.7c-1.6,2-4.2,2.1-5.9,0.3c-0.4-0.4-0.9-0.8-1.4-1.2  c-5.3,5.9-10.6,11.7-15.9,17.5c0.2,0.2,0.4,0.4,0.6,0.6c2.5,2.3,5.1,4.6,7.6,6.9c1,0.9,1.3,1.9,1,3.2c-0.1,0.7-0.5,1.3-0.7,2  c-0.4,0.4-0.8,0.9-1.2,1.3c-1.4,0.9-2.8,1.4-4.5,0.7C34.6,82.9,18.8,68.6,3.1,54.3c-0.6-1.2-0.7-2.3-0.2-3.6c0.1-0.3,0.3-0.6,0.4-1  c0.4-0.4,0.8-0.9,1.2-1.3c0.1-0.1,0.2-0.1,0.3-0.2c1.9-1.3,3.5-1.2,5.1,0.3c2.5,2.2,4.9,4.5,7.4,6.7c0.2,0.2,0.4,0.3,0.6,0.5  c5.3-5.9,10.6-11.7,15.9-17.5c-0.6-0.5-1.1-1-1.7-1.5c-1.6-1.5-1.7-3.5-0.4-5.2c0.2-0.3,0.5-0.6,0.8-0.9c1.5-1.6,2.9-1.9,4.9-1.1  c0,0,0.1,0,0.1-0.1c-1-1.9-0.9-3.3,0.4-4.8c2-2.3,3-2.6,5.7-1.6c-0.9-1.2-1.1-2.6-0.4-3.9c0.3-0.6,0.7-1.1,1.2-1.6  c1.9-2.1,3.9-2.2,6-0.3c0.4,0.4,0.9,0.8,1.3,1.2c0.4-0.4,0.7-0.7,1-1.1c-0.2-0.2-0.4-0.4-0.6-0.5c-2.5-2.3-5-4.6-7.6-6.9  c-1.2-1.1-1.5-2.4-1-3.9c0.1-0.5,0.4-0.9,0.6-1.4c0.4-0.4,0.8-0.9,1.2-1.3C46.6,2.7,48.1,2.2,49.7,2.9z M69.9,47.1  c-1-1.5-1.1-2.9-0.3-4.3c0.3-0.6,0.8-1,1.3-1.5c1.6-1.7,3.8-1.8,5.5-0.3c0.5,0.4,1,0.9,1.5,1.3c0.3-0.4,0.6-0.7,1-1.1  c-3.3-3-6.6-6-9.9-9C63.6,38.1,58.4,43.9,53,49.8c0.6,0.6,1.3,1.1,1.9,1.7c1.2,1.2,1.5,3,0.6,4.4c-0.4,0.6-0.9,1.2-1.5,1.8  c-1.1,1.2-2.7,1.5-4.2,0.9c-0.2-0.1-0.3-0.1-0.6-0.2c0.9,1.5,1.1,2.9,0.1,4.2c-0.5,0.8-1.2,1.5-2,2.1c-1,0.8-2.3,0.9-3.5,0.4  c-0.2-0.1-0.4-0.2-0.7-0.3c0.8,1.2,1.1,2.5,0.5,3.8c-0.2,0.5-0.6,1-1,1.4c-1.9,2.5-4.6,2.5-6.6,0.3c-0.3-0.3-0.7-0.6-1-0.9  c-0.4,0.4-0.6,0.7-1,1.1c3.3,3,6.6,6,9.9,9C49.4,73.7,54.7,67.9,60,62c-0.6-0.6-1.2-1-1.7-1.6c-1.4-1.4-1.5-3.5-0.2-5  c0.4-0.4,0.8-0.9,1.2-1.3c1.1-1.1,2.4-1.4,3.9-0.9c0.2,0.1,0.4,0.1,0.7,0.3c-0.8-1.4-1.1-2.7-0.3-4c0.6-0.9,1.4-1.8,2.2-2.4  C67,46.2,68.4,46.3,69.9,47.1z M54.9,21.6c2.1,1.7,4,3.5,2.1,6.3c-0.6,1-1.4,1.9-2.6,2.4c-1.2,0.5-2.3,0.3-3.5-0.3  c1,1.5,1.2,2.9,0.3,4.3c-0.4,0.6-0.9,1.2-1.4,1.7c-1.1,1.2-2.6,1.5-4.2,0.9c-0.1-0.1-0.3-0.1-0.6-0.2c0.9,1.4,1,2.8,0.2,4.2  c-0.3,0.6-0.9,1-1.3,1.5c-1.5,1.7-3.7,1.8-5.4,0.3c-0.5-0.4-1-0.9-1.5-1.4c-5.3,5.9-10.6,11.7-15.9,17.5c3.3,3,6.5,5.9,9.8,8.9  c0.3-0.4,0.6-0.7,1-1.1c-2.1-1.7-4-3.5-2.1-6.4c0.6-1,1.4-1.9,2.6-2.3c1.2-0.4,2.3-0.3,3.5,0.4c-1-1.5-1.2-2.9-0.3-4.4  c0.5-0.8,1.2-1.5,2-2.1c1-0.8,2.2-0.9,3.5-0.5c0.2,0.1,0.4,0.1,0.7,0.3c-0.8-1.3-1-2.6-0.4-3.8c0.3-0.6,0.8-1.1,1.2-1.6  c1.4-1.9,4.1-2.4,6.1-0.3c0.4,0.4,0.8,0.7,1.2,1.1c5.3-5.9,10.6-11.7,15.9-17.5c-3.3-3-6.5-5.9-9.8-8.9  C55.6,20.8,55.3,21.2,54.9,21.6z M31.7,70.3c-7.6-6.9-15.2-13.8-22.9-20.7c-0.9-0.8-1.6-0.9-2.6-0.4c-0.6,0.4-1.3,0.9-1.7,1.5  c-0.9,1.3-0.7,2.3,0.5,3.4c2.1,1.9,4.3,3.9,6.4,5.8c13,11.8,26,23.6,39,35.4c0.6,0.6,1.3,0.8,2,0.5c0.4-0.1,0.8-0.3,1.2-0.6  c1.8-1.3,1.9-3.2,0.3-4.7C46.6,83.8,39.1,77,31.7,70.3z M72.3,25.4c-7.6-6.9-15.2-13.7-22.8-20.6c-0.9-0.8-1.7-0.9-2.8-0.3  c-0.9,0.5-1.6,1.3-1.9,2.3c-0.3,0.9-0.1,1.6,0.6,2.3C60.7,22.8,76,36.7,91.2,50.5c0.7,0.7,1.5,0.8,2.4,0.4c0.7-0.4,1.4-1,1.8-1.6  c0.9-1.3,0.7-2.3-0.5-3.4C87.4,39,79.8,32.2,72.3,25.4z M78.5,44.9c-1.1-1-2.1-1.9-3.2-2.9c-1.1-1-2.4-0.9-3.3,0.1  c-0.3,0.3-0.6,0.6-0.9,1c-0.9,1-0.9,2.3,0.1,3.1c2.2,2,4.4,4,6.6,6c1,0.9,2.2,0.8,3.2-0.2c0.3-0.3,0.6-0.6,0.8-0.9  c1-1.2,1-2.4-0.2-3.5C80.6,46.8,79.6,45.9,78.5,44.9z M34.6,66.9c1.1,1,2.1,1.9,3.2,2.9c0,0,0,0,0.1,0c1.1,0.9,2.4,0.9,3.3-0.2  c0.3-0.3,0.6-0.6,0.9-1c0.9-1,0.9-2.3-0.1-3.2c-2.2-2-4.4-4-6.6-6c-1-0.9-2.3-0.7-3.1,0.2c-0.3,0.3-0.5,0.6-0.8,0.9  c-1,1.1-0.9,2.4,0.2,3.4C32.5,65.1,33.6,66,34.6,66.9z M52.3,21.2c-1.1-1-2.2-2-3.3-3c-1-0.9-2.3-0.8-3.2,0.1  c-0.3,0.3-0.7,0.7-1,1.1c-0.8,1-0.8,2.3,0.1,3.1c2.2,2,4.4,4,6.6,6c1,0.9,2.2,0.7,3.1-0.2c0.3-0.3,0.5-0.6,0.8-0.9  c1-1.1,1-2.4-0.2-3.4C54.4,23,53.3,22.1,52.3,21.2z M40.3,34.3c-1.1-1-2.1-1.9-3.2-2.9c-1-0.9-2.3-0.8-3.2,0.1  c-0.3,0.4-0.7,0.7-1,1.1c-0.8,0.9-0.8,2.2,0.1,2.9c2.3,2.1,4.5,4.2,6.9,6.2c0.8,0.7,2.1,0.6,2.9-0.2c0.3-0.3,0.6-0.7,1-1  c1-1.1,0.9-2.3-0.1-3.3C42.5,36.2,41.4,35.2,40.3,34.3z M46.5,53.8c1.1,1,2.2,2,3.3,3c0.9,0.8,2.2,0.8,3.1-0.2  c0.3-0.4,0.7-0.7,1-1.1c0.8-0.9,0.8-2.2-0.1-3c-2.2-2.1-4.5-4.2-6.8-6.2c-0.9-0.8-2.1-0.6-2.9,0.2c-0.3,0.3-0.6,0.7-0.9,1  c-1,1.1-0.9,2.4,0.2,3.3C44.4,51.9,45.5,52.9,46.5,53.8z M42.3,32c1.1,1,2.2,2,3.3,3c1,0.9,2.2,0.8,3.1-0.1c0.3-0.3,0.6-0.7,1-1.1  c0.9-1,0.9-2.2-0.1-3.1c-2.2-2-4.4-4.1-6.7-6c-0.9-0.8-2.2-0.7-3.1,0.2c-0.3,0.3-0.6,0.7-0.9,1c-1,1.1-0.9,2.4,0.2,3.3  C40.2,30.1,41.2,31.1,42.3,32z M66.6,58.1C66.6,58.1,66.6,58.1,66.6,58.1c-1.1-1-2.2-2-3.3-3c-0.9-0.8-2.2-0.7-3,0.1  c-0.3,0.4-0.7,0.7-1,1.1c-0.9,1-0.8,2.2,0.1,3.1c2.2,2,4.4,4,6.6,6c1,0.9,2.2,0.8,3.1-0.2c0.3-0.3,0.6-0.7,0.9-1  c0.9-1,0.8-2.3-0.2-3.3C68.7,60,67.7,59,66.6,58.1z M68.6,55.9c1.1,1,2.1,1.9,3.2,2.9c1,0.9,2.3,0.8,3.2-0.1  c0.2-0.2,0.5-0.5,0.7-0.7c1.2-1.3,1.1-2.5-0.2-3.7c-1.3-1.2-2.6-2.3-3.9-3.5c-0.8-0.7-1.5-1.4-2.3-2.1c-1.1-0.9-2.3-0.9-3.3,0.2  c-0.3,0.3-0.5,0.6-0.8,0.9c-0.9,1.1-0.9,2.3,0.2,3.3C66.5,54,67.5,54.9,68.6,55.9z M44.6,56c-1.1-1-2.2-2-3.3-3  c-0.9-0.8-2.2-0.8-3.1,0.1c-0.3,0.3-0.6,0.6-0.9,1c-1,1.1-1,2.4,0.1,3.4c0.9,0.8,1.8,1.6,2.7,2.4c1.2,1.1,2.5,2.3,3.7,3.4  c1.1,0.9,2.3,0.9,3.3-0.2c0.3-0.3,0.5-0.6,0.8-0.9c1-1.1,0.9-2.4-0.1-3.3C46.7,57.9,45.6,57,44.6,56z M35.9,40.3  c-0.4-0.3-0.6-0.6-0.9-0.8C29.7,45.2,24.4,51,19.1,56.9c0.3,0.3,0.6,0.6,0.9,0.8C25.3,51.9,30.6,46.1,35.9,40.3z M61.1,63.1  C55.8,69,50.6,74.8,45.3,80.6c0.2,0.2,0.3,0.3,0.4,0.5c0.1,0.1,0.3,0.2,0.5,0.4c5.3-5.8,10.6-11.7,15.8-17.5  C61.7,63.6,61.4,63.4,61.1,63.1z M66.9,30.4C61.5,36.3,56.3,42.1,51,47.9c0.3,0.3,0.6,0.5,0.9,0.8c5.3-5.8,10.6-11.6,15.8-17.5  C67.4,30.9,67.2,30.7,66.9,30.4z M53.8,20.5c0.3-0.3,0.6-0.7,0.9-1c-0.3-0.3-0.6-0.6-0.9-0.8c-0.3,0.4-0.6,0.7-1,1.1  c0.2,0.2,0.5,0.4,0.7,0.6C53.6,20.3,53.7,20.4,53.8,20.5z M80.9,43.2c-0.9-1.1-1.1-1-1.8,0.2c0.3,0.3,0.6,0.5,0.9,0.8  C80.3,43.8,80.6,43.5,80.9,43.2z M33.1,69.5c0.3-0.4,0.6-0.7,0.9-1c-0.3-0.3-0.6-0.5-0.9-0.8c-0.3,0.4-0.6,0.7-0.9,1  C32.4,68.9,32.7,69.2,33.1,69.5z"></path></g></svg>