<svg xmlns="http://www.w3.org/2000/svg" id="Capa_1" height="512" viewBox="0 0 512 512" width="512"><g><g><path d="m242.556 20.826c-11.108 1.79-18.662 12.246-16.872 23.354l13.345 82.817 40.225-6.482-13.344-82.817c-1.79-11.108-12.246-18.662-23.354-16.872z" fill="#d49c8d"></path><path d="m333.329 97.247c-21.029-4.022-41.835-2.208-60.51 5.464-8.376 3.441-17.775 3.441-26.151 0-18.674-7.672-39.481-9.487-60.51-5.464-56.067 10.725-92.47 58.859-75.789 131.571 16.681 72.711 80.13 142.465 136.197 131.74 1.311-.251 2.606-.544 3.885-.878 6.106-1.596 12.478-1.596 18.584 0 1.279.334 2.574.627 3.885.878 56.067 10.725 119.516-59.029 136.197-131.74 16.682-72.712-19.721-120.846-75.788-131.571z" fill="#ef8bbd"></path><path d="m333.329 97.247c-15.551-2.975-30.979-2.748-45.514.671 40.632 10.203 66.227 46.842 53.779 101.099-12.962 56.498-62.263 110.698-105.827 102.364-1.019-.195-2.025-.423-3.018-.682-4.744-1.24-9.696-1.24-14.44 0-.994.26-2 .488-3.018.682-43.565 8.334-92.866-45.866-105.827-102.364-1.253-5.461-2.116-10.741-2.622-15.836-1.304 13.842-.264 29.102 3.53 45.637 16.681 72.711 80.13 142.465 136.197 131.74 1.311-.251 2.606-.544 3.885-.878 6.106-1.595 12.478-1.595 18.584 0 1.279.334 2.574.627 3.885.878 56.067 10.725 119.516-59.029 136.197-131.74 16.679-72.712-19.724-120.846-75.791-131.571z" fill="#e068bd"></path><ellipse cx="346.426" cy="84.924" fill="#a1e8c3" rx="81.264" ry="45.574" transform="matrix(.959 -.285 .285 .959 -9.835 102.274)"></ellipse><path d="m424.319 61.759c-4.539-15.263-47.865-33.312-90.883-20.518-3.114.926-6.127 2.011-9.058 3.204 26.806-4.677 51.76 6.476 54.606 16.046 3.131 10.528-15.094 37.285-44.768 46.11s-59.862-4.646-62.69-14.153c-.013-.043-.018-.093-.03-.137-2.978 6.468-4.062 12.08-2.962 15.777 4.099 13.783 47.864 33.312 90.883 20.518 43.019-12.793 69.441-51.584 64.902-66.847z" fill="#71afc4"></path><path d="m106.299 399.245h351.642v71.779h-351.642z" fill="#b2e7f1"></path><path d="m417.211 501.891h-337.106c-10.405 0-18.841-8.435-18.841-18.841 0-10.405 8.435-18.841 18.841-18.841h337.106c17.021 0 30.868-13.848 30.868-30.868 0-17.022-13.847-30.869-30.868-30.869h-337.106c-10.405 0-18.841-8.435-18.841-18.841s8.435-18.841 18.841-18.841h337.106c37.798 0 68.55 30.752 68.55 68.55 0 37.8-30.751 68.551-68.55 68.551z" fill="#ffe266"></path><path d="m417.211 364.791h-42.808c31.336 0 38.786 22.3 38.786 49.709 0 27.41-25.494 49.708-56.831 49.708h-276.254c-10.405.001-18.839 8.436-18.839 18.841s8.435 18.841 18.841 18.841h337.106c37.798 0 68.55-30.751 68.55-68.549-.001-37.798-30.752-68.55-68.551-68.55z" fill="#a7adf1"></path><path d="m485.761 433.341c0-37.798-30.751-68.55-68.55-68.55h-60.852c26.595 0 48.973 16.065 55.139 37.681h5.714c17.021 0 30.868 13.847 30.868 30.869 0 17.02-13.847 30.868-30.868 30.868h-337.107c-.607 0-1.205.035-1.797.091-.043.004-.087.002-.129.007-9.5.965-16.914 8.989-16.914 18.743 0 10.405 8.435 18.841 18.841 18.841h.002 337.104c37.798-.001 68.549-30.752 68.549-68.55z" fill="#efaa66"></path></g><g><g fill="#440a29"><path d="m235.665 42.572c-.9-5.587 2.912-10.865 8.499-11.764 5.595-.899 10.864 2.912 11.765 8.498l10.906 67.684c1.387-1.594 2.692-3.288 3.929-5.013 3.506-8.61 8.605-16.503 11.626-25.548l-6.5-40.34c-2.674-16.594-18.355-27.914-34.943-25.244-16.594 2.675-27.918 18.349-25.244 34.943l8.863 55.004c6.915 2.056 14.117 3.211 21.23 4.656z"></path><path d="m406.013 132.762c-3.578-5.483-7.696-10.56-12.282-15.204-5.416 4.236-11.014 8.242-16.878 11.737 4.622 4.317 8.726 9.152 12.226 14.516 14.118 21.636 17.639 50.249 10.185 82.745-7.698 33.553-26.635 68.059-50.657 92.304-24.288 24.513-51.185 36.099-73.787 31.767-1.081-.206-2.165-.452-3.228-.73-3.876-1.013-7.861-1.519-11.847-1.519-3.987 0-7.975.507-11.852 1.52-1.061.277-2.146.522-3.225.729-22.601 4.328-49.499-7.253-73.787-31.767-24.022-24.244-42.959-58.75-50.657-92.304-7.455-32.496-3.933-61.109 10.185-82.745 12.49-19.142 32.425-31.811 57.65-36.636 19.14-3.66 38.079-1.972 54.768 4.886 9.036 3.712 18.828 4.34 28.124 1.903-.825-2.879-1.057-6.039-.671-9.378.515-4.452 1.915-8.721 3.301-12.983-1.547.554-3.085 1.131-4.604 1.755-5.953 2.447-12.512 2.447-18.466 0-20.335-8.353-43.244-10.444-66.251-6.043-30.307 5.798-55.445 21.938-70.785 45.446-17.189 26.344-21.67 60.341-12.958 98.316 16.151 70.4 75.009 140.708 134.229 140.701 4.575 0 9.16-.421 13.72-1.292 1.52-.291 3.05-.637 4.542-1.028 4.406-1.152 9.064-1.151 13.468-.001 1.493.391 3.022.737 4.545 1.029 63.586 12.155 130.551-63.57 147.95-139.409 8.712-37.974 4.232-71.97-12.958-98.315z"></path><path d="m330.354 142.885c-14.44 0-26.405-2.666-33.855-4.881-20.344-6.051-34.42-16.158-37.655-27.034-6.123-20.59 24.209-65.293 71.709-79.419 21.089-6.271 44.367-6.375 65.545-.288 20.333 5.842 34.505 16.167 37.91 27.615s-2.822 27.838-16.658 43.843c-14.411 16.67-33.962 29.305-55.051 35.576-11.354 3.376-22.213 4.588-31.945 4.588zm-52.123-37.681c2.285 5.153 24.094 17.493 52.072 17.495 8.317.001 17.174-1.089 26.233-3.783 23.525-6.996 38.617-21.435 45.518-29.419 11.335-13.112 13.184-22.808 12.574-24.856-.609-2.049-7.456-9.159-24.113-13.946-10.143-2.912-30.672-6.76-54.198.236-39.524 11.754-59.256 47.056-58.086 54.273z"></path><path d="m272.273 119.954c-1.739 0-3.465-.743-4.664-2.183-2.143-2.573-1.798-6.394.773-8.539 2.111-1.761 52.4-43.083 113.887-39.563 3.344.193 5.9 3.06 5.708 6.404-.193 3.345-3.042 5.9-6.404 5.708-56.591-3.267-104.942 36.369-105.423 36.77-1.133.943-2.509 1.403-3.877 1.403z"></path><path d="m282.537 270.959c-3.35 0-6.066-2.716-6.066-6.066v-12.232c0-3.35 2.716-6.066 6.066-6.066s6.066 2.716 6.066 6.066v12.232c0 3.35-2.717 6.066-6.066 6.066z"></path><path d="m343.271 234.477c-3.35 0-6.066-2.716-6.066-6.066v-12.232c0-3.35 2.716-6.066 6.066-6.066s6.066 2.716 6.066 6.066v12.232c-.001 3.35-2.717 6.066-6.066 6.066z"></path><path d="m321.24 294.757c-3.35 0-6.066-2.716-6.066-6.066v-12.233c0-3.35 2.716-6.066 6.066-6.066s6.066 2.716 6.066 6.066v12.233c-.001 3.351-2.717 6.066-6.066 6.066z"></path><path d="m417.211 512h-337.106c-15.963 0-28.95-12.987-28.95-28.95s12.987-28.951 28.95-28.951h337.106c11.446 0 20.759-9.312 20.759-20.758s-9.312-20.759-20.759-20.759h-337.106c-15.963 0-28.95-12.987-28.95-28.95s12.987-28.951 28.95-28.951h337.106c43.373 0 78.659 35.287 78.659 78.66.001 43.373-35.286 78.659-78.659 78.659zm-337.106-37.681c-4.814 0-8.731 3.917-8.731 8.731s3.917 8.73 8.731 8.73h337.106c32.224 0 58.44-26.216 58.44-58.439 0-32.224-26.216-58.44-58.44-58.44h-337.106c-4.814 0-8.731 3.917-8.731 8.731s3.917 8.73 8.731 8.73h337.106c22.596 0 40.978 18.383 40.978 40.979 0 22.595-18.382 40.978-40.978 40.978z"></path><path d="m106.305 474.319c-5.583 0-10.11-4.527-10.11-10.11v-61.737c0-5.583 4.526-10.11 10.11-10.11s10.11 4.527 10.11 10.11v61.737c0 5.583-4.526 10.11-10.11 10.11z"></path></g><path d="m146.457 192.301c-.782 0-1.577-.091-2.371-.282-5.429-1.304-8.771-6.764-7.467-12.192 3.434-14.284 11.716-27.753 23.322-37.925 4.199-3.68 10.585-3.26 14.266.94 3.68 4.199 3.26 10.585-.939 14.266-8.491 7.442-14.525 17.188-16.99 27.444-1.114 4.635-5.256 7.749-9.821 7.749z" fill="#fff"></path><path d="m194.19 144.637c-4.409 0-8.46-2.906-9.722-7.356-1.522-5.372 1.598-10.961 6.97-12.483 2.964-.84 5.996-1.516 9.011-2.008 5.512-.898 10.707 2.836 11.607 8.347s-2.837 10.707-8.347 11.607c-2.259.369-4.533.876-6.758 1.507-.92.261-1.849.386-2.761.386z" fill="#fff"></path></g><g><path d="m86.045 2.558 8.587 24.145c.368 1.034 1.096 1.853 2.014 2.267l21.452 9.665c3.031 1.365 3.031 6.194 0 7.56l-21.452 9.665c-.918.414-1.646 1.233-2.014 2.267l-8.587 24.145c-1.213 3.411-5.503 3.411-6.716 0l-8.587-24.145c-.368-1.034-1.096-1.853-2.014-2.267l-21.452-9.665c-3.031-1.365-3.031-6.194 0-7.56l21.452-9.665c.919-.414 1.646-1.233 2.014-2.267l8.587-24.145c1.212-3.411 5.503-3.411 6.716 0z" fill="#f7c4db"></path><g fill="#ef8bbd"><path d="m45.002 142.466c0 10.355-8.395 18.75-18.75 18.75-10.356 0-18.75-8.395-18.75-18.75 0-10.356 8.395-18.75 18.75-18.75 10.355-.001 18.75 8.394 18.75 18.75z"></path><path d="m479.036 112.9 6.37 17.911c.273.767.812 1.374 1.494 1.681l15.913 7.169c2.248 1.013 2.248 4.595 0 5.608l-15.913 7.169c-.681.307-1.221.914-1.494 1.681l-6.37 17.911c-.9 2.53-4.082 2.53-4.982 0l-6.37-17.911c-.273-.767-.812-1.374-1.494-1.681l-15.913-7.169c-2.248-1.013-2.248-4.595 0-5.608l15.913-7.169c.681-.307 1.221-.915 1.494-1.681l6.37-17.911c.9-2.53 4.082-2.53 4.982 0z"></path></g></g></g></svg>