<svg xmlns="http://www.w3.org/2000/svg" id="Capa_1" height="512" viewBox="0 0 512 512" width="512"><g><g><path d="m249.829 118.385c18.242 1.927 36.513 6.505 54.296 13.975 23.885 10.032 44.67 24.336 61.864 41.638 53.244 53.579 71.958 135.986 40.891 209.951-41.099 97.849-153.739 143.855-251.588 102.756s-143.854-153.741-102.755-251.59c33.629-80.066 115.16-125.407 197.292-116.73z" fill="#a183e2"></path><path d="m365.989 173.997c-17.194-17.302-37.979-31.606-61.864-41.638-4.272-1.794-8.573-3.417-12.893-4.882 15.904 8.072 29.986 18.452 42.009 30.551 45.5 45.786 61.492 116.207 34.944 179.414-35.121 83.617-131.378 122.931-214.995 87.81-83.618-35.12-122.932-131.377-87.811-214.994.182-.434.373-.861.559-1.292-5.047 8.242-9.543 16.964-13.401 26.149-41.099 97.849 4.907 210.489 102.756 251.588s210.489-4.906 251.588-102.755c31.066-73.966 12.352-156.372-40.892-209.951z" fill="#9762e2"></path><path d="m365.989 173.997c-12.561-12.64-27.047-23.67-43.25-32.613-12.345 30.248-23.996 60.721-37.081 90.676-14.289 32.71-29.387 65.062-45.022 97.148-26.1 53.561-53.698 106.369-81.595 159.014 96.961 38.39 207.264-7.672 247.839-104.275 31.067-73.965 12.353-156.371-40.891-209.95z" fill="#78eac4"></path><path d="m322.739 141.384c-.712 1.745-1.416 3.493-2.124 5.24 4.421 3.606 8.647 7.401 12.626 11.405 45.5 45.786 61.492 116.207 34.944 179.414-30.475 72.556-106.979 111.741-181.316 97.898-9.215 17.659-18.501 35.281-27.827 52.881 96.961 38.39 207.264-7.672 247.839-104.275 31.067-73.965 12.353-156.371-40.891-209.951-12.562-12.639-27.048-23.669-43.251-32.612z" fill="#71afc4"></path><path d="m271.41 152.549c11.075-2.093 21.562-1.33 31.079 2.667 12.783 5.369 22.631 16.061 29.526 30.813 21.352 45.683 29.052 76.334-7.488 163.328-27.582 65.669-80.526 140.881-121.773 152.595-18.295 5.196-39.25-7.483-61.737-16.927-21.919-9.206-43.432-19.225-41.293-60.565 2.153-41.599 3.313-96.989 35.164-154.755 49.836-90.383 86.657-107.73 136.522-117.156z" fill="#ef8bbd"></path><path d="m207.278 500.426c24.783-9.557 53.162-40.248 77.552-77.134-40.228 18.305-87.678 20.425-131.64 1.961-19.804-8.318-37.118-20.069-51.551-34.266-.903 11.895-1.378 23.113-1.914 33.474-.664 12.838.955 22.652 4.157 30.362 14.959 12.95 32.179 23.802 51.411 31.88 17.032 7.154 34.512 11.661 51.985 13.723z" fill="#e068bd"></path><path d="m365.989 173.997c.097 6.736-5.743 17.066-5.743 17.066-15.396 28.023-53.949 36.416-86.11 18.746s-45.752-54.711-30.355-82.734c0 0 2.86-5.561 6.049-8.691 0 0 25.157-6.317 67.095 13.869s49.064 41.744 49.064 41.744z" fill="#fef2a8"></path></g><g><g fill="#440a29"><path d="m428.039 269.291c-7.939-38.943-26.896-74.38-54.82-102.479-.02-.021-.042-.04-.062-.061-.011-.01-.022-.021-.032-.032-18.641-18.734-40.527-33.457-65.051-43.757-18.306-7.689-37.538-12.639-57.163-14.713-.005-.001-.01-.001-.015-.002-42.339-4.47-86.029 4.909-123.023 26.411-38.254 22.236-67.554 55.608-84.734 96.509-20.932 49.834-21.203 104.837-.765 154.877 20.438 50.039 59.137 89.124 108.973 110.056 25.229 10.598 51.782 15.9 78.348 15.9 25.906 0 51.822-5.043 76.527-15.133 50.039-20.437 89.124-59.138 110.056-108.972 15.829-37.688 19.896-78.7 11.761-118.604zm-72.969-91.708c-.852 2.662-2.322 6.013-3.698 8.463-.02.036-.041.072-.061.109-12.666 23.051-45.084 29.656-72.268 14.721-27.184-14.936-38.995-45.84-26.33-68.892.045-.082.089-.164.13-.247.313-.608.854-1.549 1.476-2.534 15.72 2.154 31.12 6.364 45.858 12.554 20.5 8.61 38.94 20.654 54.893 35.826zm-293.825 200.753c-18.378-44.998-18.134-94.46.689-139.274 28.407-67.632 95.794-111.528 168.086-111.528.739 0 1.48.02 2.22.029-3.832 8.96-5.383 18.515-4.85 28.063-40.489 22.832-79.269 67.532-106.552 122.905-24.194 49.105-36.214 100.866-34.019 143.791-10.408-13.223-19.035-27.976-25.574-43.986zm49.122 68.683c.036-.857-.025-1.73-.216-2.607-9.298-42.533 1.533-101.176 28.975-156.87 23.878-48.465 58.167-89.306 92.804-110.914 6.426 16.908 19.3 32.226 37.298 42.115 12.91 7.093 26.763 10.472 40.104 10.471 9.151-.001 18.057-1.597 26.251-4.671 5.048 41.126-6.153 93.968-31.049 144.497-27.279 55.367-66.968 99.588-106.168 118.291-.681.325-1.304.72-1.876 1.165-12.636-2.372-25.114-6.094-37.249-11.191-18.059-7.584-34.487-17.824-48.874-30.286zm287.116-67.019c-18.823 44.814-53.97 79.616-98.969 97.994-21.784 8.897-44.613 13.416-67.456 13.589 34.818-24.545 67.94-65.183 91.763-113.533 28.244-57.326 39.88-118.143 31.723-164.415 5.83-4.826 10.808-10.716 14.604-17.61.238-.423.64-1.153 1.134-2.118 42.772 51.898 53.636 123.155 27.201 186.093z"></path><path d="m240.679 346.781c.824.376 1.687.555 2.537.555 2.32 0 4.539-1.328 5.566-3.576l5.125-11.218c1.404-3.072.052-6.701-3.021-8.104-3.074-1.403-6.699-.051-8.104 3.022l-5.125 11.218c-1.402 3.071-.051 6.7 3.022 8.103z"></path><path d="m254.935 395.155c.824.376 1.687.555 2.537.555 2.32 0 4.539-1.327 5.566-3.576l5.125-11.218c1.404-3.072.052-6.701-3.021-8.104s-6.7-.051-8.104 3.022l-5.126 11.218c-1.402 3.071-.05 6.7 3.023 8.103z"></path><path d="m209.73 414.531c.824.376 1.687.555 2.537.555 2.32 0 4.539-1.328 5.566-3.576l5.125-11.218c1.404-3.072.052-6.701-3.021-8.104s-6.7-.051-8.104 3.022l-5.125 11.218c-1.403 3.07-.051 6.699 3.022 8.103z"></path></g><path d="m144.404 187.078c-3.357 0-6.641-1.656-8.588-4.69-3.041-4.738-1.664-11.043 3.074-14.083 2.546-1.633 5.156-3.211 7.759-4.689 4.892-2.78 11.117-1.066 13.897 3.829s1.066 11.117-3.829 13.897c-2.286 1.298-4.579 2.685-6.818 4.121-1.705 1.092-3.611 1.615-5.495 1.615z" fill="#fff"></path><path d="m84.305 258.656c-1.316 0-2.653-.256-3.942-.797-5.191-2.179-7.632-8.154-5.452-13.344 7.266-17.306 17.33-33.195 29.911-47.225 3.759-4.192 10.203-4.541 14.394-.784 4.192 3.758 4.542 10.203.784 14.394-11.062 12.336-19.908 26.301-26.294 41.508-1.637 3.9-5.42 6.248-9.401 6.248z" fill="#fff"></path></g><g><path d="m145.487 2.579 8.658 24.344c.371 1.042 1.105 1.868 2.031 2.286l21.629 9.745c3.056 1.377 3.056 6.245 0 7.622l-21.629 9.745c-.926.417-1.66 1.243-2.031 2.285l-8.658 24.344c-1.223 3.439-5.549 3.439-6.772 0l-8.658-24.344c-.371-1.042-1.105-1.868-2.031-2.285l-21.629-9.745c-3.056-1.377-3.056-6.245 0-7.622l21.629-9.745c.926-.417 1.66-1.243 2.031-2.286l8.658-24.344c1.223-3.439 5.549-3.439 6.772 0z" fill="#cab4ef"></path><ellipse cx="398.818" cy="69.713" fill="#a183e2" rx="18.905" ry="18.905" transform="matrix(.189 -.982 .982 .189 254.943 448.151)"></ellipse><circle cx="62.663" cy="110.379" fill="#a183e2" r="8.006"></circle><path d="m459.088 113 6.422 18.058c.275.773.819 1.386 1.506 1.695l16.044 7.229c2.267 1.021 2.267 4.633 0 5.654l-16.044 7.229c-.687.31-1.231.922-1.506 1.695l-6.422 18.058c-.907 2.551-4.116 2.551-5.023 0l-6.422-18.058c-.275-.773-.819-1.386-1.506-1.695l-16.044-7.229c-2.267-1.021-2.267-4.633 0-5.654l16.044-7.229c.687-.31 1.231-.922 1.506-1.695l6.421-18.058c.907-2.551 4.116-2.551 5.024 0z" fill="#cab4ef"></path></g></g></svg>