<svg xmlns="http://www.w3.org/2000/svg" xmlns:xlink="http://www.w3.org/1999/xlink" x="0px" y="0px" viewBox="0 0 219.712 730.652" style="enable-background:new 0 0 219.712 730.652;" xml:space="preserve">	<path style="fill:#D2A490;" d="M36.187,283.16c-0.107,0.048-0.207,0.109-0.312,0.159c-0.243-0.134-0.56,0.032-0.617,0.313    c-4.076,2.106-7.488,5.66-10.556,8.999c-3.468,3.775-6.563,7.872-9.264,12.228c-5.411,8.728-9.307,18.368-11.54,28.387    c-4.902,21.996-2.454,45.043,3.691,66.527c1.879,6.572,4.072,13.044,6.612,19.389c1.311,3.277,2.655,6.547,4.152,9.744    c0.747,1.595,1.465,3.221,2.289,4.779c0.831,1.571,1.756,3.058,2.479,4.689c0.249,0.564,1.019,0.469,1.248-0.048    c7.866-17.756,19.033-33.695,34.302-45.857c4.289-3.417,8.833-6.495,13.597-9.21c1.47-0.837,0.373-3.254-1.106-2.406    c-0.235,0.135-0.464,0.279-0.698,0.416c-0.928-2.711-2.334-5.338-3.451-7.947c-1.372-3.205-2.715-6.422-4.03-9.65    c-2.562-6.291-5.014-12.627-7.357-19.004c-4.769-12.983-9.082-26.134-12.917-39.423c-1.091-3.781-2.174-7.566-3.226-11.359    c-0.526-1.897-1.027-3.801-1.549-5.699c-0.419-1.523-0.805-3.121-1.685-4.431c0.075-0.085,0.155-0.162,0.229-0.249    C36.636,283.323,36.386,283.07,36.187,283.16z"></path>			<path style="fill:#D2A490;" d="M141.603,251.991c0.103,0.047,0.209,0.083,0.313,0.128c-0.241,1.56,0.087,3.171,0.354,4.728    c0.332,1.94,0.686,3.877,1.015,5.818c0.657,3.881,1.282,7.768,1.898,11.655c2.166,13.661,3.839,27.4,5.029,41.18    c0.584,6.768,1.051,13.546,1.401,20.33c0.179,3.481,0.328,6.964,0.445,10.448c0.096,2.836-0.064,5.812,0.246,8.661    c-0.27-0.024-0.538-0.058-0.808-0.08c-1.7-0.14-1.668,2.513,0.019,2.648c5.466,0.436,10.887,1.296,16.22,2.57    c18.986,4.535,35.861,14.23,50.517,26.971c0.426,0.371,1.164,0.13,1.151-0.486c-0.038-1.784,0.169-3.522,0.255-5.298    c0.085-1.76,0.045-3.537,0.045-5.299c-0.001-3.53-0.171-7.062-0.374-10.585c-0.392-6.824-1.153-13.615-2.239-20.363    c-3.551-22.062-11.112-43.971-24.883-61.809c-6.273-8.125-13.89-15.202-22.494-20.81c-4.294-2.799-8.835-5.196-13.577-7.143    c-4.195-1.722-8.792-3.493-13.377-3.67c-0.171-0.231-0.527-0.247-0.691-0.022c-0.117,0-0.233-0.013-0.35-0.011    C141.5,251.555,141.381,251.891,141.603,251.991z"></path>			<path style="fill:#A76E5E;" d="M95.409,129.327c-12.878-18.285-27.678-35.439-44.578-50.125    c-2.101-1.826-4.234-3.598-6.434-5.304c-0.469-0.364-1.025-0.304-1.465-0.033c-0.593-0.638-1.754-0.665-2.256,0.408    c-4.531,9.691-7.737,20.032-10.471,30.359c-2.773,10.472-5.099,21.065-6.961,31.737c-3.701,21.216-5.571,42.743-5.472,64.28    c0.101,22.136,2.242,44.362,6.134,66.148c4.194,23.476,10.797,46.51,19.477,68.719c8.687,22.226,19.524,43.582,32.301,63.735    c1.586,2.502,3.255,4.949,4.938,7.387c0.715,1.036,2.329,1.079,3.301,0.404c0.615,0.397,1.345,0.346,2.161,0.31    c1.392-0.061,2.805-0.255,4.185-0.445c2.513-0.346,5.018-0.794,7.518-1.224c5.09-0.875,10.165-1.842,15.221-2.9    c10.195-2.133,20.31-4.648,30.333-7.479c2.778-0.785,5.549-1.597,8.311-2.438c1.347-0.41,2.693-0.824,4.037-1.246    c1.477-0.464,3.089-0.771,4.281-1.808c0.264-0.23,0.429-0.52,0.518-0.827c0.414-0.211,0.723-0.615,0.75-1.238    c0.992-22.812,1.181-45.617-0.583-68.398c-1.753-22.654-5.177-45.148-10.464-67.251c-5.276-22.061-12.332-43.719-21.581-64.441    C119.487,167.224,108.294,147.621,95.409,129.327z"></path>			<path style="fill: #000000;" d="M204.866,520.316c-1.874-2.067-3.388-4.394-4.975-6.686c-1.582-2.285-3.242-4.517-4.857-6.779    c-3.229-4.523-6.443-9.057-9.604-13.628c-6.329-9.151-12.315-18.518-18.358-27.858c-3.375-5.216-6.524-10.737-10.834-15.242    c-0.562-0.587-1.448-0.002-1.179,0.748c0.022,0.061,0.049,0.121,0.071,0.182c-6.771,3.961-14.022,7.108-21.575,9.242    c-3.766,1.064-7.597,1.893-11.466,2.478c-1.973,0.298-3.953,0.553-5.94,0.737c-1.299,0.12-3.853-0.208-4.65,1.04    c-0.01,0.016-0.006,0.033-0.013,0.049c-0.185-0.026-0.387,0.048-0.47,0.257c-3.483,8.819-4.501,18.638-4.73,28.064    c-0.233,9.57,0.744,19.097,2.694,28.466c0.145,0.699,1.016,1.109,1.592,0.589c5.417-4.882,10.834-9.763,16.242-14.654    c0.135,5.037,0.334,10.044,0.933,15.068c0.688,5.775,1.759,11.552,2.951,17.242c2.385,11.384,5.947,22.325,10.802,32.897    c2.782,6.057,5.617,12.082,8.63,18.029c0.141,0.279,0.667,0.257,0.66-0.111c-0.05-2.608,0.157-5.259,0.178-7.877    c0.021-2.637,0.07-5.272,0.167-7.907c0.194-5.28,0.378-10.56,0.772-15.83c0.717-9.568,1.922-19.121,3.501-28.59    c2.164,3.81,4.142,7.73,6.349,11.518c2.678,4.596,5.442,9.141,8.286,13.635c2.805,4.433,5.647,8.859,8.667,13.15    c3.061,4.348,6.311,8.555,9.402,12.879c0.643,0.899,1.903,0.095,1.818-0.836c-1.679-18.316-3.602-36.611-5.477-54.908    c-0.406-3.961-0.812-7.923-1.217-11.884c6.111,4.478,12.894,8.523,20.687,8.311C204.797,522.086,205.574,521.096,204.866,520.316    z"></path>			<path style="fill:#FFC1A7;" d="M121.603,291.243c-5.882-4.219-13.227-6.911-20.511-6.84c-7.996,0.078-15.876,2.73-22.01,7.949    c-5.202,4.427-8.642,10.56-10.25,17.191c-0.009,0.026-0.02,0.051-0.029,0.077c-2.427,6.961-1.88,14.601,0.522,21.477    c4.624,13.233,18.173,22.282,31.949,23.071c14.63,0.838,28.758-7.873,34.178-21.596    C141.364,317.605,134.24,300.307,121.603,291.243z"></path>			<path style="fill: #000000;" d="M35.441,4.413c-0.253-0.469-0.554-0.929-0.856-1.367c-0.074-0.107-0.149-0.214-0.238-0.309    c-0.468-0.499-1.005-1.006-1.603-1.357c-0.31-0.183-0.622-0.346-0.937-0.495c-0.646-0.396-1.34-0.66-2.103-0.74    c-0.077-0.017-0.154-0.035-0.232-0.049c-0.365-0.07-0.731-0.1-1.103-0.094c-0.679,0.01-1.45-0.017-2.134,0.154    c-0.751,0.188-1.546,0.392-2.225,0.784c-1.22,0.704-2.354,1.553-3.074,2.801c-0.705,1.221-1.219,2.458-1.328,3.887    c-0.113,1.479,0.118,2.813,0.674,4.183c0.056,0.138,0.123,0.27,0.196,0.4c0.272,0.482,0.576,0.98,0.911,1.422    c0.425,0.563,0.989,1.041,1.545,1.463c0.538,0.409,1.193,0.716,1.803,0.986c0.618,0.274,1.355,0.403,1.991,0.525    c0.93,0.178,1.892,0.134,2.817-0.058c0.131,0.709,0.27,1.414,0.391,2.111c0.463,2.672,0.892,5.354,1.41,8.016    c1.02,5.239,2.048,10.477,3.071,15.716c2.065,10.567,4.273,21.108,6.363,31.671c0.288,1.455,2.558,1.088,2.277-0.372    c-2.039-10.569-3.962-21.162-6.026-31.726c-1.024-5.239-2.044-10.478-3.071-15.716c-0.523-2.665-1.135-5.313-1.714-7.966    c-0.176-0.809-0.333-1.638-0.507-2.466c0.646-0.296,1.255-0.662,1.796-1.173c1.008-0.953,1.812-2.039,2.282-3.359    c0.482-1.352,0.556-2.592,0.455-4.005c-0.021-0.296-0.069-0.584-0.147-0.871C35.948,5.744,35.773,5.027,35.441,4.413z"></path>			<path style="fill:#B56949;" d="M65.226,10.861c-3.098-0.947-6.305,0.304-9.204,1.352c-3.549,1.283-7.039,2.696-10.464,4.283    c-4.22,1.954-8.314,4.124-12.352,6.401c0.026,0.065,0.062,0.125,0.075,0.193c0.048,0.257,0.109,0.512,0.164,0.768    c0.052,0.181,0.111,0.36,0.145,0.546c0.019,0.1,0.025,0.202,0.039,0.303c0.07,0.285,0.124,0.572,0.163,0.861    c0.366-0.241,0.733-0.482,1.09-0.739c0.087-0.062,0.15-0.138,0.197-0.22c7.498-4.089,15.122-8.012,23.227-10.635    c2.332-0.755,5.399-1.674,7.526,0.081c1.892,1.561,0.866,3.798-0.413,5.37c-1.575,1.935-3.697,3.483-5.586,5.092    c-2.276,1.937-4.575,3.848-6.905,5.719c-9.069,7.282-18.646,13.97-29.081,19.155c-5.127,2.548-10.513,4.904-16.059,6.374    c-2.486,0.659-6.476,0.707-6.889-2.694c-0.285-2.351,1.939-4.592,3.374-6.187c2.214-2.462,4.558-4.78,7.065-6.942    c2.357-2.032,4.965-3.671,7.489-5.483c3.972-2.85,8.433-4.903,12.61-7.397c-0.027-0.068-0.066-0.135-0.077-0.202    c-0.008-0.051,0.007-0.097,0.006-0.146c-0.005-0.061-0.021-0.122-0.032-0.183c-0.035-0.141-0.064-0.285-0.089-0.428    c-0.032-0.115-0.065-0.23-0.09-0.343c-0.106-0.479-0.14-0.975-0.209-1.46c-0.006-0.041,0.007-0.077,0.006-0.117    c-0.724,0.417-1.45,0.829-2.172,1.252c-3.802,1.904-7.314,4.559-10.63,7.057c-2.556,1.925-4.765,4.153-7.094,6.339    c-2.214,2.079-4.352,4.256-6.391,6.508C2.11,48.161-2.774,53.53,2.039,56.805c2.12,1.442,4.852,1.224,7.2,0.558    c3.078-0.874,6.105-1.955,9.072-3.15c12.192-4.91,23.312-12.174,33.684-20.173c2.647-2.041,5.251-4.137,7.824-6.271    c2.306-1.913,4.773-3.764,6.842-5.939c1.503-1.581,2.877-3.54,2.811-5.816C69.399,13.519,67.546,11.571,65.226,10.861z"></path>				<path class="tail-one" style="fill:#D2D2D2;" d="M130.383,578.695c0.799,5.011,2.01,10.079,2.352,15.144c0.341,5.065,1.548,10.128,2.499,15.113     c1.911,10.021,3.755,20.07,6.171,29.985c4.819,19.77,10.462,39.34,16.887,58.647c1.801,5.413,3.575,10.91,5.723,16.197     c1.088,2.679,2.367,5.298,3.483,7.972c1.118,2.679,2.252,5.351,3.401,8.017c0.782,1.815,3.408,0.544,2.755-1.267     c-1.727-4.786-3.658-9.593-4.966-14.512c-1.287-4.841-3.318-9.541-4.967-14.272c-3.331-9.56-6.615-19.126-9.627-28.793     c-3.016-9.678-5.82-19.422-8.426-29.218c-2.608-9.8-5.348-19.587-7.636-29.468c-0.637-2.749-1.257-5.501-1.862-8.256     c-0.621-2.83-1.082-5.735-1.837-8.531c-0.744-2.754-1.488-5.425-2.005-8.239c-0.524-2.859-1.031-5.722-1.522-8.587     C130.758,578.355,130.34,578.424,130.383,578.695z"></path>				<path class="tail-two" style="fill:#D2D2D2;" d="M84.997,468.922c-3.627,9.575-6.989,19.202-9.49,29.139c-2.505,9.952-4.333,20.091-5.542,30.282     c-2.406,20.284-2.343,40.91,0.184,61.18c0.716,5.748,1.947,11.361,3.122,17.026c1.174,5.66,2.359,11.377,4.334,16.817     c0.691,1.904,3.592,0.883,3.32-1.014c-0.711-4.953-1.848-9.833-2.689-14.768c-0.857-5.029-1.269-10.094-1.924-15.147     c-1.285-9.908-2.107-19.913-2.36-29.902c-0.509-20.081,1.081-40.072,4.336-59.88c1.849-11.254,4.139-22.548,7.391-33.482     C85.81,468.729,85.164,468.48,84.997,468.922z"></path>				<path class="tail-three" style="fill:#D2D2D2;" d="M104.664,550.371c-0.421-6.103-0.982-12.188-0.935-18.308c0.003-0.353-0.541-0.414-0.553-0.054     c-0.181,5.406-0.697,10.79-0.844,16.196c-0.143,5.3-0.063,10.572,0.158,15.869c0.45,10.774,1.421,21.496,2.831,32.187     c2.819,21.37,7.35,42.464,13.528,63.115c3.474,11.612,7.343,23.235,12.589,34.176c0.478,0.996,1.821,0.297,1.513-0.696     c-3.178-10.25-6.725-20.378-9.817-30.658c-3.052-10.148-5.715-20.414-7.987-30.765c-4.568-20.821-7.555-41.874-9.277-63.115     C105.387,562.341,105.077,556.353,104.664,550.371z"></path>			<polygon class="rocket-star-one" style="fill:#A8A8A8;" points="78.438,655.753 73.702,649.316 65.716,649.569 70.373,643.076 67.665,635.558     75.28,637.982 81.593,633.083 81.641,641.074 88.25,645.564 80.666,648.079    "></polygon>			<polygon class="rocket-star-two" style="fill:#A8A8A8;" points="133.259,725.381 127.455,717.493 117.667,717.802 123.375,709.844 120.056,700.631     129.388,703.601 137.125,697.597 137.184,707.39 145.285,712.893 135.99,715.976    "></polygon>			<polygon class="rocket-star-three" style="fill:#A8A8A8;" points="197.684,640.403 191.88,632.515 182.091,632.824 187.8,624.867 184.481,615.653     193.813,618.623 201.55,612.62 201.609,622.413 209.71,627.916 200.414,630.998    "></polygon>			<path style="fill:#E6DAC2;" d="M105.682,184.953c-12.66-14.953-34.641-18.694-52.01-5.625    c-1.197,0.901-14.946,10.644-14.946,32.404c0,16.606,12.859,32.005,28.954,36.077c16.021,4.054,33.793-3.693,42.323-17.724    C118.527,216.066,116.118,197.279,105.682,184.953z"></path>			<path style="fill: #000000;" d="M98.889,190.901c-9.667-11.418-26.451-14.275-39.713-4.295c-0.914,0.688-11.412,8.127-11.412,24.743    c0,12.68,9.819,24.438,22.108,27.548c12.233,3.095,25.803-2.82,32.317-13.534C108.698,214.659,106.858,200.313,98.889,190.901z"></path>	<path style="fill:#E6DAC2;" d="M177.419,429.68c-2.574-7.729-5.173-15.451-7.766-23.173c-1.24-3.694-2.481-7.387-3.721-11.081  c-1.028-3.061-1.444-5.75-3.893-7.87c-0.014-0.013-0.033-0.016-0.05-0.026c-0.263-0.897-1.28-1.655-2.381-1.114  c-12.449,6.116-25.439,10.993-38.894,14.379c-6.305,1.587-12.694,2.869-19.13,3.799c-6.195,0.895-13.506,0.482-19.482,2.491  c-0.55-0.347-1.411-0.062-1.431,0.752c-0.166,6.813,1.414,13.768,2.337,20.5c1.017,7.413,2.071,14.82,3.12,22.228  c0.064,0.45,0.264,0.757,0.531,0.952c0.054,0.429,0.315,0.804,0.842,0.876c30.295,4.167,62.854-4.912,88.617-20.715  c0.093-0.057,0.17-0.122,0.246-0.187C177.123,431.307,177.737,430.635,177.419,429.68z"></path></svg>