<svg xmlns="http://www.w3.org/2000/svg" id="Capa_1" height="512" viewBox="0 0 512 512" width="512"><g><g><path d="m461.427 501.95h-148.733c-22.382 0-40.526-18.144-40.526-40.526v-148.734c0-22.382 18.144-40.526 40.526-40.526h148.733c22.382 0 40.526 18.144 40.526 40.526v148.733c0 22.382-18.144 40.527-40.526 40.527z" fill="#bdf4e3"></path><path d="m462.237 272.164h-43.85c17.196 0 31.137 13.94 31.137 31.136v114.273c0 17.196-13.94 31.137-31.137 31.137h-114.273c-17.196 0-31.137-13.94-31.137-31.137v43.85c0 22.382 18.144 40.526 40.526 40.526h148.733c22.382 0 40.526-18.144 40.526-40.526v-148.733c.001-22.382-18.143-40.526-40.525-40.526z" fill="#b1b7e3"></path><path d="m431.948 271.942h-148.733c-22.382 0-40.526-18.144-40.526-40.526v-148.734c0-22.382 18.144-40.526 40.526-40.526h148.734c22.382 0 40.526 18.144 40.526 40.526v148.733c-.001 22.383-18.145 40.527-40.527 40.527z" fill="#ef8bbd"></path><path d="m431.948 42.156h-43.85c17.196 0 31.136 13.94 31.136 31.136v114.273c0 17.196-13.94 31.136-31.136 31.136h-114.273c-17.196 0-31.136-13.94-31.136-31.136v43.85c0 22.382 18.144 40.526 40.526 40.526h148.734c22.382 0 40.526-18.144 40.526-40.526v-148.733c-.001-22.382-18.145-40.526-40.527-40.526z" fill="#e068bd"></path><path d="m199.306 501.344h-148.733c-22.382 0-40.526-18.144-40.526-40.526v-148.733c0-22.382 18.144-40.526 40.526-40.526h148.733c22.382 0 40.526 18.144 40.526 40.526v148.733c.001 22.382-18.144 40.526-40.526 40.526z" fill="#cab4ef"></path><path d="m199.307 271.559h-43.85c17.196 0 31.136 13.94 31.136 31.136v114.273c0 17.196-13.94 31.136-31.136 31.136h-114.274c-17.196 0-31.136-13.94-31.136-31.136v43.85c0 22.382 18.144 40.526 40.526 40.526h148.734c22.382 0 40.526-18.144 40.526-40.526v-148.733c-.001-22.382-18.145-40.526-40.526-40.526z" fill="#be87ef"></path><path d="m418.764 236.132h-122.365c-9.886 0-17.9-8.014-17.9-17.9v-122.366c0-9.886 8.014-17.9 17.9-17.9h122.366c9.886 0 17.9 8.014 17.9 17.9v122.366c0 9.886-8.014 17.9-17.901 17.9z" fill="#ffdcb6"></path><path d="m419.235 77.99v109.576c0 17.196-13.94 31.136-31.137 31.136h-109.576c.252 9.667 8.149 17.43 17.876 17.43h122.366c9.886 0 17.9-8.014 17.9-17.9v-122.366c.001-9.727-7.763-17.625-17.429-17.876z" fill="#efa5b6"></path><path d="m448.243 466.14h-122.365c-9.886 0-17.9-8.014-17.9-17.9v-122.366c0-9.886 8.014-17.9 17.9-17.9h122.366c9.886 0 17.9 8.014 17.9 17.9v122.366c0 9.886-8.014 17.9-17.901 17.9z" fill="#ffdcb6"></path><path d="m449.524 308.038v109.535c0 17.196-13.94 31.137-31.136 31.137h-110.387c.252 9.667 8.149 17.43 17.877 17.43h122.366c9.886 0 17.9-8.014 17.9-17.9v-122.366c0-9.454-7.334-17.177-16.62-17.836z" fill="#efa5b6"></path><path d="m186.122 465.535h-122.365c-9.886 0-17.9-8.014-17.9-17.9v-122.366c0-9.886 8.014-17.9 17.9-17.9h122.366c9.886 0 17.9 8.014 17.9 17.9v122.366c0 9.886-8.014 17.9-17.901 17.9z" fill="#ffdcb6"></path><path d="m186.593 307.392v109.576c0 17.196-13.94 31.136-31.136 31.136h-109.577c.252 9.667 8.149 17.43 17.877 17.43h122.366c9.886 0 17.901-8.014 17.901-17.9v-122.365c-.001-9.728-7.765-17.625-17.431-17.877z" fill="#efa5b6"></path></g><g><g fill="#440a29"><path d="m471.327 263.097c6.994-8.676 11.194-19.695 11.194-31.681v-148.733c0-27.886-22.687-50.573-50.573-50.573h-148.733c-27.886 0-50.573 22.687-50.573 50.573v148.733c0 24.498 17.511 44.977 40.673 49.594-6.994 8.676-11.194 19.695-11.194 31.681v148.733c0 27.886 22.688 50.573 50.573 50.573h148.733c27.886 0 50.573-22.687 50.573-50.573v-148.734c0-24.497-17.512-44.977-40.673-49.593zm-218.591-31.681v-148.733c0-16.806 13.672-30.479 30.479-30.479h148.733c16.806 0 30.479 13.673 30.479 30.479v148.733c0 16.806-13.672 30.479-30.479 30.479h-148.733c-16.807 0-30.479-13.673-30.479-30.479zm239.17 230.008c0 16.806-13.672 30.479-30.479 30.479h-148.733c-16.806 0-30.479-13.673-30.479-30.479v-148.734c0-16.806 13.672-30.479 30.479-30.479h148.733c16.806 0 30.479 13.673 30.479 30.479z"></path><path d="m448.243 301.946h-122.365c-13.195 0-23.929 10.734-23.929 23.929v122.365c0 13.195 10.734 23.929 23.929 23.929h122.366c13.195 0 23.928-10.734 23.928-23.929v-122.366c0-13.195-10.734-23.928-23.929-23.928zm11.872 146.294c0 6.546-5.326 11.872-11.872 11.872h-122.365c-6.546 0-11.872-5.326-11.872-11.872v-122.366c0-6.546 5.326-11.872 11.872-11.872h122.366c6.546 0 11.872 5.326 11.872 11.872v122.366z"></path><path d="m418.764 242.161c13.195 0 23.928-10.734 23.928-23.929v-122.366c0-13.195-10.734-23.929-23.928-23.929h-122.365c-13.195 0-23.928 10.734-23.928 23.929v122.366c0 13.195 10.734 23.929 23.928 23.929zm-134.237-23.929v-122.366c0-6.546 5.326-11.872 11.872-11.872h122.366c6.546 0 11.872 5.326 11.872 11.872v122.366c0 6.546-5.326 11.872-11.872 11.872h-122.366c-6.547 0-11.872-5.326-11.872-11.872z"></path><path d="m199.306 261.512h-148.733c-27.886 0-50.573 22.687-50.573 50.573v148.733c0 27.886 22.687 50.573 50.573 50.573h148.733c27.887 0 50.574-22.687 50.574-50.573v-148.733c0-27.886-22.687-50.573-50.574-50.573zm30.48 199.306c0 16.806-13.673 30.479-30.479 30.479h-148.734c-16.806 0-30.479-13.673-30.479-30.479v-148.733c0-16.806 13.673-30.479 30.479-30.479h148.733c16.806 0 30.479 13.672 30.479 30.479v148.733z"></path><path d="m186.122 301.34h-122.365c-13.194 0-23.929 10.734-23.929 23.929v122.366c0 13.195 10.734 23.929 23.929 23.929h122.366c13.194 0 23.929-10.734 23.929-23.929v-122.366c-.001-13.195-10.735-23.929-23.93-23.929zm11.873 146.294c0 6.546-5.326 11.872-11.872 11.872h-122.366c-6.546 0-11.872-5.326-11.872-11.872v-122.365c0-6.546 5.326-11.872 11.872-11.872h122.366c6.546 0 11.872 5.326 11.872 11.872z"></path><path d="m366.069 336.421c.346 5.34 5.019 9.378 10.37 9.378h11.54v92.218c0 5.351 4.038 10.024 9.377 10.37 5.852.38 10.717-4.255 10.717-10.025v-100.025c0-6.977-5.656-12.632-12.632-12.632h-19.347c-5.77-.001-10.404 4.865-10.025 10.716z"></path><path d="m327.46 135.765c5.446 1.07 10.726-2.476 11.796-7.922 1.487-7.565 8.175-13.056 15.905-13.056 8.749 0 15.901 6.967 16.199 15.646l-.347 2.72c-1.315 5.278-4.422 11.44-9.242 18.327-16.272 23.249-25.984 35.965-31.202 42.797-6.453 8.45-8.868 11.612-7.123 17.281 1.013 3.293 3.513 5.82 6.853 6.933 1.338.445 2.798.935 22.628.935 7.786 0 18.411-.076 32.967-.259 5.548-.07 9.989-4.624 9.92-10.173-.069-5.505-4.554-9.921-10.043-9.921-.043 0-.086 0-.13.001-11.621.146-24.003.236-33.649.236-.005 0-.009 0-.013 0 5.783-7.68 14.271-19.187 26.254-36.308 6.442-9.203 10.636-17.874 12.466-25.768l.766-5.599v-.64c0-20.018-16.285-36.303-36.303-36.303-17.308 0-32.289 12.313-35.622 29.277-1.071 5.445 2.475 10.727 7.92 11.796z"></path><path d="m161.243 360.195c0-20.018-16.285-36.303-36.303-36.303-17.308 0-32.289 12.314-35.622 29.278-1.07 5.446 2.477 10.726 7.922 11.796 5.442 1.066 10.726-2.478 11.795-7.922 1.486-7.566 8.175-13.057 15.904-13.057 8.937 0 16.209 7.271 16.209 16.209s-7.271 16.209-16.209 16.209c-5.549 0-10.047 4.499-10.047 10.047s4.498 10.047 10.047 10.047c8.937 0 16.209 7.271 16.209 16.209 0 8.937-7.271 16.209-16.209 16.209-8.042 0-14.943-5.991-16.052-13.932-.104-.748-.157-1.514-.157-2.276 0-5.548-4.498-10.047-10.047-10.047s-10.047 4.499-10.047 10.047c0 1.688.118 3.386.35 5.051 2.486 17.817 17.943 31.252 35.953 31.252 20.018 0 36.303-16.285 36.303-36.303 0-10.32-4.335-19.64-11.272-26.256 6.937-6.618 11.273-15.938 11.273-26.258z"></path></g><path d="m72.716 389.954c-5.549 0-10.047-4.499-10.047-10.047v-12.118c0-5.548 4.498-10.047 10.047-10.047s10.047 4.499 10.047 10.047v12.118c0 5.548-4.498 10.047-10.047 10.047z" fill="#fff"></path><path d="m72.716 349.159c-5.549 0-10.047-4.499-10.047-10.047v-4.447c0-5.549 4.498-10.047 10.047-10.047s10.047 4.499 10.047 10.047v4.447c0 5.549-4.498 10.047-10.047 10.047z" fill="#fff"></path></g><g><path d="m178.069 2.546 8.534 23.996c.365 1.028 1.089 1.842 2.001 2.253l21.32 9.605c3.012 1.357 3.012 6.156 0 7.513l-21.32 9.605c-.913.411-1.636 1.225-2.001 2.253l-8.534 23.996c-1.206 3.39-5.469 3.39-6.675 0l-8.534-23.996c-.365-1.027-1.089-1.841-2.002-2.253l-21.319-9.605c-3.012-1.357-3.012-6.156 0-7.513l21.319-9.605c.913-.411 1.636-1.225 2.002-2.253l8.534-23.996c1.206-3.39 5.47-3.39 6.675 0z" fill="#f7c4db"></path><ellipse cx="53.788" cy="203.827" fill="#ef8bbd" rx="18.634" ry="18.634" transform="matrix(.16 -.987 .987 .16 -156.023 224.271)"></ellipse><circle cx="85.726" cy="77.966" fill="#ef8bbd" r="7.891"></circle><path d="m127.415 148.707 6.33 17.8c.271.762.807 1.366 1.485 1.671l15.814 7.125c2.234 1.007 2.234 4.566 0 5.573l-15.814 7.125c-.677.305-1.214.909-1.485 1.671l-6.33 17.8c-.894 2.515-4.057 2.515-4.951 0l-6.33-17.8c-.271-.762-.807-1.366-1.485-1.671l-15.814-7.125c-2.234-1.007-2.234-4.566 0-5.573l15.814-7.125c.677-.305 1.214-.909 1.485-1.671l6.33-17.8c.894-2.515 4.057-2.515 4.951 0z" fill="#f7c4db"></path></g></g></svg>