<svg xmlns="http://www.w3.org/2000/svg" xmlns:xlink="http://www.w3.org/1999/xlink" x="0px" y="0px" viewBox="0 0 100 100" style="enable-background:new 0 0 100 100;" xml:space="preserve"><g>	<path d="M1,65.5c0.9-1.1,1.8-2.3,2.8-3.5c-0.8-0.9-0.5-1.7,0-2.6c0.8-1.3,1.6-2.7,2.6-4c0.9-1.2,2-2.3,3.1-3.6  c-0.8-0.5-1.7-1-2.5-1.6c-2.5-1.5-2.5-1.6-0.5-3.7c1.4-1.5,2.8-3.1,4.3-4.6c-0.2-0.3-0.3-0.5-0.4-0.7c-0.7-0.8-0.5-1.5,0.2-2.3  c5.3-5.4,11-10.2,17.1-14.6c4.3-3.2,8.7-6.2,13.1-9.3c1.2-0.8,1.5-0.8,2.5,0.3c6.2,6.9,12.4,13.8,18.6,20.7c0.4,0.4,0.7,0.8,1,1  c3.5-1,6.8-1.9,10.2-2.8c5.3-1.5,10.6-2.9,15.9-4.4c0.2-0.1,0.4-0.2,0.6-0.2c0.5,0.1,1.1,0.2,1.3,0.5c0.2,0.3,0.1,1-0.1,1.3  c-1.1,1.5-2.4,2.9-3.6,4.3c-0.2,0.3-0.4,0.6-0.7,0.9c2.7,0.4,5.3,0.7,7.8,1.1c0.5,0.1,1.4,0.4,1.5,0.8c0.1,0.5-0.2,1.2-0.5,1.7  c-1.3,1.7-2.7,3.4-4.1,5.2c1.7,0.7,3.2,1.6,4.8,2c1.7,0.4,2.2,1.7,3,2.9c0.1,0.1,0.1,0.2,0.2,0.4c0,0.5,0,1,0,1.5  c-1,3.8-3.5,6.8-5.7,10c-5.2,7.4-10.4,14.7-15.6,22c-1.2,1.6-2.1,2-4,1.4c-5.3-1.6-10.6-3.3-15.9-4.9c-5.6-1.7-11.2-3.4-16.8-5.1  c-1.4,2.1-3.3,2.3-5.4,1.7c-2.2-0.6-4.1-1.7-4.2-4.4c-3.5-0.4-6.9-0.7-10.3-1.1c-5.6-0.7-11.2-1.4-16.7-2.2c-1.2-0.2-2-0.9-2.5-2  c-0.2-0.5-0.6-1-0.9-1.5C1,66.1,1,65.8,1,65.5z M12.4,40.4c6.9,10.4,16,18.6,25.3,26.9c7.8-9.6,15.6-19,23.3-28.5  c-6.5-7.3-12.9-14.5-19.3-21.7C31.4,24.3,21.2,31.4,12.4,40.4z M4.3,65.1c0.4,0.1,0.5,0.2,0.7,0.2c4.2,0.5,8.5,1.1,12.7,1.6  c5.2,0.6,10.3,1.2,15.5,1.8c0.8,0.1,1.3,0.4,1.4,1.3c0.3,2.3,2.2,3.2,4.4,2.5c0.7-0.2,1.5-0.3,2.1-0.1c10.4,2.9,20.8,5.8,31.1,8.8  c1.9,0.5,2,0.5,3.2-1c5.4-7.1,10.4-14.5,15.1-22.1c1.6-2.6,3.1-5.2,4.7-7.9c-2-0.8-3.8-1.6-5.7-2.4c-0.3,0.3-0.5,0.6-0.7,0.9  c-3.9,5.1-7.8,10.3-11.8,15.4c-1.8,2.3-3.7,4.5-5.3,6.9c-0.8,1.3-1.8,1.6-3.1,1.5c-2.8-0.1-5.7-0.1-8.6-0.3  c-7.2-0.4-14.5-0.9-21.7-1.4c-0.8,0-1.3-0.3-1.8-1.1c-0.6-1-1.5-1.9-2.9-2.1c-8.9-1.6-17.8-3.2-26.7-4.8c-0.3-0.1-0.8,0.1-1,0.3  C5.4,63.5,4.9,64.2,4.3,65.1z M86.5,32.9c-1.5,0.4-2.7,0.7-3.9,1c-6.3,1.7-12.5,3.4-18.8,5.1c-0.2,0.1-0.5,0.3-0.6,0.5  C55.8,48.7,48.4,57.7,41,66.8c-0.1,0.2-0.3,0.3-0.4,0.6c0.2,0,0.3,0,0.3,0c7.5-2.5,15.2-4.4,23-5.6c0.4-0.1,0.9-0.4,1.1-0.7  c4.6-7.1,9.7-13.8,15.1-20.3C82.1,38.2,84.2,35.7,86.5,32.9z M45.2,68.2c0,0.1,0,0.2,0,0.4c0.2,0,0.3,0.1,0.5,0.1  c7.6,0.4,15.3,0.8,22.9,1.2c0.4,0,1-0.3,1.3-0.7c7.3-9.3,14.5-18.7,21.7-28.1c0.2-0.3,0.4-0.6,0.7-1c-2.6-0.3-5.1-0.7-7.5-1  c-0.3,0-0.7,0.3-0.9,0.5C77.8,47,71.8,54.6,66.5,62.8c-0.3,0.5-1.1,1-1.7,1.1c-2.2,0.5-4.5,0.7-6.7,1.2  C53.8,66.1,49.5,67.2,45.2,68.2z M29.5,64.2c0-0.1,0.1-0.2,0.1-0.3c-6-3.6-12-7.2-18-10.8c-2.3,2-4.1,4.2-5.6,7  C14,61.5,21.8,62.9,29.5,64.2z M23.8,57.7c-3.9-4.5-7.9-9.1-11.8-13.6c-1.2,1.3-2.5,2.7-3.9,4.2C13.3,51.5,18.5,54.6,23.8,57.7z"></path>	<path d="M50.4,42.4c0,0.7-0.2,1.4-1.1,1.5c-0.9,0-1.1-0.5-1.3-1.3c-0.1-0.6-0.5-1.2-0.9-1.6c-0.5-0.5-1.1-0.8-1.7-1.1  c-2-1-3.2-2.5-3.6-4.7c-0.7-3.6-2.6-6.2-6.1-7.6c-0.7-0.3-0.9-0.8-0.7-1.5c0.3-0.7,0.9-0.8,1.6-0.6c3.5,1.4,5.8,4,6.9,7.6  c0.1,0.4,0.2,0.9,0.3,1.4c0.3,1.6,1.2,2.7,2.6,3.4c0.8,0.4,1.6,0.9,2.3,1.5C49.8,40.1,50.3,41.2,50.4,42.4z"></path>	<path d="M24.4,36.4c0.4,0.1,0.6,0.2,0.7,0.2c1.6,0.7,3.3,1.4,4.9,2.3c2,1.1,3.5,2.8,4.2,5c0.6,1.8,1.6,3,3.3,3.6  c0.2,0.1,0.4,0.1,0.5,0.3c0.1,0.4,0.4,1,0.3,1.3c-0.2,0.3-0.9,0.7-1.3,0.6c-2-0.7-3.9-1.8-4.5-4.1c-0.8-2.8-2.7-4.5-5.2-5.7  c-1-0.5-2.1-0.8-3.1-1.3c-0.4-0.2-0.7-0.9-0.6-1.3C23.6,37,24.1,36.7,24.4,36.4z"></path>	<path d="M74.5,44.6c-1.4-0.5-2.4,0-3.6,0.8c-1.5,1-3.2,0.8-4.9,0.3c-0.6-0.2-1.2-0.4-1.8-0.6c-0.7-0.3-1-0.8-0.8-1.5  c0.3-0.7,0.9-0.8,1.5-0.6c0.8,0.2,1.6,0.5,2.4,0.7c1.1,0.3,2.2,0.2,3.1-0.7c0.9-0.8,1.9-1,3.1-0.9c0.5,0.1,1.1,0.1,1.6,0  c0.7-0.1,1.2,0,1.5,0.7c0.2,0.7-0.1,1.2-0.8,1.4C75.5,44.5,75,44.5,74.5,44.6z"></path>	<path d="M55.4,54.2c0.1-0.7,0.6-1.1,1.3-1c1.8,0.4,3.5,0.2,5.2-0.6c0.9-0.5,2-0.4,2.9,0.3c0.6,0.4,0.9,1,0.5,1.7  c-0.4,0.6-0.9,0.6-1.6,0.4c-0.4-0.2-1.1-0.2-1.5,0.1c-1.8,0.9-3.7,0.9-5.6,0.6C55.9,55.4,55.4,55.1,55.4,54.2z"></path></g></svg>