<svg xmlns="http://www.w3.org/2000/svg" xmlns:xlink="http://www.w3.org/1999/xlink" x="0px" y="0px" viewBox="0 0 100 100" style="enable-background:new 0 0 100 100;" xml:space="preserve"><path d="M19.1,38.9c-0.3-1.8-3.5-0.2-4.8,0.7c0-0.9,0-1.8,0-2.7c0-0.7,0.1-1.5-0.2-2.2c-0.5-1-1.8-0.9-2.2,0.1 c-0.5,1.4-0.2,3.5,0.2,4.9c0.1,0.3,0.2,0.6,0.4,0.8c0,0.1,0,0.3,0,0.4c-0.7,1.6-1.4,3.2-2,4.8c-0.3-0.7-0.6-1.4-1.1-2 c-0.5-0.6-1.7-1.9-2.6-1c-0.4,0.4-0.3,0.9-0.2,1.4c0.1,0.8,0.2,1.6,0.5,2.3c0.5,1,1.3,1.9,2.5,2C9,51,8.4,53.5,8.1,56 c-1.3-1.9-2.9-3.5-4.7-4.9c-0.3-0.2-0.7,0.1-0.7,0.4c-0.3,3.1,2.1,6,5.2,6.4c-0.5,4.9-0.4,10,0.4,14.9c0.1,0.5,0.9,0.3,0.8-0.2 C8.3,67.7,8.2,62.8,8.7,58c1.9-0.2,4-1.4,5.3-2.7c0.2-0.2,0.1-0.4,0-0.6c-0.7-0.7-1.8-0.3-2.6,0c-1,0.4-1.8,1-2.6,1.7 c0.4-2.6,0.9-5.2,1.7-7.8c1.3,0.2,2.7,0,4,0.1c1,0,1.7-0.3,1.8-1.4c0.3-2.6-3.8-1-5.3-0.4c0.6-2,1.4-3.9,2.2-5.8 c1.4-0.2,2.9-0.3,4.3-0.7C18.3,40.4,19.3,39.8,19.1,38.9z M13,35.7c0.6,0,0.4,0.3,0.4,0.8c0,0.4,0,0.8,0,1.2c0,0.8,0,1.6,0,2.4 c0,0-0.1,0-0.1,0.1c-0.2,0.1-0.6-2.1-0.6-2.3c0-0.4-0.1-0.8-0.1-1.3C12.6,36.1,12.4,35.7,13,35.7z M8.2,46.4 c-0.2-0.5-0.4-1.1-0.4-1.6c-0.1-0.5-0.3-1.2,0.3-1C8.6,44,9.1,45,9.4,45.5c0.3,0.6,0.5,1.2,0.7,1.9c0,0.2-0.1,0.3-0.1,0.5 C9.1,47.6,8.5,47.1,8.2,46.4z M3.6,52.4c1.6,1.3,2.9,2.8,4.1,4.5C7.8,57,7.9,57.1,8,57.1c0,0,0,0.1,0,0.1 C5.6,56.7,3.8,54.8,3.6,52.4z M13,55.2c-0.7,0.5-1.4,1-2.2,1.3c-0.4,0.2-0.9,0.3-1.4,0.4c0.5-0.4,0.9-0.8,1.5-1 C11.2,55.8,12.4,55.2,13,55.2z M14.5,46.9c0.6-0.1,1.6,0.3,0.8,0.8c-0.5,0.4-1.5,0.1-2.1,0.1c-0.7,0-1.4,0.1-2.1,0c0,0,0-0.1,0-0.2 c0.7-0.3,1.4-0.4,2.1-0.6C13.6,47,14,46.9,14.5,46.9z M17.6,39.6C17,40,15.9,39.9,15.2,40c-0.1,0-0.3,0-0.4,0.1 c0.5-0.3,1-0.5,1.5-0.7c0.3-0.1,0.6-0.2,0.9-0.2c0.3-0.1,0.5-0.1,0.8-0.1C18,39.4,17.9,39.6,17.6,39.6z"></path><path d="M32,46.4c-0.3-1.4-2.7-0.1-3.8,0.6c0-0.7,0-1.4,0-2.1c0-0.5,0.1-1.2-0.2-1.7c-0.4-0.8-1.4-0.7-1.7,0.1 c-0.4,1.1-0.1,2.8,0.2,3.8c0.1,0.2,0.2,0.4,0.3,0.6c0,0.1,0,0.2,0,0.3c-0.6,1.2-1.1,2.5-1.5,3.8c-0.2-0.6-0.5-1.1-0.8-1.6 c-0.4-0.5-1.3-1.5-2-0.8c-0.3,0.3-0.2,0.7-0.2,1.1c0.1,0.6,0.2,1.3,0.4,1.8c0.4,0.8,1,1.5,1.9,1.6c-0.6,1.9-1,3.9-1.2,5.9 c-1-1.5-2.3-2.8-3.7-3.9c-0.2-0.2-0.5,0.1-0.5,0.3c-0.2,2.4,1.6,4.7,4.1,5c-0.4,3.9-0.3,7.8,0.3,11.6c0.1,0.4,0.7,0.2,0.6-0.2 c-0.6-3.8-0.7-7.6-0.3-11.3c1.5-0.1,3.1-1.1,4.2-2.1c0.1-0.1,0.1-0.3,0-0.4c-0.5-0.5-1.4-0.2-2,0c-0.8,0.3-1.4,0.8-2,1.3 c0.3-2.1,0.7-4.1,1.3-6.1c1,0.2,2.1,0,3.2,0.1c0.8,0,1.3-0.2,1.4-1.1c0.2-2-3-0.8-4.2-0.3c0.5-1.5,1.1-3,1.7-4.5 c1.1-0.1,2.3-0.2,3.3-0.5C31.4,47.5,32.2,47.1,32,46.4z M27.2,43.8c0.4,0,0.3,0.2,0.3,0.6c0,0.3,0,0.6,0,0.9c0,0.6,0,1.3,0,1.9 c0,0,0,0-0.1,0c-0.1,0.1-0.5-1.7-0.5-1.8c0-0.3,0-0.7,0-1C26.9,44.1,26.8,43.8,27.2,43.8z M23.5,52.2c-0.2-0.4-0.3-0.8-0.3-1.3 c-0.1-0.4-0.3-1,0.2-0.8c0.5,0.2,0.8,0.9,1.1,1.4c0.2,0.5,0.4,1,0.5,1.4c0,0.1-0.1,0.2-0.1,0.4C24.2,53.1,23.7,52.7,23.5,52.2z  M19.9,56.9c1.2,1,2.3,2.2,3.2,3.5c0.1,0.1,0.1,0.1,0.2,0.1c0,0,0,0.1,0,0.1C21.4,60.2,20,58.7,19.9,56.9z M27.3,59 c-0.5,0.4-1.1,0.8-1.7,1c-0.3,0.2-0.7,0.3-1.1,0.3c0.4-0.3,0.7-0.6,1.2-0.8C25.8,59.5,26.7,59.1,27.3,59z M28.4,52.5 c0.4,0,1.2,0.2,0.6,0.7c-0.4,0.3-1.1,0.1-1.6,0.1c-0.6,0-1.1,0.1-1.6,0c0,0,0-0.1,0-0.1c0.5-0.2,1.1-0.3,1.6-0.5 C27.7,52.6,28,52.6,28.4,52.5z M30.8,46.9c-0.5,0.3-1.3,0.2-1.9,0.3c-0.1,0-0.2,0-0.3,0c0.4-0.2,0.7-0.4,1.2-0.5 c0.2-0.1,0.4-0.1,0.7-0.2c0.2,0,0.4-0.1,0.6-0.1C31.1,46.7,31,46.9,30.8,46.9z"></path><path d="M60.2,48.3c-0.3-1.3-2.5-0.1-3.5,0.5c0-0.6,0-1.3,0-1.9c0-0.5,0.1-1.1-0.2-1.6c-0.4-0.7-1.3-0.7-1.6,0.1 c-0.4,1-0.1,2.5,0.2,3.5c0.1,0.2,0.2,0.4,0.3,0.6c0,0.1,0,0.2,0,0.3c-0.5,1.1-1,2.3-1.4,3.5c-0.2-0.5-0.4-1-0.8-1.5 c-0.4-0.4-1.2-1.3-1.9-0.8c-0.3,0.3-0.2,0.7-0.2,1c0.1,0.6,0.2,1.2,0.4,1.7c0.3,0.8,1,1.4,1.8,1.5c-0.5,1.8-0.9,3.6-1.2,5.4 c-0.9-1.4-2.1-2.6-3.4-3.6c-0.2-0.2-0.5,0.1-0.5,0.3c-0.2,2.2,1.5,4.4,3.8,4.6c-0.4,3.6-0.3,7.2,0.3,10.8c0.1,0.4,0.6,0.2,0.6-0.2 c-0.6-3.5-0.6-7-0.2-10.5c1.4-0.1,2.9-1,3.9-1.9c0.1-0.1,0.1-0.3,0-0.4c-0.5-0.5-1.3-0.2-1.9,0c-0.7,0.3-1.3,0.7-1.9,1.2 c0.3-1.9,0.7-3.8,1.2-5.7c1,0.2,2,0,2.9,0.1c0.7,0,1.2-0.2,1.3-1c0.2-1.9-2.8-0.7-3.9-0.3c0.5-1.4,1-2.8,1.6-4.2 c1-0.1,2.1-0.2,3.1-0.5C59.6,49.4,60.3,49,60.2,48.3z M55.7,46c0.4,0,0.3,0.2,0.3,0.6c0,0.3,0,0.6,0,0.8c0,0.6,0,1.2,0,1.8 c0,0,0,0-0.1,0c-0.1,0.1-0.4-1.6-0.4-1.7c0-0.3,0-0.6,0-0.9C55.4,46.2,55.3,46,55.7,46z M52.2,53.7c-0.2-0.4-0.3-0.8-0.3-1.2 c-0.1-0.3-0.2-0.9,0.2-0.7c0.4,0.2,0.8,0.9,1,1.3c0.2,0.4,0.3,0.9,0.5,1.3c0,0.1-0.1,0.2-0.1,0.3C52.9,54.6,52.5,54.2,52.2,53.7z  M48.9,58.1c1.1,1,2.1,2,3,3.2c0,0.1,0.1,0.1,0.2,0.1c0,0,0,0.1,0,0.1C50.4,61.2,49.1,59.8,48.9,58.1z M55.8,60.1 c-0.5,0.4-1,0.7-1.6,0.9c-0.3,0.1-0.7,0.2-1,0.3c0.3-0.3,0.7-0.5,1.1-0.8C54.5,60.5,55.3,60.1,55.8,60.1z M56.8,54 c0.4,0,1.1,0.2,0.6,0.6c-0.4,0.3-1.1,0.1-1.5,0.1c-0.5,0-1,0-1.5,0c0,0,0-0.1,0-0.1c0.5-0.2,1-0.3,1.5-0.4 C56.2,54.1,56.5,54.1,56.8,54z M59.1,48.8c-0.4,0.3-1.2,0.2-1.7,0.3c-0.1,0-0.2,0-0.3,0c0.3-0.2,0.7-0.4,1.1-0.5 c0.2-0.1,0.4-0.1,0.6-0.2c0.2,0,0.4-0.1,0.6-0.1C59.3,48.6,59.3,48.8,59.1,48.8z"></path><path d="M69.5,53.7c-0.2-1-2-0.1-2.8,0.4c0-0.5,0-1,0-1.5c0-0.4,0.1-0.9-0.1-1.2c-0.3-0.6-1-0.5-1.2,0.1c-0.3,0.8-0.1,2,0.1,2.8 c0,0.2,0.1,0.3,0.2,0.4c0,0.1,0,0.1,0,0.2c-0.4,0.9-0.8,1.8-1.1,2.7c-0.2-0.4-0.3-0.8-0.6-1.1c-0.3-0.3-1-1.1-1.5-0.6 c-0.2,0.2-0.2,0.5-0.1,0.8c0.1,0.5,0.1,0.9,0.3,1.3c0.3,0.6,0.7,1.1,1.4,1.2c-0.4,1.4-0.7,2.8-0.9,4.2c-0.7-1.1-1.7-2-2.7-2.8 c-0.2-0.1-0.4,0.1-0.4,0.2c-0.1,1.8,1.2,3.4,2.9,3.6c-0.3,2.8-0.2,5.6,0.2,8.4c0,0.3,0.5,0.2,0.4-0.1c-0.4-2.7-0.5-5.5-0.2-8.2 c1.1-0.1,2.2-0.8,3-1.5c0.1-0.1,0.1-0.2,0-0.3c-0.4-0.4-1-0.1-1.5,0c-0.6,0.2-1,0.5-1.5,1c0.2-1.5,0.5-3,0.9-4.4 c0.8,0.1,1.5,0,2.3,0c0.6,0,1-0.2,1-0.8c0.2-1.4-2.2-0.6-3-0.2c0.4-1.1,0.8-2.2,1.3-3.3c0.8-0.1,1.6-0.2,2.4-0.4 C69.1,54.5,69.6,54.2,69.5,53.7z M66.1,51.9c0.3,0,0.2,0.2,0.2,0.5c0,0.2,0,0.4,0,0.7c0,0.5,0,0.9,0,1.4c0,0,0,0,0,0 c-0.1,0.1-0.3-1.2-0.4-1.3c0-0.2,0-0.5,0-0.7C65.8,52.1,65.7,51.9,66.1,51.9z M63.3,57.9c-0.1-0.3-0.2-0.6-0.3-0.9 c0-0.3-0.2-0.7,0.2-0.6c0.4,0.1,0.6,0.7,0.8,1c0.2,0.3,0.3,0.7,0.4,1c0,0.1-0.1,0.2-0.1,0.3C63.9,58.6,63.5,58.3,63.3,57.9z  M60.7,61.3c0.9,0.8,1.6,1.6,2.3,2.5c0,0.1,0.1,0.1,0.1,0.1c0,0,0,0.1,0,0.1C61.9,63.7,60.8,62.7,60.7,61.3z M66.1,62.9 c-0.4,0.3-0.8,0.5-1.2,0.7c-0.3,0.1-0.5,0.2-0.8,0.2c0.3-0.2,0.5-0.4,0.8-0.6C65.1,63.2,65.7,62.9,66.1,62.9z M66.9,58.2 c0.3,0,0.9,0.1,0.5,0.5c-0.3,0.2-0.8,0.1-1.2,0.1c-0.4,0-0.8,0-1.2,0c0,0,0-0.1,0-0.1c0.4-0.1,0.8-0.3,1.2-0.3 C66.4,58.2,66.7,58.2,66.9,58.2z M68.7,54.1c-0.3,0.2-1,0.2-1.4,0.2c-0.1,0-0.2,0-0.3,0c0.3-0.2,0.5-0.3,0.8-0.4 c0.2-0.1,0.3-0.1,0.5-0.1c0.1,0,0.3-0.1,0.4-0.1C68.9,53.9,68.8,54,68.7,54.1z"></path><path d="M33.5,43.8c1.2,0.4,2.6,0.5,3.8,0.6c0.8,1.7,1.4,3.4,2,5.2c-1.3-0.6-5.1-2-4.8,0.3c0.1,1,0.7,1.3,1.6,1.2 c1.2,0,2.5,0.1,3.7-0.1c0.7,2.3,1.2,4.7,1.5,7c-0.7-0.7-1.4-1.2-2.3-1.5c-0.7-0.3-1.7-0.7-2.3,0c-0.1,0.1-0.1,0.4,0,0.5 c1.2,1.2,3,2.3,4.8,2.4c0.5,4.3,0.4,8.7-0.3,13c-0.1,0.5,0.6,0.7,0.7,0.2c0.7-4.4,0.9-8.9,0.4-13.4c2.8-0.3,4.9-2.9,4.7-5.7 c0-0.3-0.3-0.6-0.6-0.4c-1.6,1.3-3.1,2.7-4.3,4.4c-0.3-2.3-0.8-4.5-1.4-6.8c1-0.1,1.8-0.9,2.2-1.8c0.3-0.7,0.4-1.4,0.5-2.1 c0.1-0.4,0.1-0.9-0.2-1.2c-0.8-0.7-1.9,0.4-2.3,0.9c-0.4,0.5-0.7,1.2-1,1.8c-0.5-1.5-1.1-2.9-1.8-4.4c0-0.1,0-0.2,0-0.3 c0.2-0.2,0.3-0.5,0.4-0.7c0.4-1.2,0.7-3.2,0.2-4.4c-0.4-0.9-1.5-1-2-0.1c-0.3,0.6-0.2,1.3-0.2,2c0,0.8,0,1.6,0,2.4 c-1.2-0.8-4.1-2.3-4.4-0.7C31.9,43.1,32.8,43.6,33.5,43.8z M38,40.2c0,0.4,0,0.8,0,1.1c0,0.2-0.4,2.2-0.6,2.1c0,0-0.1,0-0.1,0 c0-0.7,0-1.5,0-2.2c0-0.3,0-0.7,0-1c0-0.5-0.2-0.7,0.3-0.7C38.1,39.4,38,39.7,38,40.2z M40.4,50.3c0-0.1-0.1-0.3-0.1-0.4 c0.2-0.6,0.3-1.1,0.6-1.7c0.2-0.5,0.7-1.4,1.2-1.6c0.6-0.2,0.3,0.5,0.3,0.9c-0.1,0.5-0.2,1-0.4,1.5C41.6,49.7,41.1,50.1,40.4,50.3z  M42.1,58.8c0,0,0-0.1,0-0.1c0.1,0,0.2-0.1,0.2-0.1c1.1-1.5,2.3-2.8,3.7-4C45.9,56.6,44.3,58.3,42.1,58.8z M39.4,57.6 c0.5,0.3,0.9,0.6,1.3,0.9c-0.4-0.1-0.8-0.2-1.2-0.4c-0.7-0.3-1.3-0.7-1.9-1.2C38.1,56.9,39.2,57.4,39.4,57.6z M37.4,49.6 c0.6,0.1,1.3,0.3,1.9,0.5c0,0,0,0.1,0,0.1c-0.6,0.1-1.2,0-1.9,0c-0.6,0-1.4,0.2-1.9-0.1c-0.7-0.5,0.2-0.8,0.7-0.8 C36.6,49.5,37,49.5,37.4,49.6z M33.2,42.4c0.2,0,0.5,0,0.7,0.1c0.3,0.1,0.5,0.1,0.8,0.2c0.5,0.2,0.9,0.4,1.3,0.6 c-0.1,0-0.3,0-0.4-0.1c-0.6-0.1-1.6,0-2.1-0.4C33.2,42.9,33.1,42.7,33.2,42.4z"></path><path d="M97,48.3c-0.3-1.3-2.5-0.1-3.5,0.5c0-0.6,0-1.3,0-1.9c0-0.5,0.1-1.1-0.2-1.6c-0.4-0.7-1.3-0.7-1.6,0.1 c-0.4,1-0.1,2.5,0.2,3.5c0.1,0.2,0.2,0.4,0.3,0.6c0,0.1,0,0.2,0,0.3c-0.5,1.1-1,2.3-1.4,3.5c-0.2-0.5-0.4-1-0.8-1.5 c-0.4-0.4-1.2-1.3-1.9-0.8c-0.3,0.3-0.2,0.7-0.2,1c0.1,0.6,0.2,1.2,0.4,1.7c0.3,0.8,1,1.4,1.8,1.5c-0.5,1.8-0.9,3.6-1.2,5.4 c-0.9-1.4-2.1-2.6-3.4-3.6c-0.2-0.2-0.5,0.1-0.5,0.3c-0.2,2.2,1.5,4.4,3.8,4.6c-0.4,3.6-0.3,7.2,0.3,10.8c0.1,0.4,0.6,0.2,0.6-0.2 c-0.6-3.5-0.6-7-0.2-10.5c1.4-0.1,2.9-1,3.9-1.9c0.1-0.1,0.1-0.3,0-0.4c-0.5-0.5-1.3-0.2-1.9,0c-0.7,0.3-1.3,0.7-1.9,1.2 c0.3-1.9,0.7-3.8,1.2-5.7c1,0.2,2,0,2.9,0.1c0.7,0,1.2-0.2,1.3-1c0.2-1.9-2.8-0.7-3.9-0.3c0.5-1.4,1-2.8,1.6-4.2 c1-0.1,2.1-0.2,3.1-0.5C96.4,49.4,97.1,49,97,48.3z M92.5,46c0.4,0,0.3,0.2,0.3,0.6c0,0.3,0,0.6,0,0.8c0,0.6,0,1.2,0,1.8 c0,0,0,0-0.1,0c-0.1,0.1-0.4-1.6-0.4-1.7c0-0.3,0-0.6,0-0.9C92.2,46.2,92.1,46,92.5,46z M89,53.7c-0.2-0.4-0.3-0.8-0.3-1.2 c-0.1-0.3-0.2-0.9,0.2-0.7c0.4,0.2,0.8,0.9,1,1.3c0.2,0.4,0.3,0.9,0.5,1.3c0,0.1-0.1,0.2-0.1,0.3C89.7,54.6,89.3,54.2,89,53.7z  M85.7,58.1c1.1,1,2.1,2,3,3.2c0,0.1,0.1,0.1,0.2,0.1c0,0,0,0.1,0,0.1C87.2,61.2,85.9,59.8,85.7,58.1z M92.6,60.1 c-0.5,0.4-1,0.7-1.6,0.9c-0.3,0.1-0.7,0.2-1,0.3c0.3-0.3,0.7-0.5,1.1-0.8C91.3,60.5,92.1,60.1,92.6,60.1z M93.6,54 c0.4,0,1.1,0.2,0.6,0.6c-0.4,0.3-1.1,0.1-1.5,0.1c-0.5,0-1,0-1.5,0c0,0,0-0.1,0-0.1c0.5-0.2,1-0.3,1.5-0.4 C93,54.1,93.3,54.1,93.6,54z M95.9,48.8c-0.4,0.3-1.2,0.2-1.7,0.3c-0.1,0-0.2,0-0.3,0c0.3-0.2,0.7-0.4,1.1-0.5 c0.2-0.1,0.4-0.1,0.6-0.2c0.2,0,0.4-0.1,0.6-0.1C96.2,48.6,96.1,48.8,95.9,48.8z"></path><path d="M70.3,43.8c1.2,0.4,2.6,0.5,3.8,0.6c0.8,1.7,1.4,3.4,2,5.2c-1.3-0.6-5.1-2-4.8,0.3c0.1,1,0.7,1.3,1.6,1.2 c1.2,0,2.5,0.1,3.7-0.1c0.7,2.3,1.2,4.7,1.5,7c-0.7-0.7-1.4-1.2-2.3-1.5c-0.7-0.3-1.7-0.7-2.3,0c-0.1,0.1-0.1,0.4,0,0.5 c1.2,1.2,3,2.3,4.8,2.4c0.5,4.3,0.4,8.7-0.3,13c-0.1,0.5,0.6,0.7,0.7,0.2c0.7-4.4,0.9-8.9,0.4-13.4c2.8-0.3,4.9-2.9,4.7-5.7 c0-0.3-0.3-0.6-0.6-0.4c-1.6,1.3-3.1,2.7-4.3,4.4c-0.3-2.3-0.8-4.5-1.4-6.8c1-0.1,1.8-0.9,2.2-1.8c0.3-0.7,0.4-1.4,0.5-2.1 c0.1-0.4,0.1-0.9-0.2-1.2c-0.8-0.7-1.9,0.4-2.3,0.9c-0.4,0.5-0.7,1.2-1,1.8c-0.5-1.5-1.1-2.9-1.8-4.4c0-0.1,0-0.2,0-0.3 c0.2-0.2,0.3-0.5,0.4-0.7c0.4-1.2,0.7-3.2,0.2-4.4c-0.4-0.9-1.5-1-2-0.1c-0.3,0.6-0.2,1.3-0.2,2c0,0.8,0,1.6,0,2.4 c-1.2-0.8-4.1-2.3-4.4-0.7C68.7,43.1,69.6,43.6,70.3,43.8z M74.8,40.2c0,0.4,0,0.8,0,1.1c0,0.2-0.4,2.2-0.6,2.1c0,0-0.1,0-0.1,0 c0-0.7,0-1.5,0-2.2c0-0.3,0-0.7,0-1c0-0.5-0.2-0.7,0.3-0.7C74.9,39.4,74.8,39.7,74.8,40.2z M77.2,50.3c0-0.1-0.1-0.3-0.1-0.4 c0.2-0.6,0.3-1.1,0.6-1.7c0.2-0.5,0.7-1.4,1.2-1.6c0.6-0.2,0.3,0.5,0.3,0.9c-0.1,0.5-0.2,1-0.4,1.5C78.4,49.7,77.9,50.1,77.2,50.3z  M78.9,58.8c0,0,0-0.1,0-0.1c0.1,0,0.2-0.1,0.2-0.1c1.1-1.5,2.3-2.8,3.7-4C82.7,56.6,81.1,58.3,78.9,58.8z M76.2,57.6 c0.5,0.3,0.9,0.6,1.3,0.9c-0.4-0.1-0.8-0.2-1.2-0.4c-0.7-0.3-1.3-0.7-1.9-1.2C74.9,56.9,76,57.4,76.2,57.6z M74.2,49.6 c0.6,0.1,1.3,0.3,1.9,0.5c0,0,0,0.1,0,0.1c-0.6,0.1-1.2,0-1.9,0c-0.6,0-1.4,0.2-1.9-0.1c-0.7-0.5,0.2-0.8,0.7-0.8 C73.4,49.5,73.8,49.5,74.2,49.6z M70,42.4c0.2,0,0.5,0,0.7,0.1c0.3,0.1,0.5,0.1,0.8,0.2c0.5,0.2,0.9,0.4,1.3,0.6 c-0.1,0-0.3,0-0.4-0.1c-0.6-0.1-1.6,0-2.1-0.4C70,42.9,69.9,42.7,70,42.4z"></path></svg>