<svg xmlns="http://www.w3.org/2000/svg" xmlns:xlink="http://www.w3.org/1999/xlink" x="0px" y="0px" viewBox="0 0 100 100" style="enable-background:new 0 0 100 100;" xml:space="preserve">	<style type="text/css">		.btr0{fill:#B1E2F6;}	.btr1{fill:#D3DC4E;}	.btr2{fill:#6659A0;}	.btr3{fill:#5E4837;}	.btr4{fill:#FFFFFF;}	</style>	<g>		<path class="btr0" d="M85,61.7c-2.5,3.2-9.5,0-12.5-0.9c-2.7-0.8-5.9-1.3-8,0.1c-1.2-1-2.4-2.1-3.6-3.1  c-0.1-0.1-0.2-0.2-0.3-0.2c0.9-1.4,1.9-2.8,3-4.1c1-1.2,2-2.3,3.1-3.4C70.9,46,76,43,81.9,42.3C86.2,47.7,89.6,55.9,85,61.7z   M80.1,61.2c3,0.2,5.2-1.9,5.2-5c0-3.3-3.2-4-5.9-3.2c-1.5,0.4-2.6,1.1-3.8,1.9c-0.8,0.6-2.2,2.2-2.7,2.3l0.1,0.1  C74.9,59.2,77.1,61.1,80.1,61.2z">		</path>		<path class="btr0" d="M66.6,84.5c2.5-5.9-4-7.8-8.3-8.2l-0.1-0.1c-0.6,3-0.3,6.6,2,8.9  C62.2,87.2,65.2,87.6,66.6,84.5z M58.1,61.5c1.4,1,2.9,1.8,4.4,2.5c-1.2,5,4.8,11,6.8,15c2.8,5.6-1.3,8.9-6.6,9.8  c-2,0.3-10.2,1.4-13.8-0.5c-0.4-2.5-0.1-5.2,0.7-7.9c0.3-0.9,0.5-1.8,0.9-2.7c1.4-4,3.5-7.9,4.9-10.9  C56.2,65.1,57.1,63.3,58.1,61.5z">		</path>		<path class="btr1" d="M48.8,50.9c0.8-0.2,1.2,0.9,1.4,1.4c0.1,0.4,0.1,0.7-0.1,0.9c-0.1,0-0.1,0-0.1,0.1  c-0.1,0.1-0.3,0.1-0.5,0c-0.3-0.1-0.6-0.2-1-0.4c-0.2-0.2-0.3-0.5-0.4-0.8C48,51.7,48.2,51,48.8,50.9z">		</path>		<path class="btr1" d="M62.9,63c-1.4-0.7-2.8-1.6-4.1-2.5c-0.3-0.2-0.6-0.4-0.8-0.6c-0.2-0.1-0.3-0.3-0.5-0.4  c-1.1-0.8-2.1-1.7-3.2-2.6c-1.2-1-2.4-2.1-3.6-3.1c0.1-0.1,0.1-0.1,0.2-0.2c0.1-0.2,0.1-0.4,0.2-0.6c0.7,0.4,1.5,0.8,2.2,1.2  c0.7,0.4,1.5,0.8,2.2,1.2c1.3,0.8,2.6,1.5,3.8,2.4c0.3,0.2,0.5,0.4,0.8,0.6c0.5,0.4,1,0.8,1.5,1.1c0.8,0.7,1.6,1.3,2.3,2  c0.2,0.2,0.4,0.3,0.5,0.5c1.3,1.1,2.7,2.2,4.1,3.2c-1.8-0.4-3.4-1-4.9-1.7C63.4,63.3,63.1,63.2,62.9,63z">		</path>		<path class="btr2" d="M56.5,11.1c3.7,0.9,7.3,3.3,10.4,6.6c-3.9,5.8-11,7.7-18,8.4c0.2-1.3,0.5-2.6,0.8-3.8  C50.8,17.5,53.5,14.3,56.5,11.1z">		</path>		<path class="btr0" d="M48.7,27c3.6-0.1,7.4-1.5,10.8-2.5c1.3-0.4,7.5-3.5,8.2-5.9c4.3,4.8,7.4,11.2,8.1,16.6  c-1.2,3.5-3.3,6.4-6.2,9.7c-1.4,1.6-2.8,3.2-4,4.9c-2.2,2.2-4.1,4.7-5.8,7.2c-1.8-1.3-3.8-2.4-5.9-3.5c-3.4-4.8-4.9-11-5.5-16.6  C48.2,33.6,48.3,30.3,48.7,27z">		</path>		<path class="btr0" d="M54.1,58.3c1,0.9,2.1,1.8,3.2,2.6c-0.5,0.8-1,1.7-1.4,2.5c-2,3.9-5.4,10-7.1,15.9  C43.5,84,37.2,86,29.4,83.9c-1.1-0.3-2.1-0.7-3.2-1.1c0,0,0,0,0.1,0c1.7-3.6,3.4-7.2,3.4-11.5c0-1.9-2.2-10.5-5-10.5  c3-1.8,6.2-3.2,9.6-4.2C41.5,54.5,47.7,56,54.1,58.3z">		</path>		<path class="btr2" d="M24,61.2c5.8,3.4,5.9,16.8,1,20.8l0.6,0.4c0,0,0,0.1,0,0.1c-5-2.3-9.7-6.2-12.4-10.8  C15.9,67.5,19.7,63.9,24,61.2z">		</path>		<path class="btr3" d="M67.2,17.2c0.6,0.4,0.7,0.9,0.6,1.5c-0.3-0.3-0.6-0.7-0.9-1C66.9,17.5,67.1,17.3,67.2,17.2z">		</path>		<path class="btr3" d="M59.5,24.5c-3.4,1-7.2,2.4-10.8,2.5c0-0.3,0.1-0.6,0.1-0.9c6.9-0.7,14.1-2.6,18-8.4  c0.3,0.3,0.6,0.6,0.9,1C67,21,60.8,24.1,59.5,24.5z">		</path>		<path class="btr3" d="M48.8,25.8l0,0.2c-0.1,0-0.3,0-0.4,0C48.5,26.1,48.6,25.9,48.8,25.8z">		</path>		<path class="btr3" d="M48.9,26c0,0.3-0.1,0.6-0.1,0.9c-0.2,0-0.4,0-0.7,0c0.1-0.4,0.4-0.7,0.7-1  C48.8,26.1,48.8,26,48.9,26z">		</path>		<path class="btr2" d="M75.5,54.9c1.2-0.8,2.4-1.5,3.8-1.9c2.8-0.8,5.9-0.1,5.9,3.2c0,3.1-2.2,5.2-5.2,5  c-3-0.2-5.1-2-7.2-4l-0.1-0.1C73.3,57.1,74.8,55.4,75.5,54.9z">		</path>		<path class="btr2" d="M58.3,76.3c4.3,0.4,10.8,2.3,8.3,8.2c-1.3,3.1-4.3,2.6-6.4,0.6c-2.3-2.2-2.6-5.9-2-8.9  L58.3,76.3z">		</path>		<path class="btr3" d="M24.7,60.8c-0.2,0.1-0.5,0.3-0.7,0.4c-0.1,0-0.2-0.1-0.2-0.1C24.1,60.9,24.4,60.8,24.7,60.8z">		</path>		<path class="btr3" d="M29.7,71.3c0,4.3-1.7,7.9-3.4,11.5c0,0,0,0-0.1,0c-0.2-0.1-0.4-0.2-0.6-0.3c0,0,0-0.1,0-0.1  L25,82c4.9-4,4.8-17.4-1-20.8c0.2-0.2,0.5-0.3,0.7-0.4C27.5,60.8,29.7,69.4,29.7,71.3z">		</path>		<path class="btr3" d="M25.6,82.5c0.2,0.1,0.4,0.2,0.6,0.3C25.7,82.8,25.6,82.7,25.6,82.5z">		</path>		<path class="btr3" d="M81.9,42.3C76,43,70.9,46,66.6,50.2c-1.1,1.1-2.1,2.2-3.1,3.4c-1.1,1.3-2.1,2.7-3,4.1  c0.1,0.1,0.2,0.2,0.3,0.2c1.2,1,2.4,2.1,3.6,3.1c2.1-1.4,5.2-0.9,8-0.1c3,0.9,10,4.1,12.5,0.9C89.6,55.9,86.2,47.7,81.9,42.3z   M53.9,53.5c2,1,4,2.1,5.9,3.5c1.7-2.4,3.6-4.9,5.8-7.2c1.2-1.7,2.6-3.3,4-4.9c2.9-3.3,4.9-6.2,6.2-9.7c-0.6-5.4-3.8-11.7-8.1-16.6  c0.2-0.5,0-1.1-0.6-1.5c-0.1,0.2-0.2,0.3-0.3,0.5c-3.1-3.2-6.7-5.7-10.4-6.6c-3,3.3-5.7,6.5-6.8,11.1c-0.3,1.3-0.6,2.5-0.8,3.8  c0,0-0.1,0-0.1,0l0-0.2c-0.2,0.1-0.3,0.2-0.4,0.3c0.1,0,0.3,0,0.4,0c-0.3,0.3-0.5,0.6-0.7,1c0.2,0,0.4,0,0.7,0  c-0.5,3.3-0.6,6.6-0.3,9.9C49,42.5,50.6,48.7,53.9,53.5z M57.3,60.9c-1.1-0.8-2.2-1.7-3.2-2.6c-6.4-2.3-12.7-3.8-19.9-1.7  c-3.4,1-6.6,2.4-9.6,4.2c-0.3,0-0.6,0.1-0.9,0.3c0.1,0,0.2,0.1,0.2,0.1c-4.3,2.7-8,6.2-10.8,10.5c2.7,4.6,7.4,8.5,12.4,10.8  c0,0.2,0.1,0.3,0.6,0.3c1.1,0.5,2.1,0.8,3.2,1.1c7.8,2,14.1,0.1,19.4-4.6c1.7-5.9,5-12,7.1-15.9C56.3,62.6,56.8,61.8,57.3,60.9z   M62.6,64.1c-1.5-0.7-3-1.6-4.4-2.5c-1,1.8-1.9,3.6-2.7,5.3c-1.4,3-3.4,6.9-4.9,10.9c-0.3,0.9-0.6,1.8-0.9,2.7  c-0.7,2.7-1.1,5.4-0.7,7.9c3.6,1.9,11.8,0.8,13.8,0.5c5.2-0.9,9.4-4.2,6.6-9.8C67.3,75,61.4,69,62.6,64.1z M50.2,52.3  c-0.2-0.5-0.6-1.7-1.4-1.4c-0.5,0.2-0.8,0.8-0.7,1.3c0.1,0.3,0.2,0.5,0.4,0.8c0.3,0.2,0.6,0.3,1,0.4c0.2,0.1,0.4,0,0.5,0  c0-0.1,0-0.1,0.1-0.1C50.3,53.1,50.3,52.7,50.2,52.3z M55.4,55.4c-0.7-0.4-1.5-0.8-2.2-1.2c-0.8-0.4-1.5-0.8-2.2-1.2  c0,0.2,0,0.4-0.2,0.6c0,0.1-0.1,0.1-0.2,0.2c1.2,1.1,2.4,2.1,3.6,3.1c1.1,0.9,2.1,1.8,3.2,2.6c0.2,0.1,0.3,0.3,0.5,0.4  c0.3,0.2,0.5,0.4,0.8,0.6c1.3,0.9,2.7,1.8,4.1,2.5c0.3,0.1,0.5,0.3,0.8,0.4c1.5,0.7,3.2,1.3,4.9,1.7c-1.4-1-2.8-2.1-4.1-3.2  c-0.2-0.2-0.4-0.3-0.5-0.5c-0.8-0.7-1.5-1.3-2.3-2c-0.5-0.4-1-0.8-1.5-1.1c-0.3-0.2-0.5-0.4-0.8-0.6C58,56.9,56.8,56.1,55.4,55.4z   M71,66.7c-2.5-0.4-5.1-1.1-7.5-2.1c0.1,3.3,3.1,8.1,4.5,10.3c4.3,7,4.4,13.4-5.1,14.8c-1.6,0.2-9.8,0.9-13.9-0.6  c-0.4-0.1-0.7-0.3-1-0.5c-0.1-0.4-0.1-0.7-0.2-1.1c-0.2-1.8,0-3.8,0.4-5.8c-5.2,4.1-12.9,5.5-19.1,3.2c-5.5-2.1-13.5-6.6-16.4-12.5  c-0.1-0.2-0.2-0.4-0.3-0.6c0.1-0.3,0.2-0.5,0.3-0.8c3.5-7,12.4-12.7,19.4-14.8c6.7-2,13.5-2,19.9-0.1c-0.6-0.7-1.2-1.5-1.8-2.2  c-0.2,0.1-0.4,0.1-0.7,0.1c0,0.1,0,0.1-0.1,0.1c-0.6,0.2-1.4-0.5-1.8-0.9c-0.2-0.3-0.4-0.7-0.4-1c-2.8-2.4-6.3-4.8-9.9-5.6  c-1.9-0.5-5.2-1-6.6,0.8c-0.7,0.8-1.3,2.2-1,3.3c0.2,0.5,3.6,0.3,1.9-0.8c-0.2-0.1-0.1-0.5,0.2-0.4c2,0.6,1.6,2.9-0.4,3.1  c-2.5,0.3-3.2-2.3-2.4-4.3c3.1-7.1,14-0.2,18.2,3.3c0-0.4,0.2-0.7,0.4-1c-3.3-1.8-7.4-4.8-9.3-8c-0.7-1.2-2.7-5.8,0-6.3  c2.4-0.5,4.8,1.1,5.4,3.4c0.5,2-2,1.3-2.9,0.8c-0.2-0.1-0.3-0.4-0.2-0.6c0.6-1.2,1.1-1.1,2.2-0.6c0-0.2-0.2-0.6-0.8-1.1  c-1.8-1.6-5-0.9-4.1,1.9c0.6,1.9,1.8,3.5,3.3,4.9c2.1,1.9,4.8,3.3,6.5,5.5c0.3-0.3,0.7-0.4,1.2-0.3c0.8,0.2,1.5,1.1,1.7,2  c0.1-0.1,0.3-0.1,0.4,0c0.3,0.1,0.6,0.3,0.8,0.4c-2.9-4.7-4.4-10.6-4.7-15.7c-0.5-10,1.5-18.9,8.1-26c0.3-0.3,0.6-0.6,1-1  c0.3,0,0.5,0.1,0.8,0.2c5.6,1.3,9.8,6.3,13,10.9c2.2,3.2,5.1,6.9,6.3,10.8c0.3,0.9,0.5,1.8,0.6,2.7c-0.3,1.3-0.8,2.6-1.4,3.8  c-1.2,2.4-3,4.7-4.9,6.9c3.1-2.2,6.4-3.7,10-4.1c0.2,0,0.5,0,0.7-0.1c0.4,0.4,0.8,0.8,1.1,1.2c3.8,4.4,5.4,9.7,4.6,15.9  c-0.3,2.7-1.9,5.5-4.9,5.6c-4.9,0.2-9.1-2.8-13.9-2.9c-1.5-0.1-2.6,0.2-3.3,0.6c1.9,1.6,4,3.1,6.3,4.3C72,66,71.6,66.7,71,66.7z">		</path>		<path class="btr4" d="M46.5,58.4c-2,0.9-17.3,0.4-15.3,6.1c1.2,3.5,13.1-4.7,15.3-5.6">		</path>		<path class="btr4" d="M55.4,49.7c-3.1,0.7-7.6-13.6-5-16.3c5.8-6,4.2,13.8,4.7,16.1c0.5,0.3,0.3-0.2,0.7-0.3">		</path>		<path class="btr4" d="M48.9,63.2C45.1,66,32.3,70.3,34.3,77c3-0.3,5.5-3.9,7.4-5.8c2.3-2.2,5.8-4.3,7.2-7.1">		</path>		<path class="btr4" d="M58,48.5c0.6-2.5-1.4-16.7,3.6-18.7c5.1-2-2.8,15.5-3.6,17.8">		</path>		<path class="btr4" d="M46.5,74.5c-2.2,1.2-6.4,8.2-1.4,5.6c5-2.5,0.9-8.8-0.5-3.7">		</path>		<path class="btr4" d="M64.9,43.1c-1.8,1.9-0.3,2.8,1.7,1.7c1-0.6,3.1-4,2.8-5.2c-0.9-3.9-7.4,2.5-4.9,5.4">		</path>		<path class="btr4" d="M16.6,73.3c1.1,0.7,7.8,7.7,9,3.3c-0.6-1.1-3.6-3.2-3.6-4c0-1.9,4-1.9,3.5-4.2  c-1.1-4.2-9.4,3.2-8.6,4.7">		</path>		<path class="btr4" d="M56.7,14.5c-1.4,1.4-5.9,5-4.5,7.3c2,3.1,5.2-1.8,5.7-3.7c0.8,2.5,6,3.1,5.3-0.3  c-0.4-2.3-4.6-2.8-6.6-2.9">		</path>		<path class="btr4" d="M57.7,69.1c-2.1,2.5,3.5,5.4,3.1,0.3c-0.4-5-5.1-0.6-2.4,2.3">		</path>		<path class="btr4" d="M67.5,56.1c-0.5,0.3-0.8,0.1-1.1,0.7c2.1,1.5,5.6-1.9,3.1-3.1c-1.7-0.8-5.7,3.6-1.7,3.1">		</path>		<path class="btr4" d="M61,80.5c1.5,5.9,7.2,1.1,1,0">		</path>		<path class="btr4" d="M79.9,57.1c1.2,1.3,5,0.9,3.4-0.9c-1.2-1.4-3.5,0.2-4.8,0.9">		</path>		<path class="btr4" d="M51,82.4c-1.5,3.1,1,8.3,4.9,4.5c-1.2-1.7-5.1-2.3-4.2-4.7">		</path>		<path class="btr4" d="M77.1,46.7c0.8-1.4,5.5-2.2,6.5,0.7c1.5,4.7-3.8,1.9-5.3,0.9">		</path>	</g></svg>