<svg xmlns="http://www.w3.org/2000/svg" xmlns:xlink="http://www.w3.org/1999/xlink" x="0px" y="0px" viewBox="0 0 100 100" style="enable-background:new 0 0 100 100;" xml:space="preserve"><g>	<path d="M16.9,74.7c-0.7,0-1.3-0.1-2-0.1l0.1-0.5v0v0l0,0v-0.5l0.1,0v0c0.6,0.1,1.2,0.1,1.9,0.1l0,0v0c0,0,0,0,0,0L16.9,74.7l0-0.6  L16.9,74.7z M18.8,74.7l0-1c0.6,0,1.3-0.1,1.9-0.2l0.1,0.4v-0.4V74l0.1,0.5l-0.1,0C20.1,74.6,19.5,74.7,18.8,74.7v-0.5V74.7z   M20.7,74.1L20.7,74.1L20.7,74.1z M13.1,74.3l-0.1,0l0,0c-0.6-0.1-1.3-0.3-1.9-0.5l0.3-0.9l-0.1,0.3l0.1-0.3c0,0,0,0,0,0v0v0  c0.6,0.2,1.2,0.3,1.8,0.5l-0.1,0.4l0.1-0.4l-0.1,0.4V74.3z M13.1,73.8L13.1,73.8L13.1,73.8z M11.2,73.2l0,0.1l0.1-0.3L11.2,73.2z   M22.7,74.3l-0.1-0.5v0l-0.2-0.5l0.1,0l0,0c0.6-0.1,1.2-0.2,1.9-0.4l0,0l0.1,0v0.5l0,0l0,0v0.4v-0.4l0.1,0.4  C24,74,23.4,74.2,22.7,74.3z M24.7,73.9l-0.1-0.5L24.7,73.9z M26.5,73.4l-0.3-0.9l0,0c0.6-0.2,1.2-0.4,1.8-0.6v0l0,0l0.3,0.9  c0,0,0,0,0,0l0,0C27.7,73,27.1,73.2,26.5,73.4l-0.1-0.4L26.5,73.4z M9.2,73.2l0.2-0.5L9.2,73.2z M9.2,73.1  c-0.6-0.3-1.2-0.5-1.8-0.8l0,0l0,0l0.3-0.4l0.2-0.5l-0.1,0.4l0.2-0.4C8.4,71.7,9,72,9.6,72.3l0,0l0.1,0l-0.3,0.4l0,0l0,0L9.2,73.1  l0.2-0.4L9.2,73.1z M7.7,71.8L7.7,71.8L7.7,71.8L7.7,71.8z M30.2,72.2L30,71.7L30.2,72.2l-0.3-0.9l0.1,0.2l-0.1-0.2  c0.6-0.2,1.2-0.5,1.8-0.7l0.2,0.4v0l0.2,0.4C31.4,71.7,30.8,71.9,30.2,72.2z M30,71.7l-0.2-0.4L30,71.7z M5.7,71.3  c-0.5-0.4-1.1-0.8-1.5-1.2l0.3-0.4l0,0l0.3-0.4l0.1,0.1l0,0c0.5,0.4,0.9,0.8,1.5,1.2l0,0l0.1,0.1L6,70.9L5.7,71.3z M33.8,70.7  l-0.2-0.5l-0.3-0.4l0.2,0.4l-0.2-0.4l1.8-0.8l0.2,0.4l-0.1-0.4l0.1,0.4l0.3,0.4l-0.1,0l0,0L33.8,70.7L33.8,70.7L33.8,70.7z   M33.6,70.3L33.6,70.3L33.6,70.3L33.6,70.3z M35.4,69.5L35.4,69.5L35.4,69.5z M37.3,69.2l-0.2-0.5l-0.3-0.4l0.2,0.4l-0.2-0.4  c0.6-0.3,1.2-0.6,1.7-0.8l0,0l0.1,0l0.2,0.5l0,0l0,0l0.1,0.4l-0.1-0.4l0.2,0.4C38.5,68.6,37.9,68.9,37.3,69.2L37.3,69.2L37.3,69.2z   M37.1,68.7L37.1,68.7L37.1,68.7L37.1,68.7z M2.9,68.7l-0.1-0.1l0.4-0.3l0.3-0.4l-0.3,0.4L3.6,68l-0.4,0.3L2.9,68.7z M39.1,68.3  l-0.3-0.4L39.1,68.3z M40.7,67.4L40.6,67l-0.3-0.4l0,0l0,0c0.6-0.3,1.1-0.6,1.6-1l0,0l0.1-0.1l0.2,0.5l0.3,0.4L42.3,66l0.2,0.4  C41.9,66.7,41.4,67.1,40.7,67.4L40.6,67L40.7,67.4z M42.2,66L42.2,66L42.2,66z M44.1,65.3l-0.3-0.4l-0.3-0.3l0.3,0.3l-0.2-0.4  c0.5-0.4,1-0.8,1.5-1.1l0.3,0.3l-0.2-0.4l0.2,0.4l0.4,0.4l0,0l0,0C45.2,64.5,44.7,64.9,44.1,65.3L44.1,65.3L44.1,65.3z M43.8,64.9  L43.8,64.9l-0.2-0.2L43.8,64.9z M45.4,63.8L45.4,63.8L45.4,63.8z M47.1,62.8l-0.7-0.7l0,0l0.4,0.4l-0.3-0.4  c0.5-0.4,0.9-0.9,1.3-1.4l0,0l0.1-0.1l0.3,0.4l0.4,0.3l-0.4-0.3l0,0l0.3,0.3C48.1,61.9,47.6,62.4,47.1,62.8z M48.2,61.1L48.2,61.1  L48.2,61.1z M49.7,59.9L49,59.3l0,0l0,0c0.4-0.5,0.7-1,1-1.6l0.4,0.2L50,57.7l0.4,0.2l0.5,0.2l0,0.1l0,0c0,0,0,0,0,0l0,0  C50.5,58.8,50.1,59.4,49.7,59.9l-0.3-0.3L49.7,59.9z M50.4,58L50.4,58L50.4,58z M51.7,56.6l-0.4-0.2l-0.5-0.2l0-0.1l0,0  c0.3-0.6,0.5-1.1,0.7-1.7h0h0c0,0,0,0,0,0l0.3,0.1l-0.3-0.1l0.9,0.3L52,54.5l0.5,0.2C52.3,55.3,52,55.9,51.7,56.6l-0.4-0.2  L51.7,56.6z M51.3,56.3L51.3,56.3L51.3,56.3L51.3,56.3z M52.9,52.8l-0.5-0.2l-0.5,0h0.5l0,0L52,52.5c0.1-0.6,0.2-1.2,0.2-1.8l0,0  c0,0,0,0,0,0l1,0l-0.6,0l0.6,0C53.1,51.4,53.1,52.1,52.9,52.8L52.9,52.8L52.9,52.8z M52.4,52.6L52.4,52.6L52.4,52.6L52.4,52.6z   M52.2,48.9l0.4-0.1L52.2,48.9c0-0.1,0-0.1,0-0.1l0,0c0-0.6-0.1-1.1-0.2-1.7l0-0.2l0.4,0H52h0.4l0.5-0.1l0,0.1l0,0l0,0.2  c0.1,0.6,0.1,1.2,0.2,1.8l0,0l0,0h-0.5L52.2,48.9z M52.6,48.8l-0.1,0L52.6,48.8z M52.5,46.9L52.5,46.9L52.5,46.9L52.5,46.9z   M51.9,45.1l0.4-0.1L51.9,45.1c0-0.4,0-0.7,0-1c0-0.4,0-0.7,0-1.1l0,0l0-0.1l0.5,0.1l0.5,0h-0.4l0,0l0.4,0c0,0.3,0,0.6,0,1  c0,0.3,0,0.6,0,0.9h0l0,0h-0.5L51.9,45.1z M52.3,45l-0.2,0L52.3,45z M52.3,43L52.3,43L52.3,43z M53.2,41.3L52.3,41l0.3,0.1L52.3,41  l0.5,0.1L52.3,41c0.2-0.7,0.6-1.3,1.1-1.8l0,0l0.1-0.1l0.3,0.4l0.4,0.3l-0.4-0.3l0,0l0.3,0.3C53.7,40.3,53.4,40.7,53.2,41.3z   M53.7,39.5L53.7,39.5L53.7,39.5z M55.4,38.8l-0.1-0.4l-0.3-0.4l0.1,0l0,0c0.6-0.3,1.2-0.5,1.9-0.7l0,0l0.1,0v0.5l0,0l0,0.1v0.4  v-0.4l0.1,0.4C56.5,38.3,55.9,38.5,55.4,38.8l-0.1-0.4L55.4,38.8z M72.3,38.2c-0.6,0-1.3,0-1.9-0.1l0-0.5l0,0v-0.5l0,0v0  c0.6,0,1.3,0.1,1.9,0.1l0,0L72.3,38.2l0-0.7L72.3,38.2z M74.3,38.2l0-1c0.7,0,1.3-0.1,1.9-0.1l0.1,0.4V37v0.4l0.1,0.5l-0.1,0  C75.6,38.1,75,38.1,74.3,38.2v-0.5V38.2z M57.2,38.1L57,37.7L57.2,38.1z M68.5,38l0-0.5L68.5,38z M68.5,38l-1.9-0.1l0-0.5v0l0,0  l0,0v-0.5l0,0v0l2,0.2l-0.1,0.5v0l0,0.1L68.5,38l0-0.4L68.5,38z M58.9,37.8v-0.5l-0.1-0.5l0.1,0.4v0l0-0.4c0.6-0.1,1.3-0.1,2-0.2  l0,0.6l0-0.6h0l0,1c0,0,0,0,0,0v0v0C60.2,37.7,59.6,37.7,58.9,37.8L58.9,37.8L58.9,37.8z M58.9,37.3L58.9,37.3L58.9,37.3L58.9,37.3  z M64.6,37.7c-0.6,0-1.3-0.1-1.9-0.1l0-0.3l0-0.7h0v0.5l0-0.5c0.6,0,1.3,0,1.9,0.1l0,0c0,0,0,0,0,0v0l0.1,0l-0.1,0.5v-0.1l0,0.1  L64.6,37.7l0-0.4L64.6,37.7z M64.7,37.7l0-0.5L64.7,37.7z M78.2,37.7l-0.1-0.5l0,0l0,0v0l-0.2-0.5l0.1,0l0,0  c0.6-0.1,1.2-0.3,1.8-0.5l0.1,0.2l-0.1-0.2l0,0l0.3,0.9C79.5,37.3,78.9,37.5,78.2,37.7z M81.9,36.3l-0.1-0.4l-0.3-0.4l0.1,0l0,0  c0.5-0.3,1-0.6,1.6-1l0,0l0.5,0.8l-0.4-0.6l0.4,0.6C83,35.7,82.5,36,81.9,36.3l-0.1-0.4L81.9,36.3z M81.7,35.9 M85.2,34.2l-0.3-0.4  l-0.3-0.3l0.3,0.3l-0.3-0.4c0.5-0.4,1-0.8,1.5-1.2l0.3,0.3l-0.2-0.4l0.2,0.4l0.4,0.4l0,0l0,0C86.2,33.4,85.7,33.8,85.2,34.2  L85.2,34.2L85.2,34.2z M84.9,33.7L84.9,33.7L84.9,33.7L84.9,33.7z M86.4,32.6L86.4,32.6L86.4,32.6z M88.2,31.8l-0.3-0.4L87.6,31  l0.3,0.3L87.6,31c0.5-0.4,1-0.8,1.5-1.2l0.3,0.3l-0.2-0.4l0.2,0.4l0.4,0.4l-0.1,0l0,0C89.2,31,88.7,31.3,88.2,31.8L88.2,31.8  L88.2,31.8z M87.9,31.3L87.9,31.3L87.9,31.3L87.9,31.3z M91.3,29.5l-0.5-0.8l0,0L91,29l-0.2-0.4c0.2-0.1,0.4-0.3,0.6-0.4l0.5,0.8  C91.7,29.2,91.5,29.4,91.3,29.5z"></path>	<g>		<path d="M97.2,27c-2.3,1.8-4.9,4.6-6.3,7l0.1-4.9l-3-3.8C90.5,26.3,94.3,26.9,97.2,27z"></path>	</g></g></svg>