<svg xmlns="http://www.w3.org/2000/svg" xmlns:xlink="http://www.w3.org/1999/xlink" x="0px" y="0px" viewBox="0 0 100 100" style="enable-background:new 0 0 100 100;" xml:space="preserve"><g>	<path d="M44.5,38.9c-1.4-4.6-1.6-9.1-0.1-13.6c2.7-8.1,10.4-13.9,18.7-14.2c8.9-0.3,16.8,4.9,20.2,13c0.2,0.4,0.5,0.9,0.9,1.1  c2.7,1.6,5.4,2.9,8.6,2.8c1.2,0,2.5,0,3.6,0.5c1.1,0.5,2.3,1.4,2.6,2.4c0.2,1-0.3,2.6-1.1,3.3c-1.4,1.1-3.2,1.9-4.9,2.5  c-2.8,1-5.8,1.6-8.7,2.5c-0.5,0.1-1.1,0.5-1.3,0.9c-1.7,4.1-4.6,7.2-8.4,9.5c-1.5,0.9-1.8,1.9-1.1,3.5c4.8,11,2,21.1-8,28.2  c-7.9,5.6-16.9,7.9-26.5,7.6c-3.7-0.1-7.4-0.6-11-1.5C13.6,83.9,6.3,73.6,2.6,60.2c-1.9-7-2.3-14.1-0.4-21.3  c0.9-3.4,3.4-4.7,6.6-3.2c1,0.5,1.9,1.3,2.9,1.8c5.1,2.7,10.1,5.5,15.3,8.1c0.6,0.3,1.7,0.1,2.4-0.3c1.8-1,3.6-2.3,5.3-3.5  C37.5,39.9,40.8,39,44.5,38.9z M24.9,48.5c-1.1-0.5-1.7-0.7-2.3-1.1c-4.4-2.5-8.9-4.8-13.2-7.5c-3.4-2.1-3.9-2.1-4.5,1.9  C3.7,49.2,4.3,56.5,7,63.5c3.7,9.9,9.8,17.6,20.5,20.5c2.5,0.7,5.1,1.3,7.7,1.5c10,0.9,19.4-0.8,27.9-6.5c8.8-5.9,11.7-15,7.7-24.1  c-1.8-4-1.1-6,2.5-8.4c2.7-1.7,4.8-3.9,6.2-6.9c-0.6-0.1-1-0.2-1.5-0.3c-3.1-0.6-5.1-2.3-5.7-5.4c-0.5-2.6,0.9-5,3.8-6.7  c1.3-0.8,2.6-1.6,3.8-2.3c0-0.3,0-0.4,0-0.4c-4-8.7-14.3-12.6-23-8.7c-8.6,3.9-12.7,14.1-9,22.8c0.3,0.6,1,1.1,1.6,1.4  c7.4,3,11.3,10,10.1,17.9c-1.6,9.8-10.8,16-20.4,13.5c-6.9-1.8-13.9-3.7-20.8-5.4c-2.8-0.7-4.8-2.2-5.3-5.1c-0.5-3,0.9-5.1,3.4-6.7  C19.2,52.3,21.8,50.5,24.9,48.5z M43.9,42.3c-2.6-0.1-4.9,0.7-7.1,2.1c-6.2,4.1-12.5,8.3-18.7,12.5c-1.3,0.8-2.2,1.8-1.9,3.4  c0.3,1.5,1.4,2.1,2.8,2.5c7,1.8,14,3.8,21,5.4c1.9,0.5,4.1,0.5,6.1,0.2c6.7-1.1,11.2-7.6,10.5-14.8C55.9,47.1,50.5,42.2,43.9,42.3z   M95.9,31.9c-0.6-0.3-0.7-0.4-0.8-0.4c-4.5-0.2-8.9-1-12.8-3.6c-0.3-0.2-0.9-0.1-1.2,0.1c-1.5,0.8-2.9,1.6-4.3,2.6  c-2.1,1.6-1.7,4.5,0.8,5.3c1.4,0.4,3.1,0.7,4.5,0.4c3.6-0.7,7.1-1.8,10.6-2.9C93.7,33.2,94.6,32.6,95.9,31.9z"></path>	<path d="M68.9,22.8c-1.1,0.8-1.7,1.6-2.3,1.6c-0.6-0.1-1.4-0.9-1.5-1.5c-0.1-0.4,0.9-1.4,1.4-1.4C67.1,21.3,67.7,22.1,68.9,22.8z"></path></g></svg>