<svg xmlns="http://www.w3.org/2000/svg" id="Capa_1" height="512" viewBox="0 0 512 512" width="512"><g><g><path d="m397.043 443.099h-284.326c-25.924 0-46.94-21.016-46.94-46.94v-139.48h378.206v139.48c0 25.924-21.016 46.94-46.94 46.94z" fill="#a183e2"></path><path d="m372.421 500.577v-31.777c0-64.916-52.625-117.54-117.54-117.54-64.916 0-117.541 52.625-117.541 117.54v31.777z" fill="#fef2a8"></path><path d="m263.113 392.826c22.694 10.207 38.658 34.432 38.658 62.703v6.802c0 10.588-8.584 19.172-19.172 19.172h-106.179v19.376h156.921v-30.024c0-40.552-30.765-73.913-70.228-78.029z" fill="#eeb6a8"></path><path d="m303.644 456.69c-9.148-8.385-3.049-49.904-3.049-49.904-7.712-5.538-16.468-9.714-25.918-12.171v40.924c-12.428 9.731-24.414 10.597-35.828 0v-41.792c-10.281 2.138-19.828 6.277-28.205 12.008 0 0 4.574 41.026-2.287 50.174s-31.177 3.811-31.177 3.811c-.488 3.537-.76 7.142-.76 10.813v30.025h156.92v-30.025c0-3.935-.306-7.796-.865-11.575 0-.001-19.683 6.098-28.831-2.288z" fill="#8bb6ef"></path><g fill="#8388ef"><path d="m332.436 458.989c-.813.247-19.841 5.907-28.792-2.299-.725-.665-1.354-1.539-1.898-2.583.009.474.025.945.025 1.421v6.802c0 10.588-8.584 19.172-19.172 19.172h-106.179v19.074h156.92v-29.725c0-4.033-.317-7.992-.904-11.862z"></path><path d="m300.554 407.074c-7.703-5.525-16.443-9.688-25.877-12.141v4.732c11.105 8.309 19.608 20.397 23.929 34.55-.066-12.279 1.659-25.087 1.948-27.141z"></path></g><g fill="#d49c8d"><ellipse cx="425.649" cy="304.489" rx="38.925" ry="38.925" transform="matrix(.526 -.851 .851 .526 -57.142 506.489)"></ellipse><ellipse cx="84.111" cy="304.489" rx="38.925" ry="38.925" transform="matrix(.526 -.851 .851 .526 -219.123 215.96)"></ellipse><path d="m288.05 400.686h-66.34c-82.435 0-149.263-66.827-149.263-149.262 0-82.436 66.827-149.263 149.263-149.263h66.339c82.435 0 149.262 66.827 149.262 149.263.001 82.434-66.826 149.262-149.261 149.262z"></path></g><path d="m288.05 102.81h-19.141c66.831 0 121.009 54.177 121.009 121.009v10.276c0 66.832-54.178 121.009-121.009 121.009h-75.452c-63.956 0-116.316-49.617-120.704-112.457-.194 3.118-.305 6.258-.305 9.425v.001c0 82.435 66.827 149.262 149.263 149.262h66.339c82.436 0 149.263-66.827 149.263-149.262v-.001c-.001-82.435-66.828-149.262-149.263-149.262z" fill="#c7758d"></path><path d="m424.281 311.095c17.824-11.034 33.102-28.009 35.046-57.061v-17.513c0-96.989-78.625-175.615-175.615-175.615h-57.663c-96.989 0-175.615 78.625-175.615 175.615v17.513c1.238 30.75 19.628 47.159 32.642 57.91 39.859-59.157 80.163-114.578 123.901-141.1 67.578 53.482 140.67 99.321 217.304 140.251z" fill="#a183e2"></path><path d="m290.67 295.154c-2.504 0-5.04-.512-7.383-1.59-20.871-9.602-39.7-9.649-59.256-.147-7.247 3.52-16.573 1.517-20.831-4.478-4.257-5.995-1.833-13.71 5.414-17.232 28.976-14.081 59.077-14.13 89.468-.147 7.346 3.379 9.988 11.045 5.902 17.121-2.783 4.139-7.968 6.473-13.314 6.473z" fill="#ffe266"></path><path d="m158.208 249.944c-34.854 0-63.109 28.255-63.109 63.109s28.255 63.109 63.109 63.109 63.109-28.255 63.109-63.109-28.255-63.109-63.109-63.109zm0 103.405c-22.255 0-40.296-18.041-40.296-40.296s18.041-40.296 40.296-40.296 40.296 18.041 40.296 40.296-18.041 40.296-40.296 40.296z" fill="#ffe266"></path><path d="m348.798 249.944c-34.854 0-63.109 28.255-63.109 63.109s28.255 63.109 63.109 63.109 63.109-28.255 63.109-63.109-28.255-63.109-63.109-63.109zm0 103.405c-22.255 0-40.296-18.041-40.296-40.296s18.041-40.296 40.296-40.296 40.296 18.041 40.296 40.296-18.041 40.296-40.296 40.296z" fill="#ffe266"></path><path d="m158.208 249.944c-2.138 0-4.25.109-6.334.317 25.583 2.81 45.49 24.484 45.49 50.815 0 28.239-22.893 51.132-51.133 51.132-26.331 0-48.006-19.906-50.816-45.489-.208 2.083-.317 4.195-.317 6.333 0 34.854 28.255 63.108 63.109 63.108s63.109-28.254 63.109-63.108c.001-34.853-28.254-63.108-63.108-63.108z" fill="#efaa66"></path><path d="m351.552 249.944c-2.138 0-4.25.109-6.333.317 25.583 2.81 45.489 24.484 45.489 50.815 0 28.239-22.893 51.132-51.132 51.132-26.332 0-48.006-19.906-50.816-45.489-.208 2.083-.317 4.195-.317 6.333 0 34.854 28.255 63.108 63.109 63.108s63.109-28.254 63.109-63.108c0-34.853-28.254-63.108-63.109-63.108z" fill="#efaa66"></path></g><g><g fill="#440a29"><path d="m474.72 304.489c0-9.874-2.945-19.065-7.984-26.77 2.451-7.117 3.956-14.75 4.501-22.889.018-.265.027-.531.027-.797v-17.513c0-103.417-84.136-187.553-187.553-187.553h-57.663c-103.416 0-187.552 84.136-187.552 187.553v17.513c0 .161.004.32.01.481.353 8.771 1.956 16.562 4.334 23.49-4.927 7.645-7.8 16.732-7.8 26.485 0 15.642 7.365 29.586 18.799 38.579v53.091c0 32.465 26.412 58.878 58.878 58.878h15.216c-.487 4.522-.74 9.114-.74 13.763v31.777c0 5.603 4.542 10.146 10.146 10.146s10.146-4.543 10.146-10.146v-31.777c0-25.047 8.628-48.112 23.057-66.398 8.451 2.872 17.219 5.052 26.236 6.475-16.271 15.415-26.447 37.197-26.447 61.328v33.969c0 3.362 2.725 6.088 6.088 6.088 3.362 0 6.088-2.726 6.088-6.088v-33.969c0-.828.019-1.651.047-2.472h13.224c13.234 0 24.002-10.767 24.002-24.002v-32.92c.643.008 1.286.02 1.931.02h10.288v14.214c0 13.234 10.767 24.002 24.002 24.002 13.234 0 24.002-10.767 24.002-24.002v-14.214h8.048c1.395 0 2.784-.025 4.17-.061v32.961c0 13.234 10.767 24.002 24.002 24.002h10.984c.028.821.047 1.644.047 2.472v33.969c0 3.362 2.726 6.088 6.088 6.088s6.088-2.726 6.088-6.088v-33.969c0-24.127-10.17-45.913-26.437-61.328 9.012-1.422 17.773-3.604 26.22-6.474 14.431 18.285 23.063 41.348 23.063 66.397v31.777c0 5.603 4.543 10.146 10.146 10.146s10.146-4.543 10.146-10.146v-31.777c0-4.65-.257-9.241-.744-13.763h15.22c32.465 0 58.878-26.412 58.878-58.878v-53.091c11.433-8.992 18.798-22.937 18.798-38.579zm-20.292 0c0 15.869-12.91 28.779-28.78 28.779-.283 0-.563-.013-.845-.021 2.474-4.12 4.769-8.36 6.871-12.71 9.009-5.728 16.511-12.358 22.478-19.863.167 1.251.276 2.52.276 3.815zm-166.378 86.05h-66.34c-17.819 0-34.854-3.391-50.522-9.528 31.969-6.094 56.216-34.24 56.216-67.958 0-4.743-.482-9.375-1.395-13.852.227-.101.456-.199.681-.308 18.031-8.764 34.701-8.7 54.051.202.083.038.171.066.255.104-.913 4.478-1.395 9.111-1.395 13.854 0 34.391 25.223 62.992 58.138 68.302-15.439 5.925-32.189 9.184-49.689 9.184zm60.747-20.464c-31.442 0-57.021-25.58-57.021-57.022s25.579-57.021 57.021-57.021 57.022 25.579 57.022 57.021-25.58 57.022-57.022 57.022zm-64.266-82.622c-10.887-4.834-21.283-7.258-31.524-7.258-10.222 0-20.292 2.416-30.542 7.233-1.747-4.366-3.921-8.515-6.48-12.391 24.354-10.431 49.536-10.405 74.99.074-2.544 3.862-4.706 7.994-6.444 12.342zm-126.323 82.622c-31.442 0-57.021-25.58-57.021-57.022s25.58-57.021 57.021-57.021c31.442 0 57.021 25.579 57.021 57.021s-25.579 57.022-57.021 57.022zm140.643-104.837c-30.768-13.636-61.268-13.646-90.723-.029-12.603-13.144-30.315-21.353-49.92-21.353-4.119 0-8.149.382-12.072 1.076 19.352-24.044 39.58-45.287 60.166-59.438 31.797 24.803 65.554 48.59 101.744 71.684-3.3 2.414-6.373 5.114-9.195 8.06zm-236.48-28.717c0-90.252 73.425-163.678 163.677-163.678h57.663c90.252 0 163.678 73.426 163.678 163.678v17.101c-1.335 18.592-8.949 32.588-23.807 43.553-2.928-1.578-5.832-3.16-8.728-4.744-8.796-28.114-35.082-48.574-66.058-48.574-5.019 0-9.911.551-14.629 1.57-43.186-26.906-82.843-54.708-119.783-83.943-2.159-1.709-4.778-2.577-7.409-2.577-2.135 0-4.278.572-6.188 1.73-43.971 26.663-83.346 79.557-119.955 133.329-9.747-9.668-17.655-21.687-18.461-40.184zm13.103 84.626c1.193.985 2.554 1.708 3.997 2.166 1.714 3.377 3.544 6.685 5.485 9.919-.283.008-.56.037-.845.037-15.869 0-28.779-12.91-28.779-28.779 0-1.063.078-2.106.192-3.139 7.048 9.127 14.762 15.51 19.95 19.796zm57.39 110.015h-20.147c-19.301 0-35.003-15.703-35.003-35.003v-43.029c2.096.274 4.228.431 6.397.431 4.757 0 9.352-.693 13.703-1.965 14.442 17.831 32.642 32.499 53.389 42.775-7.973 11.075-14.219 23.47-18.339 36.791zm62.914 24.396h-11.769c3.277-15.874 11.766-29.858 23.595-40.088v28.262c0 6.521-5.305 11.826-11.826 11.826zm72.049-30.512c0 6.522-5.305 11.826-11.827 11.826-6.521 0-11.826-5.305-11.826-11.826v-14.214h23.653zm57.924 30.512h-9.529c-6.522 0-11.826-5.305-11.826-11.827v-26.25c10.661 10.018 18.289 23.222 21.355 38.077zm106.294-59.399c0 19.3-15.702 35.003-35.003 35.003h-20.141c-4.118-13.324-10.363-25.722-18.337-36.798 20.746-10.277 38.949-24.939 53.39-42.767 4.349 1.27 8.94 1.964 13.693 1.964 2.169 0 4.301-.157 6.397-.431v43.029z"></path><path d="m165.829 296.39c-9.203 0-16.663 7.46-16.663 16.663s7.46 16.663 16.663 16.663 16.663-7.46 16.663-16.663c0-9.202-7.46-16.663-16.663-16.663z"></path><ellipse cx="343.931" cy="313.053" rx="16.663" ry="16.663" transform="matrix(.999 -.05 .05 .999 -15.168 17.521)"></ellipse><path d="m271.543 306.965c-3.362 0-6.088 2.726-6.088 6.088 0 5.832-4.744 10.576-10.576 10.576-5.831 0-10.575-4.744-10.575-10.576 0-3.362-2.726-6.088-6.088-6.088s-6.088 2.726-6.088 6.088c0 12.545 10.206 22.751 22.75 22.751 12.545 0 22.751-10.207 22.751-22.751.002-3.362-2.724-6.088-6.086-6.088z"></path><path d="m367.424 232.755c3.362 0 6.088-2.726 6.088-6.088v-12.276c0-3.362-2.726-6.088-6.088-6.088s-6.088 2.726-6.088 6.088v12.276c0 3.362 2.726 6.088 6.088 6.088z"></path><path d="m400.169 197.145c3.362 0 6.088-2.726 6.088-6.088v-12.276c0-3.362-2.726-6.088-6.088-6.088s-6.088 2.726-6.088 6.088v12.276c0 3.362 2.726 6.088 6.088 6.088z"></path><path d="m412.801 247.729c3.362 0 6.088-2.726 6.088-6.088v-12.276c0-3.362-2.726-6.088-6.088-6.088s-6.088 2.726-6.088 6.088v12.276c0 3.362 2.726 6.088 6.088 6.088z"></path><path d="m158.208 266.605c-25.611 0-46.448 20.836-46.448 46.448s20.836 46.449 46.448 46.449c25.611 0 46.448-20.837 46.448-46.449s-20.837-46.448-46.448-46.448zm0 80.721c-18.898 0-34.273-15.375-34.273-34.273s15.375-34.273 34.273-34.273 34.272 15.375 34.272 34.273c0 18.899-15.374 34.273-34.272 34.273z"></path><path d="m348.797 266.605c-25.612 0-46.448 20.836-46.448 46.448s20.836 46.449 46.448 46.449 46.448-20.837 46.448-46.449-20.836-46.448-46.448-46.448zm0 80.721c-18.898 0-34.273-15.375-34.273-34.273s15.375-34.273 34.273-34.273 34.273 15.375 34.273 34.273c0 18.899-15.375 34.273-34.273 34.273z"></path></g><path d="m161.407 133.229c-3.279 0-6.495-1.585-8.451-4.518-3.109-4.662-1.85-10.962 2.812-14.071 2.015-1.343 6.756-4.262 10.282-5.694 5.19-2.112 11.109.391 13.218 5.581 2.109 5.192-.39 11.11-5.582 13.218-1.435.584-4.759 2.51-6.661 3.778-1.728 1.154-3.684 1.706-5.618 1.706z" fill="#fff"></path><path d="m116.427 175.393c-1.858 0-3.736-.509-5.421-1.576-4.733-3-6.139-9.268-3.139-14.001 8.659-13.664 18.702-23.37 25.602-29.104 4.309-3.582 10.707-2.991 14.288 1.318 3.582 4.309 2.992 10.706-1.317 14.288-5.779 4.802-14.188 12.927-21.432 24.36-1.933 3.047-5.221 4.715-8.581 4.715z" fill="#fff"></path></g><g><path d="m58.671 3.845 8.618 24.232c.369 1.038 1.1 1.86 2.021 2.275l21.529 9.7c3.042 1.37 3.042 6.217 0 7.587l-21.529 9.7c-.922.415-1.652 1.237-2.021 2.275l-8.618 24.232c-1.217 3.424-5.523 3.424-6.741 0l-8.618-24.232c-.369-1.038-1.099-1.86-2.021-2.275l-21.529-9.7c-3.042-1.37-3.042-6.217 0-7.587l21.529-9.7c.922-.415 1.652-1.238 2.021-2.275l8.618-24.232c1.218-3.424 5.524-3.424 6.741 0z" fill="#cab4ef"></path><ellipse cx="387.116" cy="20.095" fill="#a183e2" rx="18.818" ry="18.818" transform="matrix(.16 -.987 .987 .16 305.271 398.993)"></ellipse><circle cx="7.969" cy="136.596" fill="#a183e2" r="7.969"></circle><path d="m486.446 60.957 6.393 17.975c.274.77.815 1.379 1.499 1.688l15.97 7.195c2.256 1.017 2.256 4.611 0 5.628l-15.97 7.195c-.684.308-1.226.918-1.499 1.688l-6.393 17.975c-.903 2.539-4.097 2.539-5 0l-6.393-17.975c-.274-.77-.815-1.38-1.499-1.688l-15.97-7.195c-2.256-1.016-2.256-4.611 0-5.628l15.97-7.195c.684-.308 1.226-.918 1.499-1.688l6.393-17.975c.903-2.539 4.097-2.539 5 0z" fill="#cab4ef"></path></g></g></svg>