<svg xmlns="http://www.w3.org/2000/svg" xmlns:xlink="http://www.w3.org/1999/xlink" x="0px" y="0px" viewBox="0 0 100 100" style="enable-background:new 0 0 100 100;" xml:space="preserve"><g>	<path d="M17.1,60.5c-0.5,0-1,0-1.4,0l0-0.5l-0.1,0.5l0.1-1l0,0c0,0,0,0,0,0l0,0h0c0.5,0,0.9,0,1.4,0c0.2,0,0.4,0,0.6,0l0,0.5v0  l0,0.5C17.5,60.5,17.3,60.5,17.1,60.5z M19.7,60.3l-0.1-1l0,0c0.6-0.1,1.3-0.2,1.9-0.3l0.1,0.4L21.6,59l0.2,1l-0.1-0.5l0.1,0.5  C21.1,60.2,20.4,60.3,19.7,60.3v-0.5V60.3z M13.6,60.2l0.1-0.5L13.6,60.2c-0.7-0.1-1.4-0.3-2-0.5l0.3-1l-0.1,0.4l0.1-0.4  c0.6,0.2,1.2,0.3,1.9,0.4L13.6,60.2z M11.8,59.1l0,0.1l0.1-0.2L11.8,59.1z M23.7,59.6l-0.2-1l0.1,0l0,0c0.6-0.2,1.3-0.3,1.9-0.5v0  l0,0l0.3,1C25,59.3,24.4,59.5,23.7,59.6l-0.1-0.5L23.7,59.6z M9.7,59c-0.6-0.3-1.2-0.6-1.8-1l0.3-0.4l-0.2,0.4l0.5-0.9l0,0.1l0-0.1  c0.5,0.3,1.1,0.7,1.7,0.9l-0.2,0.5l0,0L9.7,59z M27.6,58.5l-0.3-0.9l0.1,0.2l-0.1-0.2l0.2,0.5l-0.2-0.5c0.6-0.2,1.2-0.4,1.9-0.7  l0.2,0.4l-0.2-0.5l0.1,0.2l-0.1-0.2l0.3,0.9l-0.2-0.4l0.1,0.4C28.9,58,28.3,58.2,27.6,58.5z M8.1,57.6l0.2-0.4L8.1,57.6z M31.3,57  L31,56.1l0,0c0.6-0.3,1.2-0.5,1.8-0.8l0,0l0.1,0l0.3,0.9C32.6,56.5,32,56.8,31.3,57l-0.2-0.5L31.3,57z M6.2,56.8l0.3-0.4L6.2,56.8z   M6.2,56.8c-0.5-0.4-1-0.9-1.5-1.4l0,0l0,0L5.1,55l0.3-0.4L5.1,55l0.3-0.3c0,0,0,0,0,0l0,0c0.4,0.5,0.9,0.9,1.4,1.3l0,0l0.1,0.1  l-0.4,0.3l0,0l0,0.1L6.2,56.8l0.3-0.3L6.2,56.8z M5.1,55L5.1,55l0.1-0.1L5.1,55z M74.2,55.5c-0.5,0-1.1,0-1.6-0.1l0.1-0.5v0.5  l0.1-1l-0.1,0.3l0-0.3c0.6,0.1,1.3,0.1,1.9,0.1l0,0.5v0l0,0.5C74.5,55.5,74.3,55.5,74.2,55.5z M35,55.4l-0.4-0.9l1.9-0.8v0l0.1,0  l0.4,0.9L35,55.4L34.9,55L35,55.4z M76.7,55.3l-0.2-1l0,0c0.6-0.1,1.3-0.3,1.9-0.4l0,0l0,0l0.3,1c0,0,0,0,0,0l0,0  C78.1,55,77.4,55.2,76.7,55.3l-0.1-0.5L76.7,55.3z M70.6,55l0.1-0.5L70.6,55c-0.3-0.1-0.6-0.2-0.8-0.3c-0.4-0.1-0.8-0.3-1.2-0.5  l0.2-0.4l-0.2,0.4l0.4-0.9c0,0,0,0,0,0v0l0,0c0.3,0.2,0.7,0.3,1.1,0.4c0.2,0.1,0.5,0.2,0.7,0.2l-0.1,0.4l0.1-0.3L70.6,55z   M72.6,54.9l0-0.5L72.6,54.9z M80.6,54.1l-0.4-0.9l0,0l0,0c0.6-0.2,1.2-0.5,1.8-0.8l0.5,0.9C81.9,53.6,81.3,53.9,80.6,54.1  l-0.2-0.5L80.6,54.1z M38.7,53.8l-0.4-0.9l0,0c0.6-0.3,1.2-0.5,1.8-0.8l0,0l0,0l0.3,0.9C39.9,53.3,39.3,53.5,38.7,53.8l-0.2-0.5  L38.7,53.8z M3.5,53.8l0.4-0.3L3.5,53.8c-0.4-0.6-0.8-1.3-1-1.9l0,0l0-0.1l0.5-0.2l0.4-0.2L3,51.7l0.4-0.2c0.3,0.6,0.6,1.1,0.9,1.7  l-0.3,0.2L3.5,53.8z M3,51.7L3,51.7L3,51.7L3,51.7z M66.8,53.3c-0.4-0.2-0.7-0.4-1-0.6l-0.7-0.4l0.2-0.4L65,52.3l0.5-0.9l0,0l0,0  l0.7,0.4c0.3,0.2,0.7,0.4,1,0.6l0,0L66.8,53.3z M42.4,52.3L42,51.4c0.6-0.2,1.3-0.5,1.9-0.7l0.1,0.2l-0.1-0.2l0.3,0.9L44,50.8  l0.3,0.8C43.6,51.8,43,52,42.4,52.3l-0.1-0.4L42.4,52.3z M84.2,52.2l-0.5-0.9l0.1,0c0.5-0.3,1-0.7,1.5-1.1l0.3,0.4l-0.3-0.4  l0.3,0.4l0.4,0.3L85.9,51l0,0c-0.5,0.4-1.1,0.8-1.6,1.2l-0.4-0.5L84.2,52.2z M85.6,50.6L85.6,50.6L85.6,50.6z M63.3,51.4l0.4-0.9  l0,0L63.3,51.4z M63.3,51.4L63,51.2c-0.5-0.2-1-0.4-1.5-0.6l0.1-0.4l-0.2,0.4l0.3-0.9l0,0c0.5,0.2,1,0.4,1.5,0.6l0.4,0.2L63.3,51.4  z M46.1,51l-0.3-1l0,0c0.6-0.2,1.3-0.4,2-0.5v0l0.1,0l0.2,1C47.4,50.6,46.8,50.8,46.1,51L46,50.5L46.1,51z M59.7,50.1L59.7,50.1  L59.7,50.1c-0.7-0.2-1.3-0.3-2-0.4h0h0c0,0,0,0,0,0l0.1-1l0,0.3l0-0.3c0.7,0.1,1.4,0.2,2,0.4l-0.1,0.4l0.1-0.4l-0.1,0.4L59.7,50.1z   M57.9,49l-0.1,0.5L57.9,49L57.9,49z M50,50.1l-0.2-1l0.1,0.4l-0.1-0.4l0.1,0.5l-0.1-0.5c0.7-0.1,1.3-0.2,2-0.3h0c0,0,0,0,0,0v0  l0.1,0l0,1C51.3,49.8,50.6,49.9,50,50.1z M1.8,49.9l0.5-0.1L1.8,49.9z M1.8,49.9c-0.2-0.7-0.3-1.4-0.3-2.1l0.5,0H1.5l1,0  c0,0,0,0,0,0v0c0,0.6,0.1,1.2,0.2,1.9l0,0l0,0.1H2.2l0,0l-0.1,0H1.8h0.5L1.8,49.9z M87.5,49.7l-0.7-0.7l0.3,0.3l-0.3-0.3  c0.5-0.4,1-0.9,1.4-1.4l0,0l0,0l0.7,0.7C88.5,48.7,88,49.2,87.5,49.7z M87.1,49.2L87.1,49.2L87.1,49.2L87.1,49.2z M53.9,49.6l0-0.5  L53.9,49.6l0-1v0.3l0-0.3c0.7,0,1.4,0,2,0v0l0.1,0l-0.1,1C55.2,49.6,54.5,49.6,53.9,49.6z M53.8,49.1l-0.1-0.5L53.8,49.1z   M90.3,46.8l-0.7-0.7l0,0l0,0c0.4-0.5,0.9-1,1.3-1.5l0,0c0,0,0,0,0,0l0,0l0.7,0.7C91.2,45.8,90.8,46.3,90.3,46.8l-0.3-0.4  L90.3,46.8z M2.7,46l-0.4-0.1H1.7l0-0.1l0.5,0.1l0.5,0H2.2L2.7,46z"></path>	<g>		<path d="M98.5,43.1c-2.7,1.4-5.9,3.7-7.8,5.9l1.1-4.9l-2.3-4.5C91.8,41.1,95.5,42.4,98.5,43.1z"></path>	</g></g></svg>