<svg width="97" height="21" viewBox="0 0 97 21" fill="none" xmlns="http://www.w3.org/2000/svg">
<path d="M15.6 20.9C15.1 20.9 14.6 20.9 14.2 20.9V20.4L14.1 20.9L14.2 19.9C14.7 19.9 15.1 19.9 15.6 19.9C15.8 19.9 16 19.9 16.2 19.9V20.4V20.9C16 20.9 15.8 20.9 15.6 20.9ZM18.2 20.7L18.1 19.7C18.7 19.6 19.4 19.5 20 19.4L20.1 19.8V19.4L20.3 20.4C19.6 20.6 18.9 20.7 18.2 20.7ZM12.1 20.6C11.4 20.5 10.7 20.3 10.1 20.1L10.4 19.1C11 19.3 11.6 19.4 12.3 19.5L12.1 20.6ZM10.3 19.5V19.6L10.4 19.4L10.3 19.5ZM22.2 20L22 19H22.1C22.7 18.8 23.4 18.7 24 18.5L24.3 19.5C23.5 19.7 22.9 19.9 22.2 20ZM8.2 19.4C7.6 19.1 7 18.8 6.4 18.4L6.7 18L6.5 18.4L7 17.5C7.5 17.8 8.1 18.2 8.7 18.4L8.5 18.9L8.2 19.4ZM26.1 18.9L25.8 18C26.4 17.8 27 17.6 27.7 17.3L27.9 17.7L27.7 17.2L28 18.1L27.8 17.7L27.9 18.1C27.4 18.4 26.8 18.6 26.1 18.9ZM29.8 17.4L29.5 16.5C30.1 16.2 30.7 16 31.3 15.7H31.4L31.7 16.6C31.1 16.9 30.5 17.2 29.8 17.4ZM4.7 17.2C4.2 16.8 3.7 16.3 3.2 15.8L3.6 15.4L3.9 15.1C4.3 15.6 4.8 16 5.3 16.4L5.4 16.5L5 16.8V16.9L4.7 17.2ZM72.7 15.9C72.2 15.9 71.6 15.9 71.1 15.8L71.2 15.3V15.8L71.3 14.8L71.2 15.1V14.8C71.8 14.9 72.5 14.9 73.1 14.9V15.4V15.9C73 15.9 72.8 15.9 72.7 15.9ZM33.5 15.8L33.1 14.9L35 14.1H35.1L35.5 15L33.5 15.8ZM75.2 15.7L75 14.7C75.6 14.6 76.3 14.4 76.9 14.3L77.2 15.3C76.6 15.4 75.9 15.6 75.2 15.7ZM69.1 15.4C68.8 15.3 68.5 15.2 68.3 15.1C67.9 15 67.5 14.8 67.1 14.6L67.5 13.7C67.8 13.9 68.2 14 68.6 14.1C68.8 14.2 69.1 14.3 69.3 14.3L69.2 14.7L69.3 14.4L69.1 15.4ZM79.1 14.5L78.7 13.6C79.3 13.4 79.9 13.1 80.5 12.8L81 13.7C80.4 14 79.8 14.3 79.1 14.5ZM37.2 14.2L36.8 13.3C37.4 13 38 12.8 38.6 12.5L38.9 13.4C38.4 13.7 37.8 13.9 37.2 14.2ZM2 14.2C1.6 13.6 1.2 12.9 1 12.3V12.2L1.5 12L1.9 11.8L1.5 12.1L1.9 11.9C2.2 12.5 2.5 13 2.8 13.6L2.5 13.8L2 14.2ZM65.3 13.7C64.9 13.5 64.6 13.3 64.3 13.1L63.6 12.7L63.8 12.3L63.5 12.7L64 11.8L64.7 12.2C65 12.4 65.4 12.6 65.7 12.8L65.3 13.7ZM40.9 12.7L40.5 11.8C41.1 11.6 41.8 11.3 42.4 11.1L42.7 12L42.5 11.2L42.8 12C42.1 12.2 41.5 12.4 40.9 12.7ZM82.7 12.6L82.2 11.7H82.3C82.8 11.4 83.3 11 83.8 10.6L84.1 11L84.5 11.3L84.4 11.4C83.9 11.8 83.3 12.2 82.8 12.6L82.4 12.1L82.7 12.6ZM61.8 11.8L61.5 11.6C61 11.4 60.5 11.2 60 11L60.1 10.6L59.9 11L60.2 10.1C60.7 10.3 61.2 10.5 61.7 10.7L62.1 10.9L61.8 11.8ZM44.6 11.4L44.3 10.4C44.9 10.2 45.6 10 46.3 9.9H46.4L46.6 10.9C45.9 11 45.3 11.2 44.6 11.4ZM58.2 10.5C57.5 10.3 56.9 10.2 56.2 10.1L56.3 9.1C57 9.2 57.7 9.3 58.3 9.5L58.2 9.9V10.5ZM48.5 10.5L48.3 9.5C49 9.4 49.6 9.3 50.3 9.2H50.4V10.2C49.8 10.2 49.1 10.3 48.5 10.5ZM0.3 10.3C0.0999999 9.6 0 8.9 0 8.2H1C1 8.8 1.1 9.4 1.2 10.1V10.2H0.7H0.6H0.3H0.8L0.3 10.3ZM86 10.1L85.3 9.4C85.8 9 86.3 8.5 86.7 8L87.4 8.7C87 9.1 86.5 9.6 86 10.1ZM52.4 10V9C53.1 9 53.8 9 54.4 9H54.5L54.4 10C53.7 10 53 10 52.4 10ZM88.8 7.2L88.1 6.5C88.5 6 89 5.5 89.4 5L90.1 5.7C89.7 6.2 89.3 6.7 88.8 7.2ZM1.2 6.4L0.8 6.3H0.2V6.2L0.7 6.3L1.2 6.4Z" fill="#FFC212"/>
<path d="M97 3.5C94.3 4.9 91.1 7.2 89.2 9.4L90.3 4.5L88 0C90.3 1.5 94 2.8 97 3.5Z" fill="#FFC212"/>
</svg>
