<svg xmlns="http://www.w3.org/2000/svg" xmlns:xlink="http://www.w3.org/1999/xlink" x="0px" y="0px" viewBox="0 0 720.8 592.9" style="enable-background:new 0 0 720.8 592.9;" xml:space="preserve"><style type="text/css">	.galexcy_0{fill:#D2D2D2;}	.galexcy_1{fill:#B9CFD4;}</style><g>	<polygon class="galexcy_0" points="224.1,207.3 242.7,203.6 224.1,199.8 234.6,184.1 218.8,194.6 215.1,176 211.4,194.6 195.7,184.1   206.2,199.8 187.6,203.6 206.2,207.3 195.7,223 211.4,212.5 215.1,231.1 218.8,212.5 234.6,223  "></polygon>	<polygon class="galexcy_0" points="568,306.6 579.2,304.3 568,302.1 574.4,292.6 564.9,298.9 562.6,287.7 560.4,298.9 550.9,292.6   557.2,302.1 546,304.3 557.2,306.6 550.9,316.1 560.4,309.7 562.6,320.9 564.9,309.7 574.4,316.1  "></polygon>	<polygon class="galexcy_0" points="593.4,205.2 601.6,203.6 593.4,201.9 598,195 591.1,199.6 589.4,191.5 587.8,199.6 580.9,195   585.5,201.9 577.3,203.6 585.5,205.2 580.9,212.1 587.8,207.5 589.4,215.7 591.1,207.5 598,212.1  "></polygon>	<path class="galexcy_1" d="M668.9,351.8c-3.2-4.9-8.5-7.9-13.6-10.3c-7.2-3.5-14.7-6.3-22.2-8.9c-15.5-5.3-31.2-8.8-47.4-11  c-5-0.7-6.6,7.9-1.6,8.8c13,2.4,26,5.5,38.7,9.2c6.1,1.8,12.1,3.7,18,5.9c5.7,2.1,12,3.9,17.3,7c4.9,2.9,7.6,7.4,5.2,13  c-2.6,6.3-9.1,9.3-15.2,11.2c-12.3,3.8-25.2,6.2-37.8,8.8c-52,10.8-104.9,17.5-157.9,20.9c-106,6.8-212.6,1-318.3-8  c-14.4-1.2-28.8-2.5-43.1-4.1c-12.9-1.5-28.5-5-34.4-18.1c-5.8-13,5.1-25,15.7-31c11.4-6.4,23.9-9.5,34.2-17.8  c1.4-1.2-0.3-3.6-1.9-2.7c-18.3,11-49.4,13.7-55.1,38.8c-2.2,10,2.4,19.7,10.1,26c9.7,8.1,22.4,9.9,34.6,11.2  c57.9,6,115.9,11.3,174.1,14c115.4,5.2,232.1,1.6,345.5-22.2c8-1.7,16-3.5,24-5.4c6.9-1.6,14.3-3,20.6-6.4  C668.7,375.3,675.9,362.7,668.9,351.8z"></path>	<path class="galexcy_1" d="M487.8,315.3c-0.3-5.3-2.8-10.2-5.1-15c-2.5-5.2-5.4-10.3-8.7-15.1c-6.3-9.2-13.9-17.4-22.3-24.7  c-16.5-14.6-36.5-25-57.8-30.6c-42.6-11.1-87.5,0.8-120.5,29.5c-18.4,16.1-31.2,36.9-37.6,60.5c-0.5,1.8,2.1,2.8,2.8,1  c14.2-37.5,47.6-69,85.8-81c40.2-12.7,82.9-2.5,115,24.3c8.7,7.3,16.5,15.8,23,25.2c3.3,4.7,6.4,9.6,9.1,14.8  c2.7,5.1,4.5,10.6,8,15.2C482.7,323.6,488,319.5,487.8,315.3z"></path>	<path class="galexcy_0" d="M172.7,262c-0.3-1.1-0.8-2-1.6-2.8c-1.2-1.1-2.7-1.8-4.4-1.8c-0.9,0-1.7,0.1-2.4,0.5c-0.8,0.3-1.4,0.7-2,1.3  c-0.6,0.6-1,1.2-1.3,2c-0.4,0.7-0.6,1.5-0.5,2.4c0.1,0.6,0.1,1.1,0.2,1.7c0.3,1.1,0.8,2,1.6,2.8c1.2,1.1,2.7,1.8,4.4,1.8  c0.9,0,1.7-0.1,2.4-0.5c0.8-0.3,1.4-0.7,2-1.3c0.6-0.6,1-1.2,1.3-2c0.4-0.7,0.6-1.5,0.5-2.4L172.7,262z"></path>	<path class="galexcy_0" d="M195,304.3c-6.6,0-6.6,10.3,0,10.3C201.6,314.6,201.6,304.3,195,304.3z"></path>	<path class="galexcy_0" d="M254.6,222.3c-3.1,0-3.1,4.8,0,4.8C257.7,227.1,257.7,222.3,254.6,222.3z"></path>	<path class="galexcy_0" d="M379.7,309.5c-6.1,0-6.1,9.5,0,9.5C385.8,319,385.8,309.5,379.7,309.5z"></path>	<path class="galexcy_0" d="M463.2,212.2c-7.1,0-7.1,11.1,0,11.1C470.3,223.3,470.3,212.2,463.2,212.2z"></path></g></svg>