<svg xmlns="http://www.w3.org/2000/svg" xmlns:xlink="http://www.w3.org/1999/xlink" x="0px" y="0px" viewBox="0 0 100 100" style="enable-background:new 0 0 100 100;" xml:space="preserve"><style type="text/css">	.ss_1{fill:#FF986D;}	.ss-2{fill:#E6EAEC;}</style><g>	<path class="ss_1" d="M81.6,42.8c-3.5-5.9-8.9-10.6-15.1-13.4c-15.6-7.1-34.8-2.3-44.2,13.8c-3.4,5.9-5.2,12.9-4.8,19.8  c0.5,6.8,3.2,13.3,7.4,18.7c4.2,5.3,9.9,9.5,16.4,11.6c6.5,2.1,13.6,2.1,20.1,0.2c6.5-1.9,12.6-5.7,17-10.9  c4.6-5.4,7.2-12.2,7.7-19.3C86.8,56.2,85.2,49,81.6,42.8"></path>	<path d="M98.3,54.1c-0.8-2.1-3.1-2.6-5.1-2.7c-2.6-0.1-5.1,0-7.7,0.3c-0.1,0-0.2,0-0.2,0c0,0.1,0,0.3,0,0.4c0,0.1,0.1,0.2,0.1,0.3  c0,0.1,0.1,0.3,0.1,0.4c0.9-0.1,1.8-0.1,2.7-0.2c1.9-0.1,4-0.1,5.9,0.2c0.7,0.1,1.6,0.3,2.1,0.8c0.5,0.5,0.7,1.1,0.7,1.8  c0,1.6-1,2.9-2.3,3.7c-1.5,1-3.2,1.7-4.9,2.4c-1.8,0.8-3.6,1.5-5.4,2.2c-3.6,1.4-7.2,2.6-10.9,3.7c-7.4,2.2-15,3.7-22.6,4.7  C43.1,73,35.3,73.3,27.6,73c-3.9-0.2-7.7-0.5-11.6-1c-1.7-0.2-3.3-0.4-5-0.9c-1.2-0.3-2.6-0.9-3.4-1.9c-0.3-0.4-0.5-0.8-0.5-1.2  c0.2-1.2,0.7-2.2,1.7-3.1c1-1.1,2.2-1.9,3.4-2.8c0.6-0.4,1.2-0.9,1.9-1.4c0.6-0.5,1.3-0.8,2-1.2c0.6-0.3,1.1-0.6,1.7-0.9  c0-0.3,0-0.7,0-1c-0.2,0-0.4,0.1-0.6,0.1c-1.1,0.2-2.1,0.6-3.2,1c-1.1,0.4-2.2,0.8-3.2,1.5c-1,0.6-1.9,1.4-2.8,2.1  c-1.7,1.4-3.5,3.4-2.7,5.8c0.2,0.7,0.6,1.6,1.2,2.2c0.6,0.6,1.3,1.1,2.1,1.4c1.7,0.8,3.6,1.1,5.4,1.4c2.4,0.3,4.8,0.6,7.2,0.9  c4.7,0.4,9.5,0.6,14.2,0.6c9.6-0.1,19.1-1.1,28.5-3.1c9.3-2,18.4-4.9,27.1-8.6c2-0.9,4.3-1.7,5.9-3.2C98.2,58.2,99,56,98.3,54.1z"></path>	<path class="ss-2" d="M58.1,33.7c0-0.2-0.1-0.4-0.2-0.6c-0.1-0.1-0.2-0.2-0.3-0.4c-0.2-0.2-0.5-0.4-0.8-0.4c-0.2,0-0.3,0-0.5-0.1  c-0.3,0-0.6,0.1-0.9,0.2c-0.1,0-0.2,0.1-0.3,0.1c-0.2,0.1-0.4,0.3-0.5,0.4c-0.2,0.2-0.3,0.4-0.3,0.6c-0.1,0.2-0.1,0.5,0,0.7  c0,0.2,0.1,0.4,0.2,0.6c0.1,0.1,0.2,0.2,0.3,0.4c0.2,0.2,0.5,0.4,0.8,0.4c0.2,0,0.3,0,0.5,0.1c0.3,0,0.6-0.1,0.9-0.2  c0.1,0,0.2-0.1,0.3-0.1c0.2-0.1,0.4-0.3,0.5-0.4c0.2-0.2,0.3-0.4,0.3-0.6C58.1,34.1,58.1,33.9,58.1,33.7z"></path>	<path class="ss-2" d="M48.3,46.4c-2.2,0-2.2,3.5,0,3.5C50.6,49.9,50.6,46.4,48.3,46.4z"></path>	<path class="ss-2" d="M67.6,43.2c-1.9,0-1.9,2.9,0,2.9C69.5,46.2,69.5,43.2,67.6,43.2z"></path>	<path class="ss-2" d="M67.7,57.4c-0.1-0.5-0.4-1-0.8-1.3c-0.4-0.4-0.8-0.6-1.3-0.8c-0.5-0.1-1.1-0.1-1.6,0c0,0-0.1,0-0.1,0  c-0.5,0.1-1,0.4-1.4,0.8c-0.4,0.4-0.7,0.8-0.8,1.4c-0.1,0.6-0.1,1.1,0,1.7c0.1,0.5,0.4,1,0.8,1.4c0.4,0.4,0.8,0.7,1.4,0.8  c0.6,0.1,1.1,0.1,1.7,0c0.5-0.1,1-0.4,1.4-0.8c0.4-0.4,0.7-0.8,0.8-1.4c0,0,0-0.1,0-0.1C67.8,58.5,67.8,57.9,67.7,57.4z"></path>	<path class="ss-2" d="M49,62.5c-0.1-0.3-0.3-0.6-0.5-0.8c-0.1-0.1-0.3-0.2-0.4-0.3c-0.3-0.2-0.6-0.3-1-0.3c-0.3,0-0.5,0-0.7,0.2  c-0.2,0.1-0.4,0.2-0.6,0.4c-0.2,0.2-0.3,0.4-0.4,0.6c-0.1,0.2-0.2,0.5-0.2,0.7c0,0.2,0,0.3,0.1,0.5c0.1,0.3,0.3,0.6,0.5,0.8  c0.1,0.1,0.3,0.2,0.4,0.3c0.3,0.2,0.6,0.3,1,0.3c0.3,0,0.5,0,0.7-0.2c0.2-0.1,0.4-0.2,0.6-0.4c0.2-0.2,0.3-0.4,0.4-0.6  C49,63.5,49,63.3,49,63C49,62.9,49,62.7,49,62.5z"></path>	<path class="ss-2" d="M73.3,72.3c-5.1,0-5.1,7.9,0,7.9C78.4,80.2,78.4,72.3,73.3,72.3z"></path>	<path class="ss-2" d="M58.8,77.9c-0.1-0.3-0.2-0.5-0.4-0.7c-0.1-0.1-0.2-0.2-0.3-0.3c-0.3-0.1-0.5-0.2-0.8-0.2c-0.2,0-0.4,0-0.6,0.1  c-0.2,0.1-0.4,0.2-0.5,0.3c-0.2,0.1-0.3,0.3-0.3,0.5c-0.1,0.2-0.2,0.4-0.1,0.6c0,0.1,0,0.3,0.1,0.4c0.1,0.3,0.2,0.5,0.4,0.7  c0.1,0.1,0.2,0.2,0.3,0.3c0.3,0.1,0.5,0.2,0.8,0.2c0.2,0,0.4,0,0.6-0.1c0.2-0.1,0.4-0.2,0.5-0.3c0.2-0.1,0.3-0.3,0.3-0.5  c0.1-0.2,0.2-0.4,0.1-0.6C58.9,78.1,58.9,78,58.8,77.9z"></path>	<path class="ss-2" d="M80,56.2c-0.1-0.4-0.3-0.7-0.6-1c-0.1-0.1-0.3-0.2-0.4-0.3c-0.3-0.2-0.7-0.3-1.1-0.3c-0.3,0-0.6,0.1-0.8,0.2  c-0.3,0.1-0.5,0.2-0.7,0.5c-0.2,0.2-0.4,0.4-0.5,0.7c-0.1,0.3-0.2,0.5-0.2,0.8c0,0.2,0.1,0.4,0.1,0.6c0.1,0.4,0.3,0.7,0.6,1  c0.1,0.1,0.3,0.2,0.4,0.3c0.3,0.2,0.7,0.3,1.1,0.3c0.3,0,0.6-0.1,0.8-0.2c0.3-0.1,0.5-0.2,0.7-0.5c0.2-0.2,0.4-0.4,0.5-0.7  C80,57.3,80,57,80,56.7C80,56.5,80,56.4,80,56.2z"></path>	<path class="ss-2" d="M38.8,44.9c-1.5,0-1.5,2.3,0,2.3C40.3,47.2,40.3,44.9,38.8,44.9z"></path>	<path class="ss-2" d="M58.1,43.3c-0.1-0.2-0.2-0.4-0.3-0.5c-0.1-0.1-0.2-0.1-0.2-0.2c-0.2-0.1-0.4-0.2-0.6-0.2c-0.2,0-0.3,0-0.5,0.1  c-0.2,0-0.3,0.1-0.4,0.3c-0.1,0.1-0.2,0.2-0.3,0.4c-0.1,0.1-0.1,0.3-0.1,0.5c0,0.1,0,0.2,0,0.3c0.1,0.2,0.2,0.4,0.3,0.5l0.2,0.2  c0.2,0.1,0.4,0.2,0.6,0.2c0.2,0,0.3,0,0.5-0.1c0.2,0,0.3-0.1,0.4-0.3c0.1-0.1,0.2-0.2,0.3-0.4c0.1-0.1,0.1-0.3,0.1-0.5  C58.1,43.5,58.1,43.4,58.1,43.3z"></path>	<path class="ss-2" d="M58.3,63.5c-1.8,0-1.8,2.7,0,2.7C60.1,66.3,60.1,63.5,58.3,63.5z"></path>	<path class="ss-2" d="M43.2,82.3c-0.2-0.7-0.6-1.4-1.1-1.9c-0.3-0.2-0.6-0.5-0.9-0.7c-0.7-0.4-1.4-0.6-2.2-0.6  c-0.6,0-1.2,0.1-1.7,0.4c-0.5,0.2-1,0.5-1.4,0.9c-0.4,0.4-0.7,0.9-0.9,1.4c-0.3,0.5-0.4,1.1-0.4,1.7c0.1,0.4,0.1,0.8,0.2,1.2  c0.2,0.7,0.6,1.4,1.1,1.9c0.3,0.2,0.6,0.5,0.9,0.7c0.7,0.4,1.4,0.6,2.2,0.6c0.6,0,1.2-0.1,1.7-0.4c0.5-0.2,1-0.5,1.4-0.9  c0.4-0.4,0.7-0.9,0.9-1.4c0.3-0.5,0.4-1.1,0.4-1.7C43.3,83.1,43.2,82.7,43.2,82.3z"></path>	<polygon class="star_svg_1" points="11.7,44.2 8,43.8 5.6,46.6 4.9,43 1.4,41.6 4.6,39.7 4.9,36.1 7.7,38.5 11.3,37.7 9.8,41.1  "></polygon>	<polygon class="star_svg_2" points="77.8,19.4 74.6,15.5 69.7,16 72.3,11.8 70.3,7.2 75.2,8.4 78.9,5.1 79.2,10.1 83.5,12.6 78.9,14.5  "></polygon>	<polygon class="star_svg_3" points="98,84.1 94.9,83.6 92.8,85.8 92.3,82.7 89.5,81.4 92.3,80 92.7,76.9 94.9,79.1 98,78.6 96.6,81.3  "></polygon></g></svg>