<svg xmlns="http://www.w3.org/2000/svg" xmlns:xlink="http://www.w3.org/1999/xlink" x="0px" y="0px" viewBox="0 0 2996.7 1050.3" style="enable-background:new 0 0 2996.7 1050.3;" xml:space="preserve"><style type="text/css">	.hands_svg_0{fill:#FCCC9E;}	.hands_svg_1{fill:#24C3EA;}	.hands_svg_2{fill:#111112;}	.hands_svg_3{fill:#7A69AF;}	.hands_svg_4{fill:#FFDB43;}	.hands_svg_5{fill:#00AFE6;}	.hands_svg_6{fill:#F05145;}	.hands_svg_7{fill:#FDC42D;}	.hands_svg_8{fill:#EF4043;}	.hands_svg_9{fill:#20649B;}	.hands_svg_10{fill:#0FA66C;}	.hands_svg_11{fill:#F173AC;}	.hands_svg_12{fill:#1CADA0;}	.hands_svg_13{fill:#E3C9E1;}	.hands_svg_14{fill:#FFFFFF;}	.hands_svg_15{fill:#B6D434;}	.hands_svg_16{fill:#00956F;}	.hands_svg_17{fill:#6B6AAE;}	.hands_svg_18{fill:#F283B4;}</style><g>	<g>		<g>			<g>				<g>					<g>						<path class="hands_svg_0" d="M245.1,1049.2c-3.2-150.6-6.3-241.7-24.2-382c-1.5-11.7-0.7-18.8-7.3-26.9       c39.5-3.8,123.4-10.8,143.7-11.2c-3.8,16.6-2.3,32.5-1,46.1c8.6,87.9,25.6,180.6,45.8,374.1       C324.1,1049.2,274.4,1049.2,245.1,1049.2z"></path>					</g>				</g>			</g>			<path class="hands_svg_1" d="M74.1,543.5c11.6-32.2,99.2,3.7,103.9-5.8c4.9-9.8-12.5-44.1-30.1-86.9c-20.7-50.5-50.6-94.7-23.6-108.4    c21.5-10.9,43.5,25.6,63.9,59.1c14.7,24.1,29.9,46.7,36.7,48.9c6.3-8.5,3.6-39.4-0.7-73c-5.9-45.8-13.1-96.6,12.5-103    c33.8-8.4,39.2,51.9,44.1,101.8c3.3,33.3,8,61.9,14.7,62.4c5.3,0,15.1-26.2,23.9-54.8c11-35.7,22.1-75.3,40.1-72.4    c27.9,4.5,14.9,59.2,4.8,102.4c-6.5,27.9-9.6,51.1-7,52.9c4.3,1.2,17.1-13.6,29.8-30.1c15.9-20.8,32.8-44,46.4-36.5    c19.8,11-3,58-29,114.6c-15.3,33.2-47.9,118.6-52.2,125.5c-5.3,8.7-23.5,12.3-40.9,6.1c-31.9-11.5-47.2,4.4-62.3,4.9    c-18.7,0.7-29.9-3.9-31.9-6.3C157.5,596.6,61.7,578.2,74.1,543.5z"></path>		</g>		<g>			<g>				<path class="hands_svg_2" d="M277.6,607.2c-2.7,0-5.5-0.1-8.5-0.4c-20.5-2.1-36.6-10.3-47.8-24.4c-10.3-12.9-12.8-26.2-13.3-29.9     c-0.3-2,1.2-3.9,3.2-4.2c2-0.3,3.9,1.2,4.2,3.2c0.6,4.4,7.2,42.9,54.5,47.9c45.2,4.7,61.2-33.3,61.3-33.7c0.8-1.9,3-2.8,4.9-2.1     c1.9,0.8,2.8,3,2.1,4.9c-0.2,0.5-4.6,11.2-15.3,21.2C314.1,597.9,299.4,607.2,277.6,607.2z"></path>			</g>			<path class="hands_svg_2" d="M362.5,528.6c-0.1,0-0.2,0-0.3,0c-2.1-0.2-3.6-2-3.4-4c1.5-18.5-9.3-28.1-19.8-29.2    c-7.2-0.7-19.6,1.6-22.7,25.7c-0.3,2-2.1,3.5-4.2,3.2c-2-0.3-3.5-2.1-3.2-4.2c1.6-12.2,5.6-21.1,12-26.6    c6.6-5.6,13.9-6.1,18.9-5.6c14.1,1.5,28.4,13.7,26.5,37.2C366,527.1,364.4,528.6,362.5,528.6z"></path>			<path class="hands_svg_2" d="M248.4,514.4c-0.1,0-0.2,0-0.3,0c-2.1-0.2-3.6-2-3.4-4c1.5-18.5-9.3-28.1-19.8-29.2    c-7.2-0.7-19.6,1.6-22.8,25.7c-0.3,2-2.1,3.5-4.2,3.2c-2-0.3-3.5-2.1-3.2-4.2c1.6-12.2,5.6-21.1,12-26.6    c6.6-5.6,13.9-6.1,18.9-5.6c14.1,1.5,28.4,13.7,26.5,37.2C251.9,513,250.3,514.4,248.4,514.4z"></path>			<path class="hands_svg_2" d="M350.4,580.2c-0.3,0-0.6,0-1-0.1c-8.2-2.2-23.4-11-21.8-28.2c0.2-2.1,2-3.6,4.1-3.4c2.1,0.2,3.6,2,3.4,4.1    c-1.4,15.4,15.5,20.1,16.3,20.3c2,0.5,3.2,2.6,2.6,4.6C353.5,579.1,352,580.2,350.4,580.2z"></path>			<path class="hands_svg_2" d="M192.7,562c-0.6,0-1.2,0-1.8-0.1c-2.1-0.1-3.6-1.9-3.5-4c0.1-2.1,1.9-3.6,4-3.5c0.8,0,18.4,0.9,21.9-14    c0.5-2,2.5-3.2,4.5-2.8c2,0.5,3.2,2.5,2.8,4.5C216.8,558,201.6,562,192.7,562z"></path>		</g>	</g>	<g>		<g>			<g>				<g>					<g>						<path class="hands_svg_0" d="M2748.3,1049.2c3.2-150.6,6.3-241.7,24.2-382c1.5-11.7,0.7-18.8,7.3-26.9       c-39.5-3.8-123.4-10.8-143.7-11.2c3.8,16.6,2.3,32.5,1,46.1c-8.6,87.9-25.6,180.6-45.8,374.1       C2669.3,1049.2,2719,1049.2,2748.3,1049.2z"></path>					</g>				</g>			</g>			<path class="hands_svg_3" d="M2919.3,543.5c-11.6-32.2-99.2,3.7-103.9-5.8c-4.9-9.8,12.5-44.1,30.1-86.9c20.7-50.5,50.6-94.7,23.6-108.4    c-21.5-10.9-43.5,25.6-63.9,59.1c-14.7,24.1-29.9,46.7-36.7,48.9c-6.3-8.5-3.6-39.4,0.7-73c5.9-45.8,13.1-96.6-12.5-103    c-33.8-8.4-39.2,51.9-44.1,101.8c-3.3,33.3-8,61.9-14.7,62.4c-5.3,0-15.1-26.2-23.9-54.8c-11-35.7-22.1-75.3-40.1-72.4    c-27.9,4.5-14.9,59.2-4.8,102.4c6.5,27.9,9.6,51.1,7,52.9c-4.3,1.2-17.1-13.6-29.8-30.1c-15.9-20.8-32.8-44-46.4-36.5    c-19.8,11,3,58,29,114.6c15.3,33.2,47.9,118.6,52.2,125.5c5.3,8.7,23.5,12.3,40.9,6.1c31.9-11.5,47.2,4.4,62.3,4.9    c18.7,0.7,29.9-3.9,31.9-6.3C2835.9,596.6,2931.7,578.2,2919.3,543.5z"></path>		</g>		<g>			<g>				<path class="hands_svg_4" d="M2764.7,432.7c-0.2-5.3,0-11.5,0.5-18.3c-18.1-8.7-42.3-11-56.6-7.6c-1.1,6.8-2.2,12.8-3.5,17.8     C2723.8,420.6,2745.7,425.7,2764.7,432.7z"></path>				<path class="hands_svg_4" d="M2840.2,463.2c1.7-4,3.4-8.2,5.2-12.4c1-2.5,2.1-5,3.2-7.5c-16.3-14.3-39.6-22.6-55.2-23.1     c-4.2,6.5-8.3,12.3-11.9,17.2C2807.2,441.3,2823.7,455,2840.2,463.2z"></path>				<path class="hands_svg_4" d="M2672.1,484.4c-22.3-0.4-58.6,1.9-93.1,9c2.5,5.5,5.1,11.2,7.8,16.9c28.1-6.8,79.9-13,118.4-8.5     c37.5,4.4,78.7,13.4,110.4,23.3c1.1-4.4,2.8-9.6,5.1-15.5C2778.7,496,2759.1,485.7,2672.1,484.4z"></path>				<path class="hands_svg_4" d="M2875.7,530.6c-10.5,1.1-21.3,3.2-30.9,5.1c2.7,1.2,5.3,2.3,7.6,3.5c23.2,12.2,42.4,25.9,51.9,33     c6.5-4.7,11.4-9.4,14-14.4C2905.5,549,2895.8,537.2,2875.7,530.6z"></path>				<path class="hands_svg_4" d="M2634.3,439.8c7.6-5.7,20.4-9.1,28.5-11.7c6.8-2.2,17.9-2.1,25.8-2.8c-2.2-5-4.6-11.2-7-18     c-15-0.1-36,5-51,13.3C2632.1,427.4,2633.3,433.9,2634.3,439.8z"></path>				<path class="hands_svg_4" d="M2763.3,612.8c-44.2-13-66.7-7.2-82.8-4.7c-9.4,1.5-39.6,0.9-56.5-8.7c3.9,9.6,7.4,18.3,10.2,25.2     c28.1,1,50,2.3,62,0.3c36.9-6.2,47.7,12.7,92.9,10.2c12.7-8.8,26.4-16.6,40.1-23.6C2804.4,610,2781.2,618,2763.3,612.8z"></path>				<path class="hands_svg_4" d="M2600.5,541.6c2.5,5.9,5.1,12.2,7.7,18.7c30.5,0.7,83.1,2.5,111.3,7.4c33,5.7,110,17.5,147.5,25.3     c5.6-2.8,11-5.5,16.1-8.1c-33.7-12.7-53.2-21.8-159.3-35.3C2672.1,542.9,2633,544,2600.5,541.6z"></path>				<path class="hands_svg_4" d="M2554.4,430.9c10.9-6,24.1-13.3,32.6-18.2c-4.9-5.4-9.8-9.7-14.5-12.1c-7.5,6.1-14.7,11.7-20.3,16.1     C2552.4,420.8,2553.1,425.6,2554.4,430.9z"></path>				<path class="hands_svg_4" d="M2564.9,461.2c11.7-3.6,30.2-9.3,48.9-15c-2.5-3.1-5-6.3-7.5-9.6c-1.6-2-3.1-4.1-4.7-6.2     c-13.3,5.4-30,12.6-41.7,17.8C2561.3,452.4,2563,456.7,2564.9,461.2z"></path>				<path class="hands_svg_4" d="M2622.7,385.5c12.3-18.4,30.9-25.4,41.4-32.9c-1.6-4.8-3.3-9.4-5-13.6c-17.6,3-30.1,13.3-40.7,21.6     C2619.4,368.5,2620.9,377,2622.7,385.5z"></path>				<path class="hands_svg_4" d="M2824.8,370.5c17.2,4.1,32.1,12.5,43.4,29.6c2.9-6.7,5.5-13,7.5-18.9c-12.2-13.6-24.8-22-38.2-26.8     C2833.2,358.9,2829,364.5,2824.8,370.5z"></path>				<path class="hands_svg_4" d="M2715.6,345.9c20.3-2.5,44,0.3,56.8,4.6c0.6-5.7,1.2-11.3,1.6-16.8c-19-7.5-36.2-11.2-55.4-8.2     C2717.4,332.1,2716.4,338.9,2715.6,345.9z"></path>			</g>		</g>		<path class="hands_svg_4" d="M2758.6,298.7c0,5.5-4.5,10-10,10c-5.5,0-10-4.5-10-10c0-5.5,4.5-10,10-10   C2754.1,288.7,2758.6,293.2,2758.6,298.7z"></path>		<path class="hands_svg_4" d="M2750.6,374.9c0,5.5-4.5,10-10,10s-10-4.5-10-10c0-5.5,4.5-10,10-10S2750.6,369.4,2750.6,374.9z"></path>		<path class="hands_svg_4" d="M2649,520.8c0,5.5-4.5,10-10,10c-5.5,0-10-4.5-10-10c0-5.5,4.5-10,10-10C2644.6,510.8,2649,515.3,2649,520.8z   "></path>		<path class="hands_svg_4" d="M2799.9,469.5c0,5.5-4.5,10-10,10c-5.5,0-10-4.5-10-10c0-5.5,4.5-10,10-10   C2795.4,459.5,2799.9,464,2799.9,469.5z"></path>		<path class="hands_svg_4" d="M2720.2,584.5c0,5.5-4.5,10-10,10c-5.5,0-10-4.5-10-10s4.5-10,10-10C2715.8,574.5,2720.2,579,2720.2,584.5z"></path>	</g>	<g>		<g>			<g>				<g>					<g>						<path class="hands_svg_0" d="M1821.7,1049.2c-3.2-150.6-11.3-339.2-29.2-479.5c-1.5-11.7-0.7-18.8-7.3-26.9       c39.5-3.8,123.4-10.8,143.7-11.2c-3.8,16.6-2.3,32.5-1,46.1c8.6,87.9,30.7,278.1,50.8,471.6       C1900.7,1049.2,1851,1049.2,1821.7,1049.2z"></path>					</g>				</g>			</g>			<path class="hands_svg_5" d="M1645.7,446c11.6-32.2,99.2,3.7,103.9-5.8c4.9-9.8-12.5-44.1-30.1-86.9c-20.7-50.5-50.6-94.7-23.6-108.4    c21.5-10.9,43.5,25.6,63.9,59.1c14.7,24.1,29.9,46.7,36.7,48.9c6.3-8.5,3.6-39.4-0.7-73c-5.9-45.8-13.1-96.6,12.5-103    c33.8-8.4,39.2,51.9,44.1,101.8c3.3,33.3,8,61.9,14.7,62.4c5.3,0,15.1-26.2,23.9-54.8c11-35.7,22.1-75.3,40.1-72.4    c27.9,4.5,14.9,59.2,4.8,102.4c-6.5,27.9-9.6,51.1-7,52.9c4.3,1.2,17.1-13.6,29.8-30.1c15.9-20.8,32.8-44,46.4-36.5    c19.8,11-3,58-29,114.5c-15.3,33.2-47.9,118.6-52.2,125.5c-5.3,8.7-23.5,12.3-40.9,6.1c-31.9-11.5-47.2,4.4-62.3,4.9    c-18.7,0.7-29.9-3.9-31.9-6.3C1729.1,499.1,1633.3,480.6,1645.7,446z"></path>		</g>		<g>			<g>				<path class="hands_svg_6" d="M1690.4,491.7c1.1-16.9,4.9-44.6,6.8-57.6c-5-0.7-10.1-1.3-14.9-1.6c0.9,15.5-2.6,33.5-5,52.4     C1681.4,487.1,1685.8,489.4,1690.4,491.7z"></path>				<path class="hands_svg_6" d="M1735.6,441c-3.9-0.6-8.3-1.4-13.2-2.4c-1.4,16-6,47.2-8.7,64.5c6.1,3,12.4,6.1,18.8,9.3     C1730.9,493.2,1734,458.5,1735.6,441z"></path>				<path class="hands_svg_6" d="M1899.4,259.4c14.1,8.6,35.1,18.5,44,22.6c1.4-7,2.5-13.9,3.3-20.4c-10.5-5.7-24.8-13.1-40.6-20.9     C1903.9,246.5,1901.6,252.8,1899.4,259.4z"></path>				<path class="hands_svg_6" d="M1791.9,247c16.4-9.7,43.7-13.9,55.1-15.3c-1.1-6.6-2.3-13-3.8-18.9c-17.2-2.3-36.2,4.8-52.8,13.8     C1790.7,233.2,1791.2,240,1791.9,247z"></path>				<path class="hands_svg_6" d="M1697.1,303.3c11.4-12,34.2-24.4,43.8-29.3c-2.8-4.1-5.6-7.9-8.5-11.5c-12.7,5.5-29.5,12.5-43.1,21     C1691.3,289.7,1694.1,296.3,1697.1,303.3z"></path>				<path class="hands_svg_6" d="M1759.9,303.9c-0.3-0.6-0.7-1.2-1-1.7c-8.1,6.4-32.8,26.2-43.9,40.1c1.6,3.6,3.1,7.3,4.7,10.9     c2.1,5.2,4.2,10.2,6.3,15.1c5.9-18.5,32.7-41,43.4-49.4C1766.2,314.1,1763,309.1,1759.9,303.9z"></path>				<path class="hands_svg_6" d="M1994.6,376.5c-13.7-11.1-33.6-22.7-43.2-28.1c-3.2,3.9-6.2,7.5-9,10.6c12.3,9.9,30.4,26.1,43.2,37.7     C1988.7,389.7,1991.8,382.9,1994.6,376.5z"></path>				<path class="hands_svg_6" d="M1977.5,315.5c-4.4,4.8-8.8,10.4-13.1,16c8.2,9.9,23.7,20.3,37.2,28.2c3-7.6,5.5-14.6,7.4-21     C1998.3,331,1985.1,321.5,1977.5,315.5z"></path>				<path class="hands_svg_6" d="M1935.9,316.2c0.1-0.5,0.2-1,0.3-1.5c-10.1-8.1-28.8-17.7-46.1-25.5c-2,6.4-4,12.6-6,18.4     c15.6,2.8,39.8,19.1,48.3,25.2C1933.4,327.5,1934.6,322,1935.9,316.2z"></path>				<path class="hands_svg_6" d="M1852.5,278.6c-0.1-1.2-0.2-2.3-0.3-3.5c-13.7-0.7-36.2,5.4-55.4,11.9c0.8,6.4,1.5,12.6,2,18.6     c16-5.1,44.6-7.2,55.9-7.8C1853.9,291.7,1853.2,285.2,1852.5,278.6z"></path>			</g>		</g>	</g>	<g>		<g>			<g>				<g>					<path class="hands_svg_0" d="M1073.4,1049.2c-18.9-226.7-41.8-421.8-41.7-432.2c-33.4,21.6-103.5,68.1-119.6,80.3      c2.9,2.3,5.5,4.7,8,7.2c9,9.1,19.3,225.9,19.3,344.6C1017.6,1049.2,1026.6,1049.2,1073.4,1049.2z"></path>				</g>			</g>		</g>		<path class="hands_svg_7" d="M1081,454.6c-29.1-18.1-75.5,64.4-85.1,59.9c-9.9-4.6-17.6-42.3-30.4-86.8c-15.1-52.5-19.1-105.7-48.8-99.6   c-23.6,4.8-18.2,47.1-13.4,86c3.5,28,5.5,55.1,1.6,61.1c-10.2-2.8-27.3-28.7-44.8-57.7c-23.8-39.6-49.7-83.9-73.8-73   c-31.7,14.3,1.5,65.1,28.6,107.2c18.1,28.1,32.2,53.5,27.2,58c-4.1,3.3-28.1-11.2-52.7-28.2c-30.8-21.2-64-45.3-76.4-31.9   c-19.1,20.8,25.1,55.6,59.8,83.3c22.4,17.9,39.3,34.1,38.3,37.2c-2.6,3.6-21.8,0-42-5.1c-25.4-6.5-53-14.1-59.1,0.2   c-8.7,20.9,38.3,43.7,93.9,71.8c32.7,16.6,111.1,63.3,118.8,66.1c9.5,3.5,26.1-4.9,35.9-20.6c17.9-28.8,39.7-25.8,51.9-34.8   c15.1-11,21-21.6,21.1-24.7C1048.6,547.9,1112.2,474,1081,454.6z"></path>		<path class="hands_svg_8" d="M901.6,537.6c13.1-61.1,76.1-41.1,73.4-0.7c-2.4,35.5-21.6,68.8-28.6,76.7c-18.2,3.3-41.2,2.4-76-7   c-39.9-10.8-37.6-44.2-26.9-55.6C861.7,531.2,901.6,537.6,901.6,537.6z"></path>		<path class="hands_svg_9" d="M1081,454.6c-20-12.5-48.3,22.8-67.1,44.5c1.1,4,4.9,6.5,12.7,6.1c28.3-1.3,33.7,9.4,28.3,33.7   c-2,8.9-3.4,18.6-2.7,25.8C1075.6,512.7,1104,468.9,1081,454.6z"></path>		<path class="hands_svg_1" d="M977,469.2c-3.4-12.4-7.1-26.6-11.4-41.6c-15.1-52.5-19.1-105.7-48.8-99.6c-15.2,3.1-18.4,21.7-17.5,44.9   c12.3,15.2,33.9,15.5,28.9,40.5c-6.1,30.3-10.1,50.6,16.2,54.6C957.1,470.1,968.6,472.2,977,469.2z"></path>		<path class="hands_svg_10" d="M814.9,451.6c1.6,2.5,3.2,5,4.7,7.4c10.6-1.1,22.1-3.3,29-7.8c15.5-10.1,2-26.3-14.8-25.6   c-15,0.6-16.6-27,2.5-46.4c-16.7-24.4-33.7-42.1-49.9-34.8C754.6,358.7,787.8,409.5,814.9,451.6z"></path>		<path class="hands_svg_8" d="M748.1,512.8c7.2,1.9,14.3,2.1,20.9,0.5c22.9-5.4,59.3,10.1,52.6-10.1c-0.1-0.4-0.3-0.9-0.5-1.4   c-9.2-5.3-20.4-12.5-31.7-20.3c-30.8-21.2-64-45.3-76.4-31.9C698.4,465.6,721,489.8,748.1,512.8z"></path>		<path class="hands_svg_11" d="M765.7,588.8c-16.1-6.6-23.2-21.8-32.3-31.5c-11.3-1.1-20.2,0.4-23.2,7.8c-8.7,20.9,38.3,43.7,93.9,71.8   c9.1,4.6,21.9,11.6,35.6,19.4C841.2,640.9,787.1,597.7,765.7,588.8z"></path>	</g>	<g>		<g>			<g>				<g>					<path class="hands_svg_0" d="M2030.9,1049.2c18.9-226.7,19.6-317.5,19.5-327.9c33.4,21.6,103.5,68.1,119.6,80.3c-2.9,2.3-5.5,4.7-8,7.2      c-9,9.1,2.8,121.6,2.8,240.4C2086.6,1049.2,2077.6,1049.2,2030.9,1049.2z"></path>				</g>			</g>		</g>		<path class="hands_svg_12" d="M2001.1,558.8c29.1-18.1,75.5,64.4,85.1,59.9c9.9-4.6,17.6-42.3,30.4-86.8c15.1-52.5,19.1-105.7,48.8-99.6   c23.6,4.8,18.2,47.1,13.4,86c-3.5,28-5.5,55.1-1.6,61.1c10.2-2.8,27.3-28.7,44.8-57.7c23.8-39.6,49.7-83.9,73.8-73   c31.7,14.3-1.5,65.1-28.6,107.2c-18.1,28.1-32.2,53.5-27.2,58c4.1,3.3,28.1-11.2,52.7-28.2c30.8-21.2,64-45.3,76.4-31.9   c19.1,20.8-25.1,55.6-59.8,83.3c-22.4,17.9-39.3,34.1-38.3,37.1c2.6,3.6,21.8,0,42-5.1c25.4-6.5,53-14.1,59.1,0.2   c8.7,20.9-38.3,43.7-93.9,71.8c-32.7,16.5-111.1,63.2-118.8,66.1c-9.5,3.5-26.1-4.9-35.9-20.6c-17.9-28.8-39.7-25.8-51.9-34.8   c-15.1-11-21-21.6-21.1-24.7C2033.6,652.2,1969.9,578.3,2001.1,558.8z"></path>		<path class="hands_svg_13" d="M2185,646.3c-13.1-61.1-76.1-41.1-73.4-0.7c2.4,35.5,21.6,68.8,28.6,76.7c18.2,3.3,41.2,2.4,76-7   c39.9-10.8,37.7-44.2,26.9-55.6C2224.9,640,2185,646.3,2185,646.3z"></path>		<path class="hands_svg_9" d="M2001.1,558.8c20-12.5,48.3,22.8,67.1,44.5c-1.1,4-4.9,6.5-12.7,6.1c-28.3-1.3-33.7,9.4-28.3,33.7   c2,8.9,3.4,18.6,2.7,25.8C2006.5,616.9,1978.1,573.1,2001.1,558.8z"></path>		<path class="hands_svg_9" d="M2105.1,573.5c3.4-12.4,7.1-26.6,11.5-41.6c15.1-52.5,19.1-105.7,48.8-99.6c15.2,3.1,18.4,21.7,17.5,44.9   c-12.3,15.2-33.9,15.5-28.9,40.5c6.1,30.3,10.1,50.6-16.2,54.6C2125,574.3,2113.5,576.4,2105.1,573.5z"></path>		<path class="hands_svg_9" d="M2267.2,555.9c-1.6,2.5-3.2,5-4.7,7.4c-10.6-1.1-22.1-3.3-29-7.8c-15.5-10.1-2-26.3,14.8-25.6   c15,0.6,16.6-27-2.5-46.4c16.7-24.4,33.7-42.1,49.9-34.8C2327.5,463,2294.3,513.7,2267.2,555.9z"></path>		<path class="hands_svg_9" d="M2334,617c-7.2,1.9-14.3,2.1-20.9,0.5c-22.9-5.4-59.3,10.1-52.6-10.1c0.1-0.4,0.3-0.9,0.5-1.4   c9.2-5.3,20.3-12.5,31.7-20.3c30.8-21.2,64-45.3,76.4-31.9C2383.7,569.8,2361.1,594.1,2334,617z"></path>		<path class="hands_svg_9" d="M2316.5,693.1c16.1-6.6,23.2-21.8,32.3-31.5c11.3-1.1,20.1,0.4,23.2,7.8c8.7,20.9-38.3,43.7-93.9,71.8   c-9.1,4.6-21.9,11.6-35.6,19.4C2240.9,745.1,2295,701.9,2316.5,693.1z"></path>	</g>	<g>		<g>			<g>				<g>					<g>						<path class="hands_svg_0" d="M1091.3,1049.2c35.9-212.1,107.6-593.9,139-666.2c24.4,31.4,75.1,98.5,86.4,115.4       c-3.5,1.2-6.8,2.6-10,4.2c-11.5,5.6-57.1,331.5-85.5,546.6C1151.8,1049.2,1167.5,1049.2,1091.3,1049.2z"></path>					</g>				</g>			</g>			<path class="hands_svg_11" d="M1237.5,213.4c33.4-7.5,49.9,85.8,60.5,84.7c10.9-1.1,30.6-34.1,57.4-71.9c31.6-44.5,53-93.4,79-77.9    c20.7,12.4,1.7,50.5-15.7,85.6c-12.5,25.3-23.4,50.2-21.7,57.2c10.6,0.7,35.2-18,61.3-39.7c35.5-29.5,74.6-62.7,93.7-44.5    c25.2,24-22.9,60.9-62.4,91.8c-26.4,20.6-48,39.9-44.9,45.7c2.8,4.4,30.2-1.3,59.1-9.2c36.1-9.8,75.4-21.6,82.6-4.9    c11.1,25.9-42.1,44.2-84,58.8c-27.1,9.4-48.3,19.2-48.5,22.4c1.2,4.2,20.6,7.2,41.4,9c26.1,2.3,54.7,4.2,55.7,19.7    c1.3,22.6-50.6,28.6-112.3,36.7c-36.3,4.8-125.8,23-134,23.1c-10.2,0.1-23-13.3-27-31.3c-7.4-33.1-28.9-37.5-37.5-50    c-10.6-15.4-12.7-27.3-11.8-30.3C1237.2,312.3,1201.6,221.5,1237.5,213.4z"></path>		</g>		<g>			<path class="hands_svg_14" d="M1352,416.5c-21.7,0-39.4-17.1-39.4-38c0-21,17.7-38,39.4-38c21.7,0,39.4,17.1,39.4,38    C1391.4,399.5,1373.7,416.5,1352,416.5z M1352,348c-17.6,0-31.9,13.7-31.9,30.6c0,16.8,14.3,30.6,31.9,30.6    c17.6,0,31.9-13.7,31.9-30.6C1383.9,361.7,1369.6,348,1352,348z"></path>			<path class="hands_svg_14" d="M1348.8,332.2c-1.9,0-3.5-1.4-3.7-3.3c-1.4-11.5-0.3-29.6-0.2-30.4c0.1-2.1,1.9-3.6,4-3.5    c2.1,0.1,3.6,1.9,3.5,4c0,0.2-1.1,18.2,0.2,29c0.3,2-1.2,3.9-3.3,4.2C1349.1,332.2,1349,332.2,1348.8,332.2z"></path>			<path class="hands_svg_14" d="M1361,459.9c-1.4,0-2.8-0.8-3.4-2.2c-6.5-14.5-4.8-31.7-4.8-32.4c0.2-2.1,2-3.5,4.1-3.3    c2.1,0.2,3.5,2,3.3,4.1l0,0c0,0.2-1.5,15.9,4.2,28.6c0.8,1.9,0,4.1-1.9,4.9C1362,459.8,1361.5,459.9,1361,459.9z"></path>			<path class="hands_svg_14" d="M1275.7,393.3c-1.8,0-3.5-1.4-3.7-3.3c-0.3-2,1.2-3.9,3.2-4.2c0.2,0,19.4-2.6,27.9-5.2    c2-0.6,4.1,0.5,4.7,2.5c0.6,2-0.5,4.1-2.5,4.7c-9.1,2.8-28.3,5.3-29.1,5.4C1276,393.2,1275.9,393.3,1275.7,393.3z"></path>			<path class="hands_svg_14" d="M1400.7,377.2c-0.9,0-1.6,0-1.9,0c-2.1,0-3.7-1.7-3.7-3.8c0-2,1.7-3.7,3.7-3.7c0,0,0,0,0,0    c7.9,0.1,22.2-0.4,26.7-2.2c1.9-0.8,4.1,0.2,4.9,2.1c0.8,1.9-0.2,4.1-2.1,4.9C1422,376.9,1406.4,377.2,1400.7,377.2z"></path>			<path class="hands_svg_14" d="M1381.5,343c-0.7,0-1.4-0.2-2-0.6c-1.7-1.1-2.3-3.4-1.2-5.1l14.5-23.3c1.1-1.7,3.4-2.3,5.1-1.2    c1.7,1.1,2.3,3.4,1.2,5.1l-14.5,23.3C1383.9,342.3,1382.7,343,1381.5,343z"></path>			<path class="hands_svg_14" d="M1306.6,438.6c-0.8,0-1.6-0.3-2.3-0.8c-1.6-1.3-1.9-3.6-0.7-5.2l16-20.7c1.3-1.6,3.6-1.9,5.2-0.7    c1.6,1.3,1.9,3.6,0.7,5.2l-16,20.7C1308.9,438.1,1307.8,438.6,1306.6,438.6z"></path>			<path class="hands_svg_14" d="M1313.4,351.8c-0.6,0-1.1-0.1-1.7-0.4l-22.6-11.5c-1.8-0.9-2.6-3.2-1.6-5c0.9-1.8,3.2-2.6,5-1.6l22.6,11.5    c1.8,0.9,2.6,3.2,1.6,5C1316.1,351.1,1314.8,351.8,1313.4,351.8z"></path>			<path class="hands_svg_14" d="M1411.8,422.1c-0.6,0-1.2-0.1-1.7-0.4l-21.9-11.5c-1.8-1-2.5-3.2-1.6-5c1-1.8,3.2-2.5,5-1.6l21.9,11.5    c1.8,1,2.5,3.2,1.6,5C1414.5,421.4,1413.2,422.1,1411.8,422.1z"></path>		</g>	</g>	<g>		<g>			<g>				<g>					<g>						<path class="hands_svg_0" d="M2542.6,1049.2c-10.6-271.9-21.9-618.5-38.1-695.7c-30.2,25.8-93.4,81.3-107.8,95.6       c3.2,1.9,6.1,4,8.9,6.1c10.1,7.8-7.5,399.1-12.2,594C2443.7,1049.2,2503.4,1049.2,2542.6,1049.2z"></path>					</g>				</g>			</g>			<path class="hands_svg_15" d="M2531.7,185.9c-31.2-14.1-66.2,73.9-76.4,70.7c-10.5-3.3-23.1-39.6-41.7-82c-22-50-33-102.2-61.7-92.2    c-22.7,7.9-11.8,49.1-1.8,87c7.2,27.3,12.8,53.9,9.7,60.4c-10.5-1.4-30.9-24.7-52.1-51.2c-28.8-36-60.5-76.5-82.8-62.5    c-29.5,18.5,10.1,64.3,42.6,102.5c21.7,25.5,39,48.7,34.7,53.8c-3.7,3.8-29.3-7.3-56-20.9c-33.4-16.9-69.5-36.4-79.9-21.4    c-16.1,23.2,32.3,51.8,70.4,74.6c24.6,14.7,43.5,28.6,43,31.7c-2.1,3.9-21.7,2.9-42.3,0.5c-26.1-3-54.5-6.9-58.5,8.1    c-5.9,21.9,43.8,38.2,102.6,58.6c34.6,12,118.6,47.8,126.6,49.6c9.9,2.2,25.2-8.4,32.8-25.2c13.9-30.9,35.9-30.9,46.8-41.4    c13.4-13,17.9-24.2,17.6-27.3C2512,282.8,2565.2,201,2531.7,185.9z"></path>		</g>		<g>			<g>				<path class="hands_svg_2" d="M2369.3,385.9c-12.7,0-23.1-3-27.6-7.1c-1.5-1.4-1.7-3.7-0.3-5.3c1.4-1.5,3.7-1.7,5.3-0.3     c7.1,6.4,40.3,10,65.8-8.4c29.9-21.5,32.3-57.4,32.3-57.8c0.1-2.1,1.9-3.6,3.9-3.5c2.1,0.1,3.6,1.9,3.5,3.9     c-0.1,1.6-2.5,39.8-35.4,63.4C2401.6,381.9,2383.9,385.9,2369.3,385.9z"></path>				<path class="hands_svg_2" d="M2462,371c-14.3,0-28.4-10.5-34.2-15.4c-1.6-1.3-1.8-3.7-0.5-5.3c1.3-1.6,3.7-1.8,5.3-0.5     c4.4,3.7,19.8,15.6,32.8,13.3c5.3-0.9,9.5-4.1,12.8-9.7c3.5-6,3.4-11.5-0.3-16.3c-6.8-8.7-22.6-12.8-31.2-10.3     c-2,0.6-4.1-0.6-4.6-2.6c-0.6-2,0.6-4.1,2.6-4.6c11.3-3.2,30.4,1.6,39.2,12.9c5.6,7.3,5.9,16.1,0.9,24.7     c-4.4,7.5-10.5,12-18,13.2C2465.1,370.9,2463.6,371,2462,371z"></path>				<path class="hands_svg_2" d="M2465,349.5c-0.7,0-1.4-0.2-2-0.6c-8.9-5.8-22.2-8.9-22.4-9c-2-0.5-3.3-2.5-2.8-4.5c0.5-2,2.5-3.3,4.5-2.8     c0.6,0.1,14.8,3.5,24.8,10c1.7,1.1,2.2,3.4,1.1,5.2C2467.4,348.9,2466.2,349.5,2465,349.5z"></path>				<path class="hands_svg_2" d="M2384.7,345.4c-3.3,0-7.3-1.3-9.5-6.6c-1.5-3.4-2-7.6-2.5-12.5c-0.7-6-1.5-12.9-4.3-18.5     c-0.9-1.8-0.2-4.1,1.7-5c1.8-0.9,4.1-0.2,5,1.7c3.4,6.8,4.3,14.3,5.1,21c1.2,10.5,2.1,12.7,5.1,12.5c8.7-0.6,9.7-7.6,9.7-7.9     c0.3-2,2.1-3.5,4.2-3.2c2,0.3,3.5,2.1,3.2,4.2c-0.6,4.6-4.9,13.5-16.6,14.4C2385.4,345.4,2385,345.4,2384.7,345.4z"></path>			</g>			<path class="hands_svg_2" d="M2329.7,357.9C2329.7,357.9,2329.7,357.9,2329.7,357.9c-9.6,0-18.8-4.6-24.7-12.4    c-7.3-9.6-10.5-21.9-8.5-32.9c1.5-8.2,5.7-14.9,12-18.9c4.1-2.6,8.5-3.9,13.3-3.9c8.3,0,16.9,4,23.6,11    c7.4,7.7,11.5,17.6,11.1,27.3C2356,348.7,2342.6,357.9,2329.7,357.9z M2321.9,297.3c-3.3,0-6.5,0.9-9.3,2.7    c-4.5,2.9-7.6,7.8-8.7,13.9c-1.6,8.9,1.1,19,7.1,27c4.4,5.8,11.6,9.4,18.7,9.4c0,0,0,0,0,0c9,0,18.9-5.9,19.5-22.5    c0.3-7.7-3-15.6-9.1-21.8C2334.8,300.5,2328.1,297.3,2321.9,297.3z"></path>			<path class="hands_svg_2" d="M2414.4,298.3c-4.3,0-8.9-0.9-13.7-2.7c-12.5-4.8-22-17.5-23.7-31.6c-1.3-11,2.6-20.5,10.7-26.1    c4.3-3,9.5-4.5,15-4.5c13.2,0,26.5,8.4,34,21.5c5.4,9.5,5.5,21.5,0.2,30.7C2432.3,293.7,2424,298.3,2414.4,298.3z M2402.7,240.8    c-4.1,0-7.7,1.1-10.8,3.2c-7.9,5.4-8.1,14.3-7.5,19.1c1.3,11.2,9.1,21.7,18.9,25.5c3.9,1.5,7.6,2.3,11,2.3c7,0,12.8-3.2,16.2-9.1    c4-6.9,3.9-16-0.2-23.2C2424.2,248,2413.1,240.8,2402.7,240.8z"></path>			<path class="hands_svg_2" d="M2397.1,275.1c2,3.9,6.8,5.5,10.7,3.5c3.9-2,5.5-6.8,3.5-10.7c-2-3.9-6.8-5.5-10.7-3.5    C2396.7,266.3,2395.1,271.1,2397.1,275.1z"></path>			<path class="hands_svg_2" d="M2339.1,316.9c2.9,3.4,2.4,8.4-0.9,11.3c-3.4,2.9-8.4,2.4-11.3-0.9c-2.9-3.4-2.4-8.4,0.9-11.3    S2336.3,313.5,2339.1,316.9z"></path>			<path class="hands_svg_2" d="M2454.1,310.9c-7.3,0-15.3-2.5-20.9-10.6c-1.2-1.7-0.8-4,0.9-5.2c1.7-1.2,4-0.8,5.2,0.9    c8.9,12.7,25.1,5.3,25.8,5c1.9-0.9,4.1-0.1,5,1.8c0.9,1.9,0.1,4.1-1.8,5C2465,309.4,2459.8,310.9,2454.1,310.9z"></path>			<path class="hands_svg_2" d="M2332.5,398.1c-1.1,0-2.3-0.5-3-1.5c-1.2-1.7-0.9-4,0.8-5.2c0.6-0.5,14.7-11.3,7.7-25.1    c-0.9-1.8-0.2-4.1,1.6-5c1.8-0.9,4.1-0.2,5,1.6c7.9,15.6-3,29.4-9.9,34.5C2334,397.8,2333.2,398.1,2332.5,398.1z"></path>		</g>	</g>	<g>		<g>			<g>				<g>					<g>						<path class="hands_svg_0" d="M603,1049.2c-9.5-149.3-44.9-491.3-62.8-631.6c-1.5-11.7-0.7-18.8-7.3-26.9       c39.5-3.8,123.4-10.8,143.7-11.2c-3.8,16.6-2.3,32.5-1,46.1c8.6,87.9,55.3,430.6,84.3,623.7       C682,1049.2,632.3,1049.2,603,1049.2z"></path>					</g>				</g>			</g>			<path class="hands_svg_6" d="M393.5,293.9c11.6-32.2,90.6-3.5,95.4-13c4.9-9.8-3.9-36.9-21.5-79.7c-20.7-50.5-50.6-94.7-23.6-108.4    c21.5-10.9,43.5,25.6,63.9,59.1c14.7,24.1,28.1,37.1,34.9,39.3c6.3-8.5,5.4-29.8,1.1-63.4c-5.9-45.8-13.1-96.6,12.5-103    c33.8-8.4,39.2,51.9,44.1,101.8c3.3,33.3,8.3,51.8,14.9,52.3c5.3,0,14.8-16.1,23.6-44.7c11-35.7,22.1-75.3,40.1-72.4    c27.9,4.5,14.9,59.2,4.8,102.4c-6.5,27.9-7.4,44.9-4.8,46.7c4.3,1.2,14.9-7.4,27.5-23.9c15.9-20.8,32.8-44,46.4-36.5    c19.8,11-3,58-29,114.5c-15.3,33.2-47.9,118.6-52.2,125.5c-5.3,8.7-23.5,12.3-40.9,6.1c-31.9-11.5-47.2,4.4-62.3,4.9    c-18.7,0.7-29.9-3.9-31.9-6.3C476.9,346.9,381.1,328.5,393.5,293.9z"></path>		</g>		<g>			<g>				<path class="hands_svg_2" d="M596.3,352.8c-2.3,0-4.6-0.1-7-0.3c-36.7-3-63.6-31-65.5-44.7c-0.3-2,1.2-3.9,3.2-4.2     c2-0.3,3.9,1.2,4.2,3.2c1.4,10.1,25.6,35.6,58.7,38.3c38.8,3.1,65.1-24.1,65.3-24.4c1.4-1.5,3.8-1.6,5.3-0.1     c1.5,1.4,1.6,3.8,0.1,5.3C659.6,327,634.7,352.8,596.3,352.8z"></path>				<path class="hands_svg_2" d="M593.2,314.8c-3.5,0-7.4-1-11.4-4c-9-6.6-2.8-15.8,2.6-23.9c3.5-5.3,7.6-11.4,9.1-17.8     c0.5-2,2.5-3.2,4.5-2.7c2,0.5,3.2,2.5,2.7,4.5c-1.9,7.7-6.3,14.4-10.2,20.2c-6.2,9.4-7,11.8-4.4,13.7c7.2,5.3,12.8,0.8,13.5,0.2     c1.5-1.4,3.9-1.3,5.3,0.3c1.4,1.5,1.3,3.9-0.3,5.3C602.5,312.5,598.3,314.8,593.2,314.8z"></path>			</g>			<path class="hands_svg_2" d="M545.9,289.4C545.9,289.4,545.9,289.4,545.9,289.4c-7.4,0-14.5-3.2-19.9-8.9c-6.1-6.5-9.3-15.3-8.9-24.2    c1.2-21.6,16.5-39.2,34.2-39.2c1.2,0,2.4,0.1,3.6,0.2c10.2,1.4,18.3,8.5,22.3,19.4c5.1,14,2.1,30.3-7.3,40.6    C560.9,287.3,551.9,289.4,545.9,289.4z M551.4,224.5c-13.6,0-25.8,14.7-26.8,32.1c-0.4,6.9,2.1,13.7,6.8,18.7    c4,4.2,9.2,6.6,14.5,6.6c6.4,0,12.8-3.3,18.5-9.7c7.5-8.2,9.8-21.8,5.8-33.1c-1.7-4.8-6.2-13.1-16.3-14.5    C553.1,224.6,552.2,224.5,551.4,224.5z"></path>			<path class="hands_svg_2" d="M675.2,282.5c-2,0-3.7-1.6-3.7-3.6c-0.6-24.7-9.6-33.8-17.7-34.1c-9.5-0.3-21,10.6-22.8,28.8    c-0.2,2.1-2,3.6-4.1,3.3c-2.1-0.2-3.6-2-3.3-4.1c2.3-22.9,17.2-36,30.5-35.5c11.6,0.4,24.2,11.5,24.9,41.4    C679,280.7,677.4,282.5,675.2,282.5C675.3,282.5,675.3,282.5,675.2,282.5z"></path>			<path class="hands_svg_2" d="M563.8,256.4c0,4.6-3.8,8.4-8.4,8.4c-4.6,0-8.4-3.8-8.4-8.4c0-4.6,3.8-8.4,8.4-8.4    C560,248,563.8,251.8,563.8,256.4z"></path>			<path class="hands_svg_2" d="M674.5,337.1c-0.3,0-0.6,0-1-0.1c-8.7-2.3-24.6-11.5-22.9-29.7c0.2-2.1,2-3.6,4.1-3.4c2.1,0.2,3.6,2,3.4,4.1    c-1.5,16.4,16.6,21.6,17.4,21.8c2,0.5,3.2,2.6,2.6,4.6C677.7,336,676.2,337.1,674.5,337.1z"></path>			<path class="hands_svg_2" d="M507.3,317.8c-0.7,0-1.3,0-1.9-0.1c-2.1-0.1-3.6-1.9-3.5-4c0.1-2.1,1.9-3.6,4-3.5c0.8,0.1,19.7,1,23.5-15    c0.5-2,2.5-3.2,4.5-2.8c2,0.5,3.2,2.5,2.8,4.5C532.7,313.5,516.7,317.8,507.3,317.8z"></path>		</g>	</g>	<g>		<g>			<g>				<g>					<path class="hands_svg_0" d="M1474.3,1049.2c3.6-30.5,5.4-137.2,7.2-185.2c0.4-11.8,1.7-18.8-3.7-27.6c39.7,1.4,123.8,5.3,143.9,7.5      c-5.9,16-5.8,32-6.9,45.5c-1.1,13.3,0.1,105.8-0.6,159.8C1549.1,1049.2,1508.7,1049.2,1474.3,1049.2z"></path>				</g>			</g>		</g>		<g>			<g>				<g>					<path class="hands_svg_0" d="M1474.3,1049.2c3.6-30.5,5.4-137.2,7.2-185.2c0.4-11.8,1.7-18.8-3.7-27.6c39.7,1.4,123.8,5.3,143.9,7.5      c-5.9,16-5.8,32-6.9,45.5c-1.1,13.3,0.1,105.8-0.6,159.8C1549.1,1049.2,1508.7,1049.2,1474.3,1049.2z"></path>				</g>			</g>		</g>		<path class="hands_svg_16" d="M1352,722.3c15.6-30.5,97.8,16.5,103.8,7.7c6.1-9.1-6.7-45.3-18.6-90.1c-14-52.8-37.9-100.5-9.3-110.5   c22.7-8,39.8,31,55.7,66.8c11.4,25.8,23.6,50.1,30.1,53.2c7.3-7.7,8.7-38.6,8.8-72.5c0.1-46.2-0.4-97.5,25.8-100.5   c34.6-4,32.2,56.6,30.6,106.7c-1.1,33.4-0.1,62.4,6.5,63.7c5.2,0.7,18.3-24,30.8-51.3c15.5-34,31.7-71.8,49.1-66.6   c27,8.1,7.1,60.6-8.5,102.2c-10.1,26.9-16.2,49.4-13.8,51.6c4.1,1.8,18.7-11.2,33.4-26c18.5-18.6,38.2-39.4,50.8-30.2   c18.2,13.4-10.4,57.2-43.6,109.8c-19.5,31-62.9,111.4-68,117.7c-6.4,7.9-24.9,9.2-41.4,0.7c-30.2-15.5-47.3-1.7-62.4-3.2   c-18.6-1.7-29.1-7.7-30.8-10.4C1427.8,785.7,1335.2,755.1,1352,722.3z"></path>		<path class="hands_svg_7" d="M1585.1,655c-0.7-2.3,0-5.1,0.2-8.1c0,0-0.1,0-0.1,0c-6.5-1.3-7.5-30.3-6.5-63.7c1.6-50.1,4-110.7-30.6-106.7   c-26.2,3-25.7,54.4-25.8,100.5c-0.1,33.9-1.4,64.8-8.8,72.5c-4.8-2.3-12.8-16.5-21.3-34.2l1.7,77.1c0,0,39.2,56,60.9,49.2   c1.7-12.2,9.5-9,21.1-19.7C1593.9,705.4,1594.4,684.9,1585.1,655z"></path>		<path class="hands_svg_17" d="M1549,847.5c5.7-22.3-0.1-58,2.1-82.8c1.7-19.8,9.6-27.3-4.1-33c-26.9-11.2-13.5-54.4-32.7-83   c-0.2,0.3-0.4,0.5-0.6,0.8c-6.5-3.1-18.7-27.5-30.1-53.2c-15.9-35.8-33-74.8-55.7-66.8c-28.6,10-4.7,57.8,9.3,110.5   c11.9,44.8,24.7,81,18.6,90.1c-6,8.8-88.2-38.1-103.8-7.7c-16.8,32.7,75.8,63.4,128.8,119c1.7,2.6,12.3,8.6,30.8,10.4   C1521.9,852.7,1533.2,846.5,1549,847.5z"></path>		<path class="hands_svg_6" d="M1480.8,841.3c1.7,2.6,12.3,8.6,30.8,10.4c9.2,0.9,19.2-3.9,32.4-4.3c3.3-30.9,5.6-63.4,6.8-83.6   c-24.7-23.3-47.7-34.1-94.9-34c0,0.1-0.1,0.1-0.1,0.2c-6,8.8-88.2-38.1-103.8-7.7C1335.2,755.1,1427.8,785.7,1480.8,841.3z"></path>		<path class="hands_svg_18" d="M1727,626.6c-12.5-9.2-32.3,11.6-50.8,30.2c-0.5,0.5-0.9,0.9-1.4,1.4c-0.1,0.1-0.3,0.3-0.4,0.4   c-0.3,0.3-0.6,0.6-1,1c-0.2,0.2-0.5,0.4-0.7,0.7c-0.2,0.2-0.5,0.4-0.7,0.7c-0.2,0.2-0.4,0.4-0.7,0.6c-0.2,0.2-0.5,0.5-0.7,0.7   c-0.3,0.2-0.5,0.5-0.7,0.7c-0.2,0.2-0.4,0.4-0.6,0.6c-0.3,0.3-0.5,0.5-0.8,0.8c-0.2,0.2-0.3,0.3-0.5,0.5c-0.3,0.3-0.6,0.5-0.8,0.8   c-0.2,0.1-0.3,0.3-0.5,0.4c-0.3,0.3-0.6,0.6-0.9,0.8c-0.1,0.1-0.3,0.3-0.4,0.4c-0.3,0.3-0.6,0.6-0.9,0.9c-0.1,0.1-0.2,0.2-0.4,0.3   c-0.3,0.3-0.6,0.6-1,0.9c-0.1,0.1-0.2,0.2-0.3,0.3c-0.3,0.3-0.7,0.6-1,0.9c-0.1,0.1-0.2,0.2-0.3,0.2c-0.3,0.3-0.7,0.6-1,0.9   c-0.1,0.1-0.2,0.1-0.2,0.2c-0.3,0.3-0.7,0.6-1,0.9c-0.1,0.1-0.1,0.1-0.2,0.2c-0.3,0.3-0.7,0.6-1,0.9c-0.1,0-0.1,0.1-0.2,0.1   c-0.3,0.3-0.7,0.6-1,0.9c0,0-0.1,0.1-0.1,0.1c-0.3,0.3-0.7,0.6-1,0.8c0,0-0.1,0.1-0.1,0.1c-0.3,0.3-0.7,0.5-1,0.8   c0,0-0.1,0-0.1,0.1c-0.3,0.3-0.7,0.5-1,0.8c0,0,0,0-0.1,0.1c-0.3,0.3-0.7,0.5-1,0.7c0,0,0,0-0.1,0c-0.3,0.2-0.6,0.5-1,0.7   c0,0,0,0,0,0c-0.3,0.2-0.6,0.4-0.9,0.7c0,0,0,0,0,0c-0.3,0.2-0.6,0.4-0.9,0.6c0,0,0,0,0,0c-0.3,0.2-0.6,0.4-0.9,0.6c0,0,0,0,0,0   c-0.3,0.2-0.6,0.3-0.8,0.5c0,0,0,0,0,0c-2.2,1.3-3.9,1.8-5,1.5c-2.4,3.1-3.9,6.3-6,8.1c-40.5,35-43.7,73.2-86,73.8   c-11.7,27.2-15.6,55-14.3,83.3c10-1.4,21.9-1,37.2,6.8c16.4,8.4,35,7.2,41.4-0.7c5.1-6.4,48.5-86.7,68-117.7   C1716.5,683.8,1745.2,640,1727,626.6z"></path>		<path class="hands_svg_1" d="M1543.2,684c-38.9,11.7-76.2,35.9-42.6,87.4c33.6,51.5,91.9,29.1,107.6-20.2   C1623.9,701.9,1588,670.5,1543.2,684z"></path>	</g></g></svg>