<svg width="100" height="100" viewBox="0 0 100 100" fill="none" xmlns="http://www.w3.org/2000/svg">
<path d="M47.2002 57.2997C48.8002 57.4997 50.3002 57.4997 51.5002 57.8997C54.5002 58.8997 56.2002 61.1997 56.4002 64.2997C56.7002 67.3997 55.3002 69.7997 52.6002 71.2997C51.5002 71.8997 51.3002 72.4997 51.6002 73.6997C54.0002 85.4997 45.4002 96.5997 33.3002 96.6997C25.1002 96.7997 18.2002 91.8997 15.3002 84.0997C15.1002 83.4997 14.9002 82.8997 14.7002 82.2997C14.2002 82.2997 13.6002 82.2997 13.1002 82.2997C9.70017 82.3997 6.70017 80.1997 5.80017 77.0997C4.80017 73.7997 6.10016 70.2997 9.20016 68.5997C10.5002 67.8997 10.7002 67.1997 10.3002 65.8997C9.50017 63.4997 8.90016 60.9997 8.20016 58.4997C6.80016 53.2997 9.00016 49.7997 14.3002 48.8997C15.1002 48.7997 16.0002 48.6997 16.9002 48.4997C17.5002 44.2997 20.6002 43.1997 24.1002 42.6997C24.6002 42.5997 25.2002 43.1997 25.7002 43.4997C25.3002 43.9997 25.1002 44.7997 24.6002 45.0997C24.0002 45.4997 23.1002 45.4997 22.3002 45.7997C20.2002 46.3997 19.5002 47.3997 19.6002 49.4997C19.7002 50.9997 19.1002 51.4997 17.7002 51.2997C17.1002 51.1997 16.5002 51.1997 15.9002 51.2997C11.7002 51.7997 9.00017 53.6997 10.8002 58.5997C11.3002 59.7997 11.5002 61.1997 12.0002 62.6997C13.4002 62.2997 14.8002 61.9997 16.1002 61.5997C19.4002 60.5997 22.4002 60.9997 25.3002 63.0997C27.5002 64.6997 30.0002 65.0997 32.6002 64.3997C36.9002 63.1997 41.1002 61.9997 45.6002 60.7997C45.4002 59.8997 45.2002 59.1997 45.0002 58.3997C43.8002 53.9997 42.6002 49.5997 41.3002 45.1997C40.5002 42.3997 38.6002 41.2997 35.8002 41.9997C34.3002 42.3997 32.8002 42.9997 31.2002 43.1997C30.7002 43.2997 30.0002 42.6997 29.4002 42.4997C29.8002 41.9997 30.0002 41.0997 30.5002 40.8997C32.3002 40.2997 34.2002 39.6997 36.1002 39.2997C39.6002 38.6997 42.5002 40.4997 43.6002 43.8997C44.8002 47.6997 45.8002 51.5997 46.9002 55.4997C46.9002 56.2997 47.1002 56.8997 47.2002 57.2997ZM12.6002 65.1997C14.4002 71.3997 15.9002 77.6997 17.9002 83.6997C20.2002 90.4997 27.4002 94.6997 34.3002 94.0997C41.9002 93.3997 47.8002 88.1997 49.3002 80.7997C50.5002 74.4997 47.4002 69.0997 46.2002 63.1997C41.8002 64.3997 37.7002 65.4997 33.6002 66.6997C30.3002 67.6997 27.0002 67.4997 24.3002 65.4997C20.5002 62.2997 16.7002 63.7997 12.6002 65.1997ZM11.5002 70.3997C8.70017 71.4997 7.50016 73.7997 8.20016 76.2997C8.90016 78.7997 11.3002 80.1997 14.0002 79.4997C13.2002 76.4997 12.4002 73.4997 11.5002 70.3997ZM48.2002 60.3997C49.0002 63.2997 49.8002 66.2997 50.7002 69.1997C53.4002 68.0997 54.5002 65.7997 53.7002 63.2997C52.9002 60.9997 50.7002 59.7997 48.2002 60.3997Z" fill="black"/>
<path d="M85.9998 43.5C84.2998 46.2 82.8998 48.8 81.2998 51.1C80.4998 52.3 79.2998 53.2 78.0998 54C77.5998 54.3 76.6998 54 75.9998 54C76.1998 53.4 76.1998 52.5 76.5998 52.2C80.3998 49.4 82.4998 45.6 83.4998 41.1C84.4998 36.7 86.5998 32.6 86.1998 27.9C86.0998 27.1 85.9998 26.4 85.8998 25.3C80.9998 28.1 75.8998 29.1 70.6998 27.5C65.4998 26 61.5998 22.7 58.7998 17.3C57.5998 19.3 56.4998 21 55.4998 22.8C54.9998 23.6 54.9998 25.2 53.5998 24.6C52.9998 24.4 52.8998 23.1 52.7998 22.2C51.1998 21.1 48.5998 22.3 47.6998 24.5C46.5998 27.1 47.7998 29.7 50.4998 30.7C50.6998 30.2 50.7998 29.6 51.0998 29.2C51.3998 28.8 51.9998 28.6 52.4998 28.3C52.7998 28.8 53.3998 29.4 53.2998 29.8C53.0998 31.2 52.5998 32.5 52.2998 33.9C49.6998 43.5 54.6998 52.4 63.9998 54.5C66.0998 55 68.2998 54.8 70.4998 54.7C71.4998 54.7 72.4998 54.4 72.5998 55.6C72.5998 56.1 71.4998 57 70.8998 57.1C59.9998 59 51.0998 52 49.3998 42.7C48.8998 40.1 49.4998 37.3 49.3998 34.6C49.3998 34 49.0998 33.2 48.6998 32.9C45.2998 30.8 43.8998 27.5 45.0998 24.1C46.1998 20.8 49.2998 19 53.1998 19.2C53.8998 19.2 54.7998 18.8 55.1998 18.2C59.9998 11.7 67.8998 9.00005 75.3998 11.2C82.9998 13.4 88.1998 20 88.7998 28.1C88.7998 28.6 89.2998 29.4 89.6998 29.6C93.4998 31.6 95.1998 34.9 94.1998 38.5C93.0998 42 89.9998 43.9 85.9998 43.5C85.7998 43.5 85.6998 43.6 85.9998 43.5ZM84.7998 22.7C80.7998 12 66.9998 10.6 61.0998 16.1C65.0998 25.9 77.7998 28.6 84.7998 22.7ZM86.1998 40.9C88.8998 41.6 91.2998 40.1 91.8998 37.4C92.3998 35 90.9998 32.7 88.5998 32.2C87.7998 35.1 86.9998 38 86.1998 40.9Z" fill="black"/>
<path d="M45.9998 15.5C45.6998 17.6 43.9998 18.5 42.4998 19.4C41.1998 20.1 40.0998 19.5 39.0998 18.5C36.7998 16.2 34.4998 14 32.1998 11.8C30.3998 10.1 30.4998 8.49997 32.4998 6.89997C33.6998 5.89997 34.9998 4.99997 36.1998 3.99997C37.5998 2.89997 38.9998 3.19997 39.8998 4.49997C41.9998 7.79997 43.8998 11.2 45.7998 14.5C45.9998 14.8 45.9998 15.2 45.9998 15.5ZM33.8998 8.99997C36.4998 11.9 38.8998 14.6 41.2998 17.2C43.6998 15.8 43.6998 15.8 42.3998 13.6C41.8998 12.7 41.2998 11.7 40.7998 10.8C39.8998 9.19997 38.8998 7.59997 37.8998 5.89997C36.2998 7.09997 34.8998 8.09997 33.8998 8.99997Z" fill="#1DB0D5"/>
<path d="M72.1004 88.3003C71.7004 89.2003 71.6004 89.8003 71.3004 90.3003C70.4004 91.7003 69.4004 93.0003 68.4004 94.3003C67.2004 95.9003 65.5004 96.0003 64.0004 94.6003C61.5004 92.2003 58.9004 89.9003 56.5004 87.4003C55.1004 86.0003 55.2004 84.9003 56.6004 82.9003C58.1004 80.8003 59.2004 80.2003 61.0004 81.1003C64.1004 82.7003 67.3004 84.4003 70.3004 86.1003C71.0004 86.6003 71.5004 87.6003 72.1004 88.3003ZM69.5004 88.5003C66.7004 87.0003 64.1004 85.6003 61.5004 84.2003C59.3004 83.0003 59.2004 83.0003 58.5004 84.6003C61.1004 87.6003 63.5004 90.3003 66.0004 93.3003C67.2004 91.6003 68.3004 90.1003 69.5004 88.5003Z" fill="#FD900D"/>
<path d="M25.4002 11.2998C26.3002 11.7998 27.1002 12.0998 27.7002 12.5998C30.2002 14.5998 32.7002 16.6998 35.1002 18.7998C36.9002 20.3998 37.0002 21.3998 35.6002 23.6998C34.2002 25.9998 33.1002 26.3998 31.0002 25.4998C28.1002 24.1998 25.1002 22.8998 22.2002 21.4998C19.9002 20.3998 19.5002 18.9998 20.8002 16.7998C21.6002 15.4998 22.2002 14.1998 23.1002 13.0998C23.6002 12.3998 24.6002 11.9998 25.4002 11.2998ZM22.3002 18.8998C25.2002 20.1998 27.9002 21.3998 30.6002 22.5998C32.9002 23.5998 33.0002 23.5998 33.9002 20.9998C31.1002 18.6998 28.4002 16.3998 25.4002 13.9998C24.4002 15.6998 23.4002 17.1998 22.3002 18.8998Z" fill="#1DB0D5"/>
<path d="M29.7003 36.9C27.0003 36.7 24.2003 36.5 21.5003 36.2C19.4003 36 18.5003 34.8 18.9003 32.7C19.1003 31.1 19.5003 29.6 19.9003 28.1C20.4003 26.1 21.9003 25.2999 23.8003 25.8999C27.1003 26.9999 30.3003 28.1999 33.6003 29.3999C35.5003 30.0999 35.9003 31.3 35.3003 33.9C34.7003 36.3 33.9003 37.1 31.8003 37C31.0003 37 30.4003 36.9 29.7003 36.9ZM21.2003 33.7C24.9003 34 28.3003 34.3 31.8003 34.5C32.1003 34.5 32.7003 33.7999 32.8003 33.2999C32.9003 32.7999 32.7003 31.8 32.3003 31.7C29.1003 30.4 25.9003 29.3 22.5003 28.1C22.0003 30 21.6003 31.7 21.2003 33.7Z" fill="#1DB0D5"/>
<path d="M66.4003 72.0003C69.7003 72.5003 73.2003 72.9003 76.8003 73.5003C78.5003 73.8003 79.4003 75.2003 79.0003 76.9003C78.6003 78.6003 78.1003 80.3003 77.6003 82.0003C77.0003 83.7003 75.5003 84.4003 73.8003 83.7003C70.5003 82.3003 67.3003 80.9003 64.1003 79.5003C62.4003 78.7003 62.0003 77.5003 62.6003 75.3003C63.3003 72.6003 64.1003 71.9003 66.4003 72.0003ZM76.6003 76.0003C73.0003 75.5003 69.7003 75.0003 66.3003 74.6003C65.9003 74.6003 65.2003 75.2003 65.1003 75.7003C64.9003 76.2003 65.1003 77.2003 65.4003 77.4003C68.5003 78.9003 71.7003 80.2003 75.0003 81.7003C75.6003 79.6003 76.1003 77.9003 76.6003 76.0003Z" fill="#FD900D"/>
<path d="M77.4002 64.4996C77.4002 65.1996 77.5002 65.9996 77.5002 66.6996C77.4002 68.3996 76.4002 69.4996 74.7002 69.3996C71.0002 69.1996 67.3002 68.9996 63.6002 68.6996C61.8002 68.4996 61.3002 67.4996 61.1002 64.6996C61.0002 62.9996 61.4002 61.5996 63.1002 61.0996C66.6002 60.2996 70.2002 59.4996 73.8002 58.8996C75.5002 58.5996 76.7002 59.5996 77.1002 61.2996C77.4002 62.2996 77.4002 63.3996 77.4002 64.4996C77.5002 64.4996 77.5002 64.4996 77.4002 64.4996ZM74.7002 61.1996C71.1002 61.8996 67.8002 62.5996 64.5002 63.2996C64.2002 63.3996 63.7002 64.2996 63.8002 64.7996C63.9002 65.2996 64.4002 66.0996 64.9002 66.1996C66.6002 66.4996 68.4002 66.4996 70.2002 66.5996C71.8002 66.6996 73.4002 66.7996 75.1002 66.7996C74.9002 64.8996 74.8002 63.2996 74.7002 61.1996Z" fill="#FD900D"/>
<path d="M65.4003 47.9C60.8003 47.9 57.1003 43.4 58.2003 39.1C58.5003 37.8 59.1003 37.4 60.4003 37.7C64.0003 38.8 67.6003 39.8 71.3003 40.8C72.6003 41.2 72.9003 41.9 72.4003 43.1C71.4003 46 68.6003 47.9 65.4003 47.9ZM69.5003 43C67.9003 42.5 66.5003 42.1 65.1003 41.7C63.7003 41.3 62.3003 41 60.9003 40.6C61.1003 43 62.2003 44.4 64.2003 45C66.1003 45.6 67.9003 45 69.5003 43Z" fill="black"/>
<path d="M78.5004 37.0002C78.2004 37.4002 77.8003 38.3002 77.2003 38.4002C76.1003 38.6002 75.9004 37.7002 75.9004 36.7002C75.9004 36.3002 75.4004 35.6002 75.0004 35.5002C74.6004 35.4002 73.9003 35.7002 73.7003 36.1002C73.1003 36.8002 72.5003 37.7002 71.7003 36.8002C71.3003 36.4002 71.4003 35.1002 71.7003 34.5002C72.6003 33.1002 74.0004 32.6002 75.6004 33.1002C77.4004 33.6002 78.2004 34.8002 78.5004 37.0002Z" fill="black"/>
<path d="M59 28.5C61.3 28.6 63.2 30.7 62.7 32.7C62.6 33.2 61.8 33.6 61.4 34.1C61 33.7 60.6 33.2 60.2 32.8C59.9 32.3 59.6 31.7 59.4 31.2C58.9 31.5 58.4 31.9 57.8 32.1C57.3 32.4 56.7 32.5 56.1 32.7C55.9 32.1 55.5 31.3 55.7 30.8C56.3 29.2 57.6 28.6 59 28.5Z" fill="black"/>
<path d="M43.5002 78.8997C43.5002 82.4997 41.1002 85.4997 37.6002 86.2997C34.1002 87.0997 30.6002 85.3997 29.1002 82.1997C28.2002 80.2997 28.5002 79.6997 30.4002 79.1997C33.7002 78.2997 36.9002 77.3997 40.2002 76.4997C42.9002 75.5997 43.5002 76.0997 43.5002 78.8997ZM31.7002 81.3997C33.4002 83.7997 35.7002 84.4997 38.0002 83.4997C40.0002 82.5997 41.0002 80.7997 40.6002 78.8997C37.7002 79.6997 34.8002 80.4997 31.7002 81.3997Z" fill="black"/>
<path d="M38.0998 71.6997C37.9998 69.3997 39.3998 67.6997 41.1998 67.3997C42.7998 67.0997 44.7998 68.0997 45.2998 69.6997C45.4998 70.1997 45.0998 70.8997 44.8998 71.4997C44.2998 71.2997 43.6998 71.2997 43.1998 70.9997C42.5998 70.6997 42.0998 70.2997 41.4998 69.8997C41.1998 70.4997 40.8998 71.0997 40.5998 71.6997C40.2998 72.1997 39.7998 72.5997 39.3998 72.9997C38.8998 72.4997 38.2998 71.8997 38.0998 71.6997Z" fill="black"/>
<path d="M22.1006 76.0997C22.1006 73.7997 23.3006 72.2997 24.9006 71.8997C26.7006 71.4997 28.5006 72.1997 29.1006 73.8997C29.3006 74.3997 29.0006 75.1997 29.0006 75.7997C28.3006 75.5997 27.7006 75.3997 27.1006 75.1997C26.5006 74.9997 26.0006 74.3997 25.5006 74.4997C25.2006 74.4997 25.0006 75.3997 24.7006 75.8997C24.3006 76.4997 23.8006 76.9997 23.4006 77.4997C22.8006 76.8997 22.3006 76.2997 22.1006 76.0997Z" fill="black"/>
</svg>
