<svg xmlns="http://www.w3.org/2000/svg" xmlns:xlink="http://www.w3.org/1999/xlink" x="0px" y="0px" viewBox="0 0 100 100" style="enable-background:new 0 0 100 100;" xml:space="preserve"><g>	<path d="M4.5,54c-0.2-2.6,1-4.4,2.9-6c2-1.6,3.9-3.3,5.8-4.9c0.9-0.8,1.7-0.8,2.3-0.1c0.6,0.7,0.4,1.5-0.5,2.2  c-2.1,1.8-4.3,3.7-6.5,5.5c-1.2,1-1.5,2.1-1.1,3.3c0.4,1.2,1.4,1.8,2.9,1.9c14.2,0.6,28.5,0.3,42.7-0.5c1.6-0.1,3.1-0.5,4.4-1.5  c4.9-3.5,9.7-7.1,14.6-10.7c0.1-0.1,0.1-0.1,0.3-0.3c-2-0.2-3.9-0.4-5.8-0.6c-5.4-0.6-10.8-1.1-16.1-1.7c-0.4,0-0.9-0.1-1.1-0.3  c-0.3-0.4-0.6-1.1-0.5-1.5c0.1-0.7,0.7-1,1.5-0.9c2.6,0.3,5.1,0.5,7.7,0.8c5.4,0.6,10.9,1.1,16.3,1.8c1.1,0.1,1.8-0.1,2.6-0.7  c4.8-4.1,9.7-8.1,14.6-12.1c1.2-1,1.5-2.1,1.1-3.3c-0.4-1.2-1.4-1.8-2.9-1.9c-14.2-0.6-28.4-0.4-42.6,0.5c-1.8,0.1-3.5,0.7-4.9,1.8  c-7.3,5.5-14.6,11-21.9,16.5c-0.1,0.1-0.1,0.1-0.2,0.2c-0.8,0.6-1.6,0.6-2.1-0.1c-0.5-0.7-0.4-1.5,0.4-2.1c1.8-1.4,3.5-2.9,5.3-4.2  c5.5-4.1,11-8.1,16.5-12.3c2.2-1.7,4.7-2.5,7.5-2.7c13.9-0.7,27.9-1,41.9-0.5c2.3,0.1,4.1,0.9,5.5,2.8c0.2,0.6,0.5,1.3,0.7,1.9  c0.2,2.6-1,4.4-2.9,6c-3.7,3-7.3,6.1-11,9.2c-0.5,0.4-0.7,0.8-0.4,1.5c0.8,2.1,1.5,4.2,2.2,6.3c0.4,1.2-0.4,2.3-1.5,1.9  c-0.4-0.1-0.9-0.6-1.1-1.1c-0.8-2-1.5-4-2.2-6.1c-0.1,0-0.2,0.1-0.3,0.1c-1.5,1.1-1.5,1.1-0.9,2.8c1.4,4,2.8,8.1,4.2,12.1  c0.1,0.3,0.2,0.6,0.3,1c1.5-0.9,1.7-1.4,1.2-2.9c-0.2-0.5-0.4-1.1-0.5-1.6c-0.2-0.7,0.1-1.3,0.8-1.6c0.7-0.3,1.5-0.1,1.7,0.6  c0.5,1.1,0.9,2.3,1.1,3.6c0.2,1.4-0.4,2.6-1.6,3.4c-1.5,1-1.7,2.1-0.9,3.6c0.4,0.8,0.6,1.7,0.9,2.4c0.1,0.3,0.5,0.5,0.8,0.6  c2.3,0.3,3.9,1.4,4.7,3.7c0.8,2.2,1.5,4.3,2.3,6.5c0.4,1.2,0.1,1.7-1.1,2.2c-2.2,0.8-4.4,1.6-6.6,2.3c-1.2,0.4-1.8,0.1-2.2-1  c-0.8-2.2-1.6-4.4-2.3-6.6c-0.7-2.2-0.2-4.1,1.4-5.7c0.2-0.2,0.3-0.7,0.3-0.9c-0.3-1.2-0.8-2.3-1.2-3.5c-0.4,0.3-0.7,0.5-1,0.8  c-5.1,3.9-10.1,7.8-15.2,11.7c-0.7,0.6-1.8,0.9-2.7,1c-8.5,0.6-17,0.7-25.4,0.2c-2.4-0.1-3.7-1-4.5-3.4c-1.5-4.3-3.1-8.7-4.6-13  c-0.1-0.3-0.2-0.6-0.3-1c-3.3,0-6.6-0.1-9.9-0.2c-2,0-3.9-0.2-5.9-0.2c-2.5,0-4.5-0.7-5.9-2.8C5,55.3,4.7,54.6,4.5,54z M29.9,59  c0.1,0.4,0.2,0.7,0.3,0.9c1.4,4.1,2.9,8.2,4.3,12.3c0.3,1,0.9,1.4,2,1.5c8.3,0.5,16.7,0.4,25-0.1c0.6,0,1.2-0.3,1.6-0.6  c5.4-4.1,10.7-8.3,16.1-12.4c0.5-0.4,0.5-0.7,0.3-1.3c-1.6-4.5-3.2-9-4.8-13.6c-0.1-0.2-0.2-0.4-0.3-0.6c-0.3,0.2-0.6,0.4-0.8,0.6  c-4.7,3.4-9.3,6.9-14,10.3c-1.8,1.3-3.9,2.2-6.1,2.3c-5.3,0.3-10.6,0.5-15.8,0.7C35.1,58.9,32.6,59,29.9,59z M84.9,77.6  c1.5-0.5,3-1,4.5-1.6c-0.7-1.9-1.3-3.8-2-5.7c-0.5-1.2-1.7-1.7-2.9-1.4c-1.1,0.3-2,1.5-1.6,2.6C83.4,73.6,84.2,75.5,84.9,77.6z"></path></g></svg>