<svg xmlns="http://www.w3.org/2000/svg" id="Capa_1" height="512" viewBox="0 0 512 512" width="512"><g><g><path d="m114.57 179.1h286.274v286.274h-286.274z" fill="#fef2a8"></path><path d="m134.718 287.968h251.02v34.269h-251.02z" fill="#8bb6ef"></path><path d="m134.718 253.699h251.02v34.269h-251.02z" fill="#ef8bbd"></path><path d="m134.718 218.679h251.02v34.269h-251.02z" fill="#a183e2"></path><path d="m134.718 179.1h251.02v34.269h-251.02z" fill="#ffa585"></path><path d="m111.743 465.374h-71.505c-12.689 0-22.975-10.286-22.975-22.975v-265.76c0-12.689 10.286-22.975 22.975-22.975h71.504c12.689 0 22.975 10.286 22.975 22.975v265.76c.001 12.689-10.285 22.975-22.974 22.975z" fill="#fef2a8"></path><path d="m111.743 153.664h-31.737c9.543 0 17.279 7.736 17.279 17.279v224.219c0 9.543-7.736 17.279-17.279 17.279h-45.464c-9.543 0-17.279-7.736-17.279-17.279v47.237c0 12.689 10.287 22.975 22.975 22.975h71.504c12.689 0 22.975-10.286 22.975-22.975v-265.76c.001-12.689-10.285-22.975-22.974-22.975z" fill="#eeb6a8"></path><path d="m472.43 456.313h-69.426c-12.32 0-22.308-9.987-22.308-22.307v-258.035c0-12.32 9.987-22.307 22.308-22.307h69.426c12.32 0 22.308 9.987 22.308 22.307v258.035c-.001 12.32-9.988 22.307-22.308 22.307z" fill="#fef2a8"></path><path d="m472.048 153.664h-31.736c9.543 0 17.279 7.736 17.279 17.279v224.219c0 9.543-7.736 17.279-17.279 17.279h-45.464c-9.543 0-17.279-7.736-17.279-17.279v47.237c0 12.689 10.286 22.975 22.975 22.975h71.504c12.689 0 22.975-10.286 22.975-22.975v-265.76c.001-12.689-10.286-22.975-22.975-22.975z" fill="#eeb6a8"></path><path d="m287.643 322.237h-63.286c-9.348 0-16.926 7.578-16.926 16.927v104.803h97.139v-104.804c-.001-9.348-7.579-16.926-16.927-16.926z" fill="#d49c8d"></path><g fill="#b2e7f1"><path d="m230.543 345.481h50.915v34.695h-50.915z"></path><path d="m230.543 403.106h50.915v52.112h-50.915z"></path><path d="m85.582 263.287h-19.183c-6.464 0-11.704-5.24-11.704-11.704v-31.54c0-6.464 5.24-11.704 11.704-11.704h19.182c6.464 0 11.704 5.24 11.704 11.704v31.54c0 6.464-5.24 11.704-11.703 11.704z"></path><path d="m447.308 263.287h-19.182c-6.464 0-11.704-5.24-11.704-11.704v-31.54c0-6.464 5.24-11.704 11.704-11.704h19.182c6.464 0 11.704 5.24 11.704 11.704v31.54c-.001 6.464-5.24 11.704-11.704 11.704z"></path></g><path d="m337.439 322.237v49.834c0 16.512-13.386 29.897-29.898 29.897h-172.823v63.406h242.851v-143.137z" fill="#eeb6a8"></path><path d="m229.589 401.968h52.202v63.406h-52.202z" fill="#a7adf1"></path><path d="m206.873 401.968h24.139v63.406h-24.139z" fill="#c7758d"></path><path d="m282.739 401.968h21.84v63.406h-21.84z" fill="#c7758d"></path><path d="m337.439 179.1h40.13v42.123h-40.13z" fill="#ef7c85"></path><path d="m337.439 214.63h40.13v39.559h-40.13z" fill="#9762e2"></path><path d="m337.439 255.964h40.13v31.745h-40.13z" fill="#e068bd"></path><path d="m337.439 286.977h40.13v36.642h-40.13z" fill="#8388ef"></path><path d="m85.582 381.068h-19.183c-6.464 0-11.704-5.24-11.704-11.704v-31.539c0-6.464 5.24-11.704 11.704-11.704h19.182c6.464 0 11.704 5.24 11.704 11.704v31.539c0 6.464-5.24 11.704-11.703 11.704z" fill="#b2e7f1"></path><path d="m377.569 377.092h34.68v94.193h-34.68z" fill="#d49c8d"></path><ellipse cx="394.908" cy="345.438" fill="#78eac4" rx="57.47" ry="57.47" transform="matrix(.707 -.707 .707 .707 -128.595 380.419)"></ellipse><path d="m394.908 287.968c-2.32 0-4.603.153-6.851.421 21.745 2.957 38.506 21.586 38.506 44.142 0 24.611-19.951 44.562-44.562 44.562-22.556 0-41.185-16.762-44.142-38.506-.267 2.248-.421 4.531-.421 6.852 0 31.739 25.73 57.469 57.47 57.469s57.47-25.73 57.47-57.469c0-31.741-25.73-57.471-57.47-57.471z" fill="#71afc4"></path><path d="m485.702 451.026h-459.403c-8.961 0-16.224 7.264-16.224 16.224v15.746c0 8.961 7.264 16.224 16.224 16.224h459.403c8.96 0 16.224-7.264 16.224-16.224v-15.746c0-8.961-7.264-16.224-16.224-16.224z" fill="#bdf4e3"></path><path d="m455.283 394.634c-8.304 0-15.035 6.732-15.035 15.035v44.075h30.07v-44.075c0-8.303-6.732-15.035-15.035-15.035z" fill="#f7c4db"></path><path d="m140.34 394.634c-8.304 0-15.035 6.732-15.035 15.035v44.075h30.07v-44.075c.001-8.303-6.731-15.035-15.035-15.035z" fill="#f7c4db"></path><path d="m87.749 394.634c-8.304 0-15.035 6.732-15.035 15.035v44.075h30.07v-44.075c0-8.303-6.732-15.035-15.035-15.035z" fill="#f7c4db"></path><path d="m35.103 394.634c-8.304 0-15.035 6.732-15.035 15.035v44.075h30.07v-44.075c0-8.303-6.731-15.035-15.035-15.035z" fill="#f7c4db"></path></g><g><g fill="#440a29"><path d="m230.543 386.22h50.914c3.338 0 6.044-2.706 6.044-6.044v-34.695c0-3.338-2.706-6.045-6.044-6.045h-50.914c-3.338 0-6.044 2.707-6.044 6.045v34.695c-.001 3.338 2.706 6.044 6.044 6.044zm6.044-34.695h38.825v22.606h-38.825z"></path><path d="m66.399 269.331h19.182c9.786 0 17.748-7.962 17.748-17.748v-31.54c0-9.786-7.962-17.748-17.748-17.748h-19.182c-9.786 0-17.748 7.961-17.748 17.748v31.54c0 9.787 7.962 17.748 17.748 17.748zm-5.659-49.287c0-3.12 2.539-5.659 5.659-5.659h19.182c3.121 0 5.659 2.539 5.659 5.659v31.54c0 3.121-2.539 5.659-5.659 5.659h-19.182c-3.121 0-5.659-2.539-5.659-5.659z"></path><path d="m428.125 269.331h19.182c9.787 0 17.749-7.962 17.749-17.748v-31.54c0-9.786-7.962-17.748-17.749-17.748h-19.182c-9.786 0-17.748 7.961-17.748 17.748v31.54c.001 9.787 7.963 17.748 17.748 17.748zm-5.658-49.287c0-3.12 2.538-5.659 5.659-5.659h19.182c3.121 0 5.66 2.539 5.66 5.659v31.54c0 3.121-2.539 5.659-5.66 5.659h-19.182c-3.121 0-5.659-2.539-5.659-5.659z"></path><path d="m66.399 387.112h19.182c9.786 0 17.748-7.962 17.748-17.748v-31.54c0-9.786-7.962-17.748-17.748-17.748h-19.182c-9.786 0-17.748 7.962-17.748 17.748v31.54c0 9.787 7.962 17.748 17.748 17.748zm-5.659-49.287c0-3.121 2.539-5.659 5.659-5.659h19.182c3.121 0 5.659 2.539 5.659 5.659v31.54c0 3.12-2.539 5.659-5.659 5.659h-19.182c-3.121 0-5.659-2.539-5.659-5.659z"></path><path d="m502.165 446.764c1.69-3.919 2.646-8.226 2.646-12.758v-258.035c0-17.855-14.527-32.381-32.382-32.381h-69.426c-15.471 0-28.435 10.909-31.624 25.436h-227.482c-3.448-14.564-16.551-25.436-32.154-25.436h-71.505c-18.223 0-33.049 14.826-33.049 33.049v265.76c0 2.116.223 4.178.606 6.184-4.81 4.768-7.795 11.375-7.795 18.667v15.746c0 14.501 11.798 26.298 26.299 26.298h459.402c14.501 0 26.299-11.797 26.299-26.298v-15.746c0-8.273-3.844-15.661-9.835-20.486zm-37.892-5.813h-17.981v-31.282c0-4.958 4.033-8.991 8.99-8.991s8.991 4.033 8.991 8.991zm-80.66 0v-33.026c3.669.662 7.439 1.026 11.296 1.026 3.856 0 7.626-.364 11.295-1.026v33.026zm11.296-44.088c-28.356 0-51.425-23.069-51.425-51.425s23.069-51.426 51.425-51.426 51.425 23.07 51.425 51.426-23.069 51.425-51.425 51.425zm-96.384-57.7v98.758h-11.023v-34.816c0-3.338-2.706-6.044-6.044-6.044h-50.914c-3.338 0-6.044 2.706-6.044 6.044v34.816h-11.023v-98.758c0-6 4.882-10.882 10.882-10.882h63.286c5.998 0 10.88 4.882 10.88 10.882zm-23.112 98.759h-38.825v-28.772h38.825zm12.23-121.729h-63.286-79.565v-22.18h212.906c-7.978 5.789-14.557 13.382-19.141 22.18zm82.98-34.27h-225.83v-22.18h225.83zm0-34.268h-225.83v-22.18h225.83zm0-34.269h-225.83v-24.212h225.83zm-239.273 196.283c0-4.958 4.033-8.991 8.991-8.991 4.957 0 8.99 4.033 8.99 8.991v31.282h-17.981zm13.442-20.597v-60.791h59.34c-1.751 3.241-2.747 6.947-2.747 10.882v101.788h-39.965v-31.282c0-10.095-7.137-18.547-16.628-20.597zm163.075-60.791h25.901c-1.535 5.462-2.373 11.211-2.373 17.156 0 26.423 16.223 49.121 39.228 58.678v29.89c0 2.385.269 4.706.761 6.945h-60.769v-101.787c-.001-3.934-.997-7.641-2.748-10.882zm95.137-164.543h69.426c6.746 0 12.233 5.488 12.233 12.233v258.035c0 2.579-.807 4.971-2.175 6.945h-6.127v-31.282c0-11.623-9.456-21.08-21.08-21.08-11.623 0-21.079 9.456-21.079 21.08v31.282h-15.911v-36.479c23.48-9.334 40.13-32.269 40.13-59.034 0-35.022-28.492-63.514-63.514-63.514-1.392 0-2.768.061-4.138.15v-106.103c.002-6.746 5.489-12.233 12.235-12.233zm-362.766 0h71.505c7.114 0 12.901 5.787 12.901 12.901v219.01c-3.336 3.73-5.383 8.635-5.383 14.021v31.282h-10.432v-31.282c0-11.623-9.456-21.08-21.08-21.08-11.623 0-21.079 9.456-21.079 21.08v31.282h-10.487v-31.282c0-11.623-9.456-21.08-21.08-21.08-2.744 0-5.359.543-7.766 1.501v-213.452c0-7.114 5.788-12.901 12.901-12.901zm56.502 277.213h-17.982v-31.282c0-4.958 4.033-8.991 8.991-8.991s8.991 4.033 8.991 8.991zm-52.646 0h-17.795c-.062 0-.124.004-.187.005v-31.287c0-4.958 4.033-8.991 8.991-8.991s8.991 4.033 8.991 8.991zm447.758 42.045c0 3.391-2.76 6.15-6.151 6.15h-459.402c-3.392 0-6.151-2.759-6.151-6.15v-15.746c0-3.392 2.759-6.151 6.151-6.151h202.872c.441.103.899.162 1.372.162h50.914c.473 0 .93-.059 1.372-.162h202.872c3.391 0 6.151 2.759 6.151 6.151z"></path><path d="m422.542 333.298c-3.338 0-6.044 2.706-6.044 6.044v12.189c0 3.338 2.706 6.044 6.044 6.044s6.045-2.706 6.045-6.044v-12.189c0-3.337-2.707-6.044-6.045-6.044z"></path><path d="m394.909 355.433c-3.338 0-6.044 2.707-6.044 6.044v12.189c0 3.338 2.706 6.044 6.044 6.044s6.044-2.706 6.044-6.044v-12.189c0-3.337-2.706-6.044-6.044-6.044z"></path></g><circle cx="377.569" cy="326.121" fill="#fff" r="10.074"></circle></g><g><path d="m90.732 5.255 8.557 24.06c.366 1.03 1.092 1.846 2.007 2.259l21.377 9.631c3.02 1.361 3.02 6.173 0 7.533l-21.377 9.631c-.915.412-1.641 1.229-2.007 2.259l-8.557 24.06c-1.209 3.399-5.484 3.399-6.693 0l-8.557-24.06c-.366-1.03-1.092-1.847-2.007-2.259l-21.377-9.631c-3.02-1.361-3.02-6.173 0-7.533l21.377-9.631c.915-.413 1.641-1.229 2.007-2.259l8.557-24.06c1.209-3.399 5.484-3.399 6.693 0z" fill="#fef2a8"></path><ellipse cx="425.573" cy="44.972" fill="#ffe266" rx="18.684" ry="18.684" transform="matrix(.189 -.982 .982 .189 300.934 454.362)"></ellipse><path d="m184.7 99.359c0 4.37-3.542 7.913-7.912 7.913s-7.913-3.543-7.913-7.913 3.542-7.913 7.913-7.913c4.369.001 7.912 3.543 7.912 7.913z" fill="#ffe266"></path><path d="m325.296 57.777 6.347 17.848c.272.764.81 1.369 1.489 1.675l15.857 7.144c2.24 1.009 2.24 4.579 0 5.588l-15.857 7.144c-.679.306-1.217.911-1.489 1.675l-6.347 17.848c-.897 2.521-4.068 2.521-4.965 0l-6.347-17.848c-.272-.764-.81-1.37-1.489-1.675l-15.857-7.144c-2.24-1.009-2.24-4.579 0-5.588l15.857-7.144c.679-.306 1.217-.911 1.489-1.675l6.347-17.848c.897-2.522 4.068-2.522 4.965 0z" fill="#fef2a8"></path></g></g></svg>