<svg xmlns="http://www.w3.org/2000/svg" xmlns:xlink="http://www.w3.org/1999/xlink" x="0px" y="0px" viewBox="0 0 100 100" style="enable-background:new 0 0 100 100;" xml:space="preserve"><style type="text/css">	.bl{fill:currentcolor;}</style><g>	<path class="bl" d="M97.5,50c0,26.3-21.3,47.6-47.7,47.5C23.5,97.4,2.4,76.1,2.5,49.6C2.6,24.5,23.1,2.5,50.3,2.5  C76.3,2.5,97.5,23.9,97.5,50z M88.2,73.2c-0.2,0.1-0.4,0.1-0.6,0.2c-1.6,0.9-3.2,1.8-4.8,2.7c-0.5,0.2-0.6,0.5-0.6,1  c0,2-0.9,3.5-2.5,4.6c-1.2,0.8-1.2,0.8-0.8,2.6c1.3-1.3,2.7-2.5,3.9-3.8C84.7,78.1,86.4,75.6,88.2,73.2c0,0,0.1-0.1,0.1-0.1  c0,0-0.1,0-0.1,0C88.2,73.1,88.2,73.1,88.2,73.2z M63.7,49.1c-0.4-0.5-0.8-1-1.1-1.5C54.8,38.1,45,31.3,33.3,27.4  c-0.5-0.2-0.9-0.1-1.2,0.3c-0.9,1-2,1.6-3.3,1.6c-1,0-1.3,0.4-1.5,1.2c-4.1,12.6-4.2,25.2-0.4,37.8c0.3,0.9,0.6,1.4,1.7,1.5  c2,0.2,3.3,1.5,4.3,3.3C45.7,68.5,55.9,60.5,63.7,49.1z M65.2,46.6c0.2-0.3,0.4-0.6,0.5-0.8c5.8-10.1,8.5-21,8.2-32.6  c0-0.8-0.3-1.1-0.9-1.5c-9-5.3-18.6-7.3-29-6c-0.9,0.1-1.6,0.4-2.2,1.1c-1.7,2.1-3.6,4-5.3,6.1C35,15,33.5,17.4,32,19.7  c1.3,1.4,1.8,2.8,1.8,4.5c0,0.3,0.4,0.6,0.7,0.7c3.1,1.3,6.2,2.4,9.2,3.9C52.1,33.1,59.2,39,65.2,46.6z M81.2,73.8  c3.4-1.7,6.7-3.7,9.7-5.9c0.3-0.2,0.5-0.5,0.6-0.9c3.1-7.5,4.1-15.3,2.9-23.3c-1.6-10.8-6.5-19.8-14.6-27.1  c-0.9-0.8-1.8-1.5-2.9-2.4c0,0.5,0,0.8-0.1,1.1c-0.1,4.1-0.4,8.1-1.2,12.1c-1.5,7.5-4.2,14.6-8.2,21.2c-0.2,0.3-0.2,0.8,0,1.1  c4.4,6.5,7.7,13.6,9.6,21.3c0.1,0.2,0.3,0.6,0.6,0.6C79,71.8,80.2,72.5,81.2,73.8z M23.2,71.9c0.2-0.3,0.4-0.6,0.6-0.7  c0.8-0.5,0.8-1,0.5-1.8c-1.7-5.2-2.6-10.6-2.9-16.1c-0.4-8.2,0.7-16.2,3.3-24c0.2-0.5,0.1-0.8-0.3-1.2c-0.7-0.7-1.2-1.6-1.7-2.4  c-0.2-0.5-0.4-0.7-1-0.7c-2.6-0.1-5.1-0.3-7.7-0.4c-0.7,0-1.1,0.2-1.5,0.8c-5.8,8.8-8.3,18.5-7.3,29c0.1,1.2,0,2.6,1.1,3.6  c2.6,2.5,5,5.2,7.7,7.7C16.9,68,19.9,70,23.2,71.9z M65.4,51.5c-0.3,0.4-0.5,0.6-0.6,0.9c-7.3,10.1-16.6,17.5-28.1,22.2  c-0.9,0.4-1.7,0.6-2.6,1c-0.3,0.1-0.6,0.4-0.9,0.6c0.3,0.2,0.5,0.4,0.8,0.5c9.4,3.2,19.1,4.1,29,2.7c2.7-0.4,5.4-1.1,8.1-1.6  c-0.2-2.7,0.8-4.6,3-5.8c0.2-0.1,0.2-0.6,0.1-0.9c-0.7-2.3-1.3-4.6-2.2-6.9C70.3,59.8,68.1,55.6,65.4,51.5z M31.7,79  c0,0.3-0.1,0.4,0,0.5c0.1,0.2,0.2,0.4,0.3,0.6c2.7,4.9,6.1,9.3,10,13.3c0.6,0.6,1.2,0.9,2,1c1.3,0.1,2.6,0.3,3.9,0.4  c9.2,0.4,17.8-1.8,25.7-6.7c3.2-2,2.5-0.9,2.4-4.7c0,0,0-0.1,0-0.1c0-0.5-0.2-0.7-0.7-0.9c-1-0.4-1.9-1-2.8-1.6  c-0.4-0.3-0.7-0.4-1.2-0.3c-3.7,0.7-7.5,1.7-11.2,2.1c-9.4,1-18.5-0.2-27.4-3.3C32.4,79.2,32.1,79.1,31.7,79z M37.6,7.2  c-5.4,0.2-19.8,9.7-22.1,14.5c2.4,0.2,4.7,0.3,7.1,0.5c0-0.1,0.1-0.2,0.1-0.2c1.2-2.8,3.2-3.9,6.3-3.7c0.3,0,0.7-0.3,0.9-0.5  c1.9-2.8,3.8-5.5,5.8-8.3C36.3,8.7,37,8,37.6,7.2z M16.3,79.3c2.8,4.8,17.1,13.8,21.2,13.5c0-0.1,0-0.1-0.1-0.2  c-3.1-3.6-5.8-7.4-8.1-11.5c-0.1-0.2-0.5-0.3-0.7-0.3c-2.1,0.3-3.9-0.3-5.3-1.9c-0.2-0.2-0.6-0.4-0.9-0.4  C20.4,78.8,18.4,79.1,16.3,79.3z M7.4,63.1c1.2,4.3,3,8.1,5.4,11.8c0.8,1.3,1.7,2.2,3.4,1.7c0.3-0.1,0.7,0,1.1-0.1  c1.6-0.2,3.2-0.4,4.7-0.5c0.3-1.1,0-1.7-0.9-2.2c-4.7-2.7-8.9-6.1-12.7-9.9C8,63.6,7.7,63.3,7.4,63.1z M37.7,7  C37.7,7,37.7,7.1,37.7,7C37.7,7.1,37.7,7.1,37.7,7C37.7,7.1,37.8,7.1,37.7,7C37.8,7.1,37.7,7,37.7,7z M37.8,93  C37.8,92.9,37.7,92.9,37.8,93c-0.1,0-0.1,0-0.1,0C37.7,93,37.7,93,37.8,93C37.7,93,37.8,93,37.8,93z"></path></g></svg>