<svg xmlns="http://www.w3.org/2000/svg" xmlns:xlink="http://www.w3.org/1999/xlink" x="0px" y="0px" viewBox="0 0 511 511" style="enable-background:new 0 0 511 511;" xml:space="preserve"><style type="text/css">	.cast{fill:currentcolor;}</style><g>	<g>		<path class="cast" d="M503.5,476H487V267h16.5c2.7,0,5.3-1.5,6.6-3.9c1.3-2.4,1.2-5.3-0.2-7.6l-56-88c-1.4-2.2-3.8-3.5-6.3-3.5   H298.6L263,128.4V99h72.5c2.8,0,5.3-1.5,6.6-4c1.3-2.4,1.2-5.4-0.4-7.7l-13.2-19.8l13.2-19.8c1.5-2.3,1.7-5.3,0.4-7.7   c-1.3-2.4-3.8-4-6.6-4H263v-8.5c0-4.1-3.4-7.5-7.5-7.5s-7.5,3.4-7.5,7.5v100.9L212.4,164H63.5c-2.6,0-5,1.3-6.3,3.5l-56,88   c-1.5,2.3-1.6,5.2-0.2,7.6c1.3,2.4,3.8,3.9,6.6,3.9H24v209H7.5c-4.1,0-7.5,3.4-7.5,7.5s3.4,7.5,7.5,7.5h496c4.1,0,7.5-3.4,7.5-7.5   S507.6,476,503.5,476z M443.4,179l46.5,73H386.6l-73-73H443.4z M321.5,51l-8.2,12.3c-1.7,2.5-1.7,5.8,0,8.3l8.2,12.3H263V51H321.5   z M67.6,179h129.8l-73,73H21.2L67.6,179z M39,267h88.5c0.2,0,0.5,0,0.7,0c0.1,0,0.2,0,0.3,0c0.1,0,0.3,0,0.4-0.1   c0.1,0,0.2-0.1,0.4-0.1c0.1,0,0.2-0.1,0.4-0.1c0.1,0,0.2-0.1,0.3-0.1c0.1,0,0.2-0.1,0.3-0.1c0.1,0,0.2-0.1,0.3-0.1   c0.1-0.1,0.2-0.1,0.3-0.2c0.1-0.1,0.2-0.1,0.3-0.2c0.1-0.1,0.2-0.1,0.3-0.2c0.1-0.1,0.2-0.2,0.3-0.2c0.1-0.1,0.2-0.1,0.3-0.2   c0.2-0.2,0.4-0.3,0.6-0.5l122.7-122.7l122.7,122.7c0.2,0.2,0.4,0.3,0.6,0.5c0.1,0.1,0.2,0.1,0.3,0.2c0.1,0.1,0.2,0.2,0.3,0.2   c0.1,0.1,0.2,0.1,0.3,0.2c0.1,0.1,0.2,0.1,0.3,0.2c0.1,0.1,0.2,0.1,0.3,0.2c0.1,0.1,0.2,0.1,0.3,0.1c0.1,0,0.2,0.1,0.3,0.1   c0.1,0,0.2,0.1,0.4,0.1c0.1,0,0.2,0.1,0.3,0.1c0.1,0,0.2,0.1,0.4,0.1c0.1,0,0.3,0,0.4,0.1c0.1,0,0.2,0,0.3,0c0.2,0,0.5,0,0.7,0   H472v209H311V371.5c0-13-10.5-23.5-23.5-23.5h-64c-13,0-23.5,10.5-23.5,23.5V476H39V267z M296,380h-81v-8.5c0-4.7,3.8-8.5,8.5-8.5   h64c4.7,0,8.5,3.8,8.5,8.5V380z M215,395h33v81h-33V395z M263,395h33v81h-33V395z"></path>		<path class="cast" d="M255.5,323c30.6,0,55.5-24.9,55.5-55.5S286.1,212,255.5,212S200,236.9,200,267.5S224.9,323,255.5,323z    M255.5,227c22.3,0,40.5,18.2,40.5,40.5S277.8,308,255.5,308S215,289.8,215,267.5S233.2,227,255.5,227z"></path>		<path class="cast" d="M255.5,275c4.1,0,7.5-3.4,7.5-7.5v-24c0-4.1-3.4-7.5-7.5-7.5s-7.5,3.4-7.5,7.5V260h-16.5   c-4.1,0-7.5,3.4-7.5,7.5s3.4,7.5,7.5,7.5H255.5z"></path>		<path class="cast" d="M175.5,388h-40c-4.1,0-7.5,3.4-7.5,7.5v48c0,4.1,3.4,7.5,7.5,7.5h40c4.1,0,7.5-3.4,7.5-7.5v-48   C183,391.4,179.6,388,175.5,388z M168,403v9h-25v-9H168z M143,436v-9h25v9H143z"></path>		<path class="cast" d="M103.5,388h-40c-4.1,0-7.5,3.4-7.5,7.5v48c0,4.1,3.4,7.5,7.5,7.5h40c4.1,0,7.5-3.4,7.5-7.5v-48   C111,391.4,107.6,388,103.5,388z M96,403v9H71v-9H96z M71,436v-9h25v9H71z"></path>		<path class="cast" d="M173,292h-35c-5.5,0-10,4.5-10,10v53.5c0,4.1,3.4,7.5,7.5,7.5h40c4.1,0,7.5-3.4,7.5-7.5V302   C183,296.5,178.5,292,173,292z M168,307v17h-25v-17H168z M143,348v-9h25v9H143z"></path>		<path class="cast" d="M101,292H66c-5.5,0-10,4.5-10,10v53.5c0,4.1,3.4,7.5,7.5,7.5h40c4.1,0,7.5-3.4,7.5-7.5V302   C111,296.5,106.5,292,101,292z M96,307v17H71v-17H96z M71,348v-9h25v9H71z"></path>		<path class="cast" d="M407.5,451h40c4.1,0,7.5-3.4,7.5-7.5v-48c0-4.1-3.4-7.5-7.5-7.5h-40c-4.1,0-7.5,3.4-7.5,7.5v48   C400,447.6,403.4,451,407.5,451z M415,436v-9h25v9H415z M440,403v9h-25v-9H440z"></path>		<path class="cast" d="M335.5,451h40c4.1,0,7.5-3.4,7.5-7.5v-48c0-4.1-3.4-7.5-7.5-7.5h-40c-4.1,0-7.5,3.4-7.5,7.5v48   C328,447.6,331.4,451,335.5,451z M343,436v-9h25v9H343z M368,403v9h-25v-9H368z"></path>		<path class="cast" d="M407.5,363h40c4.1,0,7.5-3.4,7.5-7.5V302c0-5.5-4.5-10-10-10h-35c-5.5,0-10,4.5-10,10v53.5   C400,359.6,403.4,363,407.5,363z M415,348v-9h25v9H415z M440,307v17h-25v-17H440z"></path>		<path class="cast" d="M335.5,363h40c4.1,0,7.5-3.4,7.5-7.5V302c0-5.5-4.5-10-10-10h-35c-5.5,0-10,4.5-10,10v53.5   C328,359.6,331.4,363,335.5,363z M343,348v-9h25v9H343z M368,307v17h-25v-17H368z"></path>	</g></g></svg>