<svg xmlns="http://www.w3.org/2000/svg" xmlns:xlink="http://www.w3.org/1999/xlink" x="0px" y="0px" viewBox="0 0 63.614 38.979" style="enable-background:new 0 0 63.614 38.979;" xml:space="preserve">	<path class="curve-das" d="M22.314,38.937l-0.035-0.999c0.591-0.054,1.2-0.197,1.812-0.425v0v0c0.001,0,0.001,0,0.001,0l0.351,0.937l-0.082-0.218  l0.081,0.219c-0.695,0.259-1.392,0.422-2.07,0.484v-0.002L22.314,38.937z M24.238,37.906l0.12,0.322L24.238,37.906z M20.277,38.786  l0.057-0.446l-0.118,0.434c-0.674-0.173-1.335-0.471-1.965-0.885l0.272-0.418l-0.008,0.016l0.284-0.434  c0.538,0.353,1.098,0.606,1.664,0.752l0.044,0.013l-0.159,0.476L20.277,38.786z M20.34,38.289l-0.035,0.137L20.34,38.289z   M26.266,37.54l-0.481-0.876c0.528-0.335,1.035-0.726,1.507-1.165l0.341,0.367l-0.002-0.002l0.003,0.004l-0.019-0.028l0.415,0.332  l-0.062,0.057l0.003,0.004c-0.514,0.477-1.066,0.904-1.643,1.271l-0.004,0.002c-0.002,0.001-0.003,0.002-0.005,0.003v0  L26.266,37.54z M16.689,36.558l0.289-0.346l-0.334,0.303c-0.337-0.36-0.662-0.761-0.967-1.191c-0.107-0.152-0.211-0.305-0.31-0.459  l0.336-0.217l0.469-0.375l-0.385,0.321l0.42-0.271c0.092,0.143,0.188,0.284,0.286,0.423c0.279,0.393,0.576,0.759,0.882,1.086  l-0.002,0.002l0.034,0.035l-0.392,0.313L16.689,36.558z M17.012,36.172l-0.099,0.092L17.012,36.172z M29.364,34.7l-0.31-0.248  l-0.502-0.334l0.42,0.268l-0.396-0.304c0.381-0.496,0.734-1.038,1.05-1.61l0.003,0.002l0.023-0.047l0.417,0.278l0.469,0.166  L30.1,32.725l0.401,0.229c-0.335,0.609-0.711,1.188-1.117,1.718l0,0c-0.005,0.006-0.01,0.013-0.015,0.019l-0.309-0.234L29.364,34.7  z M28.983,34.396L28.983,34.396l-0.002-0.002L28.983,34.396z M30.064,32.713l0.1,0.055L30.064,32.713z M14.417,33.077l0.391-0.223  l-0.416,0.171c-0.269-0.629-0.492-1.291-0.664-1.966l0.957-0.292l-0.495,0.174l0.507-0.128c0.159,0.625,0.366,1.238,0.615,1.819  l-0.003,0.001l0.021,0.047l-0.476,0.159L14.417,33.077z M14.852,32.829l-0.108,0.046L14.852,32.829z M14.213,30.935l-0.025,0.007  L14.213,30.935z M31.334,31.157l-0.495-0.282l-0.402-0.155c0.227-0.591,0.421-1.212,0.577-1.848l0.002,0.001l0.005-0.029  l0.481,0.138l0.497,0.009h-0.464l0.449,0.119c-0.165,0.676-0.372,1.338-0.614,1.968l-0.001,0L31.334,31.157z M31.499,28.991  l0.245,0.06L31.499,28.991z M13.391,29.126l0.445-0.148l-0.468,0.042c-0.052-0.499-0.077-1.008-0.076-1.512  c0-0.181,0.003-0.364,0.01-0.546v0c0-0.003,0-0.006,0-0.009l1,0.009l-0.602,0.006l0.602,0.023c-0.007,0.173-0.01,0.346-0.01,0.519  c-0.001,0.47,0.022,0.944,0.07,1.408l-0.006,0l0.01,0.061h-0.501L13.391,29.126z M13.865,28.968l-0.092,0.009L13.865,28.968z   M32.33,27.193l-0.475-0.158l-0.499-0.01h0.47l-0.021-0.007l-0.444-0.054c0.077-0.643,0.117-1.295,0.118-1.936l0.022,0.001  l0.979-0.01v0.01h-0.837l0.837,0.001c-0.001,0.68-0.043,1.371-0.126,2.054l-0.007-0.001L32.33,27.193z M31.807,27.018l0.056,0.007  L31.807,27.018z M14.486,25.13l-0.481-0.138l-0.497-0.009h0.464l-0.457-0.084c0.115-0.672,0.276-1.344,0.479-1.997l0.009-0.031  l0.949,0.316l-0.064-0.019l0.064,0.02c-0.191,0.614-0.344,1.246-0.451,1.878l-0.005,0L14.486,25.13z M13.974,24.983h0.037  l-0.093-0.016L13.974,24.983z M31.396,23.202l-0.018-0.115l-0.005,0c-0.068-0.636-0.169-1.285-0.298-1.931l0.49-0.099l-0.008,0.002  l0.011-0.002H31.53l0.514-0.147l0.008,0.05l0.004,0c0.136,0.675,0.24,1.354,0.312,2.021l-0.468,0.053h0.47l-0.471,0L31.396,23.202z   M31.869,23.034L31.869,23.034L31.869,23.034z M15.628,21.423l-0.913-0.397l0.027-0.062l-0.001-0.001  c0.293-0.628,0.63-1.237,1.002-1.809l0.109,0.071l-0.106-0.076l0.031-0.044l0.804,0.593c-0.346,0.533-0.66,1.101-0.934,1.687  l-0.458-0.214L15.628,21.423z M58.929,21.285c-0.253-0.208-0.509-0.413-0.768-0.612l0.307-0.398l-0.356,0.355l0.623-0.775  l0.034,0.028l0.001-0.001c0.268,0.207,0.532,0.417,0.793,0.632L58.929,21.285z M56.564,19.521c-0.544-0.366-1.1-0.716-1.666-1.048  l0.248-0.423l-0.271,0.407l0.492-0.868l0.037,0.021c0.005,0.003,0.009,0.005,0.014,0.008l0.012,0.007  c0.575,0.339,1.14,0.694,1.693,1.067l0.028,0.02L56.564,19.521z M30.619,19.284l0.465-0.166l-0.474,0.136  c-0.175-0.609-0.38-1.238-0.609-1.869l0.001,0l-0.01-0.021l0.476-0.159l0.438-0.238l-0.391,0.223l0.426-0.146  c0.237,0.653,0.45,1.303,0.631,1.935l-0.104,0.03l0.104-0.03L31.2,19.085l0.372-0.105L30.619,19.284z M30.514,17.19l-0.043,0.024  l0.338-0.123L30.514,17.19z M17.693,18.221l-0.718-0.689l0.025-0.025l-0.002-0.001c0.465-0.523,0.969-1.007,1.499-1.439  l0.298,0.361l-0.26-0.389l0.261,0.39l0.415,0.333l-0.085,0.078l0.002,0.003c-0.488,0.398-0.953,0.845-1.382,1.328l-0.374-0.332  L17.693,18.221z M53.184,17.532l0.348-0.713l-0.361,0.707c-0.584-0.299-1.178-0.581-1.78-0.847l0.202-0.458l-0.158,0.474  l0.373-0.925l-0.139,0.278l0.126-0.285c0.619,0.273,1.229,0.563,1.828,0.87v-0.001l0.009,0.004L53.184,17.532z M51.584,16.217  l0.166-0.471L51.584,16.217z M49.576,15.934l0.123-0.359l-0.135,0.354c-0.613-0.232-1.235-0.45-1.863-0.652l0.273-0.961  l-0.089,0.357l0.116-0.35l-0.152,0.493l0.158-0.491c0.644,0.208,1.281,0.431,1.912,0.669l-0.001,0l0.009,0.003L49.576,15.934z   M20.709,15.76l-0.245-0.431l0.275,0.413l-0.51-0.858l0.142,0.283l-0.156-0.275c0.58-0.33,1.207-0.63,1.862-0.894v0.001  l0.036-0.015l0.337,0.941C21.836,15.171,21.25,15.453,20.709,15.76z M29.299,15.615l-0.026-0.06l-0.002,0.001  c-0.262-0.604-0.539-1.202-0.83-1.794l0.449-0.221l-0.003,0.002l0.006-0.003l-0.039,0.013l0.136-0.09  c-0.282,0.03-0.564,0.062-0.847,0.097l-0.153-0.989l0.029-0.004l0.005,0.038l-0.004-0.038c0.467-0.058,0.935-0.108,1.401-0.152  l0.61-0.053v0.002l0.05-0.004l0.03,1l-0.598,0.052c-0.042,0.004-0.084,0.008-0.126,0.012c0.28,0.573,0.548,1.152,0.801,1.736  l-0.411,0.183l0.427-0.142l-0.428,0.143L29.299,15.615z M29.732,15.356l-0.004,0.002L29.732,15.356z M20.454,15.33l-0.27-0.42  L20.454,15.33z M45.884,14.732l-0.078-0.018v0.002c-0.635-0.171-1.276-0.327-1.921-0.468l0.108-0.488l-0.121,0.485l0.193-0.98  l0.035,0.007v-0.001c0.66,0.145,1.315,0.304,1.966,0.479l-0.113,0.436l0.143-0.426l-0.143,0.427L45.884,14.732z M45.939,14.222  l-0.008,0.03L45.939,14.222z M24.278,14.306l-0.289-0.956l0.047-0.014v0c0.622-0.173,1.287-0.327,1.977-0.457l0.072,0.37  l-0.061-0.371l0.213,0.976l-0.131-0.482l0.093,0.49c-0.667,0.126-1.309,0.275-1.906,0.442l-0.133-0.473L24.278,14.306z   M26.103,13.354l0.002,0.012L26.103,13.354z M41.976,13.873l0.053-0.497l-0.085,0.493c-0.648-0.111-1.301-0.209-1.956-0.292  l0.126-0.992l-0.033,0.264l0.034-0.264c0.669,0.085,1.337,0.185,1.999,0.299L41.976,13.873z M40.077,12.869l-0.026,0.211  l0.029-0.226L40.077,12.869z M38.021,13.368c-0.657-0.055-1.316-0.097-1.976-0.125l0.022-0.511l-0.064,0.508l0.053-0.997  l0.032,0.002v-0.001c0.673,0.029,1.346,0.071,2.017,0.128L38.021,13.368z M32.087,13.239l-0.02-0.499l0.063,0.496l-0.072-0.996  v0.263l-0.01-0.263c0.655-0.026,1.313-0.04,1.972-0.04l0.047,1C33.375,13.201,32.73,13.214,32.087,13.239z M34.076,13.201l-0.01-1  h0.01V13.201z M32.058,12.74l-0.053-0.497L32.058,12.74z M27.555,12.043l0.421-0.269L27.555,12.043z M27.53,12.003  c-0.308-0.572-0.626-1.137-0.949-1.696l0.486-0.31l-0.074,0.025l-0.421,0.269l0.385-0.257l-0.438,0.146l0.438-0.146l0.447-0.298  l0.018,0.035l-0.43,0.25l0.43-0.25l0.009,0.019l0.004-0.002c0.341,0.587,0.663,1.161,0.977,1.742l-0.004,0.002l0.043,0.086  l-0.511,0.17l0.032-0.021l-0.052,0.028l-0.419,0.14l0.419-0.14L27.53,12.003z M0.386,10.745l0.391-0.223l-0.42,0.161  C0.119,10.093-0.001,9.443,0,8.751l0.004-0.234l1,0.011L0.407,8.533l0.597,0.024L1,8.752C0.999,9.315,1.095,9.839,1.284,10.31  l-0.002,0l0.017,0.037l-0.476,0.159L0.386,10.745z M0.82,10.497l-0.148,0.059L0.82,10.497z M25.569,8.632l0.385-0.321L25.533,8.58  c-0.354-0.552-0.723-1.096-1.111-1.624l0.42-0.308l-0.434,0.289l0.801-0.598l0.019,0.025l0.001-0.001  c0.4,0.546,0.783,1.108,1.146,1.678l-0.34,0.218L25.569,8.632z M1.358,6.839L0.445,6.442l0.017-0.036l-0.002,0  C0.704,5.793,1.033,5.24,1.437,4.761L1.604,4.57l0.001,0.002l0.059-0.06l0.364,0.437L2.35,5.236L2.2,5.406  c-0.333,0.397-0.607,0.858-0.813,1.37L0.924,6.591L1.358,6.839z M23.263,5.49L23.2,5.426l-0.002,0.002  c-0.44-0.504-0.896-0.971-1.354-1.388l0.331-0.365l-0.348,0.348l0.666-0.745l0.041,0.038c0.481,0.438,0.958,0.928,1.418,1.455  l-0.338,0.297l0.353-0.281l-0.353,0.282L23.263,5.49z M23.579,5.095l-0.01,0.009L23.579,5.095z M3.717,4.055l-0.51-0.858  l0.009-0.005c0.541-0.36,1.134-0.68,1.812-0.976l0.005-0.002C5.04,2.21,5.048,2.207,5.055,2.204l0.048-0.02l0.351,0.937  C4.818,3.397,4.268,3.692,3.771,4.023L3.493,3.607L3.717,4.055z M20.332,2.849c-0.545-0.364-1.106-0.674-1.671-0.921l0.2-0.458  l-0.158,0.474l0.373-0.925l-0.145,0.291l0.13-0.298c0.618,0.27,1.233,0.608,1.827,1.006l-0.001,0l0.03,0.021L20.332,2.849z   M7.251,2.459L6.962,1.503L6.98,1.498L6.98,1.497C7.497,1.335,8.019,1.19,8.535,1.055l0.396-0.103l0.001,0.002l0.07-0.016  l0.072,0.576L9.18,1.921L8.788,2.023C8.286,2.154,7.78,2.294,7.278,2.451L7.133,1.988L7.251,2.459z M11.102,1.482l-0.218-0.976  l0.091,0.365l-0.066-0.371c0.724-0.142,1.385-0.242,2.022-0.307l0.001,0.002l0.06-0.005l0.041,0.998  C12.425,1.25,11.794,1.346,11.102,1.482z M10.977,0.878l0.028,0.113l-0.064-0.322L10.977,0.878z M18.854,1.466l0.166-0.471  L18.854,1.466z M16.856,1.345c-0.595-0.129-1.231-0.206-1.893-0.228l0.017-0.499l-0.063,0.496l0.053-0.997l0.026,0.001v0  c0.722,0.024,1.419,0.108,2.071,0.249l0.026,0.006L16.856,1.345z">	</path>	<path class="curve-arrow" d="M63.478,25.204c-2.756-1.256-6.522-2.466-9.414-2.657l4.574-2.158l2.134-4.584C60.977,18.696,62.207,22.455,63.478,25.204">	</path></svg>