<svg width="180" height="193" viewBox="0 0 180 193" fill="none" xmlns="http://www.w3.org/2000/svg">
<g clip-path="url(#clip0_2253_7)">
<path d="M91.3836 161.232C82.6306 154.397 73.8716 147.57 65.1596 140.683C70.0466 132.062 73.9636 122.939 76.8166 113.442C77.3596 111.634 75.2006 109.923 73.5786 110.953C63.8536 117.127 54.1866 123.386 44.5236 129.655C38.3196 121.791 31.5326 114.436 24.2416 107.563C22.6306 106.044 20.5626 107.623 20.8246 109.552C21.6576 115.689 22.4906 121.826 23.3236 127.963C23.9676 132.707 24.4996 137.556 26.0676 142.076C16.5306 143.619 7.38062 150.642 0.474623 157.023C-0.862377 158.259 0.227623 160.408 1.90162 160.468C11.9076 160.822 21.8336 160.245 31.7276 158.84C34.1796 169.576 37.3186 180.067 41.2016 190.385C42.1086 192.796 44.8936 193.067 46.3926 191.063C53.4966 181.563 59.1086 171.335 62.6106 160.02C71.3656 161.862 80.1186 163.712 88.8786 165.534C91.1226 166.001 93.5906 162.956 91.3836 161.232Z" fill="#D50A0A"/>
<path d="M96.0425 53.6524C93.5085 46.8864 90.9695 40.1224 88.4765 33.3414C94.1165 30.2194 99.3905 26.4884 104.199 22.1894C105.115 21.3714 104.498 19.6884 103.248 19.7084C95.7555 19.8294 88.2655 20.0164 80.7745 20.2114C80.0045 13.7404 78.7385 7.35437 77.0295 1.06337C76.6515 -0.326631 74.9685 -0.153631 74.4585 1.00637C72.8355 4.69437 71.2125 8.38237 69.5895 12.0694C68.3345 14.9204 66.9825 17.7914 66.3165 20.8314C60.5015 18.4464 53.0385 19.2334 47.0385 20.4274C45.8775 20.6584 45.7515 22.2214 46.6595 22.8234C52.0905 26.4194 57.7935 29.4724 63.7595 32.0554C61.4725 38.8444 59.6485 45.7314 58.2965 52.7754C57.9805 54.4214 59.4335 55.5184 60.9455 54.9154C68.1145 52.0594 74.7035 48.2914 80.4915 43.2034C84.7225 47.2004 88.9505 51.2004 93.1905 55.1874C94.2775 56.2094 96.6815 55.3584 96.0425 53.6524Z" fill="#FFC212"/>
<path d="M179.229 107.316C172.536 104.594 165.842 101.878 159.166 99.1164C160.692 92.8524 161.523 86.4464 161.621 79.9974C161.64 78.7694 159.984 78.0824 159.152 79.0154C154.163 84.6074 149.225 90.2424 144.292 95.8824C139.012 92.0634 133.457 88.6664 127.673 85.6604C126.395 84.9964 125.381 86.3514 125.888 87.5124C127.5 91.2054 129.112 94.8984 130.724 98.5904C131.97 101.445 133.165 104.384 134.949 106.935C129.255 109.595 124.776 115.616 121.588 120.837C120.971 121.848 122.035 123 123.093 122.739C129.418 121.183 135.528 119.057 141.47 116.42C144.912 122.703 148.741 128.711 153.005 134.479C154.001 135.827 155.792 135.502 156.374 133.981C159.132 126.773 160.826 119.375 161.008 111.671C166.815 111.268 172.621 110.87 178.427 110.454C179.913 110.347 180.917 108.003 179.229 107.316Z" fill="#2CABE4"/>
</g>
<defs>
<clipPath id="clip0_2253_7">
<rect width="179.777" height="192.419" fill="white"/>
</clipPath>
</defs>
</svg>
