<svg xmlns="http://www.w3.org/2000/svg" width="77.22" height="62.69" viewBox="0 0 77.22 62.69"><title>pattern-img-01</title><path d="M418.85,351.83a2.08,2.08,0,0,0-.85.17c.05-1.65-.64-3.78,2.51-3.06A20.37,20.37,0,0,0,425,349l0,1.05C422.59,349.46,420.26,349.05,418.85,351.83Z" transform="translate(-417.97 -348.14)" fill="#fef9f4"/><path d="M473.31,365.73c0,1-1,2.11-2.05,3.2q-6,6.29-12,12.62c-1.85,2-3.92,3.42-6.42,1.29s-1.82-4.63.3-6.84q6.34-6.64,12.66-13.31c1.52-1.6,3.27-2.28,5.34-1.21C472.62,362.22,473.32,363.49,473.31,365.73Z" transform="translate(-417.97 -348.14)" fill="#fe900b"/><path d="M425.87,350c.74.75.7,2.24.68,3.75q-.14,8.69-.19,17.38c0,2.71-.54,5.18-3.82,5.32-3.46.14-4.49-2.16-4.44-5.22.09-6.12.15-12.25.22-18.37,0-2.2.85-3.89,3.09-4.52C423,347.86,424.35,348.31,425.87,350Z" transform="translate(-417.97 -348.14)" fill="#fe900b"/><path d="M494,406.12c-.6.87-2.07,1.11-3.56,1.37q-8.55,1.53-17.1,3.11c-2.66.49-5.19.44-5.94-2.75-.8-3.37,1.26-4.81,4.28-5.35q9-1.61,18.08-3.25c2.17-.39,4,.09,5,2.18C495.49,402.88,495.31,404.32,494,406.12Z" transform="translate(-417.97 -348.14)" fill="#fe900b"/></svg>