<svg xmlns="http://www.w3.org/2000/svg" xmlns:xlink="http://www.w3.org/1999/xlink" x="0px" y="0px" viewBox="0 0 100 100" style="enable-background:new 0 0 100 100;" xml:space="preserve"><style type="text/css">	.pen1{fill:#45AAB8;}	.pen2{fill:#047B8E;}	.pen3{fill:#055868;}	.pen4{fill:#388691;}	.pen5{fill:#E9C293;}	.pen6{fill:#FCE2C0;}	.pen7{fill:#454444;}	.pen8{fill:#BBBDBE;}	.pen9{fill:#E4E6E6;}	.pen10{fill:#104D58;}	.pen11{fill:#1A93A5;}	.pen12{fill:#FDD5A5;}	.pen13{fill:#DBDDDE;}	.pen14{fill:#F1C793;}	.pen15{fill:#CFD1D2;}	.pen16{fill:#14707F;}	.pen17{fill:#FCD19C;}</style><g>	<path class="pen1" d="M26,74.1c1.6-2.9,3.2-5.8,4.8-8.6C40.4,48.9,50,32.3,59.6,15.8c0.6-1,1.2-1.9,1.8-2.8c0.8,0.5,1.6,0.9,2.4,1.4  c0.5,0.4,1.1,0.7,1.6,1.1c-0.6,1-1.2,2.1-1.8,3.1c-1.7,2.9-3.4,5.7-5.1,8.6c-1.1,1.8-2.1,3.7-3.1,5.5c-2.3,4-4.6,8-6.9,11.9  c-2.6,4.5-5.2,9-7.8,13.5c-1.6,2.7-3.2,5.5-4.7,8.2c-1.1,1.8-2.1,3.7-3.2,5.5c-0.6,1.1-1.2,2.2-1.8,3.4c-0.7-0.2-1.5-0.3-2.2-0.5  C27.9,74.4,26.9,74.7,26,74.1z"></path>	<path class="pen2" d="M73.8,20.3C68.7,29.1,63.6,38,58.4,46.9C52.2,57.7,46,68.5,39.8,79.3c-0.1,0.3-0.3,0.5-0.5,0.7  c-1.1-0.7-2.3-1-3.5-1.2c0,0,0,0,0,0c-0.1-0.1-0.1-0.1-0.2-0.2c-0.3-0.1-0.7-0.2-1-0.3c0.2-0.2,0.3-0.3,0.5-0.5  c0.9-1.6,1.8-3.2,2.7-4.7c1.7-3,3.5-5.9,5.2-8.9c1.8-3.2,3.6-6.3,5.4-9.5c1.2-2.1,2.5-4.2,3.7-6.3c2.2-3.7,4.3-7.5,6.4-11.2  c1.9-3.2,3.8-6.5,5.7-9.7c1.5-2.5,2.9-5,4.3-7.6c0.4-0.6,0.7-1.3,1-2c0.7,0.3,1.4,0.7,2.1,1C72.3,19.3,73.1,19.8,73.8,20.3z"></path>	<path class="pen3" d="M79.5,10.6C79.5,10.6,79.5,10.7,79.5,10.6c-0.1,0.2-0.1,0.2-0.2,0.3c-1.2,2.1-2.5,4.1-3.7,6.2  c-0.7-0.4-1.5-0.9-2.2-1.3c-0.7-0.4-1.3-0.8-2-1.3c0.1-0.1,0.3-0.1,0.3-0.2c1.3-2.2,2.5-4.4,3.7-6.6c1.1,0.6,2.1,1.1,3.2,1.7  C79,9.7,79.2,10.2,79.5,10.6z"></path>	<path class="pen4" d="M63.2,9.9c0.1-0.2,0.1-0.4,0.3-0.6c1.2-2.1,2.5-4.3,3.7-6.4c0.4,0.2,0.8,0.4,1.1,0.5c0.2,0.2,0.3,0.4,0.5,0.5  c0.8,0.5,1.6,0.9,2.4,1.4c-0.8,1.5-1.6,2.9-2.4,4.4c-0.5,0.9-0.8,1.7-1.3,2.6c-0.7-0.4-1.4-0.7-2.1-1.1  C64.6,10.7,63.9,10.3,63.2,9.9z"></path>	<path class="pen5" d="M35.8,78.8c1.2,0.2,2.4,0.6,3.5,1.2c-0.2,0.2-0.4,0.5-0.6,0.7c-3.2,3.2-6.4,6.3-9.7,9.4  c-1.3,1.3-2.8,2.5-4.1,3.8c-0.1-0.1-0.1-0.2-0.2-0.3c0.4-0.4,0.8-1,1.1-1.3c1.5-1.3,2.5-3.1,3.7-4.6c1.3-1.6,2.5-3.2,3.7-4.8  c1-1.2,2-2.5,2.9-3.7C36,79,35.9,78.9,35.8,78.8z"></path>	<path class="pen6" d="M26,74.1c0.9,0.6,1.9,0.3,2.9,0.5c-0.4,1-0.8,2.1-1.2,3.1c-0.7,1.7-1.3,3.3-2,5c-0.7,1.7-1.3,3.5-1.9,5.3  c-0.5,1.5-1,3-1.5,4.6c-0.2,0-0.3-0.1-0.5-0.1c0.2-1.2,0.4-2.4,0.7-3.6c1.1-4.8,2.3-9.5,3.4-14.3C26,74.5,26,74.3,26,74.1z"></path>	<path class="pen7" d="M21.8,92.5c0.2,0,0.3,0.1,0.5,0.1c0.1,0.1,0.2,0.2,0.3,0.3c0.4,0.1,0.9,0.2,1.3,0.4c0.3,0.1,0.5,0.2,0.8,0.3  c0.1,0.1,0.1,0.2,0.2,0.3c-0.1,0.2-0.2,0.4-0.3,0.5c-0.9,0.9-1.8,1.7-2.7,2.6c-0.2,0.2-0.6,0.2-0.9,0.2c-0.1,0-0.3-0.4-0.3-0.6  C21.1,95.3,21.5,93.9,21.8,92.5z"></path>	<path class="pen8" d="M73.4,15.8c0.7,0.4,1.5,0.9,2.2,1.3c-0.6,1.1-1.2,2.1-1.8,3.2c-0.7-0.5-1.5-0.9-2.2-1.4  C72.2,17.8,72.8,16.8,73.4,15.8z"></path>	<path class="pen9" d="M63.2,9.9c0.7,0.4,1.5,0.9,2.2,1.3c-0.5,1.1-1.1,2.1-1.6,3.2c-0.8-0.5-1.6-0.9-2.4-1.4  C62,11.9,62.6,10.9,63.2,9.9z"></path>	<path class="pen10" d="M71.1,5.2c-0.8-0.5-1.6-0.9-2.4-1.4c-0.2-0.1-0.3-0.3-0.5-0.5c0.5,0.1,1,0.2,1.5,0.4c3.6,1.4,6.7,3.5,9.5,6.1  c0.3,0.2,0.6,0.5,0.1,0.8c-0.3-0.4-0.5-0.8-0.8-1.1c-1-0.6-2.1-1.1-3.2-1.7C74,6.9,72.6,6.1,71.1,5.2z"></path>	<path class="pen10" d="M79.3,10.9c0-0.1,0.1-0.1,0.1-0.2C79.4,10.7,79.3,10.8,79.3,10.9z"></path>	<path class="pen11" d="M69.5,17.8c-0.3,0.7-0.6,1.3-1,2c-1.4,2.5-2.9,5.1-4.3,7.6c-1.9,3.2-3.8,6.5-5.7,9.7  c-2.2,3.7-4.3,7.5-6.4,11.2c-1.2,2.1-2.5,4.2-3.7,6.3c-1.8,3.2-3.6,6.4-5.4,9.5c-1.7,3-3.5,6-5.2,8.9c-0.9,1.6-1.8,3.2-2.7,4.7  c-0.1,0.2-0.3,0.4-0.5,0.5c-0.1-0.1-0.3-0.1-0.4-0.2c-0.4-1.2-1.6-1.6-2.5-2.3c0-0.1,0-0.1-0.1-0.1l0,0c-0.2-0.2-0.4-0.4-0.5-0.6  c0.6-1.1,1.2-2.3,1.8-3.4c1-1.9,2.1-3.7,3.2-5.5c1.6-2.7,3.2-5.5,4.7-8.2c2.6-4.5,5.2-9,7.8-13.5c2.3-4,4.6-8,6.9-11.9  c1.1-1.8,2.1-3.7,3.1-5.5c1.7-2.9,3.4-5.7,5.1-8.6c0.6-1,1.2-2.1,1.8-3.1c0.7,0.4,1.5,0.8,2.2,1.2C68.3,17,68.9,17.4,69.5,17.8z"></path>	<path class="pen12" d="M31.1,75.1c0.2,0.2,0.4,0.4,0.5,0.6c-0.3,0.5-0.5,0.9-0.8,1.4c-0.5,1.2-0.9,2.4-1.5,3.5  c-0.8,1.6-1.6,3.1-2.4,4.6c-0.3,0.6-0.6,1.2-0.9,1.8c-0.3,0.5-0.6,1-0.9,1.5c-0.2,0.5-0.3,1.1-0.6,1.6c-0.6,1-1.3,1.9-1.9,2.9  c-0.1-0.1-0.2-0.2-0.3-0.3c0.5-1.5,1-3.1,1.5-4.6c0.6-1.8,1.3-3.5,1.9-5.3c0.6-1.7,1.3-3.3,2-5c0.4-1,0.8-2.1,1.2-3.1  C29.6,74.8,30.3,75,31.1,75.1z"></path>	<path class="pen13" d="M67.6,16.6c-0.7-0.4-1.5-0.8-2.2-1.2c-0.5-0.4-1.1-0.7-1.6-1.1c0.5-1.1,1.1-2.1,1.6-3.2  c0.7,0.4,1.4,0.7,2.1,1.1c0.6,0.4,1.3,0.8,1.9,1.2C68.8,14.5,68.2,15.5,67.6,16.6z"></path>	<path class="pen14" d="M34.2,78.1c0.1,0.1,0.3,0.1,0.4,0.2c0.3,0.1,0.7,0.2,1,0.3c0.1,0.1,0.1,0.1,0.2,0.2c0,0,0,0,0,0  c0.1,0.1,0.3,0.3,0.4,0.5c-1,1.2-2,2.4-2.9,3.7c-1.2,1.6-2.4,3.3-3.7,4.8c-1.3,1.5-2.2,3.3-3.7,4.6c-0.4,0.3-0.7,0.9-1.1,1.3  c-0.3-0.1-0.5-0.2-0.8-0.3c1.2-1.8,2.4-3.5,3.6-5.3c1-1.5,2-3.1,2.9-4.7c1.1-1.6,2.1-3.3,3.2-4.9C33.8,78.3,34,78.2,34.2,78.1z"></path>	<path class="pen15" d="M67.6,16.6c0.6-1,1.2-2.1,1.8-3.1c0.7,0.3,1.3,0.7,2,1c0.7,0.4,1.3,0.8,2,1.3c-0.6,1-1.2,2.1-1.8,3.1  c-0.7-0.3-1.4-0.7-2.1-1C68.9,17.4,68.3,17,67.6,16.6z"></path>	<path class="pen5" d="M35.8,78.8c-0.1-0.1-0.1-0.1-0.2-0.2C35.6,78.7,35.7,78.7,35.8,78.8z"></path>	<path class="pen16" d="M71.4,14.5c-0.7-0.3-1.3-0.7-2-1c-0.6-0.4-1.3-0.8-1.9-1.2c0.4-0.9,0.8-1.8,1.3-2.6c0.8-1.5,1.6-2.9,2.4-4.4  c1.4,0.9,2.9,1.7,4.3,2.6c-1.2,2.2-2.5,4.4-3.7,6.6C71.7,14.5,71.5,14.5,71.4,14.5z"></path>	<path class="pen17" d="M34.2,78.1c-0.2,0.1-0.4,0.2-0.5,0.3c-1.1,1.6-2.2,3.2-3.2,4.9c-1,1.5-1.9,3.1-2.9,4.7  c-1.2,1.8-2.4,3.5-3.6,5.3c-0.4-0.1-0.9-0.2-1.3-0.4c0.6-1,1.3-1.9,1.9-2.9c0.3-0.5,0.4-1.1,0.6-1.6c0.2-0.5,0.6-1,0.9-1.5  c0.3-0.6,0.6-1.2,0.9-1.8c0.8-1.5,1.7-3.1,2.4-4.6c0.6-1.1,1-2.3,1.5-3.5c0.2-0.5,0.5-0.9,0.8-1.4c0,0,0,0,0,0c0,0,0.1,0.1,0.1,0.1  C32.6,76.6,33.8,76.9,34.2,78.1z"></path>	<path class="pen12" d="M31.7,75.8c0,0-0.1-0.1-0.1-0.1C31.7,75.7,31.7,75.8,31.7,75.8z"></path></g></svg>