<svg xmlns="http://www.w3.org/2000/svg" xmlns:xlink="http://www.w3.org/1999/xlink" x="0px" y="0px" viewBox="0 0 100 100" style="enable-background:new 0 0 100 100;" xml:space="preserve"><g>	<g>		<path d="M11.8,17.1c1.7,2.1,3.7,4.2,5.9,5.8c0.5,0.3,1.1-0.4,0.6-0.8c-2.1-1.8-4.1-3.5-5.9-5.7C12.1,15.9,11.4,16.6,11.8,17.1   L11.8,17.1z"></path>	</g>	<g>		<path d="M5.1,34.4c1.9,0.3,3.8,0.7,5.7,0.9c0.7,0.1,0.8-1,0.2-1.2c-1.8-0.4-3.7-0.6-5.5-0.9C4.6,33.1,4.3,34.3,5.1,34.4L5.1,34.4z   "></path>	</g>	<g>		<path d="M2.5,49.6c1.7,0.2,3.4,0.4,5.1,0.5c0.7,0,0.7-1,0-1.1c-1.7-0.2-3.4-0.3-5.1-0.4C1.8,48.6,1.9,49.5,2.5,49.6L2.5,49.6z"></path>	</g>	<g>		<path d="M5.4,69.7c2.5-1.2,5-2.3,7.4-3.6c0.6-0.3,0.1-1.2-0.5-0.9c-2.5,1.1-4.9,2.5-7.4,3.7C4.4,69.1,4.9,69.9,5.4,69.7L5.4,69.7z   "></path>	</g>	<g>		<path d="M15.3,80.3c1.4-1.5,2.9-3,4.1-4.6c0.4-0.5-0.2-1.1-0.7-0.7c-1.4,1.5-2.7,3.1-4,4.7C14.4,80.1,14.9,80.6,15.3,80.3   L15.3,80.3z"></path>	</g>	<g>		<path d="M25.6,90.2c0.5-2.6,1.6-4.9,3.2-7c0.5-0.7-0.4-1.6-0.9-0.9c-1.8,2.2-3,4.8-3.4,7.6C24.3,90.7,25.5,91,25.6,90.2L25.6,90.2   z"></path>	</g>	<g>		<path d="M40,94c-0.3-1.8-0.6-3.7-0.9-5.5c-0.2-0.8-1.4-0.5-1.2,0.3c0.3,1.8,0.6,3.7,1,5.5C38.9,95.2,40.1,94.8,40,94L40,94z"></path>	</g>	<g>		<path d="M55.1,94.1c-0.6-1.4-1.1-2.9-1.8-4.3c-0.3-0.6-1.3-0.2-1.1,0.4c0.5,1.5,1.2,2.9,1.9,4.3C54.3,95.1,55.3,94.7,55.1,94.1   L55.1,94.1z"></path>	</g>	<g>		<path d="M70.2,95.8c-1.5-3.1-2.9-6.3-4.5-9.3c-0.4-0.7-1.3-0.1-1,0.6c1.4,3.1,3,6.2,4.5,9.3C69.5,97.1,70.5,96.5,70.2,95.8   L70.2,95.8z"></path>	</g>	<g>		<path d="M77.6,86.4c-1.1-1.3-2.1-2.5-3.3-3.7c-0.6-0.6-1.4,0.3-0.9,0.9c1,1.3,2.1,2.5,3.2,3.7C77.3,87.9,78.1,87,77.6,86.4   L77.6,86.4z"></path>	</g>	<g>		<path d="M91.3,73.9c-1.7-0.9-3.4-2-5.3-2.7c-0.6-0.2-0.9,0.7-0.4,1c1.6,1.1,3.4,1.9,5.1,2.8C91.3,75.3,92,74.3,91.3,73.9   L91.3,73.9z"></path>	</g>	<g>		<path d="M97.4,62.7c-2.5,0.1-4.8-0.4-7.2-0.9c-0.8-0.2-1.1,0.9-0.3,1.3c2.3,1,5.1,1.1,7.6,0.8C98.2,63.8,98.2,62.7,97.4,62.7   L97.4,62.7z"></path>	</g>	<g>		<path d="M96.5,45.2c-2,0.1-4.2,0-6.1,0.6c-0.6,0.2-0.4,0.9,0.1,1c2,0.2,4-0.2,6-0.4C97.2,46.3,97.3,45.1,96.5,45.2L96.5,45.2z"></path>	</g>	<g>		<path d="M94.2,26.9c-1.8,1.8-3.9,2.9-6.2,3.8c-0.9,0.4-0.6,1.8,0.4,1.5c2.6-0.8,4.9-2.5,6.7-4.4C95.7,27.3,94.8,26.3,94.2,26.9   L94.2,26.9z"></path>	</g>	<g>		<path d="M84.1,18.1c-0.7,1-1.5,2-2.3,3c-0.6,0.7,0.5,1.5,1,0.8c0.7-1.1,1.3-2.2,2.1-3.3C85.2,18,84.5,17.6,84.1,18.1L84.1,18.1z"></path>	</g>	<g>		<path d="M74.6,10.9c-0.9,1.3-1.6,2.8-1.8,4.4c-0.1,0.8,1.1,1.2,1.3,0.3c0.3-1.5,0.7-2.9,1.6-4.2C76.1,10.8,75,10.2,74.6,10.9   L74.6,10.9z"></path>	</g>	<g>		<path d="M59,6.8c-0.3,1.6-0.8,3.3-0.8,5c0,0.6,0.8,0.6,0.9,0.1c0.5-1.5,0.6-3.2,0.9-4.8C60.1,6.4,59.1,6.1,59,6.8L59,6.8z"></path>	</g>	<g>		<path d="M47.9,3.8c0,1.8-0.1,3.6-0.1,5.4c0,0.8,1.2,0.8,1.2,0c0-1.8-0.1-3.6-0.1-5.4C48.9,3.1,47.9,3.1,47.9,3.8L47.9,3.8z"></path>	</g>	<g>		<path d="M34.7,8.3c0.1,1.9,0.4,3.8,1,5.6c0.3,0.8,1.5,0.5,1.3-0.4c-0.5-1.7-0.9-3.5-1.1-5.3C35.8,7.6,34.7,7.6,34.7,8.3L34.7,8.3z   "></path>	</g>	<g>		<path d="M22.8,8.7c0.4,2.1,1.4,4.1,2.9,5.7c0.5,0.6,1.4-0.3,0.9-0.9c-1.3-1.5-2.2-3.2-2.8-5.1C23.6,7.8,22.7,8.1,22.8,8.7   L22.8,8.7z"></path>	</g></g></svg>