<svg xmlns="http://www.w3.org/2000/svg" xmlns:xlink="http://www.w3.org/1999/xlink" x="0px" y="0px" viewBox="0 0 100 100" style="enable-background:new 0 0 100 100;" xml:space="preserve"><style type="text/css">	.r0{fill:#FF6841;}	.r1{fill:#FFC1A7;}	.r2{fill:#E6EAEC;}	.r3{fill:#FF986D;}	.r4{fill:#0A6375;}	.r5{fill:#A9C1CC;}	.r6{fill:#AA532E;}</style><g>	<path class="r0" d="M36.9,72.7C36.9,72.8,36.9,72.8,36.9,72.7c-2.4,2.1-4.8,4.3-7.1,6.4c-0.2,0.1,0,0.4,0.2,0.3  c1.9-0.7,3.9-1.5,5.8-2.3c-0.7,0.9-1.5,1.7-2.1,2.6c-0.8,1.1-1.6,2.1-2.3,3.3c-1.4,2.2-2.6,4.5-3.7,6.9c-0.6,1.4-1.1,2.8-1.6,4.2  c-0.1,0.2,0.2,0.4,0.4,0.2c3.2-4,6.7-7.7,10.4-11.1c0.9-0.9,1.9-1.7,2.8-2.6c-1,2.1-1.9,4.2-2.5,6.4c-0.7,2.3-1.3,4.7-1.6,7.1  c-0.2,1.4-0.3,2.8-0.4,4.1c0,0.2,0.2,0.2,0.3,0.1c2.4-4.2,4.6-8.6,6.5-13.1c0.4-1,0.8-2,1.3-3.1c0.2,3.5,0.8,6.9,1.9,10.2  c0.1,0.2,0.4,0.2,0.4-0.1c0.9-4.2,1.5-8.4,1.7-12.7c0-1,0.1-1.9,0.1-2.9c-2.7-0.2-5.3-1-7.7-2.3C38.6,74,37.8,73.4,36.9,72.7z"></path>	<path class="r1" d="M43.9,30.6c-1,0.2-1.9,0.4-2.8,0.7c-1.8,0.6-3.6,1.3-5.2,2.4c-3.1,2-5.6,4.9-7.1,8.2c-0.8,1.8-1.4,3.8-1.6,5.8  c0,0.3,0.3,0.4,0.5,0.3c3.2-1.9,6.9-2.8,10.7-2.9c0.4,0,0.7,0,1.1,0c0.8-3.8,1.8-7.5,3.2-11.2C43,32.8,43.4,31.7,43.9,30.6z"></path>	<path class="r1" d="M72.5,45c-0.7-1.8-1.8-3.4-3-4.9c-0.4-0.5-0.8-1-1.2-1.5c-0.4,1.9-0.9,3.8-1.5,5.7c-0.9,2.9-1.9,5.7-3.1,8.5  c0.1,0.1,0.2,0.1,0.3,0.2c3,2.1,5.5,5.1,7.1,8.4c0.1,0.2,0.4,0.3,0.5,0c1-1.8,1.6-3.7,2-5.7C74.3,52.2,73.9,48.4,72.5,45z"></path>	<path class="r2" d="M68.3,38.6c0.6-2.6,1-5.2,1.4-7.8c0.6-4.6,0.7-9.2,0.5-13.8c0-0.7-0.1-1.3-0.1-2c-0.9,0.4-1.9,0.7-2.9,0.8  c-4.1,0.5-7.9-1.5-10.1-4.9c-3,3.2-5.8,6.8-8.1,10.5c-1.8,2.9-3.5,6-4.8,9.1c-0.5,1.1-1,2.2-1.4,3.4c-1.4,3.6-2.4,7.4-3.2,11.2  c-0.2,1-0.4,2.1-0.6,3.1c-0.7,4.8-1,9.8-0.7,14.6c0,0.3,0,0.7,0.1,1c0.1,0,0.1,0,0.1,0.1c0.8,1,1.7,1.8,2.7,2.5  c3.8,2.8,9,3.6,13.5,1.9c0.1,0,0.1,0,0.2,0c2.6-3.5,4.9-7.3,6.9-11.2c0.7-1.4,1.4-2.9,2-4.4c1.2-2.8,2.2-5.6,3.1-8.5  C67.4,42.4,67.8,40.5,68.3,38.6z M66.6,34.5c0,0.1,0,0.2,0,0.3c0,0.1-0.1,0.2-0.1,0.3c-0.1,0.1-0.1,0.2-0.2,0.2  c-0.1,0.1-0.2,0.1-0.3,0.1c-0.1,0-0.3,0-0.4-0.1c-0.1,0-0.1-0.1-0.2-0.1c-0.1-0.1-0.2-0.2-0.3-0.3c0-0.1,0-0.1-0.1-0.2  c0-0.1,0-0.2,0-0.3c0-0.1,0.1-0.2,0.1-0.3c0.1-0.1,0.1-0.2,0.2-0.2c0.1-0.1,0.2-0.1,0.3-0.1c0.1,0,0.3,0,0.4,0.1  c0.1,0,0.1,0.1,0.2,0.1c0.1,0.1,0.2,0.2,0.3,0.3L66.6,34.5z M64.8,30.9c0-0.1,0.1-0.2,0.1-0.3c0.1-0.1,0.1-0.1,0.2-0.2  c0.1-0.1,0.2-0.1,0.3-0.1c0.1,0,0.3,0,0.4,0.1c0.1,0,0.1,0.1,0.2,0.1c0.1,0.1,0.2,0.2,0.2,0.3c0,0.1,0,0.1,0.1,0.2  c0,0.1,0,0.2,0,0.3c0,0.1-0.1,0.2-0.1,0.3c-0.1,0.1-0.1,0.1-0.2,0.2c-0.1,0.1-0.2,0.1-0.3,0.1c-0.1,0-0.3,0-0.4-0.1  c-0.1,0-0.1-0.1-0.2-0.1c-0.1-0.1-0.2-0.2-0.2-0.3c0-0.1,0-0.1-0.1-0.2C64.8,31.1,64.8,31,64.8,30.9z M62.5,27.1  c0-0.1,0.1-0.2,0.1-0.3c0.1-0.1,0.1-0.1,0.2-0.2c0.1-0.1,0.2-0.1,0.3-0.1c0.1,0,0.3,0,0.4,0.1c0.1,0,0.1,0.1,0.2,0.1  c0.1,0.1,0.2,0.2,0.2,0.3c0,0.1,0,0.1,0.1,0.2c0,0.1,0,0.2,0,0.3c0,0.1-0.1,0.2-0.1,0.3c-0.1,0.1-0.1,0.1-0.2,0.2  c-0.1,0.1-0.2,0.1-0.3,0.1c-0.1,0-0.3,0-0.4-0.1c-0.1,0-0.1-0.1-0.2-0.1c-0.1-0.1-0.2-0.2-0.2-0.3c0-0.1,0-0.1-0.1-0.2  C62.4,27.3,62.4,27.2,62.5,27.1z M60.4,25c0-0.1,0.1-0.2,0.1-0.3c0.1-0.1,0.1-0.1,0.2-0.2c0.1-0.1,0.2-0.1,0.3-0.1  c0.1,0,0.3,0,0.4,0.1c0.1,0,0.1,0.1,0.2,0.1c0.1,0.1,0.2,0.2,0.2,0.3l0,0.2c0,0.1,0,0.2,0,0.3c0,0.1-0.1,0.2-0.1,0.3  c-0.1,0.1-0.1,0.1-0.2,0.2c-0.1,0.1-0.2,0.1-0.3,0.1c-0.1,0-0.3,0-0.4-0.1c-0.1,0-0.1-0.1-0.2-0.1c-0.1-0.1-0.2-0.2-0.2-0.3l0-0.2  C60.3,25.2,60.3,25.1,60.4,25z M57.3,23.9c0-0.1,0.1-0.2,0.1-0.3c0.1-0.1,0.1-0.1,0.2-0.2c0.1-0.1,0.2-0.1,0.3-0.1  c0.1,0,0.3,0,0.4,0.1c0.1,0,0.1,0.1,0.2,0.1c0.1,0.1,0.2,0.2,0.2,0.3c0,0.1,0,0.1,0.1,0.2c0,0.1,0,0.2,0,0.3c0,0.1-0.1,0.2-0.1,0.3  c-0.1,0.1-0.1,0.1-0.2,0.2c-0.1,0.1-0.2,0.1-0.3,0.1c-0.1,0-0.3,0-0.4-0.1c-0.1,0-0.1-0.1-0.2-0.1c-0.1-0.1-0.2-0.2-0.2-0.3  c0-0.1,0-0.1-0.1-0.2C57.2,24.1,57.2,24,57.3,23.9z M54.5,23.5c0.4-0.1,0.8,0.3,0.8,0.7c0.1,0.4-0.3,0.8-0.7,0.8  c-0.4,0.1-0.8-0.3-0.8-0.7C53.8,24,54.1,23.6,54.5,23.5z M51.2,25.1c0-0.1,0.1-0.2,0.1-0.3c0.1-0.1,0.1-0.2,0.2-0.2  c0.1-0.1,0.2-0.1,0.3-0.1c0.1,0,0.3,0,0.4,0.1c0.1,0,0.1,0.1,0.2,0.1c0.1,0.1,0.2,0.2,0.3,0.3c0,0.1,0,0.1,0.1,0.2  c0,0.1,0,0.2,0,0.3c0,0.1-0.1,0.2-0.1,0.3c-0.1,0.1-0.1,0.2-0.2,0.2c-0.1,0.1-0.2,0.1-0.3,0.1c-0.1,0-0.3,0-0.4-0.1  c-0.1,0-0.1-0.1-0.2-0.1c-0.1-0.1-0.2-0.2-0.3-0.3c0-0.1,0-0.1-0.1-0.2C51.1,25.3,51.1,25.2,51.2,25.1z M48.5,27.7  c0-0.1,0.1-0.2,0.1-0.3c0.1-0.1,0.1-0.2,0.2-0.2c0.1-0.1,0.2-0.1,0.3-0.1c0.1,0,0.3,0,0.4,0.1l0.2,0.1c0.1,0.1,0.2,0.2,0.2,0.3  c0,0.1,0,0.1,0.1,0.2c0,0.1,0,0.2,0,0.3c0,0.1-0.1,0.2-0.1,0.3c-0.1,0.1-0.1,0.2-0.2,0.2c-0.1,0.1-0.2,0.1-0.3,0.1  c-0.1,0-0.3,0-0.4-0.1c-0.1,0-0.1-0.1-0.2-0.1c-0.1-0.1-0.2-0.2-0.2-0.3c0-0.1,0-0.1-0.1-0.2C48.5,27.9,48.5,27.8,48.5,27.7z   M55.9,26c4.9-0.3,9.3,3.9,8.7,8.9c-0.5,4.6-5,8.1-9.6,7.1c-1.1-0.2-2.1-0.7-2.9-1.3c-1.4-0.9-2.5-2.2-3.2-3.9  C47.1,31.9,50.7,26.3,55.9,26z M63.7,40.9c0,0.1-0.1,0.2-0.1,0.3c-0.1,0.1-0.1,0.2-0.2,0.2c-0.1,0.1-0.2,0.1-0.3,0.1  c-0.1,0-0.3,0-0.4-0.1c-0.1,0-0.1-0.1-0.2-0.1c-0.1-0.1-0.2-0.2-0.3-0.3c0-0.1,0-0.1-0.1-0.2c0-0.1,0-0.2,0-0.3  c0-0.1,0.1-0.2,0.1-0.3c0.1-0.1,0.1-0.2,0.2-0.2c0.1-0.1,0.2-0.1,0.3-0.1c0.1,0,0.3,0,0.4,0.1c0.1,0,0.1,0.1,0.2,0.1  c0.1,0.1,0.2,0.2,0.3,0.3c0,0.1,0,0.1,0.1,0.2C63.7,40.7,63.7,40.8,63.7,40.9z M55.2,44.2c0,0.1,0,0.2,0,0.3c0,0.1-0.1,0.2-0.1,0.3  c-0.1,0.1-0.1,0.2-0.2,0.2c-0.1,0.1-0.2,0.1-0.3,0.1c-0.1,0-0.3,0-0.4-0.1c-0.1,0-0.1-0.1-0.2-0.1c-0.1-0.1-0.2-0.2-0.2-0.3  l-0.1-0.2c0-0.1,0-0.2,0-0.3c0-0.1,0.1-0.2,0.1-0.3c0.1-0.1,0.1-0.2,0.2-0.2c0.1-0.1,0.2-0.1,0.3-0.1c0.1,0,0.3,0,0.4,0.1l0.2,0.1  c0.1,0.1,0.2,0.2,0.2,0.3C55.1,44,55.1,44.1,55.2,44.2z M52,43.1c0,0.1,0,0.2,0,0.3c0,0.1-0.1,0.2-0.1,0.3  c-0.1,0.1-0.1,0.2-0.2,0.2C51.5,44,51.4,44,51.3,44c-0.1,0-0.3,0-0.4-0.1c-0.1,0-0.1-0.1-0.2-0.1c-0.1-0.1-0.2-0.2-0.2-0.3  c0-0.1,0-0.1-0.1-0.2c0-0.1,0-0.2,0-0.3c0-0.1,0.1-0.2,0.1-0.3c0.1-0.1,0.1-0.2,0.2-0.2c0.1-0.1,0.2-0.1,0.3-0.1  c0.1,0,0.3,0,0.4,0.1c0.1,0,0.1,0.1,0.2,0.1c0.1,0.1,0.2,0.2,0.2,0.3C52,43,52,43,52,43.1z M48.7,40.3c0.1,0,0.1,0,0.2,0  c0.1,0,0.2,0,0.3,0.1c0.1,0,0.2,0.1,0.2,0.2c0,0,0,0,0,0c0.1,0.1,0.1,0.2,0.2,0.4c0,0.1,0,0.2,0,0.3c0,0.1-0.1,0.2-0.1,0.3  c-0.1,0.1-0.1,0.2-0.2,0.2c-0.1,0.1-0.2,0.1-0.3,0.1c-0.1,0-0.3,0-0.4-0.1c-0.1,0-0.1-0.1-0.2-0.1c-0.1-0.1-0.2-0.2-0.2-0.3  c0,0,0,0,0,0C48,41.3,48,41.1,48,41c0-0.1,0-0.1,0.1-0.2c0-0.1,0.1-0.2,0.2-0.2c0-0.1,0.1-0.1,0.2-0.1  C48.5,40.4,48.6,40.3,48.7,40.3z M48.2,37.3c0.1,0.1,0.1,0.2,0.2,0.4c0,0.1,0,0.2,0,0.3c0,0.1-0.1,0.2-0.1,0.3  c-0.1,0.1-0.1,0.2-0.2,0.2c-0.1,0.1-0.2,0.1-0.3,0.1c-0.1,0-0.3,0-0.4-0.1c-0.1,0-0.1-0.1-0.2-0.1c-0.1-0.1-0.2-0.2-0.2-0.3  c0,0,0,0,0,0c-0.1-0.1-0.1-0.3-0.1-0.4c0-0.1,0-0.1,0.1-0.2c0-0.1,0.1-0.2,0.2-0.2c0-0.1,0.1-0.1,0.2-0.1c0.1-0.1,0.2-0.1,0.3-0.1  c0.1,0,0.1,0,0.2,0c0.1,0,0.2,0,0.3,0.1C48.1,37.2,48.1,37.3,48.2,37.3C48.2,37.3,48.2,37.3,48.2,37.3z M46.6,34.2  c0-0.1,0.1-0.2,0.1-0.3c0.1-0.1,0.1-0.1,0.2-0.2c0.1-0.1,0.2-0.1,0.3-0.1c0.1,0,0.3,0,0.4,0.1l0.2,0.1c0.1,0.1,0.2,0.2,0.2,0.3  c0,0.1,0,0.1,0.1,0.2c0,0.1,0,0.2,0,0.3c0,0.1-0.1,0.2-0.1,0.3c-0.1,0.1-0.1,0.1-0.2,0.2c-0.1,0.1-0.2,0.1-0.3,0.1  c-0.1,0-0.3,0-0.4-0.1c-0.1,0-0.1-0.1-0.2-0.1c-0.1-0.1-0.2-0.2-0.2-0.3c0-0.1,0-0.1-0.1-0.2C46.5,34.4,46.5,34.3,46.6,34.2z   M47.3,30.1c0.1,0,0.3,0,0.4,0.1c0.1,0,0.1,0.1,0.2,0.1c0.1,0.1,0.2,0.2,0.2,0.3c0,0.1,0,0.1,0.1,0.2c0,0.1,0,0.2,0,0.3  c0,0.1-0.1,0.2-0.1,0.3c-0.1,0.1-0.1,0.1-0.2,0.2c-0.1,0.1-0.2,0.1-0.3,0.1c-0.1,0-0.3,0-0.4-0.1c-0.1,0-0.1-0.1-0.2-0.1  c-0.1-0.1-0.2-0.2-0.2-0.3c0-0.1,0-0.1-0.1-0.2c0-0.1,0-0.2,0-0.3c0-0.1,0.1-0.2,0.1-0.3c0.1-0.1,0.1-0.1,0.2-0.2  C47.1,30.2,47.2,30.1,47.3,30.1z M56.2,56.8c-0.9,3.1-4.1,5.3-7.3,5c-3.2-0.3-5.9-3.2-6.3-6.3c-0.6-4.9,3.5-7,5.1-7.4  c1.7-0.4,3.6-0.3,5.1,0.6C55.5,50.3,57,53.8,56.2,56.8z M58.3,44.3c0,0.1-0.1,0.2-0.1,0.3c-0.1,0.1-0.1,0.2-0.2,0.2  c-0.1,0.1-0.2,0.1-0.3,0.1c-0.1,0-0.3,0-0.4-0.1c-0.1,0-0.1-0.1-0.2-0.1c-0.1-0.1-0.2-0.2-0.3-0.3c0-0.1,0-0.1-0.1-0.2  c0-0.1,0-0.2,0-0.3c0-0.1,0.1-0.2,0.1-0.3c0.1-0.1,0.1-0.2,0.2-0.2c0.1-0.1,0.2-0.1,0.3-0.1c0.1,0,0.3,0,0.4,0.1  c0.1,0,0.1,0.1,0.2,0.1c0.1,0.1,0.2,0.2,0.3,0.3c0,0.1,0,0.1,0.1,0.2C58.3,44.1,58.3,44.2,58.3,44.3z M60.6,43.7  c-0.1,0-0.3,0-0.4-0.1c-0.1,0-0.1-0.1-0.2-0.1c-0.1-0.1-0.2-0.2-0.3-0.3c0-0.1,0-0.1-0.1-0.2c0-0.1,0-0.2,0-0.3  c0-0.1,0.1-0.2,0.1-0.3c0.1-0.1,0.1-0.2,0.2-0.2c0.1-0.1,0.2-0.1,0.3-0.1c0.1,0,0.3,0,0.4,0.1c0.1,0,0.1,0.1,0.2,0.1  c0.1,0.1,0.2,0.2,0.3,0.3c0,0.1,0,0.1,0.1,0.2c0,0.1,0,0.2,0,0.3c0,0.1-0.1,0.2-0.1,0.3c-0.1,0.1-0.1,0.2-0.2,0.2  C60.8,43.7,60.7,43.7,60.6,43.7z M65.9,37.9c0,0.1-0.1,0.2-0.1,0.3c-0.1,0.1-0.1,0.2-0.2,0.2c-0.1,0.1-0.2,0.1-0.3,0.1  c-0.1,0-0.3,0-0.4-0.1c-0.1,0-0.1-0.1-0.2-0.1c-0.1-0.1-0.2-0.2-0.2-0.3c0-0.1,0-0.1-0.1-0.2c0-0.1,0-0.2,0-0.3  c0-0.1,0.1-0.2,0.1-0.3c0.1-0.1,0.1-0.2,0.2-0.2c0.1-0.1,0.2-0.1,0.3-0.1c0.1,0,0.3,0,0.4,0.1c0.1,0,0.1,0.1,0.2,0.1  c0.1,0.1,0.2,0.2,0.2,0.3c0,0.1,0,0.1,0.1,0.2C66,37.7,66,37.8,65.9,37.9z"></path>	<path class="r3" d="M51,49.6c-1.2-0.4-2.6-0.3-3.8,0.2c-0.5,0.2-0.9,0.4-1.2,0.7c-1.8,1.5-2.8,3.8-2.1,6.2  c0.8,2.6,3.5,4.3,6.2,3.8c2.5-0.4,4.6-2.6,4.8-5.2C55,52.8,53.4,50.3,51,49.6z"></path>	<path class="r4" d="M52.1,40.7c0.8,0.6,1.8,1,2.9,1.3c4.6,1,9.1-2.4,9.6-7.1c0.6-5-3.8-9.3-8.7-8.9c-5.2,0.3-8.8,6-7,10.8  C49.6,38.5,50.7,39.8,52.1,40.7z"></path>	<path class="r5" d="M51.4,25.9c0.1,0,0.1,0.1,0.2,0.1c0.1,0.1,0.3,0.1,0.4,0.1c0.1,0,0.2,0,0.3-0.1c0.1,0,0.2-0.1,0.2-0.2  c0.1-0.1,0.1-0.2,0.1-0.3c0-0.1,0.1-0.2,0-0.3c0-0.1,0-0.1-0.1-0.2c-0.1-0.1-0.1-0.2-0.3-0.3c-0.1,0-0.1-0.1-0.2-0.1  c-0.1-0.1-0.3-0.1-0.4-0.1c-0.1,0-0.2,0-0.3,0.1c-0.1,0-0.2,0.1-0.2,0.2c-0.1,0.1-0.1,0.2-0.1,0.3c0,0.1-0.1,0.2,0,0.3  c0,0.1,0,0.1,0.1,0.2C51.2,25.7,51.3,25.9,51.4,25.9z"></path>	<path class="r5" d="M54.7,25c0.4,0,0.7-0.4,0.7-0.8c-0.1-0.4-0.4-0.7-0.8-0.7c-0.4,0-0.7,0.4-0.7,0.8C53.9,24.8,54.3,25.1,54.7,25  z"></path>	<path class="r5" d="M57.5,24.8c0.1,0,0.1,0.1,0.2,0.1c0.1,0.1,0.3,0.1,0.4,0.1c0.1,0,0.2,0,0.3-0.1c0.1,0,0.2-0.1,0.2-0.2  c0.1-0.1,0.1-0.2,0.1-0.3c0-0.1,0-0.2,0-0.3c0-0.1,0-0.1-0.1-0.2c-0.1-0.1-0.1-0.2-0.2-0.3c-0.1,0-0.1-0.1-0.2-0.1  c-0.1-0.1-0.3-0.1-0.4-0.1c-0.1,0-0.2,0-0.3,0.1c-0.1,0-0.2,0.1-0.2,0.2c-0.1,0.1-0.1,0.2-0.1,0.3c0,0.1,0,0.2,0,0.3  c0,0.1,0,0.1,0.1,0.2C57.3,24.6,57.4,24.7,57.5,24.8z"></path>	<path class="r5" d="M60.6,25.8c0.1,0,0.1,0.1,0.2,0.1c0.1,0.1,0.3,0.1,0.4,0.1c0.1,0,0.2,0,0.3-0.1c0.1,0,0.2-0.1,0.2-0.2  c0.1-0.1,0.1-0.2,0.1-0.3c0-0.1,0-0.2,0-0.3l0-0.2c0-0.1-0.1-0.2-0.2-0.3c-0.1,0-0.1-0.1-0.2-0.1c-0.1-0.1-0.3-0.1-0.4-0.1  c-0.1,0-0.2,0-0.3,0.1c-0.1,0-0.2,0.1-0.2,0.2c-0.1,0.1-0.1,0.2-0.1,0.3c0,0.1,0,0.2,0,0.3l0,0.2C60.4,25.6,60.5,25.7,60.6,25.8z"></path>	<path class="r5" d="M62.7,27.9c0.1,0,0.1,0.1,0.2,0.1c0.1,0.1,0.3,0.1,0.4,0.1c0.1,0,0.2,0,0.3-0.1c0.1,0,0.2-0.1,0.2-0.2  c0.1-0.1,0.1-0.2,0.1-0.3c0-0.1,0-0.2,0-0.3c0-0.1,0-0.1-0.1-0.2c-0.1-0.1-0.1-0.2-0.2-0.3c-0.1,0-0.1-0.1-0.2-0.1  c-0.1-0.1-0.3-0.1-0.4-0.1c-0.1,0-0.2,0-0.3,0.1c-0.1,0-0.2,0.1-0.2,0.2c-0.1,0.1-0.1,0.2-0.1,0.3c0,0.1,0,0.2,0,0.3  c0,0.1,0,0.1,0.1,0.2C62.5,27.7,62.6,27.8,62.7,27.9z"></path>	<path class="r5" d="M48.8,28.5c0.1,0,0.1,0.1,0.2,0.1c0.1,0.1,0.3,0.1,0.4,0.1c0.1,0,0.2,0,0.3-0.1c0.1,0,0.2-0.1,0.2-0.2  c0.1-0.1,0.1-0.2,0.1-0.3c0-0.1,0-0.2,0-0.3c0-0.1,0-0.1-0.1-0.2c-0.1-0.1-0.1-0.2-0.2-0.3l-0.2-0.1c-0.1-0.1-0.3-0.1-0.4-0.1  c-0.1,0-0.2,0-0.3,0.1c-0.1,0-0.2,0.1-0.2,0.2c-0.1,0.1-0.1,0.2-0.1,0.3c0,0.1,0,0.2,0,0.3c0,0.1,0,0.1,0.1,0.2  C48.6,28.3,48.7,28.4,48.8,28.5z"></path>	<path class="r5" d="M46.8,30.4c-0.1,0.1-0.1,0.2-0.1,0.3c0,0.1,0,0.2,0,0.3c0,0.1,0,0.1,0.1,0.2c0.1,0.1,0.1,0.2,0.2,0.3  c0.1,0,0.1,0.1,0.2,0.1c0.1,0.1,0.3,0.1,0.4,0.1c0.1,0,0.2,0,0.3-0.1c0.1,0,0.2-0.1,0.2-0.2c0.1-0.1,0.1-0.2,0.1-0.3  c0-0.1,0-0.2,0-0.3c0-0.1,0-0.1-0.1-0.2c-0.1-0.1-0.1-0.2-0.2-0.3c-0.1,0-0.1-0.1-0.2-0.1c-0.1-0.1-0.3-0.1-0.4-0.1  c-0.1,0-0.2,0-0.3,0.1C46.9,30.3,46.8,30.3,46.8,30.4z"></path>	<path class="r5" d="M46.8,35c0.1,0,0.1,0.1,0.2,0.1c0.1,0.1,0.3,0.1,0.4,0.1c0.1,0,0.2,0,0.3-0.1c0.1,0,0.2-0.1,0.2-0.2  c0.1-0.1,0.1-0.2,0.1-0.3c0-0.1,0-0.2,0-0.3c0-0.1,0-0.1-0.1-0.2c-0.1-0.1-0.1-0.2-0.2-0.3l-0.2-0.1c-0.1-0.1-0.3-0.1-0.4-0.1  c-0.1,0-0.2,0-0.3,0.1c-0.1,0-0.2,0.1-0.2,0.2c-0.1,0.1-0.1,0.2-0.1,0.3c0,0.1,0,0.2,0,0.3c0,0.1,0,0.1,0.1,0.2  C46.6,34.8,46.7,34.9,46.8,35z"></path>	<path class="r5" d="M47.7,37c-0.1,0-0.1,0-0.2,0c-0.1,0-0.2,0-0.3,0.1c-0.1,0-0.1,0.1-0.2,0.1c-0.1,0.1-0.1,0.1-0.2,0.2  c0,0.1,0,0.1-0.1,0.2c0,0.1,0,0.3,0.1,0.4c0,0,0,0,0,0c0.1,0.1,0.1,0.2,0.2,0.3c0.1,0,0.1,0.1,0.2,0.1c0.1,0.1,0.3,0.1,0.4,0.1  c0.1,0,0.2,0,0.3-0.1c0.1,0,0.2-0.1,0.2-0.2c0.1-0.1,0.1-0.2,0.1-0.3c0-0.1,0-0.2,0-0.3c0-0.1-0.1-0.3-0.2-0.4c0,0,0,0,0,0  c-0.1-0.1-0.1-0.2-0.2-0.2C47.9,37.1,47.8,37,47.7,37z"></path>	<path class="r5" d="M48.1,40.8c0,0.1,0,0.1-0.1,0.2c0,0.1,0,0.3,0.1,0.4c0,0,0,0,0,0c0.1,0.1,0.1,0.2,0.2,0.3  c0.1,0,0.1,0.1,0.2,0.1c0.1,0.1,0.3,0.1,0.4,0.1c0.1,0,0.2,0,0.3-0.1c0.1,0,0.2-0.1,0.2-0.2c0.1-0.1,0.1-0.2,0.1-0.3  c0-0.1,0-0.2,0-0.3c0-0.1-0.1-0.3-0.2-0.4c0,0,0,0,0,0c-0.1-0.1-0.1-0.2-0.2-0.2c-0.1-0.1-0.2-0.1-0.3-0.1c-0.1,0-0.1,0-0.2,0  c-0.1,0-0.2,0-0.3,0.1c-0.1,0-0.1,0.1-0.2,0.1C48.2,40.6,48.1,40.7,48.1,40.8z"></path>	<path class="r5" d="M51.5,42.5c-0.1-0.1-0.3-0.1-0.4-0.1c-0.1,0-0.2,0-0.3,0.1c-0.1,0-0.2,0.1-0.2,0.2c-0.1,0.1-0.1,0.2-0.1,0.3  c0,0.1,0,0.2,0,0.3c0,0.1,0,0.1,0.1,0.2c0.1,0.1,0.1,0.2,0.2,0.3c0.1,0,0.1,0.1,0.2,0.1C51,44,51.2,44,51.3,44c0.1,0,0.2,0,0.3-0.1  c0.1,0,0.2-0.1,0.2-0.2c0.1-0.1,0.1-0.2,0.1-0.3c0-0.1,0-0.2,0-0.3c0-0.1,0-0.1-0.1-0.2c-0.1-0.1-0.1-0.2-0.2-0.3  C51.7,42.5,51.6,42.5,51.5,42.5z"></path>	<path class="r5" d="M54.7,43.5c-0.1-0.1-0.3-0.1-0.4-0.1c-0.1,0-0.2,0-0.3,0.1c-0.1,0-0.2,0.1-0.2,0.2c-0.1,0.1-0.1,0.2-0.1,0.3  c0,0.1,0,0.2,0,0.3l0.1,0.2c0.1,0.1,0.1,0.2,0.2,0.3c0.1,0,0.1,0.1,0.2,0.1c0.1,0.1,0.3,0.1,0.4,0.1c0.1,0,0.2,0,0.3-0.1  c0.1,0,0.2-0.1,0.2-0.2c0.1-0.1,0.1-0.2,0.1-0.3c0-0.1,0-0.2,0-0.3c0-0.1,0-0.1-0.1-0.2c-0.1-0.1-0.1-0.2-0.2-0.3L54.7,43.5z"></path>	<path class="r5" d="M58,43.5c-0.1,0-0.1-0.1-0.2-0.1c-0.1-0.1-0.3-0.1-0.4-0.1c-0.1,0-0.2,0-0.3,0.1c-0.1,0-0.2,0.1-0.2,0.2  c-0.1,0.1-0.1,0.2-0.1,0.3c0,0.1,0,0.2,0,0.3c0,0.1,0,0.1,0.1,0.2c0.1,0.1,0.1,0.2,0.3,0.3c0.1,0,0.1,0.1,0.2,0.1  c0.1,0.1,0.3,0.1,0.4,0.1c0.1,0,0.2,0,0.3-0.1c0.1,0,0.2-0.1,0.2-0.2c0.1-0.1,0.1-0.2,0.1-0.3c0-0.1,0-0.2,0-0.3  c0-0.1,0-0.1-0.1-0.2C58.2,43.7,58.1,43.6,58,43.5z"></path>	<path class="r5" d="M61.3,43.1c0-0.1,0.1-0.2,0-0.3c0-0.1,0-0.1-0.1-0.2c-0.1-0.1-0.1-0.2-0.3-0.3c-0.1,0-0.1-0.1-0.2-0.1  c-0.1-0.1-0.3-0.1-0.4-0.1c-0.1,0-0.2,0-0.3,0.1c-0.1,0-0.2,0.1-0.2,0.2c-0.1,0.1-0.1,0.2-0.1,0.3c0,0.1-0.1,0.2,0,0.3  c0,0.1,0,0.1,0.1,0.2c0.1,0.1,0.1,0.2,0.3,0.3c0.1,0,0.1,0.1,0.2,0.1c0.1,0.1,0.3,0.1,0.4,0.1c0.1,0,0.2,0,0.3-0.1  c0.1,0,0.2-0.1,0.2-0.2C61.2,43.3,61.3,43.2,61.3,43.1z"></path>	<path class="r5" d="M63.4,40c-0.1,0-0.1-0.1-0.2-0.1c-0.1-0.1-0.3-0.1-0.4-0.1c-0.1,0-0.2,0-0.3,0.1c-0.1,0-0.2,0.1-0.2,0.2  c-0.1,0.1-0.1,0.2-0.1,0.3c0,0.1,0,0.2,0,0.3c0,0.1,0,0.1,0.1,0.2c0.1,0.1,0.1,0.2,0.3,0.3c0.1,0,0.1,0.1,0.2,0.1  c0.1,0.1,0.3,0.1,0.4,0.1c0.1,0,0.2,0,0.3-0.1c0.1,0,0.2-0.1,0.2-0.2c0.1-0.1,0.1-0.2,0.1-0.3c0-0.1,0-0.2,0-0.3  c0-0.1,0-0.1-0.1-0.2C63.6,40.2,63.5,40.1,63.4,40z"></path>	<path class="r5" d="M65.6,37.1c-0.1,0-0.1-0.1-0.2-0.1c-0.1-0.1-0.3-0.1-0.4-0.1c-0.1,0-0.2,0-0.3,0.1c-0.1,0-0.2,0.1-0.2,0.2  c-0.1,0.1-0.1,0.2-0.1,0.3c0,0.1,0,0.2,0,0.3c0,0.1,0,0.1,0.1,0.2c0.1,0.1,0.1,0.2,0.2,0.3c0.1,0,0.1,0.1,0.2,0.1  c0.1,0.1,0.3,0.1,0.4,0.1c0.1,0,0.2,0,0.3-0.1c0.1,0,0.2-0.1,0.2-0.2c0.1-0.1,0.1-0.2,0.1-0.3c0-0.1,0-0.2,0-0.3  c0-0.1,0-0.1-0.1-0.2C65.8,37.3,65.8,37.1,65.6,37.1z"></path>	<path class="r5" d="M66.1,33.9c-0.1-0.1-0.3-0.1-0.4-0.1c-0.1,0-0.2,0-0.3,0.1c-0.1,0-0.2,0.1-0.2,0.2c-0.1,0.1-0.1,0.2-0.1,0.3  c0,0.1-0.1,0.2,0,0.3c0,0.1,0,0.1,0.1,0.2c0.1,0.1,0.1,0.2,0.3,0.3c0.1,0,0.1,0.1,0.2,0.1c0.1,0.1,0.3,0.1,0.4,0.1  c0.1,0,0.2,0,0.3-0.1c0.1,0,0.2-0.1,0.2-0.2c0.1-0.1,0.1-0.2,0.1-0.3c0-0.1,0.1-0.2,0-0.3l-0.1-0.2c-0.1-0.1-0.1-0.2-0.3-0.3  C66.2,33.9,66.2,33.9,66.1,33.9z"></path>	<path class="r5" d="M65.1,31.7c0.1,0,0.1,0.1,0.2,0.1c0.1,0.1,0.3,0.1,0.4,0.1c0.1,0,0.2,0,0.3-0.1c0.1,0,0.2-0.1,0.2-0.2  c0.1-0.1,0.1-0.2,0.1-0.3c0-0.1,0-0.2,0-0.3c0-0.1,0-0.1-0.1-0.2c-0.1-0.1-0.1-0.2-0.2-0.3c-0.1,0-0.1-0.1-0.2-0.1  c-0.1-0.1-0.3-0.1-0.4-0.1c-0.1,0-0.2,0-0.3,0.1c-0.1,0-0.2,0.1-0.2,0.2c-0.1,0.1-0.1,0.2-0.1,0.3c0,0.1,0,0.2,0,0.3  c0,0.1,0,0.1,0.1,0.2C64.9,31.5,65,31.6,65.1,31.7z"></path>	<path class="r4" d="M67.1,15.8c1-0.1,2-0.4,2.9-0.8c-0.3-3.9-0.9-7.8-1.8-11.7c-0.1-0.6-0.3-1.1-0.4-1.7c-0.1-0.3-0.6,0-0.6,0.2  c-3.7,2.6-7.1,5.6-10.2,8.9c-0.1,0.1-0.1,0.1-0.1,0.2C59.1,14.3,63,16.3,67.1,15.8z"></path>	<path class="r1" d="M54.5,68.4c-4.5,1.7-9.7,0.9-13.5-1.9c-1-0.7-1.9-1.6-2.7-2.5c0,0-0.1-0.1-0.1-0.1c-0.1,0-0.3,0.1-0.4,0.2  c-2,0.9-4.9,4.5-4.8,4.7c1.1,1.5,2.4,2.8,3.9,4c0.8,0.7,1.7,1.3,2.7,1.8c2.4,1.3,5,2.1,7.7,2.3c0.5,0,1,0.1,1.4,0.1  c1.9,0,3.7-0.2,5.5-0.6c0.1,0,0.1,0,0.2-0.1c0.2,0,0.3-0.1,0.4-0.2c0.8-2.3,0.8-4.8,0.1-7.2c0-0.1,0-0.2,0-0.3c0,0,0-0.1,0-0.1  c0,0-0.1,0-0.1-0.1C54.7,68.4,54.6,68.4,54.5,68.4z"></path>	<path class="r6" d="M52.8,48.8c-1.6-0.9-3.4-1-5.1-0.6c-1.6,0.4-5.7,2.6-5.1,7.4c0.4,3.1,3.1,6,6.3,6.3c3.2,0.3,6.4-1.9,7.3-5  C57,53.8,55.5,50.3,52.8,48.8z M50.1,60.4c-2.7,0.4-5.3-1.3-6.2-3.8c-0.8-2.3,0.3-4.7,2.1-6.2c0.4-0.3,0.8-0.5,1.2-0.7  c1.2-0.5,2.5-0.6,3.8-0.2c2.4,0.7,4,3.3,3.9,5.7C54.8,57.8,52.6,60,50.1,60.4z"></path></g></svg>