<svg xmlns="http://www.w3.org/2000/svg" xmlns:xlink="http://www.w3.org/1999/xlink" x="0px" y="0px" viewBox="0 0 100 100" style="enable-background:new 0 0 100 100;" xml:space="preserve"><style type="text/css">	.sasser_svg_0{fill:#EC9A99;}	.sasser_svg_1{fill:#FFC49A;}	.sasser_svg_2{fill:#FF6841;}	.sasser_svg_3{fill:#C2BBA9;}</style><g>	<g>		<g>			<path class="sasser_svg_0" d="M73.7,61.7c-2.1-11.2-5.5-25-17.9-29c-10.5-3.4-21.9,2.6-26.6,12.1c-2.8,5.8-3.5,12.3-2.4,18.5    c0,0.3,0.1,0.5,0.2,0.6c0,0.6,0.4,1.2,1.2,1.4c14.5,2.6,29.3,2.2,43.6-1.2c0.5-0.1,0.8-0.4,1-0.7C73.4,63.2,73.8,62.5,73.7,61.7z    "></path>			<path class="sasser_svg_1" d="M33.5,87.6c0.5-5.8,1-11.6,1.6-17.4c0.2-2.2-3.2-2.2-3.4,0c-0.5,5.7-1,11.3-1.5,17c-1.6,0.6-2.6,2.2-2.6,3.8    c0,0.4,0,0.8,0.2,1.3c0,0,0,0,0,0.1c0,0,0,0,0,0c0.1,0.2,0.2,0.5,0.3,0.7c0.1,0.2,0.2,0.4,0.4,0.5c1.7,2.1,5.3,1.7,6.7-0.6    C36.1,91.1,35.2,88.7,33.5,87.6z"></path>			<path class="sasser_svg_1" d="M54.9,89.1c-0.1,0-0.1-0.1-0.2-0.1c-0.4-5.9-0.7-11.8-1.1-17.8c-0.1-2.2-3.5-2.2-3.4,0    c0.4,6,0.7,11.9,1.1,17.9c-0.3,0.2-0.6,0.4-0.9,0.7c-2.1,2.3-0.4,6.1,2.7,6c1.5,0,3-1.1,3.4-2.6C57,91.6,56.2,90,54.9,89.1z"></path>			<path class="sasser_svg_1" d="M77,85c-0.5-0.4-1.1-0.6-1.7-0.7c-1.6-6.4-3.1-12.8-4.7-19.3c-0.5-2.1-3.8-1.2-3.3,0.9    c1.6,6.5,3.2,13.1,4.8,19.6c-0.1,0.2-0.1,0.5-0.1,0.7c-0.6,1-0.8,2.2-0.1,3.4c1.5,2.6,5.5,2.2,6.4-0.6C78.8,87.6,78.3,85.9,77,85    z"></path>			<path class="sasser_svg_2" d="M87.1,62.4c-0.1-2.5-2.1-4.2-4.4-5c-2.9-1-6.2-1.3-9.3-1.7c-3.3-0.4-6.7-0.7-10.1-0.9    c-8.5-0.4-17,0.1-25.3,1.5c-3.6,0.2-7.2,0.8-10.7,1.8c-2.3,0.6-5.3,1.5-8,2.8c-0.3,0.1-0.7,0.2-1,0.3c-0.5,0.2-0.8,0.4-1,0.8    c-2,1.2-3.5,2.8-4.1,4.8c-1.8,5.7,5.1,7.4,9.5,7.9c6.8,0.8,13.8,1.1,20.7,0.9c6.9-0.2,13.9-0.9,20.7-2.2    c3.4-0.6,6.8-1.3,10.1-2.2c3-0.8,6.4-1.4,9.2-3C85.5,67.2,87.2,65,87.1,62.4z"></path>		</g>		<path class="sasser_svg_2" d="M45.6,27.3c-0.6-1.5-1.2-3-1.9-4.5c0.2-0.2,0.4-0.5,0.5-0.9c0.4-1.3-0.6-2.9-2-2.8c-0.7,0-1.3,0.3-1.7,0.9   c-0.2,0.3-0.4,0.8-0.4,1.2c-0.1,0.4-0.1,0.8,0.1,1.1c0.4,0.8,1.3,1.2,2.1,1.1c0.2,0,0.3-0.1,0.5-0.1c0.6,1.4,1.3,2.9,1.9,4.3   c0.7,1.6,1.3,3.6,2.5,5c0.1,0.1,0.2,0,0.2-0.1C47.3,30.7,46.3,28.9,45.6,27.3z"></path>		<path class="sasser_svg_2" d="M52.7,18.7c-0.2-0.2-0.5-0.4-0.8-0.5c-0.3-0.3-0.8-0.4-1.2-0.2c-0.4,0.1-0.7,0.2-1,0.5   c-0.3,0.2-0.5,0.6-0.7,0.9c-0.3,0.8-0.1,1.8,0.5,2.3c0.2,0.2,0.4,0.3,0.6,0.4c-0.3,1.4-0.4,2.9-0.6,4.2c-0.3,1.8-0.6,3.7-0.5,5.5   c0,0.2,0.2,0.2,0.3,0c0.7-1.9,1.1-3.9,1.4-5.9c0.2-1.2,0.5-2.5,0.7-3.7c0.8-0.1,1.5-0.7,1.7-1.6C53.4,20,53.2,19.2,52.7,18.7z"></path>		<path class="sasser_svg_3 blink1" d="M25.1,64.6c-0.8-1.1-2.4-1.9-3.8-1.4c-2.1,0.2-3.7,2.5-2.9,4.6c0.5,1.5,1.8,2.5,3.4,2.6   c1.4,0.1,2.7-0.7,3.4-1.8C25.8,67.4,25.9,65.7,25.1,64.6z"></path>		<path class="sasser_svg_3 blink2" d="M39.6,64.2c-1.2-1-2.9-1.3-4-0.2c-1.8,1-2,3.6-0.6,5.1c1.8,1.8,4.8,0.8,5.6-1.5C40.9,66.4,40.5,65,39.6,64.2z   "></path>		<path class="sasser_svg_3 blink3" d="M54.9,63.6c-0.9-1.3-2.5-1.9-4-1.3c-1.1,0.5-1.8,1.5-1.8,2.6c-0.3,0.9-0.2,1.9,0.2,2.7c0.6,1.1,2,1.7,3.2,1.5   c1.3-0.2,2.4-1.1,2.8-2.3C55.7,65.7,55.5,64.4,54.9,63.6z"></path>		<path class="sasser_svg_3 blink4" d="M70.1,61.8c-0.9-1.3-2.6-1.8-4.1-1c-0.5,0.3-0.9,0.7-1.1,1.2c-0.6,0.6-0.9,1.4-0.8,2.3   c0.2,1.3,1.1,2.3,2.4,2.6c1.4,0.3,2.9-0.4,3.6-1.6C70.8,64.2,70.8,62.8,70.1,61.8z"></path>		<path class="sasser_svg_3 blink5" d="M82.5,59.8c-0.8-0.9-2.1-1.3-3.3-1c-1.1,0.3-2.1,1.3-2.4,2.5c-0.2,0.8,0,1.6,0.6,2.2c0.1,0.2,0.2,0.5,0.4,0.7   c0.7,0.9,2,1.3,3.2,1c1.1-0.3,2-1.1,2.3-2.2C83.6,61.8,83.3,60.7,82.5,59.8z"></path>	</g>	<path d="M62.9,8.3c-1,0.9-2,2.1-3.4,2.5c0.1-0.4,0.1-0.7-0.1-1.1C59.2,9,58.2,8.5,57.6,9c-0.6,0.5-0.4,1.5,0.1,2  c0.4,0.3,0.8,0.4,1.2,0.3c0,0.1-0.1,0.1-0.1,0.2c-0.4,0.7-0.9,1.3-1.6,1.8c-0.3,0.2-0.7,0.5-1.2,0.6c0.1-0.6,0-1.1-0.5-1.5  c-0.3-0.2-0.8-0.3-1.1,0c-0.3,0.2-0.4,0.6-0.3,1c0.1,0.4,0.4,0.7,0.8,0.8c0.2,0.1,0.4,0.1,0.6,0.1c-0.1,0.3-0.2,0.5-0.3,0.7  c-0.2,0.4-0.4,0.8-0.7,1.1c-0.1,0.2-0.3,0.3-0.4,0.5c-0.1,0.2-0.3,0.3-0.5,0.5c0,0,0,0,0,0c0.2-0.1,0.4-0.3,0.6-0.4  c0.2-0.2,0.4-0.3,0.5-0.5c0.3-0.4,0.5-0.8,0.7-1.2c0.1-0.2,0.2-0.5,0.3-0.8c0.1,0,0.3-0.1,0.4-0.1c0.9-0.4,1.7-1,2.3-1.8  c0.3-0.3,0.5-0.7,0.7-1.1c0.5-0.1,1-0.3,1.3-0.5c1-0.6,1.7-1.4,2.3-2.3C63.2,8.3,63,8.2,62.9,8.3z M55,13.9  c-0.3-0.1-0.6-0.4-0.5-0.8c0.1-0.3,0.3-0.6,0.6-0.5c0.6,0.2,0.7,0.8,0.6,1.4C55.5,14.1,55.3,14.1,55,13.9z M57.6,9.9  c0-0.3,0.1-0.6,0.4-0.7c0.3-0.1,0.6,0,0.8,0.2c0.4,0.3,0.4,0.9,0.3,1.4C58.4,10.9,57.7,10.7,57.6,9.9z"></path>	<path d="M41.1,17.6c-0.8-0.1-1.5-0.4-2.1-0.9c-0.6-0.5-1-1.3-1.1-2c0-0.3,0-0.6,0-0.9c0.3,0.2,0.5,0.2,0.9,0.2c0.4,0,0.9-0.2,1-0.6  c0.2-0.4,0.1-0.8-0.2-1.1c-0.3-0.3-0.8-0.3-1.2-0.1c-0.3,0.2-0.6,0.4-0.7,0.8c-0.1-0.1-0.2-0.3-0.3-0.4c-0.4-0.6-0.6-1.4-0.5-2.2  c0-0.4,0.1-0.9,0.3-1.4c0.2,0.1,0.4,0.2,0.6,0.3c0.4,0.1,0.9-0.1,1.1-0.5c0.2-0.4,0-0.9-0.4-1c-0.6-0.2-1.1,0.1-1.4,0.6  c0,0-0.1-0.1-0.1-0.1c-0.2-0.4-0.4-0.8-0.5-1.3c-0.2-0.9,0-1.8,0.5-2.7c0-0.1-0.1-0.2-0.1-0.1C36.1,5,36,6.1,36.1,7.1  c0.1,0.5,0.3,1.1,0.6,1.6c-0.1,0.2-0.2,0.5-0.3,0.7c-0.3,0.9-0.2,2,0.2,2.9c0.2,0.4,0.4,0.9,0.8,1.2c-0.3,1,0,2.2,0.6,3.1  c0.7,0.9,1.8,1.4,2.9,1.2C41.1,17.8,41.1,17.6,41.1,17.6z M38.3,8.3c0.1,0.3-0.2,0.6-0.5,0.6c-0.2,0-0.4-0.1-0.6-0.2  c0.1-0.1,0.2-0.2,0.3-0.3C37.7,8.2,38.2,8,38.3,8.3z M38.6,12.6c0.2-0.1,0.6-0.1,0.8,0.1c0.3,0.3,0,0.7-0.2,0.8  c-0.4,0.2-0.8,0.1-1.1-0.2C38.1,13.1,38.3,12.8,38.6,12.6z"></path>	<path d="M30.7,54.4c-0.5-0.3-1.1-0.2-1.5,0.2c-0.2,0.3-0.3,0.6-0.2,0.9c0,0.1,0.1,0.3,0.2,0.4c0.1,0.1,0.2,0.2,0.4,0.3  c0,0,0.1,0,0.1,0c0.2,0.1,0.4,0.2,0.6,0.2c0.3,0,0.6-0.2,0.7-0.4C31.3,55.5,31.2,54.8,30.7,54.4z M30.7,55.6c0,0.1-0.1,0.1-0.1,0.2  c-0.1,0.1-0.1,0.1-0.2,0.2c0,0,0,0,0,0c0,0,0,0-0.1,0c0,0-0.1,0-0.1,0c-0.1,0-0.2,0-0.3,0c-0.2-0.1-0.3-0.2-0.4-0.4  c0-0.2,0.1-0.4,0.2-0.6c0,0,0-0.1,0-0.1c0,0,0,0,0.1,0c0,0,0,0,0.1,0c0,0,0,0,0,0c0,0,0,0,0,0c0,0,0,0,0,0c0,0,0.1,0,0.1,0  c0,0,0,0,0,0c0,0,0.1,0,0.1,0c0.1,0,0.2,0,0.2,0c0.1,0,0.1,0.1,0.2,0.1c0.1,0.1,0.1,0.1,0.2,0.2c0,0.1,0.1,0.2,0.1,0.2  C30.7,55.4,30.7,55.5,30.7,55.6z"></path>	<path d="M39,53.7c-0.1-0.2-0.3-0.3-0.5-0.4c-0.2-0.1-0.5-0.1-0.7,0c-0.3,0.1-0.4,0.4-0.5,0.6c0,0.1,0,0.3,0.1,0.4  c0,0.1,0.1,0.2,0.1,0.3c0.3,0.3,0.8,0.4,1.1,0.2c0.2-0.1,0.3-0.3,0.4-0.5C39.1,54.1,39.1,53.9,39,53.7z M38.7,54.2  C38.7,54.2,38.7,54.3,38.7,54.2C38.7,54.3,38.7,54.3,38.7,54.2c0,0.1,0,0.1,0,0.1c0,0,0,0,0,0c0,0,0,0.1-0.1,0.1c0,0,0,0,0,0  c0,0,0,0,0,0c0,0,0,0,0,0c0,0,0,0,0,0c0,0,0,0,0,0c0,0,0,0,0,0c0,0,0,0,0,0c0,0,0,0,0,0c0,0,0,0,0,0c0,0,0,0-0.1,0c0,0,0,0,0,0  c0,0,0,0,0,0c0,0-0.1,0-0.1,0c0,0,0,0,0,0c0,0,0,0-0.1,0c0,0,0,0-0.1,0c0,0,0,0,0,0c0,0,0,0,0,0c0,0,0,0,0,0c0,0,0,0,0,0  c0,0,0,0,0,0c0,0,0,0-0.1-0.1c0-0.1,0-0.1-0.1-0.2c0,0,0,0,0-0.1c0,0,0,0,0,0c0,0,0-0.1,0-0.1c0,0,0,0,0,0c0,0,0,0,0,0  c0,0,0,0,0-0.1c0,0,0,0,0-0.1c0,0,0,0,0,0c0,0,0,0,0-0.1c0,0,0,0,0,0c0,0,0,0,0,0c0,0,0,0,0,0c0,0,0,0,0,0c0,0,0,0,0,0c0,0,0,0,0,0  c0,0,0.1,0,0.1-0.1c0,0,0,0,0,0c0,0,0,0,0,0c0,0,0,0,0.1,0c0,0,0,0,0.1,0c0,0,0,0,0,0c0,0,0,0,0.1,0c0,0,0,0,0,0c0,0,0,0,0,0  c0,0,0.1,0,0.1,0c0,0,0,0,0,0c0,0,0,0,0.1,0c0,0,0,0,0,0c0,0,0,0,0,0c0,0,0,0,0,0c0,0,0,0,0,0c0,0,0,0.1,0.1,0.1c0,0,0,0,0,0  c0,0,0,0,0,0c0,0,0,0.1,0,0.1c0,0,0,0,0,0c0,0,0,0,0,0C38.7,54.2,38.7,54.2,38.7,54.2C38.7,54.2,38.7,54.2,38.7,54.2z"></path>	<path d="M45.8,52.6c-0.2,0-0.5,0.1-0.6,0.2c-0.2,0.2-0.3,0.4-0.2,0.6c0,0,0,0.1,0,0.1c0,0,0,0,0,0.1c0,0.1,0,0.1,0,0.1  c0.1,0.2,0.2,0.3,0.4,0.4c0.2,0.1,0.4,0.1,0.6,0c0.4-0.1,0.7-0.4,0.6-0.8C46.5,53,46.2,52.6,45.8,52.6z M46.1,53.5  C46.1,53.6,46.1,53.6,46.1,53.5C46.1,53.6,46.1,53.6,46.1,53.5C46.1,53.6,46.1,53.6,46.1,53.5C46.1,53.6,46.1,53.6,46.1,53.5  C46,53.6,46,53.6,46.1,53.5C46,53.6,46,53.6,46.1,53.5C46,53.7,46,53.7,46,53.7c0,0,0,0,0,0c0,0,0,0,0,0c0,0-0.1,0-0.1,0.1  c0,0,0,0,0,0c0,0,0,0,0,0c0,0,0,0,0,0c0,0-0.1,0-0.1,0c0,0,0,0,0,0c0,0,0,0,0,0c0,0,0,0,0,0c0,0,0,0,0,0c0,0,0,0,0,0  c0,0-0.1,0-0.1,0c0,0,0,0,0,0c0,0,0,0,0,0c0,0,0,0,0,0c0,0,0,0,0,0c0,0,0,0,0,0c0,0,0,0-0.1-0.1c0,0,0,0,0,0c0,0,0,0,0,0  c0,0,0,0,0,0c0,0,0,0,0,0c0,0,0,0,0,0c0,0,0,0,0-0.1c0,0,0,0,0,0c0,0,0,0,0,0c0,0,0,0,0-0.1c0,0,0,0,0,0c0,0,0-0.1,0.1-0.1  c0,0,0,0,0,0c0,0,0,0,0,0c0,0,0,0,0,0c0,0,0,0,0,0c0,0,0,0,0,0c0,0,0.1,0,0.1-0.1c0,0,0,0,0,0c0,0,0,0,0,0c0,0,0,0,0.1,0  c0,0,0,0,0,0c0,0,0,0,0,0c0,0,0,0,0.1,0c0,0,0,0,0,0c0,0,0,0,0,0c0,0,0.1,0,0.1,0c0,0,0,0,0,0c0,0,0,0,0,0c0,0,0,0,0.1,0  c0,0,0,0,0,0c0,0,0,0,0,0c0,0,0.1,0,0.1,0.1c0,0,0,0,0,0c0,0,0,0,0,0c0,0,0,0,0,0c0,0,0,0,0,0c0,0,0,0,0,0c0,0,0,0.1,0,0.1  c0,0,0,0,0,0c0,0,0,0,0,0C46.1,53.4,46.1,53.4,46.1,53.5C46.1,53.5,46.1,53.5,46.1,53.5C46.1,53.5,46.1,53.5,46.1,53.5  C46.1,53.5,46.1,53.5,46.1,53.5C46.1,53.5,46.1,53.5,46.1,53.5z"></path>	<g>		<path d="M53.6,52.5C53.6,52.5,53.6,52.5,53.6,52.5C53.6,52.5,53.6,52.5,53.6,52.5C53.6,52.5,53.6,52.5,53.6,52.5z"></path>		<path d="M53.8,52.6C53.8,52.6,53.8,52.6,53.8,52.6C53.8,52.6,53.8,52.6,53.8,52.6C53.8,52.6,53.8,52.6,53.8,52.6z"></path>		<path d="M54.3,52.5c-0.1-0.2-0.2-0.3-0.4-0.4c-0.2-0.1-0.4-0.1-0.6,0c-0.1,0-0.2,0.1-0.3,0.2c0,0-0.1,0.1-0.1,0.1c0,0,0,0,0,0   c0,0,0,0,0,0c0,0,0,0,0,0c0,0,0,0.1,0,0.1c0,0,0,0,0,0.1c0,0.1-0.1,0.2-0.1,0.3c0,0.4,0.3,0.7,0.7,0.7c0.4,0,0.8-0.2,0.8-0.6   C54.4,52.9,54.4,52.7,54.3,52.5z M53.9,53C53.9,53,53.9,53,53.9,53C53.9,53.1,53.9,53.1,53.9,53c0,0.1,0,0.1-0.1,0.1c0,0,0,0,0,0   c0,0,0,0,0,0c0,0,0,0,0,0c0,0,0,0,0,0c0,0,0,0,0,0c0,0,0,0,0,0c0,0,0,0,0,0c0,0,0,0,0,0c0,0-0.1,0-0.1,0c0,0,0,0,0,0c0,0,0,0,0,0   c0,0-0.1,0-0.1,0c0,0,0,0,0,0c0,0,0,0,0,0c0,0-0.1,0-0.1,0c0,0,0,0,0,0c0,0,0,0,0,0c0,0,0,0,0,0c0,0,0,0,0,0c0,0,0,0,0,0   c0,0,0,0,0,0c0,0,0,0,0,0c0,0,0-0.1,0-0.1c0,0,0,0,0,0c0,0,0,0,0-0.1c0,0,0,0,0,0c0,0,0,0,0,0c0,0,0,0,0-0.1c0,0,0,0,0,0   c0-0.1,0-0.1,0.1-0.2c0,0,0.1,0,0.1,0c0,0,0.1,0,0.1,0c0,0,0,0,0,0c0,0,0,0,0,0c0,0,0.1,0,0.1,0c0,0,0,0,0,0c0,0,0,0,0,0   c0,0,0,0,0.1,0c0,0,0,0,0,0c0,0,0,0,0,0c0,0,0,0,0,0c0,0,0,0,0,0c0,0,0,0,0,0c0,0,0,0,0,0c0,0,0,0,0,0c0,0,0,0,0,0c0,0,0,0,0,0   c0,0,0,0,0,0c0,0,0,0,0,0c0,0,0,0,0,0c0,0,0,0,0,0c0,0,0,0,0,0c0,0,0,0,0,0c0,0,0,0,0,0c0,0,0,0,0,0c0,0,0,0,0,0c0,0,0,0,0,0   c0,0,0,0,0,0c0,0,0,0,0,0c0,0,0,0.1,0,0.1c0,0,0,0,0,0c0,0,0,0,0,0C53.9,52.9,53.9,52.9,53.9,53C53.9,53,53.9,53,53.9,53   C53.9,53,53.9,53,53.9,53z"></path>	</g>	<path d="M61.1,51.9c-0.2-0.2-0.4-0.3-0.6-0.3c-0.1,0-0.2,0-0.3,0c-0.1,0-0.1,0-0.2,0.1c-0.1,0-0.1,0.1-0.1,0.1c0,0,0,0.1,0,0.1  c-0.1,0.1-0.2,0.2-0.2,0.4c-0.1,0.4,0.2,0.8,0.6,1c0.4,0.2,0.8,0,1.1-0.4C61.5,52.7,61.4,52.2,61.1,51.9z M61,52.7  C61,52.7,61,52.7,61,52.7C61,52.7,61,52.7,61,52.7c0,0.1,0,0.1,0,0.1c0,0,0,0,0,0c0,0,0,0,0,0c0,0,0,0.1-0.1,0.1c0,0,0,0,0,0.1  c0,0,0,0,0,0c0,0,0,0,0,0c0,0,0,0,0,0c-0.1,0-0.1,0.1-0.2,0.1c0,0,0,0,0,0c0,0,0,0,0,0c0,0,0,0-0.1,0c0,0,0,0,0,0c0,0,0,0,0,0  c0,0,0,0,0,0c-0.3,0-0.5-0.3-0.5-0.6c0-0.2,0.1-0.3,0.2-0.4c0.1-0.1,0.2-0.1,0.3-0.2c0,0,0.1,0,0.1,0c0,0,0,0,0,0c0,0,0,0,0,0  c0,0,0,0,0.1,0c0,0,0,0,0,0c0,0,0.1,0,0,0c0,0,0,0,0,0c0,0,0,0,0.1,0c0,0,0,0,0.1,0c0,0,0,0,0,0c0,0,0,0,0,0c0,0,0.1,0.1,0.1,0.1  c0,0,0,0,0,0c0,0,0,0,0,0c0,0,0,0,0,0c0,0,0,0,0,0.1c0,0,0,0.1,0,0.1c0,0,0,0,0,0C61,52.6,61,52.6,61,52.7C61,52.6,61,52.6,61,52.7  z"></path>	<path d="M68.2,52.4c-0.2-0.1-0.4-0.1-0.6-0.1c-0.2,0-0.5,0.2-0.5,0.5c0,0,0,0,0,0c0,0-0.1,0.1-0.1,0.1c-0.1,0.4,0.2,0.8,0.5,0.9  c0.2,0.1,0.4,0.1,0.6,0c0.2-0.1,0.3-0.2,0.4-0.4C68.7,53,68.6,52.6,68.2,52.4z M68.2,53.3C68.2,53.3,68.2,53.3,68.2,53.3  C68.2,53.3,68.2,53.3,68.2,53.3c0,0.1-0.1,0.1-0.1,0.1c0,0,0,0,0,0c0,0,0,0,0,0c0,0,0,0,0,0c0,0,0,0,0,0c0,0,0,0,0,0c0,0,0,0,0,0  c0,0,0,0,0,0c0,0,0,0,0,0c0,0,0,0,0,0c0,0,0,0,0,0c0,0,0,0,0,0c0,0-0.1,0-0.1,0c0,0,0,0,0,0c0,0,0,0,0,0c0,0,0,0,0,0c0,0,0,0,0,0  c0,0,0,0,0,0c0,0,0,0,0,0c0,0-0.1,0-0.1-0.1c0,0,0,0,0,0c0,0,0,0,0,0c0,0,0,0,0,0c0,0,0,0,0,0c0,0,0-0.1-0.1-0.1c0,0,0,0,0,0  c0,0,0,0,0,0c0,0,0,0,0,0c0,0,0,0,0,0c0,0,0,0,0-0.1c0-0.1,0-0.1,0-0.1c0,0,0-0.1,0-0.1c0-0.1,0.1-0.1,0.1-0.2c0,0,0,0,0,0  c0,0,0,0,0,0c0,0,0,0,0,0c0,0,0.1,0,0.1,0c0,0,0.1,0,0.1,0c0,0,0,0,0,0c0,0,0,0,0,0c0,0,0,0,0.1,0c0,0,0,0,0.1,0c0,0,0,0,0,0  c0,0,0,0,0,0c0,0,0.1,0,0.1,0c0,0,0,0,0,0c0,0,0,0,0,0c0,0,0,0,0,0c0,0,0,0,0,0c0,0,0,0,0,0c0,0,0,0,0.1,0.1c0,0,0,0,0,0  c0,0,0,0,0,0c0,0,0,0,0,0c0,0,0,0,0,0c0,0,0,0,0,0c0,0,0,0.1,0,0c0,0,0,0.1,0,0.1c0,0,0,0,0,0C68.2,53.2,68.2,53.2,68.2,53.3  C68.2,53.2,68.2,53.2,68.2,53.3z"></path></g></svg>