<svg xmlns="http://www.w3.org/2000/svg" xmlns:xlink="http://www.w3.org/1999/xlink" x="0px" y="0px" viewBox="0 0 216 89" style="enable-background:new 0 0 216 89;" xml:space="preserve"><style type="text/css">	.arrow-left0{fill:currentcolor;}	.arrow-left1{fill:#37293A;}	.arrow-left2{fill:#223158;}	.arrow-left3{fill:#648F9F;}	.arrow-left4{opacity:0.5;fill:#FFFFFF;enable-background:new;}	.arrow-left5{fill:#FFFFFF;}</style><g>	<g>		<path class="arrow-left0" d="M21.9,53.5c-0.1-1.3,0.2-2.4,0.9-3.5c-1.9-1.4-3-3.2-3.2-5.6c-0.2-2.4,0.7-4.3,2.6-5.8   c-0.8-1-1.3-2.1-1.3-3.4c-4.9,3.1-9.8,6.1-14.8,9.2C11.3,47.4,16.6,50.5,21.9,53.5z"></path>		<path class="arrow-left0" d="M40.9,47c-4.8,0-9.6,0-14.4,0c-0.7,0-1.5-0.1-2.1-0.4c-1-0.5-1.6-1.5-1.4-2.7c0.1-1,0.7-1.7,1.8-2   c0.4-0.1,0.8-0.2,1.3-0.2c0.8,0,1.6,0,2.4,0c11.2,0,22.5,0,33.7,0v5.4C55,47,48,47,40.9,47z"></path>		<path class="arrow-left0" d="M34.3,37.2c-2.7,0-5.3,0-8,0c-0.5,0-0.9-0.1-1.3-0.4c-0.6-0.5-0.9-1.3-0.7-2s0.8-1.2,1.7-1.2   c0.3,0,0.5,0,0.8,0c11.8,0,23.6,0,35.5,0v3.6C52.9,37.2,43.6,37.2,34.3,37.2z"></path>		<path class="arrow-left0" d="M56.5,55c-8.9,0-17.8,0-26.7,0c-0.9,0-1.8,0-2.7,0c-1,0-1.8-0.9-1.8-1.9s0.7-1.6,1.8-1.6c0.1,0,0.2,0,0.3,0   c11.3,0,22.7,0,34,0c0.2,0,0.4,0,0.7,0v3.6C60.2,55,58.3,55,56.5,55z"></path>	</g>	<path d="M139,53.5c0.2,0,0.5,0,0.7,0v-0.8v0.8V52l0,0l0,0c-1,0-1.9,0-2.9-0.1l0,0l-0.2,1.5l0.1-0.5l-0.1,0.5  C137.3,53.5,138.2,53.5,139,53.5z M142.8,53.1C142.8,53.1,142.9,53.1,142.8,53.1L142.8,53.1c1-0.2,2-0.5,3-0.9l-0.3-0.7l0.3,0.7  l-0.5-1.4l0,0c-0.9,0.3-1.9,0.6-2.8,0.8l0,0L142.8,53.1z M133.5,52.8l0.4-1.5h-0.1c-0.9-0.3-1.9-0.6-2.8-1l0,0h-0.1l-0.5,1.4  c1,0.4,2,0.8,3,1l0.2-0.7L133.5,52.8z M148.7,51l-0.6-1.2L148.7,51c0.9-0.4,1.8-0.9,2.7-1.5l-0.4-0.7l0.3,0.7l-0.8-1.3l0.2,0.3  l-0.2-0.4c-0.9,0.6-1.8,1-2.6,1.5l0,0L148.7,51z M127.6,50.4l0.4-0.7L127.6,50.4l0.7-1.4l-0.1,0.1l0.1-0.1  c-0.8-0.4-1.7-0.9-2.6-1.5l0,0h-0.1l-0.7,1.3C125.8,49.4,126.7,49.9,127.6,50.4z M92.5,49.9c1.1-0.1,2.1-0.2,3.1-0.5l0,0h0.1  l-0.2-0.7l-0.1-0.8l0.1,0.7l-0.2-0.7c-0.9,0.2-1.9,0.4-2.9,0.4h-0.1L92.5,49.9z M95.5,48.6L95.5,48.6L95.5,48.6L95.5,48.6z   M89.4,49.9l0.1-1.5h-0.1c-0.9-0.1-1.9-0.2-3-0.4l-0.1,0.6l0.1-0.6l-0.3,1.5l0.2-0.8l-0.1,0.8C87.4,49.7,88.4,49.8,89.4,49.9v-0.8  V49.9z M128,49.7l0.4-0.7L128,49.7z M83.3,48.8l0.4-1.5h-0.1c-1-0.2-2-0.5-3-0.8l0,0h-0.1l-0.1,0.9L80.2,48  C81.2,48.3,82.2,48.6,83.3,48.8l0.1-0.8L83.3,48.8z M151.1,48.8l-0.4-0.7L151.1,48.8z M98.7,48.4L98.7,48.4L98.7,48.4  c1-0.5,1.9-1,2.8-1.7l-0.5-0.6l0,0l-0.5-0.7l-0.1,0.1l0,0c-0.7,0.6-1.5,1.1-2.4,1.5l0.5,1L98,47l0,0L98.7,48.4z M154.1,47.8  c0.7-0.4,1.3-0.9,2-1.4l0.5-0.4l-0.4-0.6l0.5,0.6l-1-1.2l0,0l0,0l-0.5,0.4c-0.7,0.5-1.3,0.9-2,1.4l0.5,0.6l0,0L154.1,47.8z   M77.4,47.3l0.4-1.5h-0.1c-0.8-0.2-1.7-0.4-2.5-0.5l-0.5-0.1l-0.1,0.6l0.1-0.6l-0.3,1.5l0.2-0.7l-0.1,0.8l0.5,0.1  C75.7,47,76.5,47.1,77.4,47.3l0.1-0.8L77.4,47.3z M74.5,45.9L74.5,45.9L74.5,45.9z M122.4,47.1l0.4-0.6l0.5-0.5l-0.5,0.5l0.4-0.6  c-0.8-0.6-1.6-1.2-2.4-1.8l-0.4,0.5l0.3-0.6l-0.4,0.6l-0.6,0.6l0.1,0.1l0,0C120.7,45.9,121.5,46.5,122.4,47.1L122.4,47.1  L122.4,47.1z M122.8,46.4L122.8,46.4l0.3-0.4L122.8,46.4z M120.3,44.6L120.3,44.6L120.3,44.6z M211,46.9l0.6-1.4h-0.1L211,46.9z   M62.4,46.4c1-0.1,2-0.2,3-0.3v-0.8l0.1,0.8l-0.1-1.5h-0.1l0,0c-1,0-2.1,0.1-3.1,0.3l0.1,0.8l0,0L62.4,46.4z M71.4,46.3l0.1-1.5  h-0.1c-1-0.1-2.1-0.2-3.1-0.2v0.8l0,0v0.8C69.4,46.1,70.4,46.2,71.4,46.3v-0.8V46.3z M208.2,45.8l0.6-1.4h-0.1l0,0  c-0.9-0.4-1.9-0.8-2.9-1.1l-0.3,0.7l0.3-0.7l-0.1,0.3l0.1-0.3l-0.5,1.4l0.3-0.7l-0.3,0.7C206.3,45,207.2,45.4,208.2,45.8l0.2-0.7  L208.2,45.8z M159.2,44.4c0.8-0.5,1.7-1.1,2.6-1.6l-0.4-0.7l0.4,0.6l-0.8-1.3h-0.1l0,0c-0.9,0.5-1.8,1.1-2.6,1.6l0.4,0.8l0,0  L159.2,44.4z M103.6,44.4l-0.6-0.5L103.6,44.4c0.3-0.5,0.6-0.9,0.8-1.4c0.2-0.5,0.4-1,0.7-1.5l0,0v-0.1l-0.7-0.2l-0.7-0.4l0.6,0.3  l-0.6-0.2c-0.2,0.5-0.4,1-0.6,1.5c-0.2,0.4-0.4,0.8-0.6,1.1l0.5,0.3l-0.5-0.3l0.5,0.3L103.6,44.4z M104.3,41.1L104.3,41.1l-0.2-0.1  L104.3,41.1z M202.5,43.6l0.5-1.4l-0.1,0.3l0.1-0.3c-1-0.4-1.9-0.7-2.9-1l-0.1,0.3l0.1-0.3l-0.5,1.4l0.4-1l-0.3,1  C200.5,42.9,201.5,43.3,202.5,43.6L202.5,43.6L202.5,43.6C202.4,43.6,202.4,43.6,202.5,43.6z M202.8,42.5l-0.1,0.2L202.8,42.5  L202.8,42.5z M117.5,43.4l0.4-0.6l0.6-0.5l-0.6,0.4l0.4-0.6c-0.8-0.6-1.5-1.2-2.3-1.8l-0.1-0.1l-0.5,0.6l0.4-0.6l-0.4,0.6l-0.6,0.5  l0.1,0.1l0,0l0.1,0.1C115.9,42.1,116.7,42.7,117.5,43.4L117.5,43.4L117.5,43.4z M117.9,42.7L117.9,42.7L117.9,42.7L117.9,42.7z   M115.5,40.8L115.5,40.8L115.5,40.8z M196.7,41.7l0.4-1.5H197c-1-0.3-1.9-0.6-2.9-0.8l0,0l0,0l0,0H194l-0.1,0.9l-0.2,0.6  C194.8,41.1,195.7,41.4,196.7,41.7l0.2-0.8L196.7,41.7z M164.4,41.4L164.4,41.4L164.4,41.4L164.4,41.4c0.9-0.4,1.8-0.8,2.8-1.1  l-0.3-0.7l0.3,0.7l-0.5-1.4l0,0c-1,0.3-2,0.7-2.9,1.2l0.5,1.1l-0.5-1l0,0L164.4,41.4z M190.9,40.1l0.4-1.5h-0.1l0,0  c-1-0.2-2-0.5-3-0.6l-0.1,0.6l0.1-0.6l-0.3,1.5l0.2-0.7l-0.1,0.8C188.9,39.6,189.9,39.8,190.9,40.1l0.1-0.8L190.9,40.1z M188,38.7  L188,38.7L188,38.7z M112.7,39.5l0.4-0.6l0.6-0.5l-0.6,0.4l0.4-0.6c-0.5-0.4-0.9-0.8-1.4-1.1c-0.3-0.3-0.7-0.5-1.1-0.8l0,0h-0.1  l-0.7,1.3c0.3,0.2,0.6,0.5,0.9,0.7C111.7,38.7,112.2,39.1,112.7,39.5L112.7,39.5L112.7,39.5z M113.2,38.9L113.2,38.9L113.2,38.9  L113.2,38.9z M169.9,39.5L169.9,39.5L169.9,39.5c1-0.2,2-0.4,3-0.6l0,0l0,0l0,0l-0.2-1.5l0.1,0.4l-0.1-0.4l0.1,0.8l-0.1-0.8  c-1,0.2-2.1,0.4-3.1,0.6l0.2,0.7l-0.2-0.7l0.2,0.7L169.9,39.5z M169.8,38.7L169.8,38.7L169.8,38.7z M184.9,38.9l0.2-1.5l0,0  c-1-0.1-2.1-0.3-3.1-0.3l0,0h-0.1v1.5C182.9,38.7,183.9,38.8,184.9,38.9l0.1-1L184.9,38.9z M106.3,38.8l-0.6-0.4l0,0L106.3,38.8  c0.6-1,1.1-1.5,1.8-1.7l0,0h0.1l-0.2-0.7l-0.1-0.8l0.1,0.7l-0.2-0.7c-1.1,0.3-1.9,1-2.7,2.3l0,0l-0.1,0.2l0.7,0.2L106.3,38.8z   M105.6,38.4L105.6,38.4L105.6,38.4z M107.8,36.3L107.8,36.3l-0.1-0.2L107.8,36.3z M175.9,38.6c0.9-0.1,1.7-0.1,2.6-0.1h0.4v-0.8  v0.8V37h-0.4c-0.9,0-1.8,0-2.7,0.1h-0.1L175.9,38.6z"></path>	<g>		<g>			<g>				<path class="arrow-left1" d="M15.3,67.1c2.4,2,5.3,3.8,10.6,3c4.4-0.6,8.7-8.4,9.3-11.5l-1-0.2c-0.6,2.9-4.7,10.2-8.5,10.7     c-4.6,0.6-7.2-0.7-9.8-2.8L15.3,67.1z"></path>			</g>		</g>		<g>			<g>				<path class="arrow-left1" d="M28.1,78.2c2.3,1.3,4.5,1.5,6.5,0.5c2.6-1.2,4.6-4.2,5.2-7.7c0.7-4.2-0.9-8.9-4.2-12.4l-0.7,0.7     c3.1,3.2,4.6,7.7,3.9,11.5c-0.5,3.1-2.4,5.9-4.6,6.9c-1.7,0.8-3.6,0.6-5.6-0.5L28.1,78.2z"></path>			</g>		</g>		<g>			<g>				<path class="arrow-left1" d="M38.2,61.7c0.3,0.2,0.7,0.4,1,0.5c2.8,1.4,5.4,2.7,6.7,6.9c1.4,4.6-0.8,9.2-5.4,11.1l0.4,1     c5-2.1,7.5-7.3,6-12.4c-1.4-4.6-4.3-6.1-7.2-7.5c-0.3-0.2-0.7-0.3-1-0.5L38.2,61.7z"></path>			</g>		</g>		<g>			<g>				<path class="arrow-left1" d="M45.4,63c4.6,0.3,8,2.5,9.4,5.8c1.3,3.1,0.5,6.8-2,9.7l0.8,0.7c2.8-3.2,3.6-7.2,2.2-10.7     c-1.5-3.7-5.3-6.1-10.2-6.5L45.4,63z"></path>			</g>		</g>		<g>			<g>				<path class="arrow-left1" d="M16.9,21.5l0.6,0.8c2.7-2,5.3-3.2,9.9-2.4c3.7,0.7,7.5,8.1,8,11.1l1-0.2c-0.5-3.2-4.4-11.1-8.8-11.9     C22.4,18,19.4,19.6,16.9,21.5z"></path>			</g>		</g>		<g>			<g>				<path class="arrow-left1" d="M30.2,11l0.5,0.9c2-1.1,3.9-1.1,5.6-0.3c2.2,1.2,3.9,3.9,4.3,7.1c0.5,3.9-1.2,8.2-4.5,11.3l0.7,0.7     c3.5-3.3,5.3-8,4.8-12.2c-0.4-3.5-2.3-6.6-4.8-7.9C34.8,9.7,32.5,9.8,30.2,11z"></path>			</g>		</g>		<g>			<g>				<path class="arrow-left1" d="M39.5,27.9l0.4,0.9c0.3-0.2,0.7-0.3,1-0.5c2.9-1.3,5.9-2.7,7.5-7.2c1.8-5-0.5-10.3-5.4-12.6l-0.4,0.9     c4.4,2.1,6.5,6.9,4.9,11.3c-1.5,4.1-4.1,5.3-7,6.6C40.2,27.6,39.9,27.7,39.5,27.9z"></path>			</g>		</g>		<g>			<g>				<path class="arrow-left1" d="M46.8,26.9v1c5-0.2,8.8-2.3,10.5-6c1.6-3.4,1-7.5-1.7-10.8l-0.8,0.6c2.4,3,3,6.7,1.6,9.8     C54.9,24.8,51.3,26.8,46.8,26.9z"></path>			</g>		</g>		<path class="arrow-left1" d="M17.1,67.8c0,1.9-1,4.8-2.7,4.2c-2-0.8-0.1-4,1.3-5.5L17.1,67.8z"></path>		<g>			<g>				<path class="arrow-left1" d="M43.4,84.3c-0.1,0.2-0.8,0.7-0.9,0.7c-1.6-0.6-2-2.9-1.9-4.6l1.5-0.2C43.3,81.4,44.5,82.7,43.4,84.3z"></path>			</g>		</g>		<g>			<g>				<path class="arrow-left1" d="M55.8,82.2c-1.6,0.7-3.8-2.5-2.8-3.9v-0.2C55.6,78.8,57.8,81.4,55.8,82.2z"></path>			</g>		</g>		<g>			<g>				<path class="arrow-left1" d="M29.6,78.2c-0.1,2.1-1.8,5-3.2,3.6c-1.7-1.6,1.1-4.3,2.1-4.3L29.6,78.2z"></path>			</g>		</g>		<g>			<g>									<ellipse transform="matrix(2.226642e-02 -0.9998 0.9998 2.226642e-02 -0.9951 88.3871)" class="arrow-left2" cx="44.7" cy="44.7" rx="20" ry="17.3"></ellipse>			</g>		</g>		<g>			<g>									<ellipse transform="matrix(2.225625e-02 -0.9998 0.9998 2.225625e-02 -16.8313 71.9922)" class="arrow-left3" cx="28.4" cy="44.6" rx="15.4" ry="11.1"></ellipse>			</g>		</g>		<path class="arrow-left4" d="M31,58.4h-0.5c7.6-7.2,7.9-18,1.3-26.5C41.8,38.2,39.9,52,31,58.4z"></path>		<g>			<g>				<path class="arrow-left3" d="M39.1,45.2c6.6,1.1,17.7,1.6,22.8,0.5l0.2-0.8c-4.5,1-15.8,0.7-22.9-0.5L39.1,45.2z"></path>			</g>		</g>		<g>			<g>				<path class="arrow-left3" d="M36.2,54c2.7,2.5,7.2,3.8,12.3,3.5c5.3-0.3,9.9-2.2,12.2-4.9l0.2-1c-2.1,2.5-7.4,4.8-12.4,5.1     c-4.9,0.3-9.2-0.9-11.7-3.3L36.2,54z"></path>			</g>		</g>		<g>			<g>				<path class="arrow-left3" d="M37.8,35l0.4,0.8c6.3-3.1,15-1.7,23,3.1l-0.1-1.2c-4.4-2.7-8.8-4.2-13-4.6C44.4,32.8,40.8,33.5,37.8,35z"></path>			</g>		</g>		<g>			<g>				<path class="arrow-left5" d="M55.8,33.9c-0.7,0-1.4,0.6-1.4,1.3s0.6,1.4,1.3,1.4s1.4-0.6,1.4-1.3C57.1,34.5,56.5,33.9,55.8,33.9z"></path>			</g>		</g>		<path class="arrow-left1" d="M18.8,20.8L17.3,22c-1.3-1.5-3-4.8-1-5.5C18,16,18.9,18.9,18.8,20.8z"></path>		<g>			<g>				<path class="arrow-left1" d="M45.7,5.7C45.6,5.5,45,4.9,44.8,5c-1.6,0.5-2.1,2.8-2.1,4.5l1.5,0.3C45.4,8.6,46.7,7.4,45.7,5.7z"></path>			</g>		</g>		<g>			<g>				<path class="arrow-left1" d="M58,8.4c-1.6-0.8-3.9,2.3-2.9,3.7v0.2C57.6,11.7,59.9,9.3,58,8.4z"></path>			</g>		</g>		<g>			<g>				<path class="arrow-left1" d="M31.8,11.2c0-2.1-1.6-5-3.1-3.8c-1.8,1.5,0.9,4.4,1.9,4.4L31.8,11.2z"></path>			</g>		</g>		<g>			<path class="arrow-left1" d="M37.2,52.9c0.6,3-0.5,5-1.4,6.4c-3.6,5.7-18,4-16.4-6.1C20.9,43.6,35.5,45.2,37.2,52.9z"></path>		</g>		<g>			<path class="arrow-left5" d="M36.2,53.4c0.5,2.5-0.4,4.2-1.2,5.5c-3,4.9-15.3,3.4-14-5.2C22.3,45.4,34.8,46.8,36.2,53.4z"></path>		</g>		<g>			<path class="arrow-left1" d="M30.2,54.8c0.1,0.6-0.1,1.1-0.3,1.4c-0.8,1.2-4,0.9-3.7-1.3C26.6,52.7,29.8,53.1,30.2,54.8z"></path>		</g>		<g>			<path class="arrow-left5" d="M28.8,53.2c-0.3-0.1-0.6,0.2-0.7,0.6c-0.1,0.4,0.2,0.7,0.5,0.8s0.6-0.2,0.7-0.6    C29.3,53.6,29.1,53.3,28.8,53.2z"></path>		</g>		<g>			<path class="arrow-left1" d="M37.2,30.9c1.2,2.7,0.6,4.9,0,6.6C35,44,20.6,46.2,19.9,36C19.4,26.2,34,23.9,37.2,30.9z"></path>		</g>		<g>			<path class="arrow-left5" d="M36.4,31.7c1.1,2.3,0.5,4.2,0,5.6c-1.9,5.5-14.2,7.4-14.7-1.3C21.2,27.7,33.6,25.7,36.4,31.7z"></path>		</g>		<g>			<path class="arrow-left1" d="M30.9,34.6c0.3,0.6,0.1,1.1,0,1.4c-0.5,1.4-3.7,1.8-3.9-0.4C26.9,33.5,30.1,33.1,30.9,34.6z"></path>		</g>		<g>			<path class="arrow-left5" d="M29.1,33.4c-0.3,0-0.6,0.3-0.6,0.7s0.3,0.7,0.7,0.6c0.3,0,0.6-0.3,0.6-0.7C29.7,33.7,29.4,33.4,29.1,33.4z"></path>		</g>		<g>			<g>				<g>					<path class="arrow-left1" d="M25.4,47.2c-1.7,0.2-3.7-0.3-3.9-2.3s2.3-2.7,3.8-2.7c0.6,0,0.5,0.9,0,0.9c-1.1,0-2.9,0.2-3,1.7      c0,1.4,1.8,1.7,2.9,1.5C25.8,46.3,26,47.2,25.4,47.2L25.4,47.2z"></path>				</g>			</g>		</g>	</g></g></svg>