<svg xmlns="http://www.w3.org/2000/svg" xmlns:xlink="http://www.w3.org/1999/xlink" x="0px" y="0px" viewBox="0 0 216 89" style="enable-background:new 0 0 216 89;" xml:space="preserve"><style type="text/css">	.sp0{fill:currentcolor;}	.sp1{fill:#37293A;}	.sp2{fill:#223158;}	.sp3{fill:#648F9F;}	.sp4{opacity:0.5;fill:#FFFFFF;}	.sp5{fill:#FFFFFF;}</style><g>	<g>		<path class="sp0" d="M195.8,53.5c0.1-1.3-0.2-2.4-0.9-3.5c1.9-1.4,3-3.2,3.2-5.6c0.2-2.4-0.7-4.3-2.6-5.8c0.8-1,1.3-2.1,1.3-3.4   c4.9,3.1,9.8,6.1,14.8,9.2C206.4,47.4,201.1,50.5,195.8,53.5z"></path>		<path class="sp0" d="M176.8,47c4.8,0,9.6,0,14.4,0c0.7,0,1.5-0.1,2.1-0.4c1-0.5,1.6-1.5,1.4-2.7c-0.1-1-0.7-1.7-1.8-2   c-0.4-0.1-0.8-0.2-1.3-0.2c-0.8,0-1.6,0-2.4,0c-11.2,0-22.5,0-33.7,0l0,5.4C162.7,47,169.7,47,176.8,47z"></path>		<path class="sp0" d="M183.4,37.2c2.7,0,5.3,0,8,0c0.5,0,0.9-0.1,1.3-0.4c0.6-0.5,0.9-1.3,0.7-2c-0.2-0.7-0.8-1.2-1.7-1.2   c-0.3,0-0.5,0-0.8,0c-11.8,0-23.6,0-35.5,0l0,3.6C164.8,37.2,174.1,37.2,183.4,37.2z"></path>		<path class="sp0" d="M161.2,55c8.9,0,17.8,0,26.7,0c0.9,0,1.8,0,2.7,0c1,0,1.8-0.9,1.8-1.9c0-1-0.7-1.6-1.8-1.6   c-0.1,0-0.2,0-0.3,0c-11.3,0-22.7,0-34,0c-0.2,0-0.4,0-0.7,0l0,3.6C157.5,55,159.4,55,161.2,55z"></path>	</g>	<path d="M78.7,53.5c-0.2,0-0.5,0-0.7,0l0-0.8L78,53.5L78,52l0,0v0c1,0,1.9,0,2.9-0.1l0,0l0.2,1.5l-0.1-0.5l0.1,0.5  C80.4,53.5,79.5,53.5,78.7,53.5z M74.9,53.1C74.9,53.1,74.8,53.1,74.9,53.1L74.9,53.1c-1-0.2-2-0.5-3-0.9l0.3-0.7l-0.3,0.7l0.5-1.4  l0,0c0.9,0.3,1.9,0.6,2.8,0.8l0,0L74.9,53.1z M84.2,52.8l-0.4-1.5l0.1,0c0.9-0.3,1.9-0.6,2.8-1l0,0l0.1,0l0.5,1.4c-1,0.4-2,0.8-3,1  L84.1,52L84.2,52.8z M69,51l0.6-1.2L69,51c-0.9-0.4-1.8-0.9-2.7-1.5l0.4-0.7l-0.3,0.7l0.8-1.3l-0.2,0.3l0.2-0.4  c0.9,0.6,1.8,1,2.6,1.5l0,0L69,51z M90.1,50.4l-0.4-0.7L90.1,50.4L89.4,49l0.1,0.1L89.4,49c0.8-0.4,1.7-0.9,2.6-1.5v0l0.1,0  l0.7,1.3C91.9,49.4,91,49.9,90.1,50.4z M125.2,49.9c-1.1-0.1-2.1-0.2-3.1-0.5v0l-0.1,0l0.2-0.7l0.1-0.8l-0.1,0.7l0.2-0.7  c0.9,0.2,1.9,0.4,2.9,0.4l0.1,0L125.2,49.9z M122.2,48.6L122.2,48.6L122.2,48.6L122.2,48.6z M128.3,49.9l-0.1-1.5l0.1,0  c0.9-0.1,1.9-0.2,3-0.4l0.1,0.6l-0.1-0.6l0.3,1.5l-0.2-0.8l0.1,0.8C130.3,49.7,129.3,49.8,128.3,49.9v-0.8V49.9z M89.7,49.7  L89.3,49L89.7,49.7z M134.4,48.8l-0.4-1.5l0.1,0c1-0.2,2-0.5,3-0.8v0l0.1,0l0.1,0.9l0.2,0.6C136.5,48.3,135.5,48.6,134.4,48.8  l-0.1-0.8L134.4,48.8z M66.6,48.8l0.4-0.7L66.6,48.8z M119,48.4C119,48.4,119,48.4,119,48.4L119,48.4c-1-0.5-1.9-1-2.8-1.7l0.5-0.6  l0,0l0.5-0.7l0.1,0.1l0,0c0.7,0.6,1.5,1.1,2.4,1.5l-0.5,1l0.5-1l0,0L119,48.4z M63.6,47.8c-0.7-0.4-1.3-0.9-2-1.4l-0.5-0.4l0.4-0.6  L61,46l1-1.2l0,0l0,0l0.5,0.4c0.7,0.5,1.3,0.9,2,1.4L64,47.2l0,0L63.6,47.8z M140.3,47.3l-0.4-1.5l0.1,0c0.8-0.2,1.7-0.4,2.5-0.5  l0.5-0.1l0.1,0.6l-0.1-0.6l0.3,1.5l-0.2-0.7l0.1,0.8l-0.5,0.1C142,47,141.2,47.1,140.3,47.3l-0.1-0.8L140.3,47.3z M143.2,45.9  L143.2,45.9L143.2,45.9z M95.3,47.1l-0.4-0.6l-0.5-0.5l0.5,0.5l-0.4-0.6c0.8-0.6,1.6-1.2,2.4-1.8l0.4,0.5L97,44l0.4,0.6l0.6,0.6  l-0.1,0.1l0,0C97,45.9,96.2,46.5,95.3,47.1L95.3,47.1L95.3,47.1z M94.9,46.4L94.9,46.4L94.6,46L94.9,46.4z M97.4,44.6L97.4,44.6  L97.4,44.6z M6.7,46.9l-0.6-1.4l0.1,0L6.7,46.9z M155.3,46.4c-1-0.1-2-0.2-3-0.3l0-0.8l-0.1,0.8l0.1-1.5l0.1,0v0  c1,0,2.1,0.1,3.1,0.3l-0.1,0.8l0,0L155.3,46.4z M146.3,46.3l-0.1-1.5l0.1,0c1-0.1,2.1-0.2,3.1-0.2l0,0.8l0,0l0,0.8  C148.3,46.1,147.3,46.2,146.3,46.3v-0.8V46.3z M9.5,45.8l-0.6-1.4l0.1,0l0,0c0.9-0.4,1.9-0.8,2.9-1.1l0.3,0.7l-0.3-0.7l0.1,0.3  l-0.1-0.3l0.5,1.4L12.1,44l0.3,0.7C11.4,45,10.5,45.4,9.5,45.8l-0.2-0.7L9.5,45.8z M58.5,44.4c-0.8-0.5-1.7-1.1-2.6-1.6l0.4-0.7  l-0.4,0.6l0.8-1.3l0.1,0l0,0c0.9,0.5,1.8,1.1,2.6,1.6L59,43.8l0,0L58.5,44.4z M114.1,44.4l0.6-0.5L114.1,44.4  c-0.3-0.5-0.6-0.9-0.8-1.4c-0.2-0.5-0.4-1-0.7-1.5l0,0l0-0.1l0.7-0.2l0.7-0.4l-0.6,0.3l0.6-0.2c0.2,0.5,0.4,1,0.6,1.5  c0.2,0.4,0.4,0.8,0.6,1.1l-0.5,0.3l0.5-0.3l-0.5,0.3L114.1,44.4z M113.4,41.1L113.4,41.1l0.2-0.1L113.4,41.1z M15.2,43.6l-0.5-1.4  l0.1,0.3l-0.1-0.3c1-0.4,1.9-0.7,2.9-1l0.1,0.3l-0.1-0.3l0.5,1.4l-0.4-1l0.3,1C17.2,42.9,16.2,43.3,15.2,43.6L15.2,43.6L15.2,43.6  C15.3,43.6,15.3,43.6,15.2,43.6z M14.9,42.5l0.1,0.2L14.9,42.5L14.9,42.5z M100.2,43.4l-0.4-0.6l-0.6-0.5l0.6,0.4l-0.4-0.6  c0.8-0.6,1.5-1.2,2.3-1.8l0.1-0.1l0.5,0.6l-0.4-0.6l0.4,0.6l0.6,0.5l-0.1,0.1l0,0l-0.1,0.1C101.8,42.1,101,42.7,100.2,43.4  L100.2,43.4L100.2,43.4z M99.8,42.7L99.8,42.7l-0.1-0.1L99.8,42.7z M102.2,40.8L102.2,40.8L102.2,40.8z M21,41.7l-0.4-1.5l0.1,0  c1-0.3,1.9-0.6,2.9-0.8l0,0c0,0,0,0,0,0v0l0.1,0l0.1,0.9l0.2,0.6C22.9,41.1,22,41.4,21,41.7l-0.2-0.8L21,41.7z M53.3,41.4  C53.3,41.4,53.3,41.4,53.3,41.4L53.3,41.4L53.3,41.4c-0.9-0.4-1.8-0.8-2.8-1.1l0.3-0.7l-0.3,0.7l0.5-1.4l0,0c1,0.3,2,0.7,2.9,1.2  l-0.5,1.1l0.5-1l0,0L53.3,41.4z M26.8,40.1l-0.4-1.5l0.1,0l0,0c1-0.2,2-0.5,3-0.6l0.1,0.6l-0.1-0.6l0.3,1.5l-0.2-0.7l0.1,0.8  C28.8,39.6,27.8,39.8,26.8,40.1l-0.1-0.8L26.8,40.1z M29.7,38.7L29.7,38.7L29.7,38.7z M105,39.5l-0.4-0.6l-0.6-0.5l0.6,0.4  l-0.4-0.6c0.5-0.4,0.9-0.8,1.4-1.1c0.3-0.3,0.7-0.5,1.1-0.8v0l0.1,0l0.7,1.3c-0.3,0.2-0.6,0.5-0.9,0.7  C106,38.7,105.5,39.1,105,39.5L105,39.5L105,39.5z M104.5,38.9L104.5,38.9l-0.1-0.1L104.5,38.9z M47.8,39.5L47.8,39.5l-0.1,0  c-0.9-0.2-1.9-0.4-2.9-0.6l0,0l0,0c0,0,0,0,0,0l0.2-1.5l-0.1,0.4l0.1-0.4l-0.1,0.8l0.1-0.8c1,0.2,2.1,0.4,3.1,0.6l-0.2,0.7l0.2-0.7  l-0.2,0.7L47.8,39.5z M47.9,38.7L47.9,38.7L47.9,38.7z M32.8,38.9l-0.2-1.5l0,0c1-0.1,2.1-0.3,3.1-0.3l0,0l0.1,0l0,1.5  C34.8,38.7,33.8,38.8,32.8,38.9l-0.1-1L32.8,38.9z M111.4,38.8l0.6-0.4l0,0L111.4,38.8c-0.6-1-1.1-1.5-1.8-1.7l0,0l-0.1,0l0.2-0.7  l0.1-0.8l-0.1,0.7l0.2-0.7c1.1,0.3,1.9,1,2.7,2.3l0,0l0.1,0.2l-0.7,0.2L111.4,38.8z M112.1,38.4L112.1,38.4L112.1,38.4z   M109.9,36.3L109.9,36.3l0.1-0.2L109.9,36.3z M41.8,38.6c-0.9-0.1-1.7-0.1-2.6-0.1l-0.4,0l0-0.8v0.8l0-1.5l0.4,0  c0.9,0,1.8,0,2.7,0.1l0.1,0L41.8,38.6z"></path>	<g>		<g>			<g>				<path class="sp1" d="M202.4,67.1c-2.4,2-5.3,3.8-10.6,3c-4.4-0.6-8.7-8.4-9.3-11.5l1-0.2c0.6,2.9,4.7,10.2,8.5,10.7     c4.6,0.6,7.2-0.7,9.8-2.8L202.4,67.1z"></path>			</g>		</g>		<g>			<g>				<path class="sp1" d="M189.6,78.2c-2.3,1.3-4.5,1.5-6.5,0.5c-2.6-1.2-4.6-4.2-5.2-7.7c-0.7-4.2,0.9-8.9,4.2-12.4l0.7,0.7     c-3.1,3.2-4.6,7.7-3.9,11.5c0.5,3.1,2.4,5.9,4.6,6.9c1.7,0.8,3.6,0.6,5.6-0.5L189.6,78.2z"></path>			</g>		</g>		<g>			<g>				<path class="sp1" d="M179.5,61.7c-0.3,0.2-0.7,0.4-1,0.5c-2.8,1.4-5.4,2.7-6.7,6.9c-1.4,4.6,0.8,9.2,5.4,11.1l-0.4,1     c-5-2.1-7.5-7.3-6-12.4c1.4-4.6,4.3-6.1,7.2-7.5c0.3-0.2,0.7-0.3,1-0.5L179.5,61.7z"></path>			</g>		</g>		<g>			<g>				<path class="sp1" d="M172.3,63c-4.6,0.3-8,2.5-9.4,5.8c-1.3,3.1-0.5,6.8,2,9.7l-0.8,0.7c-2.8-3.2-3.6-7.2-2.2-10.7     c1.5-3.7,5.3-6.1,10.2-6.5L172.3,63z"></path>			</g>		</g>		<g>			<g>				<path class="sp1" d="M200.8,21.5l-0.6,0.8c-2.7-2-5.3-3.2-9.9-2.4c-3.7,0.7-7.5,8.1-8,11.1l-1-0.2c0.5-3.2,4.4-11.1,8.8-11.9     C195.3,18,198.3,19.6,200.8,21.5z"></path>			</g>		</g>		<g>			<g>				<path class="sp1" d="M187.5,11l-0.5,0.9c-2-1.1-3.9-1.1-5.6-0.3c-2.2,1.2-3.9,3.9-4.3,7.1c-0.5,3.9,1.2,8.2,4.5,11.3l-0.7,0.7     c-3.5-3.3-5.3-8-4.8-12.2c0.4-3.5,2.3-6.6,4.8-7.9C182.9,9.7,185.2,9.8,187.5,11z"></path>			</g>		</g>		<g>			<g>				<path class="sp1" d="M178.2,27.9l-0.4,0.9c-0.3-0.2-0.7-0.3-1-0.5c-2.9-1.3-5.9-2.7-7.5-7.2c-1.8-5,0.5-10.3,5.4-12.6l0.4,0.9     c-4.4,2.1-6.5,6.9-4.9,11.3c1.5,4.1,4.1,5.3,7,6.6C177.5,27.6,177.8,27.7,178.2,27.9z"></path>			</g>		</g>		<g>			<g>				<path class="sp1" d="M170.9,26.9l0,1c-5-0.2-8.8-2.3-10.5-6c-1.6-3.4-1-7.5,1.7-10.8l0.8,0.6c-2.4,3-3,6.7-1.6,9.8     C162.8,24.8,166.4,26.8,170.9,26.9z"></path>			</g>		</g>		<path class="sp1" d="M200.6,67.8c0,1.9,1,4.8,2.7,4.2c2-0.8,0.1-4-1.3-5.5L200.6,67.8z"></path>		<g>			<g>				<path class="sp1" d="M174.3,84.3c0.1,0.2,0.8,0.7,0.9,0.7c1.6-0.6,2-2.9,1.9-4.6l-1.5-0.2C174.4,81.4,173.2,82.7,174.3,84.3z"></path>			</g>		</g>		<g>			<g>				<path class="sp1" d="M161.9,82.2c1.6,0.7,3.8-2.5,2.8-3.9l0-0.2C162.1,78.8,159.9,81.4,161.9,82.2z"></path>			</g>		</g>		<g>			<g>				<path class="sp1" d="M188.1,78.2c0.1,2.1,1.8,5,3.2,3.6c1.7-1.6-1.1-4.3-2.1-4.3L188.1,78.2z"></path>			</g>		</g>		<g>			<g>									<ellipse transform="matrix(0.9998 -2.226749e-02 2.226749e-02 0.9998 -0.952 3.8635)" class="sp2" cx="173" cy="44.7" rx="17.3" ry="20"></ellipse>			</g>		</g>		<g>			<g>									<ellipse transform="matrix(0.9998 -2.225731e-02 2.225731e-02 0.9998 -0.9455 4.2234)" class="sp3" cx="189.3" cy="44.6" rx="11.1" ry="15.4"></ellipse>			</g>		</g>		<path class="sp4" d="M186.7,58.4l0.5,0c-7.6-7.2-7.9-18-1.3-26.5C175.9,38.2,177.8,52,186.7,58.4z"></path>		<g>			<g>				<path class="sp3" d="M178.6,45.2c-6.6,1.1-17.7,1.6-22.8,0.5l-0.2-0.8c4.5,1,15.8,0.7,22.9-0.5L178.6,45.2z"></path>			</g>		</g>		<g>			<g>				<path class="sp3" d="M181.5,54c-2.7,2.5-7.2,3.8-12.3,3.5c-5.3-0.3-9.9-2.2-12.2-4.9l-0.2-1c2.1,2.5,7.4,4.8,12.4,5.1     c4.9,0.3,9.2-0.9,11.7-3.3L181.5,54z"></path>			</g>		</g>		<g>			<g>				<path class="sp3" d="M179.9,35l-0.4,0.8c-6.3-3.1-15-1.7-23,3.1l0.1-1.2c4.4-2.7,8.8-4.2,13-4.6C173.3,32.8,176.9,33.5,179.9,35     z"></path>			</g>		</g>		<g>			<g>				<path class="sp5" d="M161.9,33.9c0.7,0,1.4,0.6,1.4,1.3c0,0.7-0.6,1.4-1.3,1.4c-0.7,0-1.4-0.6-1.4-1.3     C160.6,34.5,161.2,33.9,161.9,33.9z"></path>			</g>		</g>		<path class="sp1" d="M198.9,20.8l1.5,1.2c1.3-1.5,3-4.8,1-5.5C199.7,16,198.8,18.9,198.9,20.8z"></path>		<g>			<g>				<path class="sp1" d="M172,5.7c0.1-0.2,0.7-0.8,0.9-0.7c1.6,0.5,2.1,2.8,2.1,4.5l-1.5,0.3C172.3,8.6,171,7.4,172,5.7z"></path>			</g>		</g>		<g>			<g>				<path class="sp1" d="M159.7,8.4c1.6-0.8,3.9,2.3,2.9,3.7l0,0.2C160.1,11.7,157.8,9.3,159.7,8.4z"></path>			</g>		</g>		<g>			<g>				<path class="sp1" d="M185.9,11.2c0-2.1,1.6-5,3.1-3.8c1.8,1.5-0.9,4.4-1.9,4.4L185.9,11.2z"></path>			</g>		</g>		<g>			<path class="sp1" d="M180.5,52.9c-0.6,3,0.5,5,1.4,6.4c3.6,5.7,18,4,16.4-6.1C196.8,43.6,182.2,45.2,180.5,52.9z"></path>		</g>		<g>			<path class="sp5" d="M181.5,53.4c-0.5,2.5,0.4,4.2,1.2,5.5c3,4.9,15.3,3.4,14-5.2C195.4,45.4,182.9,46.8,181.5,53.4z"></path>		</g>		<g>			<path class="sp1" d="M187.5,54.8c-0.1,0.6,0.1,1.1,0.3,1.4c0.8,1.2,4,0.9,3.7-1.3C191.1,52.7,187.9,53.1,187.5,54.8z"></path>		</g>		<g>			<path class="sp5" d="M188.9,53.2c0.3-0.1,0.6,0.2,0.7,0.6c0.1,0.4-0.2,0.7-0.5,0.8c-0.3,0.1-0.6-0.2-0.7-0.6    C188.4,53.6,188.6,53.3,188.9,53.2z"></path>		</g>		<g>			<path class="sp1" d="M180.5,30.9c-1.2,2.7-0.6,4.9,0,6.6c2.2,6.5,16.6,8.7,17.3-1.5C198.3,26.2,183.7,23.9,180.5,30.9z"></path>		</g>		<g>			<path class="sp5" d="M181.3,31.7c-1.1,2.3-0.5,4.2,0,5.6c1.9,5.5,14.2,7.4,14.7-1.3C196.5,27.7,184.1,25.7,181.3,31.7z"></path>		</g>		<g>			<path class="sp1" d="M186.8,34.6c-0.3,0.6-0.1,1.1,0,1.4c0.5,1.4,3.7,1.8,3.9-0.4C190.8,33.5,187.6,33.1,186.8,34.6z"></path>		</g>		<g>			<path class="sp5" d="M188.6,33.4c0.3,0,0.6,0.3,0.6,0.7c0,0.4-0.3,0.7-0.7,0.6c-0.3,0-0.6-0.3-0.6-0.7    C188,33.7,188.3,33.4,188.6,33.4z"></path>		</g>		<g>			<g>				<g>					<path class="sp1" d="M192.3,47.2c1.7,0.2,3.7-0.3,3.9-2.3c0.2-2-2.3-2.7-3.8-2.7c-0.6,0-0.5,0.9,0,0.9c1.1,0,2.9,0.2,3,1.7      c0,1.4-1.8,1.7-2.9,1.5C191.9,46.3,191.7,47.2,192.3,47.2L192.3,47.2z"></path>				</g>			</g>		</g>	</g></g></svg>