<svg xmlns="http://www.w3.org/2000/svg" xmlns:xlink="http://www.w3.org/1999/xlink" x="0px" y="0px" viewBox="0 0 100 100" style="enable-background:new 0 0 100 100;" xml:space="preserve"><style type="text/css">	.sr1{fill:#BF7E62;}	.sr2{fill:#EC9A99;}	.sr3{fill:#D3C8BA;}	.sr4{fill:#B9CFD4;}	.sr5{fill:#E6EAEC;}	.sr6{fill:#FADCDC;}	.sr7{fill:#EEF1F2;}</style><g>	<path class="sr1" d="M37.8,43.5C37.7,43.6,37.8,43.7,37.8,43.5c1.4-1.3,2.9-2.5,4.4-3.6c1.5-1.1,3-2.1,4.6-3  c3.3-1.8,6.8-3,10.5-3.7c7.2-1.3,14.8,0.1,21.3,3.5c1.8,1,3.5,2.1,5.1,3.3c0.4,0.3,0.8,0.6,1.2,1c0.2,0.2,0.4,0.3,0.6,0.5  c0.2,0.2,0.4,0.3,0.6,0.4c0.8,0.7,1.5,1.4,2.3,2.2c0.3,0.3,0.9-0.1,0.6-0.5c-0.6-0.8-1.2-1.5-1.9-2.2c-0.3-0.3-0.5-0.7-0.8-1  c-0.3-0.4-0.8-0.7-1.1-1c-1.5-1.2-3.1-2.4-4.7-3.3c-3.3-1.9-6.9-3.3-10.6-4c-7.5-1.4-15.4-0.2-22.1,3.3c-1.9,1-3.6,2.1-5.3,3.4  c-0.8,0.7-1.6,1.3-2.4,2.1C39.2,41.8,38.5,42.7,37.8,43.5z"></path>	<path class="sr2" d="M91,64c-0.1-0.8-0.2-1.6-0.4-2.5c-0.3-1.5-0.8-3.1-1.4-4.5c-1.2-3-2.9-5.8-5-8.3c-4.2-5-10.2-8.5-16.6-9.9  c-1.8-0.4-3.6-0.6-5.5-0.6c-1.9,0-3.7,0.2-5.5,0.5c-0.1,0-0.1,0.2,0,0.1c6.4-0.5,12.9,0.8,18.5,4c5.4,3.1,9.7,7.9,12.2,13.6  c0.7,1.6,1.3,3.2,1.7,4.8c0.2,0.8,0.4,1.6,0.6,2.5c0,0.2,0.1,0.5,0.1,0.7c0,0.2,0.1,0.4,0.2,0.5c0.1,0.4,0.1,0.9,0.2,1.4  c0.1,0.6,0.9,0.6,0.9,0c0-0.4,0-0.8,0-1.2C91,64.8,91,64.4,91,64z"></path>	<path class="sr3" d="M88,65.5c-0.5-1.3-1.1-2.5-1.8-3.7c-1.3-2.3-2.9-4.5-4.8-6.4c-3.9-4-8.9-7-14.3-8.4c-1.5-0.4-3.1-0.7-4.7-0.8  c-1.6-0.2-3.2-0.1-4.9,0c-0.1,0-0.1,0.2,0,0.2c5.6,0,11.2,1.6,16,4.4c4.6,2.6,8.4,6.5,11.1,11c0.7,1.2,1.4,2.5,2,3.9  c0.3,0.7,0.6,1.3,0.9,2c0.3,0.7,0.5,1.4,0.8,2.1c0.2,0.4,0.8,0.2,0.8-0.2c0-0.7-0.2-1.3-0.4-1.9C88.4,66.8,88.3,66.2,88,65.5z"></path>	<path class="sr4" d="M52,65.7c-1-1.6-2.1-3.2-3.1-4.8c-0.9-1.4-1.8-3-3-4.2c2.5-2.4,4.6-5.2,6.2-8.2c0.8-1.4,1.5-2.9,2.1-4.4  c0.4-1.1,1.2-2.7,0.1-3.6c-1-0.8-2.7-0.1-3.8,0.2c-1.7,0.5-3.5,1.1-5.1,1.8c-3.1,1.3-6.5,2.7-9.1,4.9c-0.2,0.1-0.3,0.2-0.5,0.3  c-0.7-1.3-1.9-2.6-2.7-3.7c-1.2-1.6-2.5-3.1-3.8-4.6c-2.7-3.1-5.7-6.1-8.8-8.8C19.9,30.1,19,30.3,19,31l0,12.2c0,1.9,0,3.9,0,5.8  c0,1.3,0,2.7,0,4.1c-0.2,0-0.4,0.1-0.6,0.2c-0.9-0.1-1.8,0.3-2.6,0.6c-1.6,0.5-3.1,1-4.7,1.5c-3,1.1-5.9,2.3-8.8,3.7  c-0.7,0.3-0.5,1.3,0,1.7c2.7,2,5.6,3.7,8.6,5c1.4,0.6,2.8,1.2,4.2,1.6c1.4,0.5,3,1.1,4.6,1.2c-0.2,1.4,0,2.9,0.2,4.3  c0.1,1.7,0.4,3.5,0.6,5.2c0.5,3.7,1.3,7.4,2.3,11c0.2,0.7,1.2,1,1.7,0.4c4.5-5.1,8.4-10.7,11.5-16.8c7,2.1,14.2,3.5,21.5,4.2  c0.7,0.1,1.1-0.8,0.8-1.4C56.2,72.4,54.1,69,52,65.7z M20.4,60.8l0,0.3c0,0.1,0,0.2,0,0.3c0,0.1,0,0.1,0,0.2c0,0,0,0.1,0,0.1  c0,0,0,0.1-0.1,0.1c-0.1,0.1-0.3,0.1-0.3,0c0-0.1-0.1-0.1-0.1-0.2c0-0.1,0-0.1,0-0.2c0-0.1,0-0.2,0-0.4c0-0.1,0-0.2,0.1-0.3  c0,0,0-0.1,0-0.1c-0.3,0-0.5,0-0.8-0.1c0,0.1,0,0.1,0,0.2c0,0.1,0,0.3-0.1,0.5c-0.1,0.3-0.2,0.6-0.5,0.8c0,0-0.1,0.1-0.2,0.1  c0,0-0.1,0-0.1,0c-0.1,0-0.1,0-0.2-0.1c0-0.1,0-0.1,0-0.2c0,0,0,0,0,0c0,0,0-0.1,0-0.1c0.1-0.1,0.1-0.2,0.2-0.3  c0-0.1,0.1-0.1,0.1-0.2c0,0,0-0.1,0-0.1c0,0,0-0.1,0-0.1c0-0.1,0.1-0.3,0.1-0.4c0-0.1,0-0.1,0.1-0.2c0,0,0,0,0,0  c-0.4-0.1-0.7-0.4-1-0.7c0,0,0-0.1,0.1-0.1c1.2,0.4,2.2,0.8,3.4,0.1c1-0.5,1.7-1.4,2.1-2.4c0-0.1,0.1,0,0.1,0c0,1.3-0.6,2.4-1.8,3  c-0.4,0.2-1,0.3-1.5,0.3C20.4,60.8,20.4,60.8,20.4,60.8z M23.4,68.5c-1.4,0-2.5-1.1-2.5-2.5c0-1.4,1.1-2.5,2.5-2.5  c1.4,0,2.5,1.1,2.5,2.5C25.9,67.4,24.8,68.5,23.4,68.5z M32.7,63.9c-0.3,0-0.6,0-0.9-0.1c-0.1-0.1-0.2-0.2-0.3-0.3  c-0.1-0.1-0.1-0.1-0.2-0.2c0-0.1,0-0.1,0-0.2c0-0.1,0-0.1,0.1-0.2c0.1,0,0.1,0,0.2,0c0,0,0.1,0.1,0.1,0.1c0,0,0.1,0.1,0.1,0.1  c0.1,0.1,0.2,0.1,0.3,0.2c0.1,0,0.1,0,0.2,0c0,0,0.1,0,0.1,0c0,0,0,0,0.1,0c0.1,0,0.1,0,0.2,0c0,0,0,0,0,0c0,0,0,0,0,0c0,0,0,0,0,0  c0,0,0.1,0,0.1,0c0,0,0.1,0,0.1,0c0,0,0,0,0,0c0,0,0,0,0,0c0,0,0,0,0,0c0,0,0.1-0.1,0.1-0.1c0,0,0,0,0,0c0,0,0,0,0,0  c0,0,0,0,0.1-0.1c0,0,0,0,0-0.1c0,0,0,0,0,0c0.1-0.2,0.2-0.4,0.2-0.6c0,0,0-0.1,0-0.1c0,0,0,0,0,0c0-0.1,0-0.1,0-0.2  c0-0.1-0.1-0.2-0.1-0.4c0-0.1,0.1-0.1,0.1-0.1c0.2,0,0.3,0.2,0.4,0.4c0.1,0.1,0.1,0.3,0.1,0.5C33.7,63.2,33.3,63.8,32.7,63.9z   M38.2,53.6c-0.4,0.4-0.8,0.7-1.3,0.9c-1.2,0.5-2.5,0.1-3.4-0.8c0,0,0-0.1,0.1-0.1c1,0.5,2.2,0.5,3.2,0.2c1.3-0.4,1.7-1.4,2.3-2.5  c0,0,0.1,0,0.1,0c0.1,0.4,0,0.8-0.2,1.2c0,0,0,0,0,0c0.1,0,0.1,0.1,0.2,0.1c0.1,0.1,0.2,0.1,0.3,0.2c0,0,0.1,0,0.1,0c0,0,0,0,0.1,0  c0.1,0,0.1,0,0.2,0.1c0.1,0,0.3,0,0.4,0.1c0,0,0.1,0,0.1,0.1c0,0,0,0,0,0c0.1,0,0.1,0.1,0.1,0.1c0,0.1,0,0.1-0.1,0.2  c0,0-0.1,0-0.1,0c0,0-0.1,0.1-0.2,0.1c-0.3,0-0.6-0.1-0.9-0.2c-0.1-0.1-0.3-0.2-0.4-0.3c0,0-0.1-0.1-0.1-0.2  c-0.1,0.2-0.3,0.5-0.5,0.7c0,0,0.1,0,0.1,0c0.1,0.1,0.2,0.1,0.3,0.2c0.1,0.1,0.2,0.1,0.3,0.2c0,0,0.1,0.1,0.1,0.1  c0.1,0.1,0.1,0.1,0.1,0.2c0.1,0.1-0.1,0.3-0.2,0.2c0,0-0.1,0-0.1,0c0,0-0.1,0-0.1-0.1c0,0-0.1-0.1-0.1-0.1  c-0.1-0.1-0.2-0.1-0.2-0.2L38.2,53.6C38.3,53.6,38.3,53.6,38.2,53.6z M40.9,61.5c-1.4,0-2.5-1.1-2.5-2.5c0-1.4,1.1-2.5,2.5-2.5  c1.4,0,2.5,1.1,2.5,2.5C43.4,60.3,42.3,61.5,40.9,61.5z"></path>	<path d="M23.7,57.4c0-0.1-0.1-0.1-0.1,0c-0.3,1-1.1,1.9-2.1,2.4c-1.2,0.7-2.2,0.2-3.4-0.1c-0.1,0-0.1,0-0.1,0.1  c0.3,0.3,0.6,0.5,1,0.7c0,0,0,0,0,0c0,0.1-0.1,0.1-0.1,0.2c0,0.1-0.1,0.3-0.1,0.4c0,0,0,0.1,0,0.1c0,0,0,0,0,0.1  c0,0.1-0.1,0.1-0.1,0.2c-0.1,0.1-0.1,0.2-0.2,0.3c0,0,0,0.1,0,0.1c0,0,0,0,0,0c0,0.1,0,0.1,0,0.2c0,0,0.1,0.1,0.2,0.1  c0,0,0.1,0,0.1,0c0.1,0,0.1,0,0.2-0.1c0.2-0.2,0.4-0.5,0.5-0.8c0-0.1,0.1-0.3,0.1-0.5c0-0.1,0-0.1,0-0.2c0.3,0.1,0.5,0.1,0.8,0.1  c0,0,0,0.1,0,0.1c0,0.1,0,0.2-0.1,0.3c0,0.1,0,0.2,0,0.4c0,0.1,0,0.1,0,0.2c0,0.1,0,0.1,0.1,0.2c0.1,0.1,0.3,0.1,0.3,0  c0,0,0-0.1,0.1-0.1c0,0,0-0.1,0-0.1c0-0.1,0-0.1,0-0.2c0-0.1,0-0.2,0-0.3l0-0.3c0,0,0-0.1,0-0.1c0.5,0,1.1-0.1,1.5-0.3  C23.1,59.9,23.7,58.7,23.7,57.4z"></path>	<path d="M38.7,54.1c0,0,0.1,0.1,0.1,0.1c0,0,0.1,0.1,0.1,0.1c0,0,0.1,0,0.1,0c0.1,0,0.3-0.1,0.2-0.2c0-0.1-0.1-0.1-0.1-0.2  c0,0-0.1-0.1-0.1-0.1c-0.1-0.1-0.2-0.2-0.3-0.2c-0.1-0.1-0.2-0.1-0.3-0.2c0,0-0.1,0-0.1,0c0.2-0.2,0.3-0.4,0.5-0.7  c0,0.1,0.1,0.1,0.1,0.2c0.1,0.1,0.2,0.2,0.4,0.3c0.3,0.1,0.6,0.3,0.9,0.2c0.1,0,0.1,0,0.2-0.1c0,0,0.1,0,0.1,0  c0.1,0,0.1-0.1,0.1-0.2c0-0.1-0.1-0.1-0.1-0.1c0,0,0,0,0,0c0,0-0.1-0.1-0.1-0.1c-0.1,0-0.3,0-0.4-0.1c-0.1,0-0.1,0-0.2-0.1  c0,0-0.1,0-0.1,0c0,0-0.1,0-0.1,0c-0.1-0.1-0.2-0.1-0.3-0.2c-0.1,0-0.1-0.1-0.2-0.1c0,0,0,0,0,0c0.2-0.4,0.2-0.8,0.2-1.2  c0,0-0.1-0.1-0.1,0c-0.6,1.1-1,2.1-2.3,2.5c-1,0.3-2.2,0.3-3.2-0.2c-0.1,0-0.1,0-0.1,0.1c0.9,0.9,2.2,1.3,3.4,0.8  c0.5-0.2,0.9-0.5,1.3-0.9c0,0,0,0.1,0.1,0.1l0.2,0.2C38.6,54,38.7,54.1,38.7,54.1z"></path>	<circle class="sr5" cx="23.4" cy="66" r="2.5"></circle>	<path class="sr5" d="M40.9,56.4c-1.4,0-2.5,1.1-2.5,2.5c0,1.4,1.1,2.5,2.5,2.5c1.4,0,2.5-1.1,2.5-2.5  C43.4,57.5,42.3,56.4,40.9,56.4z"></path>	<path d="M33.3,61.8c-0.1,0-0.1,0-0.1,0.1c0,0.1,0,0.2,0.1,0.4c0,0.1,0,0.1,0,0.2c0,0,0,0.1,0,0c0,0,0,0.1,0,0.1  c0,0.2,0,0.4-0.2,0.6c0,0,0,0,0,0c0,0,0,0,0,0.1c0,0,0,0-0.1,0.1c0,0,0,0,0,0c0,0,0,0,0,0c0,0-0.1,0.1-0.1,0.1c0,0,0,0,0,0  c0,0,0,0,0,0c0,0,0,0,0,0c0,0-0.1,0-0.1,0c0,0-0.1,0-0.1,0c0,0,0,0,0,0c0,0,0,0,0,0c0,0,0,0,0,0c-0.1,0-0.1,0-0.2,0  c0,0-0.1,0-0.1,0c0,0-0.1,0-0.1,0c-0.1,0-0.1,0-0.2,0c-0.1,0-0.2-0.1-0.3-0.2c0,0-0.1-0.1-0.1-0.1c0,0-0.1-0.1-0.1-0.1  c0-0.1-0.1-0.1-0.2,0c-0.1,0-0.1,0.1-0.1,0.2c0,0.1,0,0.1,0,0.2c0,0.1,0.1,0.2,0.2,0.2c0.1,0.1,0.2,0.2,0.3,0.3  c0.3,0.1,0.6,0.2,0.9,0.1c0.6-0.1,1-0.7,1-1.3c0-0.2,0-0.3-0.1-0.5C33.6,62,33.4,61.8,33.3,61.8z"></path>	<path class="sr6" d="M98,32.7c-3.1-2.2-6.5-3.9-10.2-5.1c-3.6-1.2-7.4-2-11.2-2.3c-3.8-0.3-7.6-0.2-11.4,0.3  c-3.8,0.5-7.5,1.5-11,2.9c-3.5,1.4-6.9,3.1-9.8,5.5c-0.4,0.3-0.7,0.6-1.1,0.9c-0.1,0.1,0,0.2,0.1,0.2c1.5-1,3.2-1.9,4.8-2.8  c1.7-0.9,3.3-1.7,5.1-2.4c3.5-1.4,7.1-2.3,10.8-2.9c3.7-0.6,7.4-0.7,11.1-0.5c3.7,0.2,7.4,0.9,10.9,1.9c1.8,0.5,3.5,1.2,5.2,1.9  c1.7,0.7,3.4,1.5,5,2.4c0.4,0.2,0.8,0.4,1.2,0.7C98,33.6,98.3,33,98,32.7z"></path>	<path class="sr7" d="M36.9,41.3c1.2-3.5,2.6-6.9,4.5-10.1c1.9-3.1,4.1-6,6.7-8.6c2.7-2.6,5.8-4.9,9.1-6.7c3.5-1.8,7.3-3.1,11.2-3.8  c2.2-0.4,4.4-0.6,6.6-0.7c2.3-0.1,4.5,0.1,6.8,0.3c0.6,0,0.7-0.9,0.1-1c-2-0.5-4.1-0.6-6.2-0.6c-2.1,0-4.1,0.1-6.1,0.4  c-4.1,0.6-8,1.8-11.7,3.6c-6.9,3.3-12.8,8.7-16.8,15.4c-2.1,3.6-3.9,7.6-4.5,11.8C36.6,41.4,36.9,41.5,36.9,41.3z"></path></g></svg>