<svg xmlns="http://www.w3.org/2000/svg" xmlns:xlink="http://www.w3.org/1999/xlink" x="0px" y="0px" viewBox="0 0 100 100" style="enable-background:new 0 0 100 100;" xml:space="preserve"><style type="text/css">	.puz{fill:currentcolor;}</style><g>	<path class="puz" d="M55.3,38.8c-0.2,1.3-0.4,2.5-0.5,3.8c-0.1,1,0,2.1,0,3.1c0,2.2-1.8,3.7-4,3.3c-1.1-0.2-2.2-0.4-3.3-0.6  c-2.6-0.6-4-2.7-3.3-5.4c1-3.5,2.5-6.8,4.8-9.5c1.3-1.5,1.5-3.1,1.3-4.9c-0.3-4.2-0.7-8.4,0.8-12.4c2.4-6.6,7-11.3,13.9-13  C70.9,1.7,76.8,2,82,5.8c0.3,0.2,0.5,0.4,0.8,0.6c0.9,0.8,1.1,1.8,0.5,2.6c-0.6,0.8-1.6,1-2.6,0.3c-2-1.4-4.2-2.4-6.5-3  c-9.3-2.1-18.4,4.1-20,13.5c0,0.1,0,0.2,0,0.4c0.1,0.6,0.1,1.3,0.2,1.9c0.5-0.2,1.1-0.4,1.6-0.5c1-0.1,1.9-0.1,2.9-0.2  c1.7-0.1,3.5,0,5.2-0.3c1.7-0.3,3-1.5,4.1-2.9c1.5-2,3.6-2.1,5-0.1c2.1,2.8,5,3.8,8.3,3.4c1.7-0.2,3.3-0.4,4.8,0.5  c0.2,0.1,0.5,0.1,1,0.2c-0.1-0.8,0-1.6-0.2-2.3c-0.5-1.8-1.2-3.6-1.8-5.4c-0.1-0.2-0.2-0.4-0.3-0.6c-0.6-1.2-0.4-2.2,0.5-2.7  c1-0.6,2-0.2,2.7,0.9c1.4,2.2,2.4,4.6,2.5,7.2c0.2,3.4,0,6.8-0.1,10.1c-0.1,1.4,0.3,2.7,1.2,3.7c2.3,2.7,3.7,5.7,4.8,9  c1,3.2-0.2,5.4-3.6,6.1C92,48.6,91,48.8,90.1,49c-2.1,0.4-3.9-1-4-3.1c-0.1-1.4,0-2.8,0-4.1c0-0.9-0.3-1.8-0.7-2.8  c-0.2,0.3-0.4,0.6-0.5,0.9c-1.3,2.7-3.2,4.8-5.6,6.5c-0.5,0.3-0.9,0.8-1.2,1.3c-0.7,1.5-0.3,2.4,1.3,2.8c2,0.5,4,1,6,1.5  c5.6,1.4,8.8,4.1,9.5,10.8c0.8,8.1,1.7,16.1,2.5,24.2c0.2,1.6,0.2,3.3,0.1,5c-0.1,3.7-2.1,5.8-5.8,5.9c-7.8,0.1-15.7,0-23.5,0  c-1.2,0-1.9-0.5-1.9-1.5c0-1.1,0.7-1.8,2.1-1.8c4.4,0,8.8,0,13.2,0c0.3,0,0.6,0,0.9,0c0.7,0,1-0.3,1-1c-0.1-1.1-0.1-2.3-0.2-3.4  c-0.4-6.8-0.7-13.6-1.1-20.4c0-0.5-0.1-1.1,0.2-1.4c0.4-0.5,1.1-1,1.7-1.2c0.9-0.2,1.6,0.4,1.7,1.3c0.1,1.1,0.7,1.1,1.6,0.9  c1.1-0.3,2.2-0.5,3.2-0.7c0.7-0.2,1.1-0.5,1-1.3c-0.3-2.1-0.4-4.2-0.8-6.2c-0.5-2.9-2.5-4.3-5.3-5.2c-0.9-0.3-1,0.5-1.2,1.1  c-1.3,5.1-4.5,8.5-9.4,10.1c-7.8,2.6-16.2-2.1-18.3-10c-0.4-1.4-0.5-1.5-1.9-1c-2.8,1-4.5,2.9-4.8,5.9c-0.2,1.8-0.4,3.5-0.6,5.3  c-0.1,0.8,0.2,1.2,0.9,1.4c1.2,0.3,2.3,0.5,3.5,0.8c0.8,0.2,1.2,0,1.4-0.8c0.2-1,0.8-1.5,1.8-1.5c1,0,1.6,0.5,1.7,1.5  c0.1,1,0.1,2.1,0,3.1c-0.4,7.3-0.8,14.5-1.2,21.8c0,0.8,0.3,1.1,1,1.1c0.9,0,1.8,0,2.7,0c1.2,0,2.1,0.8,2.1,1.8  c0,0.9-0.8,1.5-2,1.5c-11.2,0-22.3,0-33.5,0c-1.3,0-1.9-0.5-1.9-1.4c0-1.1,0.7-1.8,2-1.9c4.3,0,8.5,0,12.8,0c1.7,0,1.8-0.1,1.7-1.7  c-0.4-7.4-0.8-14.8-1.2-22.3c0-0.6,0-1.1,0-1.7c0.1-1.2,0.6-1.8,1.8-1.8c1.1,0,1.7,0.6,1.8,1.8c0.1,0.7,0.1,1.4,0.4,2.1  c0.3-2.8,0.6-5.6,1-8.5c0.2-1.4,0.5-2.9,0.9-4.3c0.2-0.8,0.1-1.2-0.6-1.6c-1.9-1.2-2.3-1.1-3.7,0.6c-7.1,8.4-20.3,8.2-27.1-0.5  c-0.7-0.8-1.3-1-2.2-0.7c-2.6,1-4.1,2.9-4.5,5.5C8.5,65,8.2,68.5,7.8,72c-0.1,1,0.2,1.4,1.2,1.4c1.2,0,2.4,0,3.7,0  c0.9,0,1.3-0.4,1.3-1.3c0-1.1,0.1-2.2,0.2-3.3c0.1-1.2,0.8-1.9,1.8-1.9c1,0,1.8,0.8,1.7,2c-0.1,2.5-0.2,5.1-0.4,7.6  c-0.3,5.5-0.6,11-0.9,16.6c-0.1,0.9,0.3,1.4,1.3,1.4c1,0,2.1,0,3.1,0c1.2,0,2,0.8,2.1,1.8c0,1-0.7,1.5-2,1.5c-4.2,0-8.3,0-12.5,0  c-3.7,0-6.1-2.1-6-5.8c0.1-4.4,0.4-8.8,0.8-13.1c0.5-5.5,1.2-10.9,1.8-16.4c0.7-6,3-8.8,8.9-10.4c2.2-0.6,4.4-1.1,6.5-1.7  c0.6-0.2,1.4-0.1,1.4-1.1c0-1,0.2-2-0.9-2.7c-3.6-2.1-5.8-5.3-7-9.2c-0.3-0.9-0.3-1.9-0.5-2.8c-0.2-0.6-0.6-1.3-1.1-1.6  c-3.1-1.8-3.9-3.8-2.7-7.3c0.2-0.7,0.3-1.5,0.2-2.2c-0.2-4.5,0.7-8.8,3.3-12.5C17.3,5,23,2.5,30.1,2.4c9.5-0.1,18.8,8.1,18.6,19.2  c0,1.6,0.3,3.3,0.7,4.9c0.6,2.6-0.3,5-2.7,6.2c-1,0.5-1.5,1.2-1.6,2.4c-0.5,4.9-3,8.7-7.1,11.3c-1.1,0.7-1.2,1.7-1.1,2.8  c0.1,1.1,1,1.1,1.7,1.3c2.6,0.7,5.3,1.3,7.9,2.1c1.2,0.4,2.3,1.5,3.5,1.5c1.1,0,2.2-1.1,3.4-1.5c2.7-0.8,5.5-1.4,8.2-2.2  c0.5-0.1,1.2-0.6,1.3-1c0.2-0.8,0.4-1.9-0.6-2.5c-3.1-1.9-5.4-4.6-6.8-8C55.5,38.7,55.4,38.8,55.3,38.8z M70.5,20.3  c-1.5,2-3.3,3.5-5.6,3.9c-2,0.4-4,0.4-6,0.5c-0.6,0-1.1-0.1-1,0.7c0.1,3.2-0.1,6.4,0.3,9.6c0.7,6.4,6.4,10.8,13.2,10.6  c6-0.2,11.3-5.2,11.7-11.3c0.2-2.9,0.1-5.8,0.2-8.6c0-0.9-0.5-1.1-1.2-1C77.5,25.2,73.5,24.2,70.5,20.3z M16.8,25.4  c0,2.8-0.1,5.5,0,8.2c0.2,6.4,5.3,11.6,12,12c5.5,0.3,11.8-3.4,12.9-10c0.5-3.4,0.3-6.8,0.4-10.3c0-0.3-0.4-0.7-0.7-0.9  c-1.1-0.8-2.2-1.5-3.3-2.3c-0.8-0.7-1.4-1.6-2.1-2.4C30.9,25.9,24.2,26.8,16.8,25.4z M45.4,23.1c0-0.2,0.1-0.4,0.1-0.6  c0.2-6.4-2.4-11.4-7.8-14.7c-5.4-3.3-11-3.2-16.4-0.1c-5.5,3.1-7.9,8.2-8,14.4c0,1.1,0.3,1.2,1.3,0.8c0.9-0.3,1.9-0.4,2.8-0.4  c1.1,0.1,2.2,0.5,3.3,0.5c5.4,0.3,10.3-0.9,13.4-5.9c1.1-1.7,3.3-1.5,4.2,0.4c1.4,2.9,4.2,4,6.7,5.5C45,23.2,45.2,23.1,45.4,23.1z   M54.8,83.7c0.2-3.2,0.3-6.4,0.5-9.6c0-0.6,0.1-1.2-0.8-1.3c-1.7-0.3-3.4-0.8-5.1-1.1c-0.7-0.1-1.1,0.1-1.1,0.8  c-0.1,1-0.2,2-0.3,3.1c-0.5,5-1.1,10-1.6,15.1c-0.2,2.4,0.9,3.9,3.3,4.2c1.1,0.1,2.3,0,3.4,0.1c0.8,0,1.1-0.3,1.1-1.1  C54.4,90.4,54.6,87,54.8,83.7z M86.6,90.9c0,0.9,0,1.7,0,2.6c0,0.9,0.4,1.4,1.4,1.3c0.9-0.1,1.8,0,2.7-0.1c2.7-0.2,4.1-1.7,3.9-4.4  c-0.6-6-1.3-11.9-2-17.9c-0.1-0.8-0.4-1.1-1.2-0.9c-1.5,0.4-3.1,0.8-4.6,1.1c-0.9,0.2-1.1,0.6-1.1,1.5  C86.1,79.7,86.3,85.3,86.6,90.9z M13.8,81C13.8,81,13.8,81,13.8,81c0.1-1.1,0.1-2.2,0.2-3.3c0.1-0.8-0.2-1.2-1-1.1  c-1.7,0-3.3,0-5,0c-0.9,0-1.2,0.4-1.3,1.2c-0.1,1.4-0.3,2.8-0.5,4.2c-0.3,2.9-0.7,5.9-0.9,8.8c-0.2,2.5,1.1,3.8,3.6,4  c0.8,0.1,1.7,0,2.5,0c1.6,0,1.7,0,1.7-1.6C13.4,89.2,13.6,85.1,13.8,81z M74.7,48c-0.7,0.1-1.1,0.2-1.5,0.2c-1.7,0-3.5,0.1-5.2-0.1  c-1.7-0.2-1.9-0.2-1.8,1.5c0.1,1.1,0.2,2.3-0.9,2.9c-1.2,0.7-1.1,1.5-0.8,2.6c0.8,3,3.6,5,6.8,4.6c2.9-0.3,5.3-2.9,5.3-5.6  c0-0.4-0.3-1-0.7-1.3c-0.8-0.5-1.2-1.2-1.2-2.2C74.7,49.9,74.7,49,74.7,48z M35.2,53c-1.7-0.7-1.7-2.2-1.6-3.7  c0.1-1-0.2-1.2-1.2-1.1c-2,0.1-4,0.1-6,0c-1-0.1-1.4,0.1-1.2,1.1c0.2,1.6,0,3-1.6,3.8C26.3,56.1,32.9,56.1,35.2,53z M79.6,53.9  c0,0.3-0.1,0.4-0.1,0.6c-0.5,4.5-4.1,7.9-8.5,8c-4.8,0.1-8.6-2.9-9.3-7.5c-0.1-0.5,0.1-1.4-0.9-1.3c-1,0.2-1.2,0.8-1,1.7  c0.1,0.3,0.1,0.5,0.2,0.8c1.4,4.8,5.7,8.1,10.6,8.1c5.1,0,9.4-3.5,10.7-8.5C81.7,54.3,81.5,54.1,79.6,53.9z M40.7,54.5  c-1.2-0.7-1.8-0.8-2.6,0.1c-4.4,4.6-12.5,5-17.2,0c-0.8-0.8-1.6-0.7-2.7-0.1c2.9,3.7,6.6,5.6,11.2,5.6  C33.9,60.1,37.8,58.2,40.7,54.5z M51.5,35.2c-1.1,2.2-2.4,4.3-3.4,6.6c-1.3,3.1-1.2,3.1,2.1,3.7c1.4,0.3,1.5,0.2,1.4-1.3  c-0.2-2.4-0.1-4.8,0.9-7.1C53,36.2,52.9,35.7,51.5,35.2z M89.1,35.3c-0.8,0.4-1.3,0.7-0.9,1.6c1,2.1,1.2,4.4,1.1,6.7  c0,0.7,0,1.4,0,2.1c1-0.2,1.9-0.4,2.7-0.5c1.5-0.3,1.6-0.6,1.2-2C92.4,40.4,91,37.7,89.1,35.3z M86.1,29.1c0.1,0.1,0.3,0.2,0.4,0.3  c0.4-0.6,0.9-1.1,1-1.7c0.2-0.9-0.4-1.6-1.4-2C86.1,26.8,86.1,27.9,86.1,29.1z M44.9,30c1.1-0.5,1.6-1.2,1.4-2.2  c-0.1-0.7-0.5-1.4-1.4-1.4C44.9,27.5,44.9,28.6,44.9,30z M13.9,26.1c-1.1,0.5-1.6,1.2-1.5,2.1c0.1,0.8,0.5,1.4,1.5,1.6  C13.9,28.6,13.9,27.5,13.9,26.1z M54.9,29.2c0-1.3,0-2.4,0-3.5c-0.1-0.1-0.3-0.1-0.4-0.2c-0.3,0.6-0.8,1.1-0.9,1.8  C53.4,28.2,53.9,28.8,54.9,29.2z M86.4,33.8c0.3-0.5,0.7-1,1-1.5C86.3,32.2,85.7,32.5,86.4,33.8z"></path></g></svg>