<svg xmlns="http://www.w3.org/2000/svg" id="Capa_1" height="512" viewBox="0 0 512 512" width="512"><g><g><path d="m59.472 482.951c-.745 0-1.496-.033-2.253-.1-13.826-1.228-24.039-13.433-22.811-27.26l32.982-371.223.034-.298c2.828-25.051 23.974-43.941 49.184-43.941h279.476c25.361 0 46.519 19.015 49.217 44.231l.051.531 31.72 370.783c1.183 13.831-9.07 26.002-22.901 27.185-13.826 1.183-26.001-9.07-27.185-22.901l-30.893-361.123c-.408-4.772-4.401-8.438-9.191-8.438h-261.139c-4.778 0-8.766 3.649-9.189 8.409l-32.094 361.234c-1.162 13.069-12.132 22.911-25.008 22.911z" fill="#ef8bbd"></path><g><path d="m477.072 455.673-31.72-370.783-.051-.531c-2.698-25.216-23.856-44.231-49.217-44.231h-32.99v4.218c19.605 2.152 35.366 18.042 37.508 38.651l.044.467 27.105 326.16c.448 5.386-1.022 10.483-3.823 14.585l3.058 35.748c1.184 13.83 13.359 24.083 27.185 22.901 13.831-1.183 24.084-13.354 22.901-27.185z" fill="#e068bd"></path></g><g fill="#fef2a8"><path d="m159.804 34.759h57.645v55.638h-57.645z"></path><path d="m294.023 34.759h57.645v55.638h-57.645z"></path><path d="m84.17 501.946h-51.049c-11.294 0-20.45-9.156-20.45-20.45v-14.821c0-11.294 9.156-20.45 20.45-20.45h51.049c11.294 0 20.45 9.156 20.45 20.45v14.821c0 11.294-9.156 20.45-20.45 20.45z"></path><path d="m478.878 501.946h-51.048c-11.294 0-20.45-9.156-20.45-20.45v-14.821c0-11.294 9.156-20.45 20.45-20.45h51.048c11.294 0 20.45 9.156 20.45 20.45v14.821c0 11.294-9.156 20.45-20.45 20.45z"></path></g><path d="m322.846 373.09h-134.219l7.79-110.888c.773-11.005 9.926-19.538 20.958-19.538h75.957c10.977 0 20.104 8.45 20.948 19.394z" fill="#8bb6ef"></path><path d="m322.608 401.79h-133.744c-10.65 0-19.283-8.633-19.283-19.282v-7.952c0-10.649 8.633-19.283 19.283-19.283h133.744c10.649 0 19.283 8.633 19.283 19.283v7.952c0 10.649-8.633 19.282-19.283 19.282z" fill="#8bb6ef"></path><path d="m322.608 401.79h-133.744c-10.65 0-19.283-8.633-19.283-19.282v-7.952c0-10.649 8.633-19.283 19.283-19.283h133.744c10.649 0 19.283 8.633 19.283 19.283v7.952c0 10.649-8.633 19.282-19.283 19.282z" fill="#8388ef"></path><path d="m277.145 261.424 5.346 90.167c1.553-.052 3.136.131 4.577.661h34.17l-6.958-90.194c-.844-10.944-9.971-19.394-20.948-19.394h-31.002v.047c7.816.49 14.207 8.457 14.815 18.713z" fill="#8388ef"></path></g><g><path d="m485.557 436.917-30.189-352.884-.072-.744c-3.246-30.338-28.702-53.215-59.213-53.215h-279.475c-30.332 0-55.771 22.728-59.172 52.843l-.049.429-31.424 353.681c-13.376 3.23-23.346 15.293-23.346 29.647v14.822c0 16.82 13.684 30.504 30.504 30.504h51.049c16.82 0 30.504-13.684 30.504-30.504v-14.822c0-12.447-7.498-23.171-18.211-27.908l30.057-338.316h52.053v246.637c-11.114 4.177-19.045 14.912-19.045 27.468v7.952c0 16.176 13.16 29.336 29.336 29.336h133.744c16.176 0 29.336-13.16 29.336-29.336v-7.952c0-12.556-7.931-23.291-19.045-27.468v-246.637h53.24l28.959 338.515c-10.479 4.834-17.773 15.433-17.773 27.709v14.822c0 16.82 13.683 30.504 30.504 30.504h51.049c16.819 0 30.504-13.684 30.504-30.504v-14.822c0-14.525-10.208-26.703-23.825-29.757zm-315.699-356.574v-30.161h37.538v30.161zm57.645-30.161h56.466v30.161h-56.466zm76.574 0h37.537v30.161h-37.537zm-209.511 431.314c0 5.733-4.664 10.396-10.396 10.396h-51.049c-5.733 0-10.396-4.664-10.396-10.396v-14.822c0-5.733 4.664-10.396 10.396-10.396h51.049c5.733 0 10.396 4.664 10.396 10.396zm31.196-401.153c-10.057 0-18.313 7.555-19.203 17.573l-30.053 338.255h-30.28l31.166-350.781.022-.192c2.254-19.963 19.104-35.016 39.195-35.016h33.143v30.161zm206.075 302.165c0 5.089-4.14 9.229-9.229 9.229h-133.743c-5.089 0-9.229-4.14-9.229-9.229v-7.952c0-5.089 4.14-9.229 9.229-9.229h133.744c5.089 0 9.229 4.14 9.229 9.229v7.952zm-131.174-37.288 5.782-82.314c.4-5.713 5.201-10.188 10.929-10.188h75.957c5.688 0 10.487 4.443 10.924 10.113l6.357 82.388h-109.949zm112.129-105.683c-5.358-4.33-12.147-6.927-19.46-6.927h-75.957c-6.979 0-13.468 2.348-18.694 6.306v-138.466h114.112v139.087zm74.11-159.194h-25.18v-30.161h34.362c20.193 0 37.043 15.129 39.215 35.2l.04.425 29.973 350.365h-30.271l-28.931-338.194c-.861-10.054-9.118-17.635-19.208-17.635zm102.373 401.153c0 5.733-4.664 10.396-10.396 10.396h-51.049c-5.733 0-10.396-4.664-10.396-10.396v-14.822c0-5.733 4.664-10.396 10.396-10.396h51.049c5.733 0 10.396 4.664 10.396 10.396z" fill="#440a29"></path><path d="m225.844 313.139c-.163 0-.327-.004-.492-.012-5.545-.267-9.825-4.98-9.558-10.525l1.222-25.378c.267-5.546 4.951-9.823 10.526-9.558 5.545.267 9.825 4.98 9.558 10.525l-1.222 25.378c-.259 5.381-4.704 9.57-10.034 9.57z" fill="#fff"></path></g><g><ellipse cx="39.214" cy="18.646" fill="#ef8bbd" rx="18.646" ry="18.646" transform="matrix(.083 -.997 .997 .083 17.397 56.189)"></ellipse><circle cx="19.254" cy="110.15" fill="#ef8bbd" r="7.896"></circle><path d="m483.63 1.887 6.334 17.811c.271.762.808 1.367 1.486 1.672l15.825 7.13c2.236 1.007 2.236 4.569 0 5.577l-15.825 7.13c-.678.305-1.214.91-1.486 1.672l-6.334 17.811c-.895 2.516-4.06 2.516-4.955 0l-6.335-17.812c-.271-.763-.808-1.367-1.486-1.672l-15.825-7.13c-2.236-1.007-2.236-4.569 0-5.577l15.825-7.13c.678-.305 1.215-.91 1.486-1.672l6.335-17.811c.895-2.515 4.06-2.515 4.955.001z" fill="#f7c4db"></path></g></g></svg>