<svg xmlns="http://www.w3.org/2000/svg" xmlns:xlink="http://www.w3.org/1999/xlink" x="0px" y="0px" viewBox="0 0 100 100" style="enable-background:new 0 0 100 100;" xml:space="preserve"><g>	<polyline style="fill:none;stroke:currentColor;stroke-width:3;stroke-miterlimit:10;" points="10.3,77.6 2,77.6 2,69.1 10.3,69.1  "></polyline>	<line style="fill:none;stroke:currentColor;stroke-width:3;stroke-miterlimit:10;" x1="39.1" y1="69.1" x2="59.8" y2="69.1"></line>	<line style="fill:none;stroke:currentColor;stroke-width:3;stroke-miterlimit:10;" x1="59.8" y1="77.6" x2="39.1" y2="77.6"></line>	<path style="fill:none;stroke:currentColor;stroke-width:3;stroke-miterlimit:10;" d="M39.1,73.4c0,1.5-0.2,2.9-0.6,4.2  c-1.8,6.1-7.3,10.6-13.8,10.6s-12.1-4.5-13.8-10.6c-0.4-1.3-0.6-2.8-0.6-4.2c0-1.5,0.2-2.9,0.6-4.2c1.8-6.1,7.3-10.6,13.8-10.6  S36.8,63,38.6,69.1C38.9,70.4,39.1,71.9,39.1,73.4z"></path>	<path style="fill:none;stroke:currentColor;stroke-width:3;stroke-miterlimit:10;" d="M88.7,73.4c0,1.5-0.2,2.9-0.6,4.2  c-1.8,6.1-7.3,10.6-13.8,10.6c-6.6,0-12.1-4.5-13.8-10.6c-0.4-1.3-0.6-2.8-0.6-4.2c0-1.5,0.2-2.9,0.6-4.2  c1.8-6.1,7.3-10.6,13.8-10.6c6.6,0,12.1,4.5,13.8,10.6C88.5,70.4,88.7,71.9,88.7,73.4z"></path>	<path style="fill:none;stroke:currentColor;stroke-width:3;stroke-miterlimit:10;" d="M28.8,73.4c0,0.4-0.1,0.8-0.2,1.2  c-0.5,1.8-2.1,3-4,3c-1.9,0-3.4-1.3-4-3c-0.1-0.4-0.2-0.8-0.2-1.2c0-0.4,0.1-0.8,0.2-1.2c0.5-1.8,2.1-3,4-3c1.9,0,3.4,1.3,4,3  C28.8,72.5,28.8,72.9,28.8,73.4z"></path>	<path style="fill:none;stroke:currentColor;stroke-width:3;stroke-miterlimit:10;" d="M78.4,73.4c0,0.4-0.1,0.8-0.2,1.2  c-0.5,1.8-2.1,3-4,3c-1.9,0-3.4-1.3-4-3c-0.1-0.4-0.2-0.8-0.2-1.2c0-0.4,0.1-0.8,0.2-1.2c0.5-1.8,2.1-3,4-3c1.9,0,3.4,1.3,4,3  C78.3,72.5,78.4,72.9,78.4,73.4z"></path>	<path style="fill:none;stroke:currentColor;stroke-width:3;stroke-miterlimit:10;" d="M59.8,37.3h-33c-9.1,0-16.5,7.6-16.5,17v14.9"></path>	<path style="fill:none;stroke:currentColor;stroke-width:3;stroke-miterlimit:10;" d="M59.8,69.1V11.8h28.9v12.7c-3.4,0-6.2,2.9-6.2,6.4  v10.6c0,3.5,2.8,6.4,6.2,6.4v21.2h8.3v8.5h-8.3"></path>	<line style="fill:none;stroke:currentColor;stroke-width:3;stroke-miterlimit:10;" x1="99" y1="11.8" x2="88.7" y2="11.8"></line>	<polyline style="fill:none;stroke:currentColor;stroke-width:3;stroke-miterlimit:10;" points="30.9,37.3 26.8,16 43.3,16 39.1,37.3    "></polyline>	<path style="fill:none;stroke:currentColor;stroke-width:3;stroke-miterlimit:10;" d="M59.8,37.3H66c2.3,0,4.1-1.9,4.1-4.2v-4.2  c0-2.3-1.8-4.2-4.1-4.2h-6.2"></path></g></svg>