<svg xmlns="http://www.w3.org/2000/svg" xmlns:xlink="http://www.w3.org/1999/xlink" x="0px" y="0px" viewBox="0 0 75.149 49.076" style="enable-background:new 0 0 75.149 49.076;" xml:space="preserve">	<path d="M22.904,0c2.673,0,5.345,0.829,7.834,2.486c4.345,2.894,9.328,2.894,13.673,0  c4.978-3.315,10.688-3.315,15.667,0c4.345,2.894,9.329,2.894,13.674,0c0.413-0.274,0.971-0.163,1.246,0.25  c0.275,0.413,0.164,0.972-0.25,1.247c-4.978,3.316-10.689,3.316-15.666,0c-4.346-2.894-9.329-2.893-13.674,0  c-4.979,3.316-10.689,3.316-15.667,0c-4.345-2.893-9.329-2.893-13.674,0c-4.978,3.316-10.688,3.315-15.666,0  c-0.414-0.275-0.525-0.834-0.25-1.247c0.275-0.413,0.834-0.523,1.246-0.25c4.345,2.893,9.328,2.894,13.674,0  C17.56,0.829,20.232,0,22.904,0"></path>	<path d="M22.904,14.202c2.673,0,5.345,0.829,7.834,2.486c4.345,2.894,9.328,2.894,13.673,0  c4.978-3.315,10.688-3.315,15.667,0c4.345,2.894,9.329,2.894,13.674,0c0.413-0.274,0.971-0.163,1.246,0.25  c0.275,0.413,0.164,0.972-0.25,1.247c-4.978,3.316-10.689,3.316-15.666,0c-4.346-2.894-9.329-2.893-13.674,0  c-4.979,3.316-10.689,3.316-15.667,0c-4.345-2.893-9.329-2.893-13.674,0c-4.978,3.316-10.688,3.315-15.666,0  c-0.414-0.275-0.525-0.834-0.25-1.247c0.275-0.413,0.834-0.524,1.246-0.25c4.345,2.893,9.328,2.894,13.674,0  C17.56,15.031,20.232,14.202,22.904,14.202"></path>	<path d="M22.904,28.404c2.673,0,5.345,0.829,7.834,2.486c4.345,2.894,9.328,2.894,13.673,0  c4.978-3.315,10.688-3.315,15.667,0c4.345,2.893,9.329,2.893,13.674,0c0.413-0.274,0.971-0.163,1.246,0.25  c0.275,0.413,0.164,0.972-0.25,1.247c-4.978,3.316-10.689,3.316-15.666,0c-4.346-2.894-9.329-2.893-13.674,0  c-4.979,3.316-10.689,3.316-15.667,0c-4.345-2.893-9.329-2.893-13.674,0c-4.978,3.316-10.688,3.315-15.666,0  c-0.414-0.275-0.525-0.834-0.25-1.247s0.834-0.524,1.246-0.25c4.345,2.893,9.328,2.893,13.674,0  C17.56,29.233,20.232,28.404,22.904,28.404"></path>	<path d="M22.904,42.606c2.673,0,5.345,0.829,7.834,2.486c4.345,2.894,9.328,2.894,13.673,0  c4.978-3.315,10.688-3.315,15.667,0c4.345,2.893,9.329,2.893,13.674,0c0.413-0.274,0.971-0.163,1.246,0.25  c0.275,0.413,0.164,0.972-0.25,1.246c-4.978,3.316-10.689,3.316-15.666,0c-4.346-2.893-9.329-2.892-13.674,0  c-4.979,3.316-10.689,3.316-15.667,0c-4.345-2.892-9.329-2.892-13.674,0c-4.978,3.316-10.688,3.316-15.666,0  c-0.414-0.274-0.525-0.833-0.25-1.246c0.275-0.413,0.834-0.524,1.246-0.25c4.345,2.893,9.328,2.893,13.674,0  C17.56,43.435,20.232,42.606,22.904,42.606"></path></svg>